<svg width="130" height="129" viewBox="0 0 130 129" fill="none" xmlns="http://www.w3.org/2000/svg">
    <rect width="8.65906" height="79.1304" transform="matrix(0.850422 -0.526101 0.474345 0.880339 12.8223 -1.84912)" fill="url(#paint0_linear_75_11092)"/>
    <rect width="8.65906" height="79.1304" transform="matrix(0.850422 -0.526101 0.474345 0.880339 32.0127 -13.7217)" fill="url(#paint1_linear_75_11092)"/>
    <rect width="13.907" height="79.1304" transform="matrix(0.850422 -0.526101 0.474345 0.880339 20.1865 -6.40479)" fill="url(#paint2_linear_75_11092)"/>
    <rect width="8.65906" height="79.1304" transform="matrix(-0.850422 -0.526101 -0.474345 0.880339 121.863 -1.84961)" fill="url(#paint3_linear_75_11092)"/>
    <rect width="8.65906" height="79.1304" transform="matrix(-0.850422 -0.526101 -0.474345 0.880339 102.673 -13.7217)" fill="url(#paint4_linear_75_11092)"/>
    <rect width="13.907" height="79.1304" transform="matrix(-0.850422 -0.526101 -0.474345 0.880339 114.5 -6.40527)" fill="url(#paint5_linear_75_11092)"/>
    <path d="M65.0352 94.7097L86.0234 94.7097L65.0352 128.466L65.0352 94.7097Z" fill="url(#paint6_linear_75_11092)"/>
    <path d="M65.0351 94.7097L44.0469 94.7097L65.0351 128.466L65.0351 94.7097Z" fill="url(#paint7_linear_75_11092)"/>
    <path d="M52.166 82.4665L70.3424 92.9607L35.288 111.7L52.166 82.4665Z" fill="url(#paint8_linear_75_11092)"/>
    <path d="M52.1662 82.466L33.9899 71.9719L35.2882 111.7L52.1662 82.466Z" fill="url(#paint9_linear_75_11092)"/>
    <path d="M77.9648 82.4665L59.7884 92.9607L94.8429 111.7L77.9648 82.4665Z" fill="url(#paint10_linear_75_11092)"/>
    <path d="M77.9646 82.4665L96.141 71.9724L94.8427 111.7L77.9646 82.4665Z" fill="url(#paint11_linear_75_11092)"/>
    <path d="M83.3741 69.4362L68.5332 54.5953L107.243 45.567L83.3741 69.4362Z" fill="url(#paint12_linear_75_11092)"/>
    <path d="M83.3744 69.4364L98.2153 84.2774L107.244 45.5673L83.3744 69.4364Z" fill="url(#paint13_linear_75_11092)"/>
    <path d="M48.476 69.4054L63.3169 54.5645L24.6068 45.5363L48.476 69.4054Z" fill="url(#paint14_linear_75_11092)"/>
    <path d="M48.4762 69.4057L33.6353 84.2466L24.6071 45.5365L48.4762 69.4057Z" fill="url(#paint15_linear_75_11092)"/>
    <path d="M17.2549 81.0498H67.1479V95.8665H24.9656L17.2549 81.0498Z" fill="url(#paint16_linear_75_11092)"/>
    <path d="M18.918 84.2246H68.811L67.1479 95.8663H24.9656L18.918 84.2246Z" fill="url(#paint17_linear_75_11092)"/>
    <path d="M9.69482 75.002H59.5878V89.8187H17.4056L9.69482 75.002Z" fill="url(#paint18_linear_75_11092)"/>
    <path d="M11.3579 78.1772H61.2509L59.5878 89.8189H17.4055L11.3579 78.1772Z" fill="url(#paint19_linear_75_11092)"/>
    <path d="M0.321289 65.3257H50.2143V80.1424H8.03202L0.321289 65.3257Z" fill="url(#paint20_linear_75_11092)"/>
    <path d="M1.98438 68.501H51.8774L50.2143 80.1427H8.03201L1.98438 68.501Z" fill="url(#paint21_linear_75_11092)"/>
    <path d="M112.958 81.0498H63.0655V95.8665H105.248L112.958 81.0498Z" fill="url(#paint22_linear_75_11092)"/>
    <path d="M111.295 84.2246H61.4019L63.065 95.8663H105.247L111.295 84.2246Z" fill="url(#paint23_linear_75_11092)"/>
    <path d="M120.518 75.002H70.6251V89.8187H112.807L120.518 75.002Z" fill="url(#paint24_linear_75_11092)"/>
    <path d="M118.855 78.1772H68.9625L70.6256 89.8189H112.808L118.855 78.1772Z" fill="url(#paint25_linear_75_11092)"/>
    <path d="M129.892 65.3257H79.9986V80.1424H122.181L129.892 65.3257Z" fill="url(#paint26_linear_75_11092)"/>
    <path d="M128.229 68.501H78.3355L79.9986 80.1427H122.181L128.229 68.501Z" fill="url(#paint27_linear_75_11092)"/>
    <circle cx="65.9375" cy="72.7398" r="40.7096" fill="url(#paint28_linear_75_11092)" stroke="url(#paint29_linear_75_11092)" stroke-width="1.43333"/>
    <circle cx="65.9379" cy="72.7396" r="27.7985" stroke="url(#paint30_linear_75_11092)" stroke-width="3.58333"/>
    <g filter="url(#filter0_ii_75_11092)">
        <circle cx="65.9381" cy="72.7398" r="26.3072" fill="url(#paint31_linear_75_11092)"/>
    </g>
    <g filter="url(#filter1_d_75_11092)">
        <path d="M63.2891 55.3989C64.3857 53.4535 67.1872 53.4535 68.2837 55.3989L72.1006 62.1706C72.5096 62.8964 73.2142 63.4083 74.0309 63.5731L81.6506 65.1105C83.8397 65.5522 84.7054 68.2166 83.1941 69.8607L77.9332 75.5833C77.3694 76.1966 77.1003 77.0249 77.1959 77.8525L78.0884 85.5744C78.3447 87.7928 76.0783 89.4395 74.0476 88.5102L66.9794 85.2752C66.2219 84.9285 65.351 84.9285 64.5934 85.2752L57.5252 88.5102C55.4946 89.4395 53.2281 87.7928 53.4845 85.5744L54.377 77.8525C54.4726 77.0249 54.2035 76.1966 53.6397 75.5833L48.3788 69.8607C46.8674 68.2166 47.7332 65.5522 49.9222 65.1105L57.542 63.5731C58.3587 63.4083 59.0632 62.8964 59.4723 62.1706L63.2891 55.3989Z" fill="url(#paint32_angular_75_11092)"/>
    </g>
    <defs>
        <filter id="filter0_ii_75_11092" x="39.6309" y="44.641" width="52.6143" height="56.1976" filterUnits="userSpaceOnUse" color-interpolation-filters="sRGB">
            <feFlood flood-opacity="0" result="BackgroundImageFix"/>
            <feBlend mode="normal" in="SourceGraphic" in2="BackgroundImageFix" result="shape"/>
            <feColorMatrix in="SourceAlpha" type="matrix" values="0 0 0 0 0 0 0 0 0 0 0 0 0 0 0 0 0 0 127 0" result="hardAlpha"/>
            <feOffset dy="1.79167"/>
            <feGaussianBlur stdDeviation="3.58333"/>
            <feComposite in2="hardAlpha" operator="arithmetic" k2="-1" k3="1"/>
            <feColorMatrix type="matrix" values="0 0 0 0 1 0 0 0 0 0.24 0 0 0 0 0 0 0 0 1 0"/>
            <feBlend mode="normal" in2="shape" result="effect1_innerShadow_75_11092"/>
            <feColorMatrix in="SourceAlpha" type="matrix" values="0 0 0 0 0 0 0 0 0 0 0 0 0 0 0 0 0 0 127 0" result="hardAlpha"/>
            <feOffset dy="-1.79167"/>
            <feGaussianBlur stdDeviation="3.58333"/>
            <feComposite in2="hardAlpha" operator="arithmetic" k2="-1" k3="1"/>
            <feColorMatrix type="matrix" values="0 0 0 0 0.9 0 0 0 0 0 0 0 0 0 0 0 0 0 1 0"/>
            <feBlend mode="normal" in2="effect1_innerShadow_75_11092" result="effect2_innerShadow_75_11092"/>
        </filter>
        <filter id="filter1_d_75_11092" x="40.4535" y="50.3566" width="50.6659" height="49.1683" filterUnits="userSpaceOnUse" color-interpolation-filters="sRGB">
            <feFlood flood-opacity="0" result="BackgroundImageFix"/>
            <feColorMatrix in="SourceAlpha" type="matrix" values="0 0 0 0 0 0 0 0 0 0 0 0 0 0 0 0 0 0 127 0" result="hardAlpha"/>
            <feOffset dy="3.58333"/>
            <feGaussianBlur stdDeviation="3.58333"/>
            <feComposite in2="hardAlpha" operator="out"/>
            <feColorMatrix type="matrix" values="0 0 0 0 0.7125 0 0 0 0 0 0 0 0 0 0 0 0 0 0.55 0"/>
            <feBlend mode="normal" in2="BackgroundImageFix" result="effect1_dropShadow_75_11092"/>
            <feBlend mode="normal" in="SourceGraphic" in2="effect1_dropShadow_75_11092" result="shape"/>
        </filter>
        <linearGradient id="paint0_linear_75_11092" x1="-0.24867" y1="33.0568" x2="8.94498" y2="32.9909" gradientUnits="userSpaceOnUse">
            <stop stop-color="#FFB545"/>
            <stop offset="1" stop-color="#FFD464"/>
            <stop offset="1" stop-color="#FFEAB4"/>
        </linearGradient>
        <linearGradient id="paint1_linear_75_11092" x1="8.60557" y1="37.9229" x2="-0.148093" y2="37.5175" gradientUnits="userSpaceOnUse">
            <stop stop-color="#FF9330"/>
            <stop offset="1" stop-color="#FFBB36"/>
        </linearGradient>
        <linearGradient id="paint2_linear_75_11092" x1="-0.970541" y1="6.71499" x2="9.89452" y2="60.6988" gradientUnits="userSpaceOnUse">
            <stop stop-color="#FFDE67"/>
            <stop offset="1" stop-color="white"/>
        </linearGradient>
        <linearGradient id="paint3_linear_75_11092" x1="-0.24867" y1="33.0568" x2="8.94498" y2="32.9909" gradientUnits="userSpaceOnUse">
            <stop stop-color="#FFB545"/>
            <stop offset="1" stop-color="#FFD464"/>
            <stop offset="1" stop-color="#FFEAB4"/>
        </linearGradient>
        <linearGradient id="paint4_linear_75_11092" x1="8.60557" y1="37.9229" x2="-0.148093" y2="37.5175" gradientUnits="userSpaceOnUse">
            <stop stop-color="#FF9330"/>
            <stop offset="1" stop-color="#FFBB36"/>
        </linearGradient>
        <linearGradient id="paint5_linear_75_11092" x1="-0.970541" y1="6.71499" x2="9.89452" y2="60.6988" gradientUnits="userSpaceOnUse">
            <stop stop-color="#FFDE67"/>
            <stop offset="1" stop-color="white"/>
        </linearGradient>
        <linearGradient id="paint6_linear_75_11092" x1="75.5293" y1="128.466" x2="75.5293" y2="94.7097" gradientUnits="userSpaceOnUse">
            <stop stop-color="#FFF962"/>
            <stop offset="1" stop-color="#FF7A00"/>
        </linearGradient>
        <linearGradient id="paint7_linear_75_11092" x1="65.0351" y1="116.048" x2="60.6626" y2="123.918" gradientUnits="userSpaceOnUse">
            <stop stop-color="#FF922D"/>
            <stop offset="1" stop-color="#FFC01F"/>
        </linearGradient>
        <linearGradient id="paint8_linear_75_11092" x1="44.3762" y1="116.947" x2="61.2542" y2="87.7136" gradientUnits="userSpaceOnUse">
            <stop stop-color="#FFF962"/>
            <stop offset="1" stop-color="#FF7A00"/>
        </linearGradient>
        <linearGradient id="paint9_linear_75_11092" x1="35.3058" y1="93.1296" x2="37.9992" y2="107.004" gradientUnits="userSpaceOnUse">
            <stop stop-color="#FFE27B"/>
            <stop offset="1" stop-color="#FFC01F"/>
        </linearGradient>
        <linearGradient id="paint10_linear_75_11092" x1="85.7547" y1="116.947" x2="68.8766" y2="87.7136" gradientUnits="userSpaceOnUse">
            <stop stop-color="#FFF962"/>
            <stop offset="1" stop-color="#FF7A00"/>
        </linearGradient>
        <linearGradient id="paint11_linear_75_11092" x1="94.8251" y1="93.1301" x2="92.1317" y2="107.005" gradientUnits="userSpaceOnUse">
            <stop stop-color="#FFE27B"/>
            <stop offset="1" stop-color="#FFC01F"/>
        </linearGradient>
        <linearGradient id="paint12_linear_75_11092" x1="107.361" y1="46.0865" x2="96.8673" y2="48.0104" gradientUnits="userSpaceOnUse">
            <stop stop-color="#FFF962"/>
            <stop offset="1" stop-color="#FF7A00"/>
        </linearGradient>
        <linearGradient id="paint13_linear_75_11092" x1="104.213" y1="57.8051" x2="102.814" y2="49.7596" gradientUnits="userSpaceOnUse">
            <stop stop-color="#FFE27B"/>
            <stop offset="1" stop-color="#FFC01F"/>
        </linearGradient>
        <linearGradient id="paint14_linear_75_11092" x1="32.3282" y1="46.0867" x2="30.4043" y2="52.9079" gradientUnits="userSpaceOnUse">
            <stop stop-color="#FFA462"/>
            <stop offset="1" stop-color="#FFE176"/>
        </linearGradient>
        <linearGradient id="paint15_linear_75_11092" x1="29.4304" y1="63.4693" x2="28.441" y2="49.3704" gradientUnits="userSpaceOnUse">
            <stop stop-color="#FFE27B"/>
            <stop offset="1" stop-color="#FF981F"/>
        </linearGradient>
        <linearGradient id="paint16_linear_75_11092" x1="42.2014" y1="81.0498" x2="42.2014" y2="95.8665" gradientUnits="userSpaceOnUse">
            <stop stop-color="#FFB800"/>
            <stop offset="0.22481" stop-color="#FFF48C"/>
        </linearGradient>
        <linearGradient id="paint17_linear_75_11092" x1="42.2014" y1="87.702" x2="42.2014" y2="95.8663" gradientUnits="userSpaceOnUse">
            <stop stop-color="#FFDD4A"/>
            <stop offset="1" stop-color="#FF9635"/>
        </linearGradient>
        <linearGradient id="paint18_linear_75_11092" x1="34.6413" y1="75.002" x2="34.6413" y2="89.8187" gradientUnits="userSpaceOnUse">
            <stop stop-color="#FFB800"/>
            <stop offset="0.22481" stop-color="#FFF48C"/>
        </linearGradient>
        <linearGradient id="paint19_linear_75_11092" x1="34.6413" y1="79.8403" x2="34.6413" y2="89.8189" gradientUnits="userSpaceOnUse">
            <stop stop-color="#FFE55B"/>
            <stop offset="1" stop-color="#FFA235"/>
        </linearGradient>
        <linearGradient id="paint20_linear_75_11092" x1="25.2678" y1="65.3257" x2="25.2678" y2="80.1424" gradientUnits="userSpaceOnUse">
            <stop stop-color="#FFB800"/>
            <stop offset="0.22481" stop-color="#FFF48C"/>
        </linearGradient>
        <linearGradient id="paint21_linear_75_11092" x1="25.2678" y1="65.326" x2="25.2678" y2="80.1427" gradientUnits="userSpaceOnUse">
            <stop stop-color="#FFE55B"/>
            <stop offset="1" stop-color="#FFA235"/>
        </linearGradient>
        <linearGradient id="paint22_linear_75_11092" x1="88.012" y1="81.0498" x2="88.012" y2="95.8665" gradientUnits="userSpaceOnUse">
            <stop stop-color="#FFB800"/>
            <stop offset="0.22481" stop-color="#FFF48C"/>
        </linearGradient>
        <linearGradient id="paint23_linear_75_11092" x1="88.0115" y1="87.702" x2="88.0115" y2="95.8663" gradientUnits="userSpaceOnUse">
            <stop stop-color="#FFDD4A"/>
            <stop offset="1" stop-color="#FF9635"/>
        </linearGradient>
        <linearGradient id="paint24_linear_75_11092" x1="95.5716" y1="75.002" x2="95.5716" y2="89.8187" gradientUnits="userSpaceOnUse">
            <stop stop-color="#FFB800"/>
            <stop offset="0.22481" stop-color="#FFF48C"/>
        </linearGradient>
        <linearGradient id="paint25_linear_75_11092" x1="95.5721" y1="79.8403" x2="95.5721" y2="89.8189" gradientUnits="userSpaceOnUse">
            <stop stop-color="#FFE55B"/>
            <stop offset="1" stop-color="#FFA235"/>
        </linearGradient>
        <linearGradient id="paint26_linear_75_11092" x1="104.945" y1="65.3257" x2="104.945" y2="80.1424" gradientUnits="userSpaceOnUse">
            <stop stop-color="#FFB800"/>
            <stop offset="0.22481" stop-color="#FFF48C"/>
        </linearGradient>
        <linearGradient id="paint27_linear_75_11092" x1="104.945" y1="65.326" x2="104.945" y2="80.1427" gradientUnits="userSpaceOnUse">
            <stop stop-color="#FFE55B"/>
            <stop offset="1" stop-color="#FFA235"/>
        </linearGradient>
        <linearGradient id="paint28_linear_75_11092" x1="65.9375" y1="31.3135" x2="65.9375" y2="114.166" gradientUnits="userSpaceOnUse">
            <stop stop-color="#FFE587"/>
            <stop offset="0.484375" stop-color="#FFF069"/>
            <stop offset="1" stop-color="#FFA915"/>
        </linearGradient>
        <linearGradient id="paint29_linear_75_11092" x1="65.9375" y1="31.3135" x2="65.9375" y2="114.166" gradientUnits="userSpaceOnUse">
            <stop stop-color="white"/>
            <stop offset="0.197072" stop-color="#FFEEC4" stop-opacity="0"/>
        </linearGradient>
        <linearGradient id="paint30_linear_75_11092" x1="65.9379" y1="43.1494" x2="65.9379" y2="102.33" gradientUnits="userSpaceOnUse">
            <stop stop-color="#FFC700"/>
            <stop offset="1" stop-color="#FFFBA2"/>
        </linearGradient>
        <linearGradient id="paint31_linear_75_11092" x1="65.9381" y1="46.4326" x2="65.9381" y2="99.047" gradientUnits="userSpaceOnUse">
            <stop stop-color="#FF866B"/>
            <stop offset="1" stop-color="#F66848"/>
        </linearGradient>
        <radialGradient id="paint32_angular_75_11092" cx="0" cy="0" r="1" gradientUnits="userSpaceOnUse" gradientTransform="translate(65.8728 72.8909) rotate(90.2256) scale(21.9228)">
            <stop offset="0.107585" stop-color="#FFD979"/>
            <stop offset="0.291667" stop-color="#FFEAB5"/>
            <stop offset="0.494792" stop-color="#FFCC4D"/>
            <stop offset="0.692708" stop-color="#FFEAB5"/>
            <stop offset="0.885417" stop-color="#FFCC4D"/>
            <stop offset="1" stop-color="#FFE8AD"/>
        </radialGradient>
    </defs>
</svg>
