<svg width="217" height="204" viewBox="0 0 217 204" fill="none" xmlns="http://www.w3.org/2000/svg">
    <path d="M216.575 200.771C216.575 202.551 168.086 204 108.29 204C48.4947 204 0 202.551 0 200.771C0 198.991 48.489 197.542 108.29 197.542C168.091 197.542 216.575 198.991 216.575 200.771Z" fill="#625451"/>
    <path opacity="0.3" d="M216.575 200.771C216.575 202.551 168.086 204 108.29 204C48.4947 204 0 202.551 0 200.771C0 198.991 48.489 197.542 108.29 197.542C168.091 197.542 216.575 198.991 216.575 200.771Z" fill="white"/>
    <path d="M195.844 138.608C195.844 138.636 197.31 137.096 197.39 136.988C198.32 135.744 199.387 132.789 198.377 131.369C198.203 131.138 197.982 130.947 197.73 130.807C197.477 130.667 197.197 130.582 196.91 130.557C196.622 130.533 196.332 130.569 196.059 130.663C195.786 130.758 195.536 130.909 195.325 131.106C194.401 131.916 194.184 133.417 194.264 134.575C194.361 135.932 195.844 138.602 195.844 138.608Z" fill="#625451"/>
    <path d="M209.17 133.303C207.744 132.305 204.801 133.394 203.563 134.33C203.454 134.415 201.925 135.876 201.954 135.887H201.988C201.52 136.058 201.024 136.241 200.482 136.458C199.49 136.857 198.371 137.325 197.185 137.907C195.904 138.53 194.658 139.223 193.454 139.983C192.104 140.831 190.833 141.797 189.655 142.87C189.64 142.882 189.627 142.895 189.615 142.91C189.866 142.47 190.533 141.198 190.573 141.107C191.144 139.658 191.389 136.543 190.043 135.431C189.812 135.255 189.548 135.13 189.266 135.063C188.984 134.997 188.691 134.99 188.407 135.044C188.122 135.098 187.852 135.211 187.614 135.376C187.376 135.541 187.175 135.754 187.025 136.001C186.352 137.028 186.534 138.528 186.922 139.624C187.356 140.862 189.324 142.904 189.484 143.047C188.309 144.167 187.211 145.366 186.198 146.635C185.627 147.371 185.028 148.129 184.486 148.917C184.692 148.529 184.874 148.175 184.892 148.124C185.462 146.68 185.707 143.56 184.361 142.448C184.131 142.272 183.867 142.147 183.586 142.08C183.304 142.013 183.012 142.007 182.728 142.061C182.444 142.115 182.174 142.228 181.936 142.392C181.699 142.557 181.499 142.771 181.349 143.018C180.67 144.039 180.858 145.545 181.241 146.635C181.623 147.724 183.277 149.527 183.716 149.989L183.049 150.868C182.022 152.299 181.007 153.72 179.963 155.1C179.598 155.585 179.221 156.053 178.822 156.515C179.004 156.167 179.158 155.876 179.176 155.831C179.746 154.382 179.991 151.267 178.645 150.126C178.415 149.949 178.15 149.823 177.868 149.756C177.586 149.689 177.293 149.682 177.008 149.736C176.724 149.79 176.453 149.903 176.215 150.069C175.977 150.234 175.777 150.448 175.627 150.696C174.948 151.723 175.137 153.223 175.525 154.319C175.912 155.414 177.396 157.034 177.915 157.588C177.515 158.055 177.116 158.517 176.705 158.951C176.42 159.242 176.169 159.521 175.861 159.812L174.988 160.634C174.418 161.136 173.847 161.661 173.248 162.14C172.849 162.476 172.467 162.784 172.108 163.098C172.473 162.625 173.18 161.672 173.248 161.586C173.891 160.38 174.213 159.028 174.184 157.662C174.26 157.53 174.325 157.393 174.378 157.251C174.485 156.982 174.533 156.694 174.521 156.404C174.509 156.115 174.437 155.832 174.308 155.573C174.18 155.313 173.998 155.084 173.775 154.9C173.552 154.715 173.293 154.579 173.015 154.501C171.303 154.085 168.964 156.156 168.149 157.479C168.103 157.559 167.669 158.46 167.413 159.036C167.51 158.677 167.618 158.323 167.715 157.953C167.92 157.217 168.103 156.475 168.285 155.671C168.365 155.283 168.451 154.889 168.536 154.496C168.622 154.102 168.673 153.68 168.748 153.269C168.89 152.311 168.993 151.335 169.078 150.348C169.723 150.525 172.022 151.124 173.174 150.919C174.327 150.713 175.736 150.2 176.318 149.122C176.465 148.873 176.558 148.595 176.591 148.308C176.623 148.02 176.595 147.729 176.507 147.453C176.419 147.177 176.274 146.923 176.081 146.708C175.888 146.492 175.652 146.319 175.388 146.201C173.779 145.528 171.138 147.222 170.128 148.403C170.065 148.477 169.438 149.407 169.101 149.926C169.147 149.356 169.192 148.74 169.221 148.135C169.289 146.424 169.312 144.638 169.341 142.881C169.341 142.345 169.341 141.809 169.375 141.272C169.603 141.335 172.324 142.105 173.614 141.906C174.754 141.734 176.175 141.193 176.762 140.109C176.908 139.859 176.999 139.581 177.03 139.294C177.062 139.006 177.032 138.716 176.944 138.44C176.856 138.165 176.711 137.911 176.518 137.695C176.326 137.48 176.09 137.307 175.827 137.188C174.224 136.52 171.577 138.215 170.567 139.396C170.493 139.481 169.592 140.822 169.375 141.175C169.404 139.995 169.443 138.814 169.529 137.656C169.639 136.09 169.849 134.534 170.157 132.995C170.265 132.995 173.1 133.839 174.424 133.634C175.565 133.463 176.979 132.921 177.567 131.837C177.712 131.587 177.804 131.31 177.836 131.023C177.867 130.736 177.838 130.445 177.751 130.17C177.663 129.895 177.519 129.641 177.327 129.425C177.135 129.209 176.9 129.036 176.637 128.916C175.028 128.249 172.381 129.937 171.377 131.124C171.309 131.198 170.619 132.219 170.305 132.71L170.214 132.676C170.566 131.134 171.057 129.628 171.68 128.175C172.011 127.37 172.37 126.623 172.741 125.893C173.254 126.098 175.593 127.034 176.814 126.965C178.035 126.897 179.438 126.532 180.14 125.522C180.312 125.29 180.433 125.024 180.496 124.742C180.559 124.46 180.563 124.168 180.506 123.884C180.449 123.601 180.333 123.333 180.166 123.097C179.998 122.861 179.783 122.663 179.535 122.516C178.012 121.677 175.194 123.086 174.064 124.13C174.001 124.187 173.442 124.843 173.037 125.328C173.209 125.009 173.38 124.672 173.551 124.364C174.19 123.223 174.84 122.196 175.428 121.301C175.764 120.799 176.078 120.348 176.38 119.926C176.985 119.869 179.438 119.589 180.47 119.002C181.503 118.414 182.598 117.41 182.752 116.189C182.799 115.904 182.785 115.612 182.712 115.332C182.638 115.053 182.506 114.792 182.325 114.567C182.143 114.342 181.916 114.158 181.659 114.026C181.401 113.895 181.119 113.819 180.83 113.805C179.09 113.759 177.236 116.286 176.723 117.752C176.677 117.884 176.209 119.943 176.238 119.937H176.278C175.981 120.318 175.667 120.751 175.336 121.238C174.726 122.122 174.047 123.126 173.385 124.267C172.657 125.491 172 126.756 171.417 128.055C170.76 129.508 170.232 131.016 169.837 132.561C169.84 132.58 169.84 132.6 169.837 132.619C169.837 132.111 169.666 130.69 169.643 130.582C169.324 129.065 167.801 126.315 166.072 126.144C165.784 126.122 165.494 126.161 165.221 126.259C164.949 126.357 164.701 126.511 164.492 126.711C164.283 126.911 164.119 127.153 164.01 127.421C163.9 127.689 163.849 127.977 163.859 128.266C163.859 129.492 164.846 130.645 165.77 131.341C166.814 132.134 169.58 132.755 169.803 132.801C169.445 134.386 169.191 135.992 169.044 137.61C168.959 138.551 168.896 139.498 168.844 140.462C168.805 140.023 168.765 139.629 168.753 139.578C168.428 138.055 166.905 135.311 165.176 135.134C164.888 135.112 164.598 135.152 164.326 135.249C164.054 135.347 163.805 135.501 163.596 135.701C163.387 135.901 163.223 136.143 163.114 136.411C163.005 136.679 162.953 136.967 162.963 137.256C162.963 138.483 163.95 139.635 164.874 140.337C165.798 141.039 168.166 141.62 168.787 141.769C168.787 142.134 168.753 142.499 168.742 142.864C168.673 144.621 168.616 146.378 168.508 148.095C168.468 148.7 168.405 149.299 168.348 149.892C168.314 149.504 168.274 149.173 168.268 149.128C167.943 147.604 166.42 144.861 164.692 144.684C164.403 144.662 164.113 144.701 163.841 144.799C163.569 144.897 163.32 145.051 163.111 145.251C162.902 145.451 162.738 145.693 162.629 145.961C162.52 146.229 162.469 146.517 162.478 146.806C162.478 148.038 163.465 149.185 164.389 149.886C165.313 150.588 167.453 151.118 168.188 151.29C168.114 151.9 168.034 152.51 167.932 153.092C167.852 153.492 167.806 153.885 167.704 154.279L167.43 155.42C167.224 156.156 167.025 156.92 166.808 157.633C166.66 158.129 166.511 158.603 166.363 159.082C166.409 158.477 166.471 157.297 166.466 157.194C166.38 155.648 165.291 152.699 163.613 152.265C163.332 152.201 163.04 152.196 162.757 152.252C162.473 152.308 162.205 152.422 161.969 152.589C161.732 152.755 161.534 152.969 161.386 153.217C161.238 153.465 161.143 153.741 161.109 154.028C160.921 155.243 161.719 156.526 162.53 157.359C163.34 158.192 165.952 159.282 166.272 159.407C166.021 160.195 165.775 160.953 165.53 161.689C164.68 164.171 163.882 166.207 163.305 167.622C163.305 167.673 163.265 167.719 163.243 167.764L164.281 168.335C164.315 168.244 164.355 168.152 164.389 168.055C164.96 166.612 165.707 164.536 166.506 162.009C166.762 161.21 167.019 160.354 167.276 159.47C168.146 159.579 169.023 159.636 169.9 159.641C170.214 160.913 171.668 163.001 171.857 163.269C171.218 163.788 170.59 164.29 169.991 164.752C167.915 166.355 166.123 167.605 164.857 168.472L164.709 168.575L165.85 169.202C167.082 168.318 168.702 167.091 170.624 165.563C171.275 165.038 171.965 164.462 172.661 163.851C172.918 164.068 175 165.836 176.232 166.19C177.344 166.509 178.856 166.612 179.837 165.876C180.074 165.711 180.274 165.498 180.423 165.25C180.572 165.003 180.668 164.727 180.703 164.44C180.739 164.153 180.714 163.862 180.629 163.586C180.545 163.309 180.403 163.054 180.214 162.836C179.039 161.552 175.93 161.98 174.509 162.63C174.429 162.67 173.574 163.201 173.037 163.52C173.323 163.275 173.608 163.041 173.887 162.784C174.458 162.288 175.028 161.769 175.633 161.21L176.489 160.371C176.78 160.092 177.059 159.767 177.344 159.464C177.995 158.746 178.616 157.987 179.227 157.211C179.672 157.713 181.263 159.493 182.319 159.972C183.374 160.451 184.852 160.782 185.935 160.206C186.194 160.078 186.423 159.897 186.608 159.675C186.793 159.453 186.928 159.194 187.007 158.916C187.085 158.638 187.105 158.347 187.064 158.061C187.023 157.775 186.922 157.501 186.768 157.257C185.799 155.813 182.661 155.762 181.166 156.19C181.069 156.218 180.025 156.646 179.455 156.892C179.814 156.424 180.185 155.956 180.533 155.465C181.554 154.056 182.541 152.613 183.534 151.153L184.452 149.829C184.606 150.006 186.455 152.151 187.641 152.682C188.691 153.166 190.168 153.497 191.252 152.915C191.512 152.789 191.743 152.608 191.928 152.386C192.114 152.165 192.25 151.906 192.329 151.627C192.408 151.349 192.427 151.057 192.385 150.771C192.342 150.484 192.24 150.21 192.085 149.966C191.115 148.523 187.978 148.472 186.483 148.905C186.375 148.934 184.88 149.555 184.509 149.732C185.182 148.763 185.867 147.798 186.58 146.88C187.531 145.632 188.564 144.448 189.672 143.337C189.746 143.423 191.663 145.665 192.872 146.224C193.928 146.715 195.405 147.04 196.489 146.464C196.748 146.336 196.978 146.156 197.163 145.933C197.348 145.711 197.485 145.453 197.563 145.175C197.642 144.896 197.661 144.605 197.619 144.319C197.578 144.033 197.476 143.759 197.322 143.514C196.352 142.065 193.214 142.02 191.72 142.448C191.623 142.476 190.488 142.95 189.951 143.183L189.894 143.098C191.039 142.011 192.278 141.028 193.597 140.16C194.321 139.669 195.034 139.242 195.742 138.848C196.055 139.299 197.51 141.358 198.548 141.985C199.587 142.613 200.973 143.075 202.114 142.619C202.386 142.52 202.635 142.364 202.843 142.162C203.051 141.961 203.215 141.717 203.323 141.448C203.43 141.179 203.48 140.89 203.468 140.6C203.456 140.31 203.384 140.026 203.255 139.766C202.45 138.22 199.336 137.833 197.807 138.095C197.721 138.095 196.888 138.346 196.289 138.528L197.248 138.004C198.417 137.399 199.529 136.908 200.505 136.486C201.075 136.252 201.577 136.047 202.057 135.864C202.599 136.15 204.789 137.273 205.976 137.348C207.162 137.422 208.634 137.194 209.433 136.264C209.615 136.055 209.754 135.811 209.84 135.547C209.926 135.283 209.957 135.004 209.933 134.727C209.908 134.451 209.828 134.182 209.697 133.937C209.566 133.693 209.387 133.477 209.17 133.303Z" fill="#625451"/>
    <path d="M169.101 123.12C169.928 124.204 172.638 125.613 172.644 125.613C172.649 125.613 173.032 123.548 173.037 123.411C173.129 121.859 172.387 118.813 170.755 118.185C170.483 118.089 170.193 118.051 169.905 118.073C169.616 118.096 169.336 118.179 169.082 118.318C168.828 118.456 168.606 118.646 168.43 118.876C168.255 119.106 168.13 119.37 168.063 119.652C167.743 120.832 168.422 122.201 169.101 123.12Z" fill="#625451"/>
    <g opacity="0.5">
        <path d="M195.844 138.608C195.844 138.637 197.31 137.097 197.39 136.988C198.32 135.745 199.387 132.79 198.377 131.369C198.203 131.139 197.982 130.947 197.73 130.807C197.477 130.668 197.197 130.583 196.91 130.558C196.622 130.533 196.332 130.569 196.059 130.664C195.786 130.758 195.536 130.909 195.325 131.107C194.401 131.917 194.184 133.417 194.264 134.575C194.361 135.933 195.844 138.603 195.844 138.608Z" fill="white"/>
        <path d="M209.17 133.303C207.744 132.305 204.801 133.394 203.563 134.33C203.454 134.415 201.925 135.876 201.954 135.887H201.988C201.52 136.058 201.024 136.241 200.482 136.458C199.49 136.857 198.371 137.325 197.185 137.907C195.904 138.53 194.658 139.223 193.454 139.983C192.104 140.831 190.833 141.797 189.655 142.87C189.64 142.882 189.627 142.895 189.615 142.91C189.866 142.47 190.533 141.198 190.573 141.107C191.144 139.658 191.389 136.543 190.043 135.431C189.812 135.255 189.548 135.13 189.266 135.063C188.984 134.997 188.691 134.99 188.407 135.044C188.122 135.098 187.852 135.211 187.614 135.376C187.376 135.541 187.175 135.754 187.025 136.001C186.352 137.028 186.534 138.528 186.922 139.624C187.356 140.862 189.324 142.904 189.484 143.047C188.309 144.167 187.211 145.366 186.198 146.635C185.627 147.371 185.028 148.129 184.486 148.917C184.692 148.529 184.874 148.175 184.892 148.124C185.462 146.68 185.707 143.56 184.361 142.448C184.131 142.272 183.867 142.147 183.586 142.08C183.304 142.013 183.012 142.007 182.728 142.061C182.444 142.115 182.174 142.228 181.936 142.392C181.699 142.557 181.499 142.771 181.349 143.018C180.67 144.039 180.858 145.545 181.241 146.635C181.623 147.724 183.277 149.527 183.716 149.989L183.049 150.868C182.022 152.299 181.007 153.72 179.963 155.1C179.598 155.585 179.221 156.053 178.822 156.515C179.004 156.167 179.158 155.876 179.176 155.831C179.746 154.382 179.991 151.267 178.645 150.126C178.415 149.949 178.15 149.823 177.868 149.756C177.586 149.689 177.293 149.682 177.008 149.736C176.724 149.79 176.453 149.903 176.215 150.069C175.977 150.234 175.777 150.448 175.627 150.696C174.948 151.723 175.137 153.223 175.525 154.319C175.912 155.414 177.396 157.034 177.915 157.588C177.515 158.055 177.116 158.517 176.705 158.951C176.42 159.242 176.169 159.521 175.861 159.812L174.988 160.634C174.418 161.136 173.847 161.661 173.248 162.14C172.849 162.476 172.467 162.784 172.108 163.098C172.473 162.625 173.18 161.672 173.248 161.586C173.891 160.38 174.213 159.028 174.184 157.662C174.26 157.53 174.325 157.393 174.378 157.251C174.485 156.982 174.533 156.694 174.521 156.404C174.509 156.115 174.437 155.832 174.308 155.573C174.18 155.313 173.998 155.084 173.775 154.9C173.552 154.715 173.293 154.579 173.015 154.501C171.303 154.085 168.964 156.156 168.149 157.479C168.103 157.559 167.669 158.46 167.413 159.036C167.51 158.677 167.618 158.323 167.715 157.953C167.92 157.217 168.103 156.475 168.285 155.671C168.365 155.283 168.451 154.889 168.536 154.496C168.622 154.102 168.673 153.68 168.748 153.269C168.89 152.311 168.993 151.335 169.078 150.348C169.723 150.525 172.022 151.124 173.174 150.919C174.327 150.713 175.736 150.2 176.318 149.122C176.465 148.873 176.558 148.595 176.591 148.308C176.623 148.02 176.595 147.729 176.507 147.453C176.419 147.177 176.274 146.923 176.081 146.708C175.888 146.492 175.652 146.319 175.388 146.201C173.779 145.528 171.138 147.222 170.128 148.403C170.065 148.477 169.438 149.407 169.101 149.926C169.147 149.356 169.192 148.74 169.221 148.135C169.289 146.424 169.312 144.638 169.341 142.881C169.341 142.345 169.341 141.809 169.375 141.272C169.603 141.335 172.324 142.105 173.614 141.906C174.754 141.734 176.175 141.193 176.762 140.109C176.908 139.859 176.999 139.581 177.03 139.294C177.062 139.006 177.032 138.716 176.944 138.44C176.856 138.165 176.711 137.911 176.518 137.695C176.326 137.48 176.09 137.307 175.827 137.188C174.224 136.52 171.577 138.215 170.567 139.396C170.493 139.481 169.592 140.822 169.375 141.175C169.404 139.995 169.443 138.814 169.529 137.656C169.639 136.09 169.849 134.534 170.157 132.995C170.265 132.995 173.1 133.839 174.424 133.634C175.565 133.463 176.979 132.921 177.567 131.837C177.712 131.587 177.804 131.31 177.836 131.023C177.867 130.736 177.838 130.445 177.751 130.17C177.663 129.895 177.519 129.641 177.327 129.425C177.135 129.209 176.9 129.036 176.637 128.916C175.028 128.249 172.381 129.937 171.377 131.124C171.309 131.198 170.619 132.219 170.305 132.71L170.214 132.676C170.566 131.134 171.057 129.628 171.68 128.175C172.011 127.37 172.37 126.623 172.741 125.893C173.254 126.098 175.593 127.034 176.814 126.965C178.035 126.897 179.438 126.532 180.14 125.522C180.312 125.29 180.433 125.024 180.496 124.742C180.559 124.46 180.563 124.168 180.506 123.884C180.449 123.601 180.333 123.333 180.166 123.097C179.998 122.861 179.783 122.663 179.535 122.516C178.012 121.677 175.194 123.086 174.064 124.13C174.001 124.187 173.442 124.843 173.037 125.328C173.209 125.009 173.38 124.672 173.551 124.364C174.19 123.223 174.84 122.196 175.428 121.301C175.764 120.799 176.078 120.348 176.38 119.926C176.985 119.869 179.438 119.589 180.47 119.002C181.503 118.414 182.598 117.41 182.752 116.189C182.799 115.904 182.785 115.612 182.712 115.332C182.638 115.053 182.506 114.792 182.325 114.567C182.143 114.342 181.916 114.158 181.659 114.026C181.401 113.895 181.119 113.819 180.83 113.805C179.09 113.759 177.236 116.286 176.723 117.752C176.677 117.884 176.209 119.943 176.238 119.937H176.278C175.981 120.318 175.667 120.751 175.336 121.238C174.726 122.122 174.047 123.126 173.385 124.267C172.657 125.491 172 126.756 171.417 128.055C170.76 129.508 170.232 131.016 169.837 132.561C169.84 132.58 169.84 132.6 169.837 132.619C169.837 132.111 169.666 130.69 169.643 130.582C169.324 129.065 167.801 126.315 166.072 126.144C165.784 126.122 165.494 126.161 165.221 126.259C164.949 126.357 164.701 126.511 164.492 126.711C164.283 126.911 164.119 127.153 164.01 127.421C163.9 127.689 163.849 127.977 163.859 128.266C163.859 129.492 164.846 130.645 165.77 131.341C166.814 132.134 169.58 132.755 169.803 132.801C169.445 134.386 169.191 135.992 169.044 137.61C168.959 138.551 168.896 139.498 168.844 140.462C168.805 140.023 168.765 139.629 168.753 139.578C168.428 138.055 166.905 135.311 165.176 135.134C164.888 135.112 164.598 135.152 164.326 135.249C164.054 135.347 163.805 135.501 163.596 135.701C163.387 135.901 163.223 136.143 163.114 136.411C163.005 136.679 162.953 136.967 162.963 137.256C162.963 138.483 163.95 139.635 164.874 140.337C165.798 141.039 168.166 141.62 168.787 141.769C168.787 142.134 168.753 142.499 168.742 142.864C168.673 144.621 168.616 146.378 168.508 148.095C168.468 148.7 168.405 149.299 168.348 149.892C168.314 149.504 168.274 149.173 168.268 149.128C167.943 147.604 166.42 144.861 164.692 144.684C164.403 144.662 164.113 144.701 163.841 144.799C163.569 144.897 163.32 145.051 163.111 145.251C162.902 145.451 162.738 145.693 162.629 145.961C162.52 146.229 162.469 146.517 162.478 146.806C162.478 148.038 163.465 149.185 164.389 149.886C165.313 150.588 167.453 151.118 168.188 151.29C168.114 151.9 168.034 152.51 167.932 153.092C167.852 153.492 167.806 153.885 167.704 154.279L167.43 155.42C167.224 156.156 167.025 156.92 166.808 157.633C166.66 158.129 166.511 158.603 166.363 159.082C166.409 158.477 166.471 157.297 166.466 157.194C166.38 155.648 165.291 152.699 163.613 152.265C163.332 152.201 163.04 152.196 162.757 152.252C162.473 152.308 162.205 152.422 161.969 152.589C161.732 152.755 161.534 152.969 161.386 153.217C161.238 153.465 161.143 153.741 161.109 154.028C160.921 155.243 161.719 156.526 162.53 157.359C163.34 158.192 165.952 159.282 166.272 159.407C166.021 160.195 165.775 160.953 165.53 161.689C164.68 164.171 163.882 166.207 163.305 167.622C163.305 167.673 163.265 167.719 163.243 167.764L164.281 168.335C164.315 168.244 164.355 168.152 164.389 168.055C164.96 166.612 165.707 164.536 166.506 162.009C166.762 161.21 167.019 160.354 167.276 159.47C168.146 159.579 169.023 159.636 169.9 159.641C170.214 160.913 171.668 163.001 171.857 163.269C171.218 163.788 170.59 164.29 169.991 164.752C167.915 166.355 166.123 167.605 164.857 168.472L164.709 168.575L165.85 169.202C167.082 168.318 168.702 167.091 170.624 165.563C171.275 165.038 171.965 164.462 172.661 163.851C172.918 164.068 175 165.836 176.232 166.19C177.344 166.509 178.856 166.612 179.837 165.876C180.074 165.711 180.274 165.498 180.423 165.25C180.572 165.003 180.668 164.727 180.703 164.44C180.739 164.153 180.714 163.862 180.629 163.586C180.545 163.309 180.403 163.054 180.214 162.836C179.039 161.552 175.93 161.98 174.509 162.63C174.429 162.67 173.574 163.201 173.037 163.52C173.323 163.275 173.608 163.041 173.887 162.784C174.458 162.288 175.028 161.769 175.633 161.21L176.489 160.371C176.78 160.092 177.059 159.767 177.344 159.464C177.995 158.746 178.616 157.987 179.227 157.211C179.672 157.713 181.263 159.493 182.319 159.972C183.374 160.451 184.852 160.782 185.935 160.206C186.194 160.078 186.423 159.897 186.608 159.675C186.793 159.453 186.928 159.194 187.007 158.916C187.085 158.638 187.105 158.347 187.064 158.061C187.023 157.775 186.922 157.501 186.768 157.257C185.799 155.813 182.661 155.762 181.166 156.19C181.069 156.218 180.025 156.646 179.455 156.892C179.814 156.424 180.185 155.956 180.533 155.465C181.554 154.056 182.541 152.613 183.534 151.153L184.452 149.829C184.606 150.006 186.455 152.151 187.641 152.682C188.691 153.166 190.168 153.497 191.252 152.915C191.512 152.789 191.743 152.608 191.928 152.386C192.114 152.165 192.25 151.906 192.329 151.627C192.408 151.349 192.427 151.057 192.385 150.771C192.342 150.484 192.24 150.21 192.085 149.966C191.115 148.523 187.978 148.472 186.483 148.905C186.375 148.934 184.88 149.555 184.509 149.732C185.182 148.763 185.867 147.798 186.58 146.88C187.531 145.632 188.564 144.448 189.672 143.337C189.746 143.423 191.663 145.665 192.872 146.224C193.928 146.715 195.405 147.04 196.489 146.464C196.748 146.336 196.978 146.156 197.163 145.933C197.348 145.711 197.485 145.453 197.563 145.175C197.642 144.896 197.661 144.605 197.619 144.319C197.578 144.033 197.476 143.759 197.322 143.514C196.352 142.065 193.214 142.02 191.72 142.448C191.623 142.476 190.488 142.95 189.951 143.183L189.894 143.098C191.039 142.011 192.278 141.028 193.597 140.16C194.321 139.669 195.034 139.242 195.742 138.848C196.055 139.299 197.51 141.358 198.548 141.985C199.587 142.613 200.973 143.075 202.114 142.619C202.386 142.52 202.635 142.364 202.843 142.162C203.051 141.961 203.215 141.717 203.323 141.448C203.43 141.179 203.48 140.89 203.468 140.6C203.456 140.31 203.384 140.026 203.255 139.766C202.45 138.22 199.336 137.833 197.807 138.095C197.721 138.095 196.888 138.346 196.289 138.528L197.248 138.004C198.417 137.399 199.529 136.908 200.505 136.486C201.075 136.252 201.577 136.047 202.057 135.864C202.599 136.15 204.789 137.273 205.976 137.348C207.162 137.422 208.634 137.194 209.433 136.264C209.615 136.055 209.754 135.811 209.84 135.547C209.926 135.283 209.957 135.004 209.933 134.727C209.908 134.451 209.828 134.182 209.697 133.937C209.566 133.693 209.387 133.477 209.17 133.303Z" fill="white"/>
        <path d="M169.101 123.12C169.928 124.204 172.638 125.613 172.644 125.613C172.65 125.613 173.032 123.548 173.037 123.411C173.129 121.859 172.387 118.813 170.756 118.185C170.483 118.089 170.193 118.051 169.905 118.073C169.616 118.096 169.336 118.179 169.082 118.318C168.828 118.456 168.606 118.646 168.431 118.876C168.255 119.106 168.13 119.37 168.063 119.652C167.744 120.832 168.422 122.201 169.101 123.12Z" fill="white"/>
    </g>
    <path d="M57.7533 94.278C57.7875 94.278 57.3084 91.8878 57.257 91.7451C56.6866 90.0338 54.6329 87.0617 52.6249 87.0674C52.2914 87.0778 51.9638 87.1583 51.6634 87.3036C51.363 87.449 51.0966 87.6559 50.8814 87.9109C50.6662 88.1659 50.507 88.4633 50.4143 88.7839C50.3215 89.1044 50.2973 89.4408 50.343 89.7714C50.4914 91.1804 51.7578 92.3841 52.9044 93.0743C54.2393 93.8901 57.7533 94.278 57.7533 94.278Z" fill="#625451"/>
    <path d="M61.6381 78.185C59.7442 78.8638 58.7858 82.3664 58.8657 84.1577C58.8657 84.3117 59.2251 86.7247 59.2593 86.7076H59.2992C59.1452 87.2781 58.9912 87.8485 58.8314 88.5045C58.5462 89.7082 58.261 91.0716 57.9986 92.5776C57.7277 94.1996 57.5487 95.8357 57.4624 97.4779C57.3622 99.3148 57.4252 101.157 57.6506 102.983C57.6534 103.006 57.6534 103.029 57.6506 103.051C57.4053 102.515 56.6637 101.049 56.5896 100.941C55.6084 99.4402 52.8245 97.1185 50.885 97.6547C50.5662 97.7534 50.2718 97.9178 50.0206 98.1375C49.7694 98.3571 49.5671 98.627 49.4268 98.9297C49.2864 99.2324 49.2112 99.5612 49.2059 99.8948C49.2006 100.228 49.2654 100.559 49.3961 100.866C49.9095 102.184 51.4497 103.011 52.739 103.376C54.1936 103.793 57.4338 103.302 57.6905 103.262C57.9646 105.116 58.3629 106.95 58.8828 108.75C59.1794 109.8 59.5103 110.849 59.8583 111.899C59.6301 111.443 59.419 111.038 59.3848 110.986C58.3979 109.486 55.6198 107.164 53.6802 107.7C53.3612 107.798 53.0662 107.961 52.8145 108.18C52.5629 108.399 52.3602 108.668 52.2197 108.971C52.0792 109.273 52.0041 109.602 51.9992 109.936C51.9943 110.269 52.0598 110.6 52.1913 110.906C52.7047 112.23 54.245 113.057 55.5342 113.422C56.8234 113.787 59.6073 113.422 60.3432 113.325C60.4801 113.725 60.6113 114.13 60.7482 114.529C61.4099 116.446 62.0831 118.362 62.682 120.233C62.8931 120.901 63.0757 121.568 63.2525 122.23C63.0471 121.825 62.876 121.488 62.8418 121.443C61.8606 119.943 59.0767 117.621 57.1372 118.157C56.8181 118.254 56.5232 118.418 56.2715 118.637C56.0199 118.855 55.8172 119.125 55.6767 119.427C55.5362 119.73 55.4611 120.059 55.4562 120.392C55.4513 120.726 55.5167 121.056 55.6483 121.363C56.1617 122.686 57.7019 123.514 58.9912 123.879C60.2804 124.244 62.7961 123.924 63.6689 123.799C63.8401 124.489 64.0112 125.174 64.1424 125.847C64.228 126.309 64.3364 126.748 64.3934 127.222C64.4505 127.695 64.5189 128.14 64.5874 128.591C64.6786 129.469 64.7756 130.376 64.8441 131.238C64.8954 131.808 64.9296 132.379 64.9696 132.949C64.7699 132.282 64.3421 130.981 64.2964 130.878C63.5861 129.468 62.5278 128.263 61.2217 127.376C61.1488 127.216 61.0609 127.063 60.9593 126.919C60.7785 126.638 60.5408 126.398 60.2615 126.215C59.9821 126.032 59.6674 125.91 59.3377 125.856C59.0081 125.802 58.6707 125.818 58.3477 125.903C58.0246 125.988 57.723 126.14 57.4624 126.349C55.9449 127.667 56.3214 131.266 57.0231 132.92C57.063 133.017 57.6335 134.021 57.9986 134.632C57.7248 134.295 57.4681 133.964 57.1828 133.616C56.6124 132.938 56.0419 132.27 55.4258 131.551L54.4846 130.53C54.1765 130.182 53.8114 129.857 53.4691 129.515C52.6705 128.739 51.8148 127.992 50.942 127.233C51.5125 126.742 53.6346 124.951 54.2393 123.77C54.8439 122.589 55.2661 120.878 54.6386 119.606C54.5014 119.302 54.3015 119.03 54.0522 118.808C53.8028 118.586 53.5094 118.42 53.1913 118.319C52.8731 118.219 52.5373 118.186 52.2058 118.224C51.8742 118.262 51.5544 118.369 51.2672 118.539C49.5558 119.606 49.3961 123.223 49.8353 124.963C49.8638 125.071 50.3202 126.28 50.5826 126.942C50.0521 126.508 49.5273 126.069 48.9796 125.641C47.388 124.415 45.7451 123.223 44.1079 122.025C43.6059 121.66 43.1096 121.283 42.6133 120.918C42.8301 120.741 45.3686 118.693 46.0361 117.347C46.635 116.149 47.0686 114.455 46.4411 113.183C46.3039 112.878 46.1041 112.607 45.8547 112.385C45.6053 112.163 45.3119 111.996 44.9938 111.896C44.6756 111.795 44.3398 111.763 44.0083 111.801C43.6767 111.839 43.3569 111.946 43.0697 112.116C41.3583 113.183 41.1929 116.799 41.6378 118.539C41.6378 118.67 42.3281 120.416 42.5163 120.85C41.421 120.034 40.3429 119.212 39.3047 118.357C37.8961 117.211 36.5623 115.976 35.3114 114.66C35.4141 114.58 38.0725 112.452 38.7342 111.072C39.3332 109.874 39.7667 108.18 39.1392 106.908C39.002 106.603 38.8022 106.332 38.5528 106.11C38.3034 105.888 38.0101 105.721 37.6919 105.621C37.3737 105.52 37.0379 105.488 36.7064 105.526C36.3748 105.563 36.055 105.671 35.7678 105.841C34.0564 106.908 33.891 110.524 34.336 112.264C34.336 112.378 34.8665 113.707 35.1175 114.335L35.0205 114.392C33.8035 113.033 32.7114 111.566 31.7575 110.011C31.2213 109.167 30.7592 108.299 30.3256 107.495C30.8562 107.147 33.292 105.544 34.0507 104.369C34.8094 103.194 35.3913 101.608 34.9064 100.279C34.8034 99.9612 34.6348 99.6689 34.4113 99.4208C34.1879 99.1727 33.9148 98.9744 33.6097 98.8388C33.3046 98.7032 32.9744 98.6333 32.6406 98.6338C32.3067 98.6342 31.9767 98.7049 31.6719 98.8413C29.8636 99.7198 29.2988 103.297 29.5441 105.071C29.5441 105.168 29.8008 106.137 29.9891 106.839C29.8008 106.463 29.6011 106.075 29.4186 105.698C28.7569 104.329 28.2378 103.04 27.7814 101.888C27.5304 101.231 27.3193 100.638 27.1254 100.073C27.4733 99.4631 28.8367 96.9702 28.9736 95.6068C29.1106 94.2434 28.8995 92.5377 27.8327 91.5793C27.5949 91.3454 27.3104 91.1641 26.998 91.0472C26.6855 90.9303 26.3519 90.8805 26.0189 90.9009C25.6858 90.9214 25.3609 91.0116 25.065 91.1658C24.7691 91.3201 24.509 91.5348 24.3016 91.7961C23.1036 93.4048 24.2502 96.8447 25.2885 98.305C25.374 98.4305 26.9999 100.25 26.9999 100.216V100.176C27.1767 100.747 27.3707 101.317 27.5703 101.933C27.9982 103.074 28.4945 104.403 29.1277 105.789C29.7918 107.293 30.5442 108.756 31.381 110.171C32.3128 111.759 33.3817 113.263 34.5755 114.666L34.6212 114.711C34.1192 114.403 32.693 113.57 32.5732 113.536C30.9246 112.829 27.325 112.43 26.0016 113.941C25.7898 114.2 25.6346 114.499 25.546 114.821C25.4575 115.143 25.4376 115.48 25.4876 115.811C25.5376 116.141 25.6564 116.457 25.8363 116.738C26.0163 117.02 26.2533 117.26 26.5321 117.444C27.673 118.26 29.43 118.1 30.7021 117.695C32.1454 117.239 34.5755 115.042 34.7695 114.843C36.0124 116.236 37.3464 117.545 38.7627 118.762C39.5899 119.475 40.4456 120.171 41.3127 120.85L40.417 120.348C38.7684 119.64 35.1688 119.241 33.8454 120.758C33.6334 121.016 33.4779 121.315 33.389 121.636C33.3001 121.957 33.2797 122.294 33.3292 122.624C33.3786 122.953 33.4969 123.269 33.6762 123.55C33.8556 123.831 34.092 124.071 34.3702 124.255C35.5111 125.077 37.2681 124.911 38.5459 124.506C39.8238 124.101 41.9687 122.27 42.5049 121.774L43.5089 122.555C45.1233 123.787 46.7377 125.014 48.2837 126.263C48.8256 126.702 49.3447 127.159 49.8695 127.609C49.4759 127.387 49.1451 127.199 49.088 127.176C47.4451 126.469 43.8398 126.069 42.522 127.581C42.31 127.839 42.1544 128.138 42.0654 128.46C41.9764 128.782 41.956 129.119 42.0055 129.449C42.055 129.779 42.1732 130.095 42.3526 130.377C42.532 130.658 42.7685 130.899 43.0469 131.084C44.1878 131.899 45.9448 131.74 47.2226 131.335C48.5004 130.93 50.4229 129.27 51.0789 128.688C51.6037 129.167 52.1229 129.646 52.6077 130.137C52.9329 130.473 53.2638 130.781 53.5718 131.141L54.4903 132.179C55.0607 132.863 55.6312 133.565 56.1617 134.244C56.5325 134.712 56.8805 135.168 57.2285 135.624C56.6922 135.179 55.6198 134.329 55.5171 134.272C53.994 133.32 50.497 132.379 48.9625 133.702C48.7138 133.925 48.5148 134.197 48.3786 134.502C48.2423 134.807 48.1719 135.137 48.1719 135.47C48.1719 135.804 48.2423 136.134 48.3786 136.439C48.5148 136.744 48.7138 137.016 48.9625 137.239C49.9836 138.226 51.7292 138.328 53.0527 138.123C54.5074 137.895 57.1486 136.172 57.4738 135.955C58.0442 136.714 58.6147 137.456 59.111 138.169C60.8908 140.622 62.277 142.732 63.224 144.221L63.321 144.375L64.5474 143.776L64.3535 143.485C63.3609 142.002 61.9176 139.897 60.0693 137.461C59.4989 136.685 58.8543 135.875 58.1925 135.048C58.8717 134.298 59.5078 133.509 60.0979 132.687C61.5069 133.257 64.4505 133.257 64.827 133.257C64.8897 134.21 64.9411 135.134 64.9753 136.007C65.1008 139.03 65.0951 141.557 65.0609 143.326V143.531L66.4071 142.875C66.4071 141.118 66.3444 138.751 66.1618 135.944C66.1048 134.98 66.0249 133.947 65.928 132.892C66.3045 132.801 69.3507 132.013 70.4916 131.095C71.5356 130.256 72.6365 128.899 72.6023 127.484C72.6048 127.15 72.5369 126.819 72.403 126.513C72.2691 126.207 72.0723 125.932 71.8253 125.707C71.5782 125.482 71.2866 125.312 70.9693 125.207C70.6521 125.103 70.3163 125.066 69.9839 125.099C67.993 125.356 66.3216 128.568 65.9907 130.336C65.9907 130.439 65.888 131.591 65.8424 132.316C65.8024 131.888 65.7682 131.466 65.7226 131.021C65.6313 130.148 65.5172 129.27 65.3974 128.334L65.1749 126.959C65.1122 126.503 64.9867 126.029 64.8897 125.556C64.6501 124.461 64.3535 123.371 64.0283 122.27C64.7927 122.196 67.5195 121.871 68.689 121.203C69.8584 120.536 71.1419 119.361 71.3188 117.952C71.3722 117.622 71.3554 117.285 71.2696 116.962C71.1839 116.64 71.031 116.339 70.8211 116.079C70.6111 115.82 70.3487 115.608 70.0511 115.457C69.7535 115.305 69.4274 115.219 69.094 115.202C67.086 115.151 64.9468 118.054 64.3592 119.766C64.3193 119.868 64.034 121.135 63.8857 121.831C63.6861 121.175 63.4921 120.519 63.2696 119.857C62.6193 117.957 61.9062 116.058 61.1988 114.152L60.5656 112.407C60.8395 112.378 64.0911 112.07 65.3974 111.317C66.5383 110.65 67.8504 109.475 68.0272 108.071C68.0806 107.741 68.0638 107.404 67.9781 107.081C67.8924 106.758 67.7396 106.457 67.5297 106.197C67.3198 105.937 67.0576 105.724 66.7599 105.573C66.4623 105.421 66.1361 105.333 65.8025 105.316C63.7944 105.27 61.6552 108.168 61.0676 109.88C61.022 110.011 60.6113 111.825 60.5257 112.293C60.0636 111.009 59.613 109.726 59.2251 108.442C58.6836 106.713 58.2568 104.95 57.9472 103.165C58.0727 103.165 61.467 102.846 62.8075 102.076C63.9485 101.408 65.2605 100.233 65.4374 98.8242C65.4898 98.4948 65.4724 98.158 65.3863 97.8358C65.3001 97.5136 65.1472 97.2131 64.9374 96.9538C64.7276 96.6945 64.4656 96.4822 64.1685 96.3308C63.8713 96.1793 63.5457 96.092 63.2126 96.0745C61.2046 96.0232 59.0653 98.9268 58.4778 100.638C58.4378 100.752 58.1241 102.133 57.9872 102.795H57.8731C57.6113 100.989 57.5101 99.1642 57.5707 97.341C57.5707 96.3369 57.6677 95.3786 57.759 94.4487C58.3979 94.4487 61.3129 94.4487 62.5908 93.8783C63.8686 93.3078 65.2377 92.3209 65.5686 90.9404C65.6579 90.6186 65.6783 90.2816 65.6284 89.9513C65.5785 89.6211 65.4595 89.3051 65.2791 89.0241C65.0987 88.743 64.861 88.5032 64.5816 88.3203C64.3022 88.1374 63.9873 88.0155 63.6575 87.9626C61.6666 87.6888 59.2194 90.3642 58.4492 91.9558C58.4036 92.0471 58.0784 92.9884 57.8446 93.6672C57.8959 93.2451 57.9415 92.8115 57.9929 92.4122C58.1982 90.9062 58.4778 89.5599 58.7345 88.3334C58.8885 87.6489 59.0368 87.0328 59.1851 86.4566C59.8126 86.1371 62.3341 84.8194 63.1783 83.7469C64.0226 82.6745 64.8041 81.1456 64.4619 79.7537C64.275 79.1848 63.8805 78.7073 63.3571 78.4165C62.8337 78.1258 62.2198 78.0431 61.6381 78.185Z" fill="#625451"/>
    <path d="M25.3226 109.15C26.8914 109.087 30.0289 107.478 30.0346 107.478C30.0403 107.478 28.3233 105.733 28.2206 105.636C26.8172 104.495 23.4515 103.183 21.7801 104.29C21.5066 104.481 21.2767 104.729 21.1053 105.015C20.934 105.302 20.8251 105.622 20.7858 105.953C20.7465 106.285 20.7776 106.621 20.8772 106.94C20.9768 107.259 21.1425 107.553 21.3637 107.804C22.265 108.905 23.9821 109.224 25.3226 109.15Z" fill="#625451"/>
    <g opacity="0.5">
        <path d="M57.7533 94.278C57.7875 94.278 57.3084 91.8878 57.257 91.7451C56.6866 90.0338 54.6329 87.0617 52.6249 87.0674C52.2914 87.0778 51.9638 87.1583 51.6634 87.3036C51.363 87.449 51.0966 87.6559 50.8814 87.9109C50.6662 88.1659 50.507 88.4633 50.4143 88.7839C50.3215 89.1044 50.2973 89.4408 50.343 89.7714C50.4914 91.1804 51.7578 92.3841 52.9044 93.0743C54.2393 93.8901 57.7533 94.278 57.7533 94.278Z" fill="white"/>
        <path d="M61.6381 78.185C59.7442 78.8638 58.7858 82.3664 58.8657 84.1577C58.8657 84.3117 59.2251 86.7247 59.2593 86.7076H59.2992C59.1452 87.2781 58.9912 87.8485 58.8314 88.5045C58.5462 89.7082 58.261 91.0716 57.9986 92.5776C57.7277 94.1996 57.5487 95.8357 57.4624 97.4779C57.3622 99.3148 57.4252 101.157 57.6506 102.983C57.6534 103.006 57.6534 103.029 57.6506 103.051C57.4053 102.515 56.6637 101.049 56.5896 100.941C55.6084 99.4402 52.8245 97.1185 50.885 97.6547C50.5662 97.7534 50.2718 97.9178 50.0206 98.1375C49.7694 98.3571 49.5671 98.627 49.4268 98.9297C49.2864 99.2324 49.2112 99.5612 49.2059 99.8948C49.2006 100.228 49.2654 100.559 49.3961 100.866C49.9095 102.184 51.4497 103.011 52.739 103.376C54.1936 103.793 57.4338 103.302 57.6905 103.262C57.9646 105.116 58.3629 106.95 58.8828 108.75C59.1794 109.8 59.5103 110.849 59.8583 111.899C59.6301 111.443 59.419 111.038 59.3848 110.986C58.3979 109.486 55.6198 107.164 53.6802 107.7C53.3612 107.798 53.0662 107.961 52.8145 108.18C52.5629 108.399 52.3602 108.668 52.2197 108.971C52.0792 109.273 52.0041 109.602 51.9992 109.936C51.9943 110.269 52.0598 110.6 52.1913 110.906C52.7047 112.23 54.245 113.057 55.5342 113.422C56.8234 113.787 59.6073 113.422 60.3432 113.325C60.4801 113.725 60.6113 114.13 60.7482 114.529C61.4099 116.446 62.0831 118.362 62.682 120.233C62.8931 120.901 63.0757 121.568 63.2525 122.23C63.0471 121.825 62.876 121.488 62.8418 121.443C61.8606 119.943 59.0767 117.621 57.1372 118.157C56.8181 118.254 56.5232 118.418 56.2715 118.637C56.0199 118.855 55.8172 119.125 55.6767 119.427C55.5362 119.73 55.4611 120.059 55.4562 120.392C55.4513 120.726 55.5167 121.056 55.6483 121.363C56.1617 122.686 57.7019 123.514 58.9912 123.879C60.2804 124.244 62.7961 123.924 63.6689 123.799C63.8401 124.489 64.0112 125.174 64.1424 125.847C64.228 126.309 64.3364 126.748 64.3934 127.222C64.4505 127.695 64.5189 128.14 64.5874 128.591C64.6786 129.469 64.7756 130.376 64.8441 131.238C64.8954 131.808 64.9296 132.379 64.9696 132.949C64.7699 132.282 64.3421 130.981 64.2964 130.878C63.5861 129.468 62.5278 128.263 61.2217 127.376C61.1488 127.216 61.0609 127.063 60.9593 126.919C60.7785 126.638 60.5408 126.398 60.2615 126.215C59.9821 126.032 59.6674 125.91 59.3377 125.856C59.0081 125.802 58.6707 125.818 58.3477 125.903C58.0246 125.988 57.723 126.14 57.4624 126.349C55.9449 127.667 56.3214 131.266 57.0231 132.92C57.063 133.017 57.6335 134.021 57.9986 134.632C57.7248 134.295 57.4681 133.964 57.1828 133.616C56.6124 132.938 56.0419 132.27 55.4258 131.551L54.4846 130.53C54.1765 130.182 53.8114 129.857 53.4691 129.515C52.6705 128.739 51.8148 127.992 50.942 127.233C51.5125 126.742 53.6346 124.951 54.2393 123.77C54.8439 122.589 55.2661 120.878 54.6386 119.606C54.5014 119.302 54.3015 119.03 54.0522 118.808C53.8028 118.586 53.5094 118.42 53.1913 118.319C52.8731 118.219 52.5373 118.186 52.2058 118.224C51.8742 118.262 51.5544 118.369 51.2672 118.539C49.5558 119.606 49.3961 123.223 49.8353 124.963C49.8638 125.071 50.3202 126.28 50.5826 126.942C50.0521 126.508 49.5273 126.069 48.9796 125.641C47.388 124.415 45.7451 123.223 44.1079 122.025C43.6059 121.66 43.1096 121.283 42.6133 120.918C42.8301 120.741 45.3686 118.693 46.0361 117.347C46.635 116.149 47.0686 114.455 46.4411 113.183C46.3039 112.878 46.1041 112.607 45.8547 112.385C45.6053 112.163 45.3119 111.996 44.9938 111.896C44.6756 111.795 44.3398 111.763 44.0083 111.801C43.6767 111.839 43.3569 111.946 43.0697 112.116C41.3583 113.183 41.1929 116.799 41.6378 118.539C41.6378 118.67 42.3281 120.416 42.5163 120.85C41.421 120.034 40.3429 119.212 39.3047 118.357C37.8961 117.211 36.5623 115.976 35.3114 114.66C35.4141 114.58 38.0725 112.452 38.7342 111.072C39.3332 109.874 39.7667 108.18 39.1392 106.908C39.002 106.603 38.8022 106.332 38.5528 106.11C38.3034 105.888 38.0101 105.721 37.6919 105.621C37.3737 105.52 37.0379 105.488 36.7064 105.526C36.3748 105.563 36.055 105.671 35.7678 105.841C34.0564 106.908 33.891 110.524 34.336 112.264C34.336 112.378 34.8665 113.707 35.1175 114.335L35.0205 114.392C33.8035 113.033 32.7114 111.566 31.7575 110.011C31.2213 109.167 30.7592 108.299 30.3256 107.495C30.8562 107.147 33.292 105.544 34.0507 104.369C34.8094 103.194 35.3913 101.608 34.9064 100.279C34.8034 99.9612 34.6348 99.6689 34.4113 99.4208C34.1879 99.1727 33.9148 98.9744 33.6097 98.8388C33.3046 98.7032 32.9744 98.6333 32.6406 98.6338C32.3067 98.6342 31.9767 98.7049 31.6719 98.8413C29.8636 99.7198 29.2988 103.297 29.5441 105.071C29.5441 105.168 29.8008 106.137 29.9891 106.839C29.8008 106.463 29.6011 106.075 29.4186 105.698C28.7569 104.329 28.2378 103.04 27.7814 101.888C27.5304 101.231 27.3193 100.638 27.1254 100.073C27.4733 99.4631 28.8367 96.9702 28.9736 95.6068C29.1106 94.2434 28.8995 92.5377 27.8327 91.5793C27.5949 91.3454 27.3104 91.1641 26.998 91.0472C26.6855 90.9303 26.3519 90.8805 26.0189 90.9009C25.6858 90.9214 25.3609 91.0116 25.065 91.1658C24.7691 91.3201 24.509 91.5348 24.3016 91.7961C23.1036 93.4048 24.2502 96.8447 25.2885 98.305C25.374 98.4305 26.9999 100.25 26.9999 100.216V100.176C27.1767 100.747 27.3707 101.317 27.5703 101.933C27.9982 103.074 28.4945 104.403 29.1277 105.789C29.7918 107.293 30.5442 108.756 31.381 110.171C32.3128 111.759 33.3817 113.263 34.5755 114.666L34.6212 114.711C34.1192 114.403 32.693 113.57 32.5732 113.536C30.9246 112.829 27.325 112.43 26.0016 113.941C25.7898 114.2 25.6346 114.499 25.546 114.821C25.4575 115.143 25.4376 115.48 25.4876 115.811C25.5376 116.141 25.6564 116.457 25.8363 116.738C26.0163 117.02 26.2533 117.26 26.5321 117.444C27.673 118.26 29.43 118.1 30.7021 117.695C32.1454 117.239 34.5755 115.042 34.7695 114.843C36.0124 116.236 37.3464 117.545 38.7627 118.762C39.5899 119.475 40.4456 120.171 41.3127 120.85L40.417 120.348C38.7684 119.64 35.1688 119.241 33.8454 120.758C33.6334 121.016 33.4779 121.315 33.389 121.636C33.3001 121.957 33.2797 122.294 33.3292 122.624C33.3786 122.953 33.4969 123.269 33.6762 123.55C33.8556 123.831 34.092 124.071 34.3702 124.255C35.5111 125.077 37.2681 124.911 38.5459 124.506C39.8238 124.101 41.9687 122.27 42.5049 121.774L43.5089 122.555C45.1233 123.787 46.7377 125.014 48.2837 126.263C48.8256 126.702 49.3447 127.159 49.8695 127.609C49.4759 127.387 49.1451 127.199 49.088 127.176C47.4451 126.469 43.8398 126.069 42.522 127.581C42.31 127.839 42.1544 128.138 42.0654 128.46C41.9764 128.782 41.956 129.119 42.0055 129.449C42.055 129.779 42.1732 130.095 42.3526 130.377C42.532 130.658 42.7685 130.899 43.0469 131.084C44.1878 131.899 45.9448 131.74 47.2226 131.335C48.5004 130.93 50.4229 129.27 51.0789 128.688C51.6037 129.167 52.1229 129.646 52.6077 130.137C52.9329 130.473 53.2638 130.781 53.5718 131.141L54.4903 132.179C55.0607 132.863 55.6312 133.565 56.1617 134.244C56.5325 134.712 56.8805 135.168 57.2285 135.624C56.6922 135.179 55.6198 134.329 55.5171 134.272C53.994 133.32 50.497 132.379 48.9625 133.702C48.7138 133.925 48.5148 134.197 48.3786 134.502C48.2423 134.807 48.1719 135.137 48.1719 135.47C48.1719 135.804 48.2423 136.134 48.3786 136.439C48.5148 136.744 48.7138 137.016 48.9625 137.239C49.9836 138.226 51.7292 138.328 53.0527 138.123C54.5074 137.895 57.1486 136.172 57.4738 135.955C58.0442 136.714 58.6147 137.456 59.111 138.169C60.8908 140.622 62.277 142.732 63.224 144.221L63.321 144.375L64.5474 143.776L64.3535 143.485C63.3609 142.002 61.9176 139.897 60.0693 137.461C59.4989 136.685 58.8543 135.875 58.1925 135.048C58.8717 134.298 59.5078 133.509 60.0979 132.687C61.5069 133.257 64.4505 133.257 64.827 133.257C64.8897 134.21 64.9411 135.134 64.9753 136.007C65.1008 139.03 65.0951 141.557 65.0609 143.326V143.531L66.4071 142.875C66.4071 141.118 66.3444 138.751 66.1618 135.944C66.1048 134.98 66.0249 133.947 65.928 132.892C66.3045 132.801 69.3507 132.013 70.4916 131.095C71.5356 130.256 72.6365 128.899 72.6023 127.484C72.6048 127.15 72.5369 126.819 72.403 126.513C72.2691 126.207 72.0723 125.932 71.8253 125.707C71.5782 125.482 71.2866 125.312 70.9693 125.207C70.6521 125.103 70.3163 125.066 69.9839 125.099C67.993 125.356 66.3216 128.568 65.9907 130.336C65.9907 130.439 65.888 131.591 65.8424 132.316C65.8024 131.888 65.7682 131.466 65.7226 131.021C65.6313 130.148 65.5172 129.27 65.3974 128.334L65.1749 126.959C65.1122 126.503 64.9867 126.029 64.8897 125.556C64.6501 124.461 64.3535 123.371 64.0283 122.27C64.7927 122.196 67.5195 121.871 68.689 121.203C69.8584 120.536 71.1419 119.361 71.3188 117.952C71.3722 117.622 71.3554 117.285 71.2696 116.962C71.1839 116.64 71.031 116.339 70.8211 116.079C70.6111 115.82 70.3487 115.608 70.0511 115.457C69.7535 115.305 69.4274 115.219 69.094 115.202C67.086 115.151 64.9468 118.054 64.3592 119.766C64.3193 119.868 64.034 121.135 63.8857 121.831C63.6861 121.175 63.4921 120.519 63.2696 119.857C62.6193 117.957 61.9062 116.058 61.1988 114.152L60.5656 112.407C60.8395 112.378 64.0911 112.07 65.3974 111.317C66.5383 110.65 67.8504 109.475 68.0272 108.071C68.0806 107.741 68.0638 107.404 67.9781 107.081C67.8924 106.758 67.7396 106.457 67.5297 106.197C67.3198 105.937 67.0576 105.724 66.7599 105.573C66.4623 105.421 66.1361 105.333 65.8025 105.316C63.7944 105.27 61.6552 108.168 61.0676 109.88C61.022 110.011 60.6113 111.825 60.5257 112.293C60.0636 111.009 59.613 109.726 59.2251 108.442C58.6836 106.713 58.2568 104.95 57.9472 103.165C58.0727 103.165 61.467 102.846 62.8075 102.076C63.9485 101.408 65.2605 100.233 65.4374 98.8242C65.4898 98.4948 65.4724 98.158 65.3863 97.8358C65.3001 97.5136 65.1472 97.2131 64.9374 96.9538C64.7276 96.6945 64.4656 96.4822 64.1685 96.3308C63.8713 96.1793 63.5457 96.092 63.2126 96.0745C61.2046 96.0232 59.0653 98.9268 58.4778 100.638C58.4378 100.752 58.1241 102.133 57.9872 102.795H57.8731C57.6113 100.989 57.5101 99.1642 57.5707 97.341C57.5707 96.3369 57.6677 95.3786 57.759 94.4487C58.3979 94.4487 61.3129 94.4487 62.5908 93.8783C63.8686 93.3078 65.2377 92.3209 65.5686 90.9404C65.6579 90.6186 65.6783 90.2816 65.6284 89.9513C65.5785 89.6211 65.4595 89.3051 65.2791 89.0241C65.0987 88.743 64.861 88.5032 64.5816 88.3203C64.3022 88.1374 63.9873 88.0155 63.6575 87.9626C61.6666 87.6888 59.2194 90.3642 58.4492 91.9558C58.4036 92.0471 58.0784 92.9884 57.8446 93.6672C57.8959 93.2451 57.9415 92.8115 57.9929 92.4122C58.1982 90.9062 58.4778 89.5599 58.7345 88.3334C58.8885 87.6489 59.0368 87.0328 59.1851 86.4566C59.8126 86.1371 62.3341 84.8194 63.1783 83.7469C64.0226 82.6745 64.8041 81.1456 64.4619 79.7537C64.275 79.1848 63.8805 78.7073 63.3571 78.4165C62.8337 78.1258 62.2198 78.0431 61.6381 78.185Z" fill="white"/>
        <path d="M25.3226 109.15C26.8914 109.087 30.0289 107.478 30.0346 107.478C30.0403 107.478 28.3233 105.733 28.2206 105.636C26.8172 104.495 23.4515 103.183 21.7801 104.29C21.5066 104.481 21.2767 104.729 21.1053 105.015C20.934 105.302 20.8251 105.622 20.7858 105.953C20.7465 106.285 20.7776 106.621 20.8772 106.94C20.9768 107.259 21.1425 107.553 21.3637 107.804C22.265 108.905 23.9821 109.224 25.3226 109.15Z" fill="white"/>
    </g>
    <path d="M44.4959 152.231C44.4959 152.231 54.0225 129.27 59.3563 130.268C64.6901 131.266 50.229 166.874 50.229 166.874C50.229 166.874 66.989 135.259 78.421 135.259C89.853 135.259 74.2282 170.2 59.7556 181.849C59.7556 181.849 82.6082 157.222 95.9398 162.55C109.271 167.878 69.2766 192.83 69.2766 192.83C69.2766 192.83 92.5114 185.511 89.8473 191.17C87.1833 196.829 79.9442 197.822 79.9442 197.822L106.225 199.157H14.7864L35.3571 197.16C35.3571 197.16 14.022 186.509 19.738 182.185C25.454 177.861 38.0212 187.177 38.0212 187.177C38.0212 187.177 16.3095 163.218 20.4967 154.227C24.6838 145.237 43.3549 170.537 43.3549 170.537C43.3549 170.537 28.118 138.254 31.1642 132.613C34.2105 126.971 44.4959 152.231 44.4959 152.231Z" fill="#625451"/>
    <path opacity="0.5" d="M44.4959 152.231C44.4959 152.231 54.0225 129.27 59.3563 130.268C64.6901 131.266 50.229 166.874 50.229 166.874C50.229 166.874 66.989 135.259 78.421 135.259C89.853 135.259 74.2282 170.2 59.7556 181.849C59.7556 181.849 82.6082 157.222 95.9398 162.55C109.271 167.878 69.2766 192.83 69.2766 192.83C69.2766 192.83 92.5114 185.511 89.8473 191.17C87.1833 196.829 79.9442 197.822 79.9442 197.822L106.225 199.157H14.7864L35.3571 197.16C35.3571 197.16 14.022 186.509 19.738 182.185C25.454 177.861 38.0212 187.177 38.0212 187.177C38.0212 187.177 16.3095 163.218 20.4967 154.227C24.6838 145.237 43.3549 170.537 43.3549 170.537C43.3549 170.537 28.118 138.254 31.1642 132.613C34.2105 126.971 44.4959 152.231 44.4959 152.231Z" fill="white"/>
    <path d="M41.4496 153.44C49.8296 178.204 49.8296 195.729 49.8296 195.729C49.8296 195.729 39.9265 196.105 29.6411 188.489" stroke="#263238" stroke-width="0.462262" stroke-linecap="round" stroke-linejoin="round"/>
    <path d="M45.6426 166.777C47.3653 159.374 49.6538 152.113 52.4881 145.06" stroke="#263238" stroke-width="0.462262" stroke-linecap="round" stroke-linejoin="round"/>
    <path d="M70.4004 152.299L49.0709 183.919C49.0709 183.919 34.5927 171.729 29.6411 164.872" stroke="#263238" stroke-width="0.462262" stroke-linecap="round" stroke-linejoin="round"/>
    <path d="M49.4531 191.535C49.4531 191.535 71.9235 180.868 81.0679 174.775" stroke="#263238" stroke-width="0.462262" stroke-linecap="round" stroke-linejoin="round"/>
    <path d="M167.39 152.231C167.39 152.231 157.869 129.27 152.558 130.268C147.247 131.266 161.685 166.874 161.685 166.874C161.685 166.874 144.925 135.259 133.499 135.259C122.073 135.259 137.686 170.2 152.164 181.849C152.164 181.849 129.306 157.222 115.974 162.55C102.643 167.878 142.643 192.83 142.643 192.83C142.643 192.83 119.403 185.511 122.073 191.17C124.742 196.829 131.976 197.822 131.976 197.822L105.672 199.157H197.105L176.534 197.16C176.534 197.16 197.864 186.509 192.153 182.185C186.443 177.861 173.865 187.177 173.865 187.177C173.865 187.177 195.582 163.218 191.389 154.227C187.196 145.237 168.531 170.537 168.531 170.537C168.531 170.537 183.773 138.254 180.721 132.595C177.669 126.936 167.39 152.231 167.39 152.231Z" fill="#625451"/>
    <path opacity="0.5" d="M167.39 152.231C167.39 152.231 157.869 129.27 152.558 130.268C147.247 131.266 161.685 166.874 161.685 166.874C161.685 166.874 144.925 135.259 133.499 135.259C122.073 135.259 137.686 170.2 152.164 181.849C152.164 181.849 129.306 157.222 115.974 162.55C102.643 167.878 142.643 192.83 142.643 192.83C142.643 192.83 119.403 185.511 122.073 191.17C124.742 196.829 131.976 197.822 131.976 197.822L105.672 199.157H197.105L176.534 197.16C176.534 197.16 197.864 186.509 192.153 182.185C186.443 177.861 173.865 187.177 173.865 187.177C173.865 187.177 195.582 163.218 191.389 154.227C187.196 145.237 168.531 170.537 168.531 170.537C168.531 170.537 183.773 138.254 180.721 132.595C177.669 126.936 167.39 152.231 167.39 152.231Z" fill="white"/>
    <path d="M170.436 153.44C162.056 178.204 162.056 195.729 162.056 195.729C162.056 195.729 171.959 196.105 182.244 188.489" stroke="#263238" stroke-width="0.462262" stroke-linecap="round" stroke-linejoin="round"/>
    <path d="M166.249 166.777C164.526 159.374 162.238 152.113 159.403 145.06" stroke="#263238" stroke-width="0.462262" stroke-linecap="round" stroke-linejoin="round"/>
    <path d="M141.485 152.299L162.82 183.919C162.82 183.919 177.293 171.729 182.245 164.872" stroke="#263238" stroke-width="0.462262" stroke-linecap="round" stroke-linejoin="round"/>
    <path d="M162.438 191.535C162.438 191.535 139.962 180.868 130.818 174.775" stroke="#263238" stroke-width="0.462262" stroke-linecap="round" stroke-linejoin="round"/>
    <path d="M152.01 28.5039H63.9314C61.8048 28.5039 60.0808 30.2279 60.0808 32.3545V197.268C60.0808 199.395 61.8048 201.119 63.9314 201.119H152.01C154.137 201.119 155.861 199.395 155.861 197.268V32.3545C155.861 30.2279 154.137 28.5039 152.01 28.5039Z" fill="#263238" stroke="#263238" stroke-width="0.462262" stroke-miterlimit="10"/>
    <path d="M114.594 38.8174H102.671C102.51 38.8174 102.351 38.7857 102.202 38.724C102.053 38.6624 101.918 38.5721 101.804 38.4582C101.69 38.3443 101.6 38.2091 101.538 38.0603C101.477 37.9115 101.445 37.752 101.445 37.5909C101.445 37.4301 101.477 37.2709 101.538 37.1224C101.6 36.9739 101.69 36.8391 101.804 36.7257C101.918 36.6122 102.054 36.5224 102.202 36.4614C102.351 36.4004 102.511 36.3694 102.671 36.3701H114.594C114.918 36.3701 115.228 36.4988 115.457 36.7277C115.686 36.9566 115.815 37.2671 115.815 37.5909C115.815 37.7517 115.784 37.9111 115.723 38.0598C115.662 38.2086 115.573 38.3439 115.459 38.4578C115.346 38.5718 115.211 38.6622 115.062 38.7239C114.914 38.7856 114.755 38.8174 114.594 38.8174Z" fill="#625451"/>
    <path d="M149.808 185.694H66.1333V38.9604H85.9682L88.1986 40.8087C88.9761 41.4587 89.9577 41.8142 90.9711 41.8127H125.963C127.013 41.8069 128.026 41.422 128.815 40.7289L130.829 38.9604H149.791L149.808 185.694Z" fill="white" stroke="#263238" stroke-width="0.433887" stroke-linecap="round" stroke-linejoin="round"/>
    <path d="M99.5508 49.7763L98.4099 45.9429H69.9326V49.7763V177.901V181.741H146.266V49.7763H99.5508Z" fill="#625451"/>
    <path d="M143.579 56.6846H72.6138V177.519H143.579V56.6846Z" fill="white"/>
    <path d="M110.646 190.229C110.647 189.852 110.537 189.483 110.328 189.169C110.119 188.855 109.822 188.61 109.474 188.465C109.126 188.319 108.743 188.281 108.373 188.354C108.003 188.427 107.663 188.608 107.396 188.874C107.129 189.14 106.947 189.48 106.873 189.849C106.799 190.219 106.836 190.603 106.98 190.951C107.124 191.3 107.368 191.597 107.682 191.807C107.995 192.017 108.364 192.129 108.741 192.129C109.245 192.127 109.728 191.927 110.084 191.571C110.441 191.215 110.643 190.733 110.646 190.229Z" fill="#625451"/>
    <path d="M102.768 172.243C115.673 172.243 126.134 157.358 126.134 138.996C126.134 120.635 115.673 105.75 102.768 105.75C89.8635 105.75 79.4022 120.635 79.4022 138.996C79.4022 157.358 89.8635 172.243 102.768 172.243Z" fill="#625451"/>
    <path opacity="0.5" d="M102.768 172.243C115.673 172.243 126.134 157.358 126.134 138.996C126.134 120.635 115.673 105.75 102.768 105.75C89.8635 105.75 79.4022 120.635 79.4022 138.996C79.4022 157.358 89.8635 172.243 102.768 172.243Z" fill="white"/>
    <path d="M106.083 101.888C106.083 101.888 104.622 99.4461 103.282 99.3263C101.941 99.2065 85.9796 109.224 83.538 114.438C81.0965 119.652 78.7861 130.114 85.2494 140.183C91.553 149.977 101.433 149.652 106.556 149.162C111.679 148.671 115.113 147.005 120.304 142.841C125.495 138.676 130.259 132.544 130.949 128.38C131.639 124.215 129.101 121.899 127.48 121.323C125.86 120.747 116.488 120.861 109.659 113.907C102.831 106.953 106.083 101.888 106.083 101.888Z" fill="#263238" stroke="#263238" stroke-width="0.462262" stroke-linecap="round" stroke-linejoin="round"/>
    <path d="M108.153 98.7158C108.153 98.7158 104.012 100.302 101.45 103.103C98.8891 105.904 97.309 110.296 97.1892 116.754C97.0694 123.211 99.1401 130.519 107.178 133.691C115.216 136.862 122.409 134.421 124.725 132.225C127.041 130.028 129.859 123.822 129.859 123.822C129.859 123.822 117.07 127.244 110.977 120.04C104.885 112.835 108.153 98.7158 108.153 98.7158Z" fill="white" stroke="#263238" stroke-width="0.462262" stroke-linecap="round" stroke-linejoin="round"/>
    <path d="M179.735 103.217C176.608 98.5276 169.147 97.1414 163.248 95.2303C157.35 93.3193 153.876 89.5258 155.439 80.136C157.002 70.7463 165.136 55.4922 164.982 52.7141C164.828 49.9359 136.87 50.1128 134.263 51.0027C131.656 51.8926 131.143 51.693 128.713 54.8191C127.366 56.5073 126.147 58.294 125.067 60.1643L128.079 53.8322H128.302C128.629 52.9999 129.094 52.2286 129.677 51.5503C132.327 48.4754 133.829 44.5762 133.927 40.5177C134.041 34.545 129.791 35.1211 128.986 36.958C128.182 38.7949 123.476 45.1156 122.095 46.8383C120.715 48.5611 117.845 53.2731 117.845 53.2731L114.657 64.3286C114.657 64.3286 113.961 67.6259 109.967 80.1246C105.974 92.6234 107.714 98.385 107.714 98.385C107.714 98.385 106.67 97.8659 104.24 105.327C101.81 112.789 102.854 122.333 107.189 126.845C111.525 131.357 117.258 131.186 123.681 128.585C127.633 126.892 130.923 123.956 133.054 120.222C133.054 120.222 139.825 118.511 144.857 114.672C149.888 110.832 153.704 106.862 161.006 107.21C168.308 107.558 176.626 111.722 179.404 111.545C182.182 111.369 182.861 107.9 179.735 103.217Z" fill="white"/>
    <mask id="mask0_27_11134" style="mask-type:luminance" maskUnits="userSpaceOnUse" x="102" y="35" width="80" height="96">
        <path d="M179.735 103.217C176.608 98.5276 169.147 97.1414 163.248 95.2303C157.35 93.3193 153.876 89.5258 155.439 80.136C157.002 70.7463 165.136 55.4922 164.982 52.7141C164.828 49.9359 136.87 50.1128 134.263 51.0027C131.656 51.8926 131.143 51.693 128.713 54.8191C127.366 56.5073 126.147 58.294 125.067 60.1643L128.079 53.8322H128.302C128.629 52.9999 129.094 52.2286 129.677 51.5503C132.327 48.4754 133.829 44.5762 133.927 40.5177C134.041 34.545 129.791 35.1211 128.986 36.958C128.182 38.7949 123.476 45.1156 122.095 46.8383C120.715 48.5611 117.845 53.2731 117.845 53.2731L114.657 64.3286C114.657 64.3286 113.961 67.6259 109.967 80.1246C105.974 92.6234 107.714 98.385 107.714 98.385C107.714 98.385 106.67 97.8659 104.24 105.327C101.81 112.789 102.854 122.333 107.189 126.845C111.525 131.357 117.258 131.186 123.681 128.585C127.633 126.892 130.923 123.956 133.054 120.222C133.054 120.222 139.825 118.511 144.857 114.672C149.888 110.832 153.704 106.862 161.006 107.21C168.308 107.558 176.626 111.722 179.404 111.545C182.182 111.369 182.861 107.9 179.735 103.217Z" fill="white"/>
    </mask>
    <g mask="url(#mask0_27_11134)">
        <path d="M134.971 86.9763C115.661 89.8572 109.591 94.4665 111.519 100.81C111.919 102.068 112.569 103.232 113.43 104.233C113.43 104.353 113.43 104.484 113.464 104.621C113.464 104.621 113.807 104.826 114.32 105.191C114.996 105.844 115.727 106.438 116.505 106.965C117.771 108.169 118.906 109.675 118.673 111.073C118.176 114.05 111.257 119.253 107.76 119.504C104.263 119.755 103.048 116.281 102.551 120C102.055 123.72 109.745 132.893 117.184 131.9C124.622 130.907 130.823 120.491 130.823 120.491C130.823 120.491 129.831 118.779 134.817 113.548C138.091 110.126 142.774 108.614 146.363 107.211C149.75 106.214 153.052 104.947 156.237 103.423C165.062 99.0986 175.547 101.985 175.547 101.985C175.547 101.985 154.281 84.0613 134.971 86.9763Z" fill="#625451"/>
        <path opacity="0.5" d="M134.971 86.9763C115.661 89.8572 109.591 94.4665 111.519 100.81C111.919 102.068 112.569 103.232 113.43 104.233C113.43 104.353 113.43 104.484 113.464 104.621C113.464 104.621 113.807 104.826 114.32 105.191C114.996 105.844 115.727 106.438 116.505 106.965C117.771 108.169 118.906 109.675 118.673 111.073C118.176 114.05 111.257 119.253 107.76 119.504C104.263 119.755 103.048 116.281 102.551 120C102.055 123.72 109.745 132.893 117.184 131.9C124.622 130.907 130.823 120.491 130.823 120.491C130.823 120.491 129.831 118.779 134.817 113.548C138.091 110.126 142.774 108.614 146.363 107.211C149.75 106.214 153.052 104.947 156.237 103.423C165.062 99.0986 175.547 101.985 175.547 101.985C175.547 101.985 154.281 84.0613 134.971 86.9763Z" fill="white"/>
    </g>
    <path d="M179.735 103.217C176.608 98.5276 169.147 97.1414 163.248 95.2303C157.35 93.3193 153.876 89.5258 155.439 80.136C157.002 70.7463 165.136 55.4922 164.982 52.7141C164.828 49.9359 136.87 50.1128 134.263 51.0027C131.656 51.8926 131.143 51.693 128.713 54.8191C127.366 56.5073 126.147 58.294 125.067 60.1643L128.079 53.8322H128.302C128.629 52.9999 129.094 52.2286 129.677 51.5503C132.327 48.4754 133.829 44.5762 133.927 40.5177C134.041 34.545 129.791 35.1211 128.986 36.958C128.182 38.7949 123.476 45.1156 122.095 46.8383C120.715 48.5611 117.845 53.2731 117.845 53.2731L114.657 64.3286C114.657 64.3286 113.961 67.6259 109.967 80.1246C105.974 92.6234 107.714 98.385 107.714 98.385C107.714 98.385 106.67 97.8659 104.24 105.327C101.81 112.789 102.854 122.333 107.189 126.845C111.525 131.358 117.258 131.186 123.681 128.585C127.633 126.892 130.923 123.956 133.054 120.222C133.054 120.222 139.825 118.511 144.857 114.672C149.888 110.832 153.704 106.862 161.006 107.21C168.308 107.558 176.626 111.722 179.404 111.545C182.182 111.369 182.861 107.9 179.735 103.217Z" stroke="#263238" stroke-width="0.462262" stroke-linecap="round" stroke-linejoin="round"/>
    <path d="M179.832 111.506C179.832 111.506 180.197 110.046 176.055 108.083C171.914 106.121 170.208 107.473 170.208 108.448C170.208 109.424 179.193 111.506 179.832 111.506Z" fill="white" stroke="#263238" stroke-width="0.462262" stroke-linecap="round" stroke-linejoin="round"/>
    <path d="M140.59 44.6647L130.139 52.7082H144.155C144.155 52.7082 144.155 42.8278 140.59 44.6647Z" fill="white" stroke="#263238" stroke-width="0.462262" stroke-linecap="round" stroke-linejoin="round"/>
    <path d="M127.48 102.681C128.965 101.003 130.815 99.6898 132.888 98.8418" stroke="#263238" stroke-width="0.462262" stroke-linecap="round" stroke-linejoin="round"/>
    <path d="M125.581 105.801C125.741 105.337 125.949 104.892 126.203 104.472" stroke="#263238" stroke-width="0.462262" stroke-linecap="round" stroke-linejoin="round"/>
    <path d="M121.417 116.64C120.858 116.148 120.335 115.616 119.853 115.048" stroke="#263238" stroke-width="0.462262" stroke-linecap="round" stroke-linejoin="round"/>
    <path d="M133.054 120.222C129.831 120.589 126.575 119.922 123.755 118.317" stroke="#263238" stroke-width="0.462262" stroke-linecap="round" stroke-linejoin="round"/>
    <path d="M172.13 52.0181H119.466C112.192 52.0181 106.299 57.6485 106.299 64.5682V89.3831C106.299 95.4186 110.755 100.461 116.699 101.676L113.921 109.897L126.779 101.979H172.13C179.398 101.979 185.297 96.3484 185.297 89.4287V64.6138C185.297 57.6485 179.398 52.0181 172.13 52.0181Z" fill="#FF5630" stroke="#263238" stroke-width="0.924524" stroke-miterlimit="10"/>
    <path d="M114.873 68.7275H174.076" stroke="#263238" stroke-width="0.95415" stroke-miterlimit="10" stroke-linecap="round"/>
    <path d="M114.873 74.8252H174.076" stroke="#263238" stroke-width="0.95415" stroke-miterlimit="10" stroke-linecap="round"/>
    <path d="M114.873 80.918H174.076" stroke="#263238" stroke-width="0.95415" stroke-miterlimit="10" stroke-linecap="round"/>
    <path d="M114.873 87.0103H174.076" stroke="#263238" stroke-width="0.95415" stroke-miterlimit="10" stroke-linecap="round"/>
    <path d="M184.817 73.7699C188.872 73.7699 192.159 70.631 192.159 66.759C192.159 62.8869 188.872 59.748 184.817 59.748C180.762 59.748 177.475 62.8869 177.475 66.759C177.475 70.631 180.762 73.7699 184.817 73.7699Z" fill="#263238"/>
    <path d="M184.247 71.7107C184.006 71.2287 183.897 70.6911 183.933 70.1534V64.4488L182.644 65.1675C182.505 65.2478 182.348 65.291 182.187 65.293C182.067 65.2943 181.948 65.27 181.838 65.2218C181.728 65.1736 181.629 65.1026 181.549 65.0135C181.381 64.8391 181.288 64.6053 181.292 64.3632C181.288 64.1987 181.336 64.0371 181.429 63.9011C181.562 63.7419 181.72 63.6051 181.897 63.4961L184.395 62.2183C184.674 62.0182 185.001 61.8943 185.342 61.8589C186.192 61.8589 186.614 62.4978 186.614 63.7756V70.353C186.614 71.6023 186.169 72.2241 185.274 72.2241C185.072 72.2419 184.869 72.2034 184.688 72.1127C184.506 72.0221 184.354 71.8829 184.247 71.7107Z" fill="white"/>
    <path d="M156.648 48.3447C156.648 48.3447 156.882 52.9369 161.018 55.1218C165.153 57.3066 170.436 56.8332 170.55 54.0893C170.664 51.3454 167.447 48.4588 165.268 44.7794C163.088 41.0999 158.257 43.1764 156.192 45.7035" fill="white"/>
    <path d="M156.648 48.3447C156.648 48.3447 156.882 52.9369 161.018 55.1218C165.153 57.3066 170.436 56.8332 170.55 54.0893C170.664 51.3454 167.447 48.4588 165.268 44.7794C163.088 41.0999 158.257 43.1764 156.192 45.7035" stroke="#263238" stroke-width="0.462262" stroke-linecap="round" stroke-linejoin="round"/>
    <path d="M163.773 52.018C163.425 53.8548 164.691 54.8703 165.838 55.4407C166.985 56.0112 169.261 55.6746 170.55 54.0659C170.607 52.7196 169.871 51.3505 168.839 49.873C167.401 50.0556 164.041 50.5804 163.773 52.018Z" fill="white" stroke="#263238" stroke-width="0.462262" stroke-linecap="round" stroke-linejoin="round"/>
    <path d="M148.034 48.3447C148.034 48.3447 148.262 52.9369 152.398 55.1218C156.534 57.3066 161.822 56.8332 161.936 54.0893C162.05 51.3454 158.833 48.4588 156.648 44.7794C154.463 41.0999 149.643 43.1764 147.572 45.7035" fill="white"/>
    <path d="M148.034 48.3447C148.034 48.3447 148.262 52.9369 152.398 55.1218C156.534 57.3066 161.822 56.8332 161.936 54.0893C162.05 51.3454 158.833 48.4588 156.648 44.7794C154.463 41.0999 149.643 43.1764 147.572 45.7035" stroke="#263238" stroke-width="0.462262" stroke-linecap="round" stroke-linejoin="round"/>
    <path d="M155.159 52.018C154.811 53.8548 156.078 54.8703 157.224 55.4407C158.371 56.0112 160.647 55.6746 161.936 54.0659C161.988 52.7196 161.252 51.3505 160.225 49.873C158.787 50.0556 155.427 50.5804 155.159 52.018Z" fill="white" stroke="#263238" stroke-width="0.462262" stroke-linecap="round" stroke-linejoin="round"/>
    <path d="M140.019 48.3447C140.019 48.3447 140.247 52.9369 144.383 55.1218C148.519 57.3066 153.801 56.8332 153.916 54.0893C154.03 51.3454 150.818 48.4588 148.633 44.7794C146.448 41.0999 141.622 43.1764 139.557 45.7035" fill="white"/>
    <path d="M140.019 48.3447C140.019 48.3447 140.247 52.9369 144.383 55.1218C148.519 57.3066 153.801 56.8332 153.916 54.0893C154.03 51.3454 150.818 48.4588 148.633 44.7794C146.448 41.0999 141.622 43.1764 139.557 45.7035" stroke="#263238" stroke-width="0.462262" stroke-linecap="round" stroke-linejoin="round"/>
    <path d="M147.139 52.018C146.796 53.8548 148.057 54.8703 149.209 55.4407C150.362 56.0112 152.632 55.6746 153.916 54.0659C153.973 52.7196 153.237 51.3505 152.204 49.873C150.767 50.0556 147.407 50.5804 147.139 52.018Z" fill="white" stroke="#263238" stroke-width="0.462262" stroke-linecap="round" stroke-linejoin="round"/>
    <path d="M107.714 98.3853C107.714 98.3853 108.034 105.448 111.93 110.199" stroke="#263238" stroke-width="0.462262" stroke-linecap="round" stroke-linejoin="round"/>
    <path d="M96.3735 127.861C96.3735 129.298 95.4152 130.462 94.2343 130.462C93.0535 130.462 92.0951 129.321 92.0951 127.861C92.0951 126.4 93.0535 125.259 94.2343 125.259C95.4152 125.259 96.3735 126.423 96.3735 127.861Z" fill="white"/>
    <path d="M91.0509 131.101C91.0509 132.538 90.0925 133.702 88.9117 133.702C87.7308 133.702 86.7725 132.561 86.7725 131.101C86.7725 129.64 87.7308 128.494 88.9117 128.494C90.0925 128.494 91.0509 129.663 91.0509 131.101Z" stroke="#263238" stroke-width="0.462262" stroke-linecap="round" stroke-linejoin="round"/>
</svg>
