<svg width="24" height="25" viewBox="0 0 24 25" fill="none" xmlns="http://www.w3.org/2000/svg">
    <path opacity="0.5" fill-rule="evenodd" clip-rule="evenodd" d="M3.25 12.3042C3.25 12.5031 3.32902 12.6939 3.46967 12.8345C3.61032 12.9752 3.80109 13.0542 4 13.0542L13.25 13.0542V11.5542L4 11.5542C3.80109 11.5542 3.61032 11.6332 3.46967 11.7739C3.32902 11.9145 3.25 12.1053 3.25 12.3042Z" fill="black"/>
    <path d="M13.2499 6.30437C13.2501 6.15613 13.2941 6.01125 13.3765 5.88804C13.459 5.76482 13.576 5.66879 13.713 5.61208C13.85 5.55537 14.0007 5.54052 14.1461 5.56941C14.2915 5.59829 14.425 5.66961 14.5299 5.77437L20.5299 11.7744C20.6704 11.915 20.7493 12.1056 20.7493 12.3044C20.7493 12.5031 20.6704 12.6937 20.5299 12.8344L14.5299 18.8344C14.425 18.9391 14.2915 19.0105 14.1461 19.0393C14.0007 19.0682 13.85 19.0534 13.713 18.9967C13.576 18.9399 13.459 18.8439 13.3765 18.7207C13.2941 18.5975 13.2501 18.4526 13.2499 18.3044L13.2499 6.30437Z" fill="black"/>
</svg>
