<svg width="44" height="44" viewBox="0 0 44 44" fill="none" xmlns="http://www.w3.org/2000/svg">
    <path opacity="0.5" d="M17.9264 38.5001H26.0737C31.7956 38.5001 34.6574 38.5001 36.7126 37.1526C37.5993 36.5714 38.3631 35.8214 38.9602 34.9453C40.3334 32.9286 40.3334 30.1181 40.3334 24.5008C40.3334 18.8816 40.3334 16.0729 38.9602 14.0563C38.3631 13.1801 37.5994 12.4301 36.7126 11.8489C35.3926 10.9818 33.7389 10.6719 31.2071 10.5619C29.9989 10.5619 28.9594 9.66359 28.7229 8.49942C28.5422 7.64668 28.0726 6.88249 27.3935 6.336C26.7144 5.78951 25.8674 5.49423 24.9957 5.50009H19.0044C17.1931 5.50009 15.6329 6.75592 15.2772 8.49942C15.0407 9.66359 14.0012 10.5619 12.7931 10.5619C10.2631 10.6719 8.60941 10.9836 7.28758 11.8489C6.40138 12.4302 5.63827 13.1802 5.04175 14.0563C3.66675 16.0729 3.66675 18.8816 3.66675 24.5008C3.66675 30.1181 3.66675 32.9268 5.03991 34.9453C5.63391 35.818 6.39658 36.5678 7.28758 37.1526C9.34274 38.5001 12.2046 38.5001 17.9264 38.5001Z" fill="#455A64"/>
    <path d="M32.1861 16.9986C31.9872 16.9969 31.79 17.0344 31.6056 17.109C31.4212 17.1835 31.2533 17.2936 31.1115 17.4331C30.9697 17.5725 30.8568 17.7385 30.7791 17.9216C30.7014 18.1047 30.6606 18.3012 30.6589 18.5001C30.6589 19.3288 31.3428 19.9998 32.1861 19.9998H34.2229C35.0663 19.9998 35.7519 19.3269 35.7519 18.5001C35.7503 18.3011 35.7094 18.1043 35.6316 17.9211C35.5538 17.7379 35.4407 17.5719 35.2987 17.4324C35.1567 17.2929 34.9886 17.1829 34.804 17.1084C34.6194 17.034 34.422 16.9967 34.2229 16.9986H32.1861Z" fill="#455A64"/>
    <path fill-rule="evenodd" clip-rule="evenodd" d="M22 16.9985C17.7833 16.9985 14.3623 20.3572 14.3623 24.4987C14.3623 28.642 17.7815 31.9989 22.0018 31.9989C26.2185 31.9989 29.6395 28.642 29.6395 24.5005C29.6395 20.3572 26.2203 16.9985 22.0018 16.9985H22ZM22 19.9997C19.47 19.9997 17.4166 22.0145 17.4166 24.4987C17.4166 26.9847 19.47 28.9995 22 28.9995C24.5318 28.9995 26.5833 26.9847 26.5833 24.4987C26.5833 22.0145 24.5318 19.9997 22 19.9997Z" fill="#455A64"/>
</svg>
