<svg width="46" height="46" viewBox="0 0 46 46" fill="none" xmlns="http://www.w3.org/2000/svg">
    <rect x="0.5" y="0.5" width="45" height="45" rx="22.5" stroke="#F1F1F1"/>
    <path opacity="0.4" d="M23.02 12.5C17.21 12.5 13 17.24 13 22.5C13 24.18 13.49 25.91 14.35 27.49C14.51 27.75 14.53 28.08 14.42 28.39L13.75 30.63C13.6 31.17 14.06 31.57 14.57 31.41L16.59 30.81C17.14 30.63 17.57 30.86 18.081 31.17C19.541 32.03 21.36 32.47 23 32.47C27.96 32.47 33 28.64 33 22.47C33 17.15 28.7 12.5 23.02 12.5Z" fill="#FF5630"/>
    <path fill-rule="evenodd" clip-rule="evenodd" d="M22.9805 23.7901C22.2705 23.7801 21.7005 23.2101 21.7005 22.5001C21.7005 21.8001 22.2805 21.2201 22.9805 21.2301C23.6905 21.2301 24.2605 21.8001 24.2605 22.5101C24.2605 23.2101 23.6905 23.7901 22.9805 23.7901ZM18.3701 23.7901C17.6701 23.7901 17.0901 23.2101 17.0901 22.5101C17.0901 21.8001 17.6601 21.2301 18.3701 21.2301C19.0801 21.2301 19.6501 21.8001 19.6501 22.5101C19.6501 23.2101 19.0801 23.7801 18.3701 23.7901ZM26.3103 22.5101C26.3103 23.2101 26.8803 23.7901 27.5903 23.7901C28.3003 23.7901 28.8703 23.2101 28.8703 22.5101C28.8703 21.8001 28.3003 21.2301 27.5903 21.2301C26.8803 21.2301 26.3103 21.8001 26.3103 22.5101Z" fill="#FF5630"/>
</svg>
