<svg width="44" height="44" viewBox="0 0 44 44" fill="none" xmlns="http://www.w3.org/2000/svg">
    <rect x="0.5" y="0.5" width="43" height="43" rx="21.5" stroke="#F1F1F1"/>
    <path d="M36.48 15.5237C36.2544 15.327 35.9754 15.2018 35.6785 15.164C35.3817 15.1261 35.0802 15.1774 34.8125 15.3112L28.5362 18.4362L23.2962 9.73246C23.1615 9.50912 22.9714 9.32437 22.7443 9.19612C22.5172 9.06788 22.2608 9.00049 22 9.00049C21.7392 9.00049 21.4828 9.06788 21.2557 9.19612C21.0286 9.32437 20.8384 9.50912 20.7037 9.73246L15.4637 18.44L9.19 15.315C8.92292 15.1823 8.62262 15.1315 8.32678 15.1689C8.03094 15.2063 7.75274 15.3303 7.52709 15.5252C7.30143 15.7202 7.13839 15.9774 7.0584 16.2647C6.97842 16.552 6.98506 16.8565 7.07749 17.14L11.7025 31.31C11.749 31.4523 11.8269 31.5824 11.9304 31.6906C12.0339 31.7989 12.1604 31.8825 12.3005 31.9353C12.4407 31.988 12.5909 32.0087 12.7401 31.9957C12.8893 31.9826 13.0336 31.9363 13.1625 31.86C13.1937 31.8412 16.39 30 22 30C27.61 30 30.8062 31.8412 30.835 31.8587C30.9639 31.9357 31.1085 31.9827 31.2581 31.9962C31.4076 32.0097 31.5583 31.9893 31.6989 31.9366C31.8396 31.8839 31.9665 31.8002 32.0703 31.6917C32.1742 31.5832 32.2522 31.4528 32.2987 31.31L36.9237 17.1437C37.0188 16.8601 37.0274 16.5547 36.9484 16.2662C36.8694 15.9777 36.7063 15.7193 36.48 15.5237ZM27.98 25.6C27.9392 25.8313 27.8182 26.0409 27.6384 26.192C27.4585 26.343 27.2311 26.426 26.9962 26.4262C26.9376 26.4261 26.8791 26.4211 26.8212 26.4112C23.6271 25.8629 20.3629 25.8629 17.1687 26.4112C17.0394 26.434 16.9068 26.4311 16.7786 26.4027C16.6503 26.3743 16.529 26.3209 16.4214 26.2456C16.204 26.0934 16.0561 25.8612 16.01 25.6C15.9639 25.3387 16.0235 25.0699 16.1756 24.8526C16.3278 24.6353 16.56 24.4873 16.8212 24.4412C20.2453 23.8529 23.7447 23.8529 27.1687 24.4412C27.2986 24.4634 27.4227 24.5111 27.5341 24.5814C27.6454 24.6517 27.7418 24.7433 27.8176 24.851C27.8935 24.9587 27.9473 25.0803 27.976 25.2088C28.0047 25.3373 28.0078 25.4703 27.985 25.6H27.98Z" fill="#FF5630"/>
</svg>
