<svg width="37" height="34" viewBox="0 0 37 34" fill="none" xmlns="http://www.w3.org/2000/svg">
    <g filter="url(#filter0_d_78_12276)">
        <path d="M3.00339 11.5078C2.53536 10.2504 3.94119 9.12345 5.0666 9.8538L26.1175 23.5153C27.2808 24.2702 26.7462 26.076 25.3594 26.076H9.39388C8.81215 26.076 8.29171 25.7144 8.08877 25.1693L3.00339 11.5078Z" fill="url(#paint0_linear_78_12276)"/>
        <path d="M34.0688 11.4909C34.5417 10.2366 33.1431 9.10393 32.0145 9.82713L10.6588 23.5109C9.48768 24.2613 10.0192 26.076 11.4101 26.076H27.6068C28.1864 26.076 28.7054 25.717 28.9099 25.1747L34.0688 11.4909Z" fill="url(#paint1_linear_78_12276)"/>
        <path d="M17.2906 6.48658C17.7999 5.44609 19.283 5.44609 19.7922 6.48658L28.4882 24.2526C28.941 25.1779 28.2675 26.2575 27.2374 26.2575H9.84552C8.81543 26.2575 8.14186 25.1779 8.59472 24.2527L17.2906 6.48658Z" fill="url(#paint2_linear_78_12276)"/>
        <mask id="mask0_78_12276" style="mask-type:alpha" maskUnits="userSpaceOnUse" x="8" y="5" width="21" height="22">
            <path d="M17.2904 6.48658C17.7997 5.44609 19.2827 5.44609 19.792 6.48658L28.4879 24.2526C28.9408 25.1779 28.2672 26.2575 27.2371 26.2575H9.84527C8.81519 26.2575 8.14162 25.1779 8.59447 24.2527L17.2904 6.48658Z" fill="url(#paint3_linear_78_12276)"/>
        </mask>
        <g mask="url(#mask0_78_12276)">
            <g filter="url(#filter1_f_78_12276)">
                <ellipse cx="11.4457" cy="3.1062" rx="11.4457" ry="3.1062" transform="matrix(0.204188 0.978932 -0.979534 0.201279 25.6289 6.73242)" fill="#FFF5D2" fill-opacity="0.8"/>
            </g>
        </g>
        <ellipse cx="18.5424" cy="2.29744" rx="2.01166" ry="1.99666" fill="url(#paint4_linear_78_12276)"/>
        <ellipse cx="2.6459" cy="8.1058" rx="1.6459" ry="1.63363" fill="url(#paint5_linear_78_12276)"/>
        <ellipse cx="34.3542" cy="8.1058" rx="1.6459" ry="1.63363" fill="url(#paint6_linear_78_12276)"/>
        <rect x="8.34497" y="27.832" width="20.0079" height="2.708" rx="1.354" fill="url(#paint7_linear_78_12276)"/>
    </g>
    <defs>
        <filter id="filter0_d_78_12276" x="0.0716042" y="0.300781" width="36.8568" height="32.096" filterUnits="userSpaceOnUse" color-interpolation-filters="sRGB">
            <feFlood flood-opacity="0" result="BackgroundImageFix"/>
            <feColorMatrix in="SourceAlpha" type="matrix" values="0 0 0 0 0 0 0 0 0 0 0 0 0 0 0 0 0 0 127 0" result="hardAlpha"/>
            <feOffset dy="0.928396"/>
            <feGaussianBlur stdDeviation="0.464198"/>
            <feComposite in2="hardAlpha" operator="out"/>
            <feColorMatrix type="matrix" values="0 0 0 0 0.358333 0 0 0 0 0.1935 0 0 0 0 0 0 0 0 1 0"/>
            <feBlend mode="normal" in2="BackgroundImageFix" result="effect1_dropShadow_78_12276"/>
            <feBlend mode="normal" in="SourceGraphic" in2="effect1_dropShadow_78_12276" result="shape"/>
        </filter>
        <filter id="filter1_f_78_12276" x="18.3015" y="4.55466" width="13.244" height="28.0147" filterUnits="userSpaceOnUse" color-interpolation-filters="sRGB">
            <feFlood flood-opacity="0" result="BackgroundImageFix"/>
            <feBlend mode="normal" in="SourceGraphic" in2="BackgroundImageFix" result="shape"/>
            <feGaussianBlur stdDeviation="1.39259" result="effect1_foregroundBlur_78_12276"/>
        </filter>
        <linearGradient id="paint0_linear_78_12276" x1="3.26468" y1="12.8254" x2="13.8865" y2="20.6084" gradientUnits="userSpaceOnUse">
            <stop stop-color="#FFE176"/>
            <stop offset="1" stop-color="#FFA800"/>
        </linearGradient>
        <linearGradient id="paint1_linear_78_12276" x1="32.7085" y1="10.5774" x2="26.3111" y2="22.1792" gradientUnits="userSpaceOnUse">
            <stop stop-color="#FFE483"/>
            <stop offset="1" stop-color="#F29100"/>
        </linearGradient>
        <linearGradient id="paint2_linear_78_12276" x1="12.9509" y1="15.424" x2="24.2917" y2="15.424" gradientUnits="userSpaceOnUse">
            <stop offset="0.49738" stop-color="#FCE77B"/>
            <stop offset="0.49738" stop-color="#FFCC1D"/>
        </linearGradient>
        <linearGradient id="paint3_linear_78_12276" x1="12.9507" y1="15.424" x2="24.2914" y2="15.424" gradientUnits="userSpaceOnUse">
            <stop offset="0.49738" stop-color="#FCE77B"/>
            <stop offset="0.49738" stop-color="#FFCC1D"/>
        </linearGradient>
        <linearGradient id="paint4_linear_78_12276" x1="18.5424" y1="0.300781" x2="18.5424" y2="4.29411" gradientUnits="userSpaceOnUse">
            <stop stop-color="#FFCD1D"/>
            <stop offset="1" stop-color="#FF971D"/>
        </linearGradient>
        <linearGradient id="paint5_linear_78_12276" x1="2.6459" y1="6.47217" x2="2.6459" y2="9.73943" gradientUnits="userSpaceOnUse">
            <stop stop-color="#FFCD1D"/>
            <stop offset="1" stop-color="#FF971D"/>
        </linearGradient>
        <linearGradient id="paint6_linear_78_12276" x1="34.3542" y1="6.47217" x2="34.3542" y2="9.73943" gradientUnits="userSpaceOnUse">
            <stop stop-color="#FFCD1D"/>
            <stop offset="1" stop-color="#FF971D"/>
        </linearGradient>
        <linearGradient id="paint7_linear_78_12276" x1="8.57233" y1="29.186" x2="28.5802" y2="29.186" gradientUnits="userSpaceOnUse">
            <stop stop-color="#FDE07C"/>
            <stop offset="1" stop-color="#FDE07C" stop-opacity="0"/>
        </linearGradient>
    </defs>
</svg>
