<svg width="24" height="24" viewBox="0 0 24 24" fill="none" xmlns="http://www.w3.org/2000/svg">
    <g clip-path="url(#clip0_77_11697)">
        <path d="M20.4062 3H2.59375C2.43628 3 2.28525 3.06256 2.1739 3.1739C2.06256 3.28525 2 3.43628 2 3.59375V4.58531C2.00011 4.72554 2.02797 4.86437 2.08198 4.99379C2.13599 5.1232 2.21508 5.24065 2.31469 5.33937L9.12498 12.2506V18.3068L10.3125 18.7581V11.9062C10.3129 11.8281 10.2979 11.7506 10.2684 11.6783C10.2389 11.6059 10.1953 11.5401 10.1403 11.4847L3.1875 4.53781V4.1875H19.8124V4.54968L12.8834 11.4847C12.8241 11.5381 12.7761 11.603 12.7425 11.6755C12.7088 11.7479 12.6901 11.8264 12.6875 11.9062V19.7496L13.875 20.2187V12.2031L20.6852 5.37499C20.7865 5.27377 20.8664 5.15336 20.9205 5.02081C20.9745 4.88826 21.0015 4.74625 20.9999 4.60312V3.59375C20.9999 3.43628 20.9374 3.28525 20.826 3.1739C20.7147 3.06256 20.5637 3 20.4062 3Z" fill="#707070"/>
    </g>
    <defs>
        <clipPath id="clip0_77_11697">
            <rect width="24" height="24" fill="white"/>
        </clipPath>
    </defs>
</svg>
