<svg width="46" height="46" viewBox="0 0 46 46" fill="none" xmlns="http://www.w3.org/2000/svg">
    <rect width="46" height="46" rx="23" fill="#FF5630"/>
    <path opacity="0.5" d="M13 23.204C13 20.915 13 19.771 13.52 18.823C14.038 17.874 14.987 17.286 16.884 16.108L18.884 14.867C20.889 13.622 21.892 13 23 13C24.108 13 25.11 13.622 27.116 14.867L29.116 16.108C31.013 17.286 31.962 17.874 32.481 18.823C33 19.771 33 20.915 33 23.203V24.725C33 28.625 33 30.576 31.828 31.788C30.657 33 28.771 33 25 33H21C17.229 33 15.343 33 14.172 31.788C13 30.576 13 28.626 13 24.725V23.204Z" fill="white"/>
    <path d="M20.447 26.3981C20.2872 26.2796 20.0868 26.2294 19.89 26.2585C19.6932 26.2877 19.516 26.3938 19.3975 26.5536C19.2789 26.7134 19.2287 26.9138 19.2579 27.1106C19.287 27.3074 19.3932 27.4846 19.553 27.6031C20.5484 28.3469 21.7574 28.7492 23 28.7501C24.2425 28.7492 25.4516 28.3469 26.447 27.6031C26.6069 27.4846 26.7132 27.3073 26.7424 27.1104C26.7717 26.9135 26.7215 26.7131 26.603 26.5531C26.4844 26.3932 26.3072 26.2869 26.1103 26.2577C25.9134 26.2284 25.7129 26.2786 25.553 26.3971C24.8163 26.9495 23.9207 27.2488 23 27.2501C22.0793 27.249 21.1837 26.9502 20.447 26.3981Z" fill="white"/>
</svg>
