<svg width="46" height="46" viewBox="0 0 46 46" fill="none" xmlns="http://www.w3.org/2000/svg">
    <rect width="46" height="46" rx="23" fill="#FF5630" fill-opacity="0.12"/>
    <path opacity="0.5" d="M13 23.204C13 20.915 13 19.771 13.52 18.823C14.038 17.874 14.987 17.286 16.884 16.108L18.884 14.867C20.889 13.622 21.892 13 23 13C24.108 13 25.11 13.622 27.116 14.867L29.116 16.108C31.013 17.286 31.962 17.874 32.481 18.823C33 19.771 33 20.915 33 23.203V24.725C33 28.625 33 30.576 31.828 31.788C30.657 33 28.771 33 25 33H21C17.229 33 15.343 33 14.172 31.788C13 30.576 13 28.626 13 24.725V23.204Z" fill="#FF5630"/>
    <path d="M20.4472 26.3981C20.2874 26.2796 20.0871 26.2294 19.8903 26.2585C19.6934 26.2877 19.5163 26.3938 19.3977 26.5536C19.2792 26.7134 19.2289 26.9138 19.2581 27.1106C19.2873 27.3074 19.3934 27.4846 19.5532 27.6031C20.5486 28.3469 21.7576 28.7492 23.0002 28.7501C24.2428 28.7492 25.4518 28.3469 26.4472 27.6031C26.6071 27.4846 26.7134 27.3073 26.7427 27.1104C26.7719 26.9135 26.7218 26.7131 26.6032 26.5531C26.4847 26.3932 26.3074 26.2869 26.1105 26.2577C25.9136 26.2284 25.7131 26.2786 25.5532 26.3971C24.8166 26.9495 23.921 27.2488 23.0002 27.2501C22.0796 27.249 21.184 26.9502 20.4472 26.3981Z" fill="#FF5630"/>
</svg>
