<svg width="44" height="45" viewBox="0 0 44 45" fill="none" xmlns="http://www.w3.org/2000/svg">
    <rect x="0.5" y="1" width="43" height="43" rx="21.5" stroke="#F1F1F1"/>
    <path d="M20 22.5C20 23.0304 20.2107 23.5391 20.5858 23.9142C20.9609 24.2893 21.4696 24.5 22 24.5C22.5304 24.5 23.0391 24.2893 23.4142 23.9142C23.7893 23.5391 24 23.0304 24 22.5C24 21.9696 23.7893 21.4609 23.4142 21.0858C23.0391 20.7107 22.5304 20.5 22 20.5C21.4696 20.5 20.9609 20.7107 20.5858 21.0858C20.2107 21.4609 20 21.9696 20 22.5ZM20 16.5C20 17.0304 20.2107 17.5391 20.5858 17.9142C20.9609 18.2893 21.4696 18.5 22 18.5C22.5304 18.5 23.0391 18.2893 23.4142 17.9142C23.7893 17.5391 24 17.0304 24 16.5C24 15.9696 23.7893 15.4609 23.4142 15.0858C23.0391 14.7107 22.5304 14.5 22 14.5C21.4696 14.5 20.9609 14.7107 20.5858 15.0858C20.2107 15.4609 20 15.9696 20 16.5ZM20 28.5C20 29.0304 20.2107 29.5391 20.5858 29.9142C20.9609 30.2893 21.4696 30.5 22 30.5C22.5304 30.5 23.0391 30.2893 23.4142 29.9142C23.7893 29.5391 24 29.0304 24 28.5C24 27.9696 23.7893 27.4609 23.4142 27.0858C23.0391 26.7107 22.5304 26.5 22 26.5C21.4696 26.5 20.9609 26.7107 20.5858 27.0858C20.2107 27.4609 20 27.9696 20 28.5Z" fill="black"/>
</svg>
