<svg width="45" height="44" viewBox="0 0 45 44" fill="none" xmlns="http://www.w3.org/2000/svg">
    <path opacity="0.3" d="M9.66675 34.8332H35.3334V9.1665H9.66675V34.8332ZM17.0001 24.0898L20.9234 28.8198L26.4234 21.7248L33.5001 31.1665H11.5001L17.0001 24.0898Z" fill="#455A64"/>
    <path d="M6 9.16667V34.8333C6 36.85 7.65 38.5 9.66667 38.5H35.3333C37.35 38.5 39 36.85 39 34.8333V9.16667C39 7.15 37.35 5.5 35.3333 5.5H9.66667C7.65 5.5 6 7.15 6 9.16667ZM35.3333 34.8333H9.66667V9.16667H35.3333V34.8333ZM26.4233 21.7433L20.9233 28.82L17 24.09L11.5 31.1667H33.5L26.4233 21.7433Z" fill="#455A64"/>
</svg>
