<svg width="73" height="78" viewBox="0 0 73 78" fill="none" xmlns="http://www.w3.org/2000/svg">
    <path d="M60.9359 48.6148C60.4952 50.7747 56.8266 56.2048 56.8266 56.2048C56.61 55.9882 56.1766 55.1215 54.8175 54.6708C53.4581 54.2199 53.8875 52.289 53.8875 52.289C53.5487 52.7065 52.71 54.2548 54.2266 55.5548C55.7433 56.8548 55.6824 57.2294 55.6824 57.2294C54.7546 58.4709 52.1167 60.4914 52.1167 60.4914C52.0292 60.4985 51.9391 60.4976 51.8567 60.4675C51.7369 60.424 51.6483 60.3055 51.6411 60.1778C51.6336 60.0403 51.6949 59.9094 51.7547 59.7852C51.8429 59.6024 51.931 59.4197 52.0192 59.2369C52.0545 59.1636 52.0907 59.0874 52.0916 59.0061C52.0925 58.9249 52.0474 58.8369 51.969 58.8157C51.8535 58.7842 51.7473 58.9045 51.6275 58.9043C51.5941 58.9041 51.5575 58.8917 51.5419 58.862C51.5332 58.846 51.5322 58.8271 51.5283 58.8094C51.5131 58.7396 51.4505 58.6831 51.3794 58.6748C51.3086 58.6666 51.2693 58.6432 51.2373 58.7069C48.8979 63.3758 46.1304 63.7732 46.1304 63.7732C46.2284 63.2248 46.3293 62.6663 46.5594 62.1551C46.6617 61.9283 46.7755 61.7043 46.97 61.5522C47.1611 61.4029 47.406 61.329 47.5544 61.1266C47.5667 61.1099 47.5784 61.0911 47.578 61.0705C47.5763 61.0168 47.5015 61.0025 47.4491 61.0142C47.2413 61.0605 47.0784 61.2464 46.8662 61.264C46.8411 61.2662 46.8125 61.2644 46.7956 61.2456C46.733 61.1767 46.9694 61.0315 46.9349 60.918C46.9312 60.9063 46.925 60.8946 46.9139 60.8887C46.9035 60.8829 46.8905 60.8837 46.8786 60.8853C46.6998 60.9065 46.548 61.0198 46.4011 61.1238C46.067 61.3602 45.7131 61.5667 45.3598 61.7729C45.3344 61.7877 45.3049 61.8031 45.2772 61.7937C45.3342 61.6276 45.4653 61.4796 45.5797 61.3496C45.7129 61.1988 45.8566 61.0577 45.9957 60.9126C46.0778 60.8272 46.1645 60.7113 46.12 60.6014C46.114 60.5863 46.1049 60.5715 46.091 60.5629C46.0771 60.5542 46.0605 60.5527 46.0442 60.5518C45.8893 60.5438 45.7357 60.5938 45.5998 60.669C45.4642 60.7442 45.3439 60.8443 45.2252 60.9442C45.0911 61.0575 44.9561 61.1732 44.8558 61.3173C44.7992 61.3988 44.7546 61.4878 44.7111 61.5769C44.6222 61.7582 44.5436 61.9448 44.4541 62.1257C44.4071 62.2208 44.336 62.4099 44.2149 62.4249C44.2194 62.3311 44.2665 62.2453 44.2933 62.156C44.3241 62.0527 44.3544 61.9489 44.383 61.8447C44.4396 61.6382 44.4905 61.43 44.5273 61.2189C44.1575 61.4731 43.8851 61.8652 43.7759 62.3005C43.7146 62.5454 43.6797 62.8381 43.4607 62.9635C43.2603 63.0781 43.0098 62.9893 42.7793 62.9984C42.4402 63.0118 42.0911 63.2636 41.8294 63.4792C42.0021 63.2974 41.98 62.9685 41.7843 62.8114C41.7488 62.7828 41.707 62.7575 41.6881 62.7157C41.6487 62.6277 41.7321 62.536 41.8095 62.4786C41.9949 62.341 42.1949 62.2234 42.4051 62.1281C42.5089 62.081 42.6326 62.0154 42.6347 61.9014C42.6376 61.7593 42.4478 61.6869 42.4109 61.5496C42.3734 61.41 42.506 61.2872 42.6274 61.2087C42.7485 61.1303 42.89 61.0289 42.8813 60.8848C42.875 60.7778 42.7793 60.6929 42.6757 60.6656C42.5721 60.6385 42.4623 60.6569 42.3578 60.6801C41.9828 60.7633 41.616 60.9071 41.3124 61.1427C41.0089 61.378 40.7718 61.7103 40.6945 62.0867C40.6793 62.1606 40.66 62.249 40.5892 62.2756C40.5253 62.2994 40.4523 62.2531 40.4226 62.1918C40.3929 62.1302 40.3916 62.0507 40.3946 61.9825C40.2865 62.0132 40.1704 62.0492 40.1032 62.1395C40.0226 62.2479 40.0386 62.3969 40.0432 62.5321C40.0475 62.6637 40.0373 62.7956 40.0124 62.925C40.0044 62.967 39.9591 63.0162 39.9336 62.9817C39.8926 62.9269 39.8454 62.8769 39.7927 62.8331C39.7624 62.808 39.7284 62.7839 39.6892 62.7804C39.6144 62.7737 39.552 62.8472 39.5427 62.9215C39.4857 63.3737 39.6406 63.7957 39.4842 64.262C39.4612 64.2484 39.438 64.2349 39.4149 64.2217C39.2435 64.1231 39.0671 64.0326 38.8871 63.9509C38.7068 63.869 38.5228 63.7957 38.3359 63.7312C38.1487 63.6666 37.9586 63.6107 37.7665 63.5639C37.5741 63.5173 37.3797 63.4794 37.1838 63.451C37.0859 63.4367 36.9878 63.4248 36.8892 63.4153C36.8328 63.4099 36.7774 63.3966 36.7206 63.3938C36.6662 63.391 36.6097 63.3982 36.5546 63.3979C36.5061 63.3977 36.4574 63.4051 36.4088 63.4094C36.3594 63.4138 36.3102 63.4185 36.2613 63.4239C36.1629 63.435 36.065 63.4482 35.9673 63.4638C35.772 63.4948 35.5781 63.5351 35.3866 63.5845C35.1951 63.6337 35.0059 63.692 34.8198 63.7589C34.6337 63.8259 34.4508 63.9017 34.2718 63.9858C34.1824 64.028 34.094 64.0722 34.0064 64.1184C33.9629 64.1415 33.9193 64.1652 33.8762 64.1894C33.8652 64.1957 33.7488 64.2572 33.7503 64.262C33.5937 63.7957 33.7488 63.3737 33.6918 62.9215C33.6825 62.8472 33.6201 62.7737 33.5454 62.7804C33.5061 62.7839 33.4721 62.808 33.4418 62.8331C33.3891 62.8769 33.3419 62.9269 33.301 62.9817C33.2754 63.0162 33.2301 62.967 33.2219 62.925C33.1972 62.7956 33.187 62.6637 33.1913 62.5321C33.1959 62.3969 33.2119 62.2479 33.1311 62.1393C33.0641 62.0492 32.948 62.0132 32.8399 61.9825C32.8429 62.0507 32.8416 62.1302 32.8119 62.1918C32.782 62.2531 32.7092 62.2994 32.6453 62.2756C32.5745 62.249 32.5552 62.1606 32.54 62.0867C32.4627 61.7103 32.2256 61.378 31.9221 61.1427C31.6183 60.9071 31.2517 60.7633 30.8767 60.6801C30.7722 60.6569 30.6624 60.6383 30.5588 60.6656C30.4553 60.6929 30.3595 60.7778 30.3532 60.8848C30.3445 61.0289 30.486 61.1303 30.6071 61.2087C30.7285 61.2872 30.8609 61.41 30.8236 61.5496C30.7868 61.6869 30.597 61.7593 30.5998 61.9014C30.6019 62.0154 30.7257 62.081 30.8294 62.1281C31.0396 62.2234 31.2396 62.341 31.4251 62.4786C31.5024 62.536 31.5858 62.6277 31.5464 62.7157C31.5275 62.7575 31.4857 62.7828 31.4502 62.8114C31.2545 62.9685 31.2324 63.2974 31.4051 63.4792C31.1434 63.2636 30.7943 63.0118 30.4553 62.9984C30.2247 62.9893 29.9743 63.0781 29.7738 62.9635C29.5548 62.8381 29.5199 62.5454 29.4586 62.3005C29.3494 61.8652 29.077 61.4731 28.7072 61.2189C28.744 61.43 28.7949 61.6382 28.8515 61.8447C28.8801 61.9489 28.9104 62.0527 28.9412 62.156C28.9681 62.2453 29.0151 62.3311 29.0196 62.4249C28.8985 62.4099 28.8274 62.2208 28.7804 62.1257C28.6909 61.9448 28.6123 61.7582 28.5235 61.5769C28.4799 61.4878 28.4353 61.3988 28.3787 61.3173C28.2784 61.1732 28.1434 61.0575 28.0093 60.9442C27.8906 60.8443 27.7703 60.7442 27.6347 60.669C27.4988 60.5938 27.3452 60.5438 27.1901 60.5518C27.1741 60.5527 27.1574 60.5542 27.1435 60.5629C27.1296 60.5715 27.1205 60.5863 27.1145 60.6014C27.0701 60.7113 27.1567 60.8272 27.2386 60.9126C27.3779 61.0577 27.5216 61.1988 27.6546 61.3496C27.7692 61.4796 27.9003 61.6276 27.9573 61.7937C27.9296 61.8031 27.9001 61.7877 27.8748 61.7729C27.5214 61.5667 27.1676 61.3602 26.8335 61.1238C26.6866 61.0198 26.5347 60.9065 26.3559 60.8853C26.3438 60.8837 26.331 60.8829 26.3204 60.8887C26.3096 60.8946 26.3031 60.9063 26.2996 60.918C26.2651 61.0315 26.5013 61.1767 26.4389 61.2456C26.422 61.2644 26.3934 61.2662 26.3683 61.264C26.1559 61.2464 25.9932 61.0605 25.7854 61.0142C25.733 61.0025 25.6583 61.0168 25.6565 61.0705C25.6561 61.0911 25.6678 61.1099 25.6801 61.1266C25.8286 61.329 26.0734 61.4029 26.2645 61.5522C26.4591 61.7043 26.5728 61.9283 26.6751 62.1551C26.9052 62.6663 27.0061 63.2246 27.1041 63.7732C27.1041 63.7732 24.3366 63.3758 21.9972 58.7069C21.9652 58.6432 21.926 58.6666 21.8549 58.6748C21.784 58.6831 21.7214 58.7396 21.7063 58.8094C21.7024 58.8271 21.7013 58.846 21.6926 58.862C21.677 58.8917 21.6404 58.9041 21.6068 58.9043C21.4872 58.9045 21.381 58.7842 21.2656 58.8157C21.1871 58.8369 21.1421 58.9249 21.1429 59.0061C21.1438 59.0874 21.1798 59.1636 21.2153 59.2369C21.3035 59.4197 21.3917 59.6024 21.4798 59.7852C21.5396 59.9094 21.601 60.0403 21.5934 60.1778C21.5862 60.3055 21.4976 60.424 21.3778 60.4675C21.2955 60.4976 21.2053 60.4985 21.1178 60.4914C21.1178 60.4914 18.4799 58.4709 17.5521 57.2294C17.5521 57.2294 17.4912 56.8548 19.0079 55.5548C20.5246 54.2548 19.6858 52.7065 19.3468 52.289C19.3468 52.289 19.7764 54.2199 18.417 54.6708C17.0579 55.1215 16.6245 55.9882 16.4079 56.2048C16.4079 56.2048 12.7393 50.7747 12.2986 48.6148C11.8579 46.4548 11.7303 33.3309 17.5356 33.8262C17.5356 33.8262 16.7849 32.7522 15.2964 32.5617C15.2964 32.5617 17.3081 31.8731 16.3162 29.3056C16.3162 29.3056 17.7211 28.0561 17.9311 26.5306C17.9311 26.5306 17.7072 27.0579 17.0575 27.1147C17.0575 27.1147 15.0388 26.0212 13.7732 27.4629C13.7754 27.4581 13.7767 27.4557 13.7778 27.4534C13.7795 27.4495 13.7815 27.4456 13.7832 27.4417C13.7858 27.4362 13.7884 27.4306 13.7912 27.4252C13.7945 27.4183 13.7979 27.4111 13.8012 27.4042C13.8053 27.3957 13.8094 27.3873 13.8135 27.3788C13.8185 27.3689 13.8233 27.3589 13.8283 27.3489C13.8339 27.3377 13.8395 27.3262 13.8454 27.3149C13.8517 27.3021 13.8582 27.2893 13.8647 27.2766C13.8718 27.2623 13.879 27.2482 13.8863 27.2339C13.8941 27.2183 13.9021 27.2029 13.9102 27.1873C13.919 27.1704 13.9277 27.1535 13.9366 27.1366C13.9461 27.1184 13.9557 27.1002 13.9654 27.082C13.9756 27.0625 13.986 27.043 13.9964 27.0235C14.0074 27.0027 14.0187 26.9821 14.03 26.9613C14.0419 26.9392 14.0538 26.9173 14.0659 26.8952C14.0785 26.872 14.0913 26.8489 14.1043 26.8257C14.1177 26.8012 14.1314 26.7769 14.145 26.7524C14.1593 26.7269 14.1738 26.7013 14.1884 26.6757C14.2035 26.6491 14.2187 26.6222 14.2339 26.5956C14.2499 26.5678 14.2659 26.5399 14.2822 26.5122C14.2991 26.4831 14.3158 26.4543 14.3329 26.4255C14.3504 26.3954 14.3682 26.3655 14.386 26.3354C14.4046 26.3044 14.423 26.2734 14.4416 26.2424C14.4609 26.2101 14.4804 26.1783 14.4999 26.1462C14.5201 26.1131 14.5404 26.0801 14.5606 26.047C14.5816 26.013 14.6028 25.9789 14.6241 25.9449C14.646 25.91 14.6678 25.8749 14.6899 25.8401C14.7127 25.8041 14.7354 25.7683 14.7584 25.7324C14.782 25.6955 14.8056 25.6589 14.8295 25.6221C14.854 25.5844 14.8784 25.5467 14.9031 25.5092C14.9285 25.4706 14.9538 25.4321 14.9794 25.3937C15.0056 25.3543 15.0318 25.3151 15.0583 25.2759C15.0854 25.2356 15.1127 25.1955 15.14 25.1554C15.1679 25.1144 15.1959 25.0737 15.2242 25.0328C15.2531 24.9912 15.2819 24.9496 15.3111 24.908C15.3408 24.8655 15.3707 24.823 15.4006 24.7808C15.4314 24.7377 15.4621 24.6945 15.4929 24.6516C15.5245 24.6079 15.5562 24.5641 15.588 24.5206C15.6203 24.4761 15.653 24.4317 15.6857 24.3873C15.7191 24.3422 15.7525 24.2974 15.7861 24.2523C15.8205 24.2066 15.8547 24.1611 15.8894 24.1156C15.9245 24.0692 15.9598 24.0231 15.9954 23.9772C16.0315 23.9304 16.0677 23.8836 16.1041 23.837C16.1412 23.7895 16.1782 23.7423 16.2157 23.6953C16.2536 23.6474 16.2918 23.5995 16.3299 23.5521C16.3689 23.5035 16.4079 23.4554 16.4471 23.4073C16.487 23.3584 16.5271 23.3098 16.5671 23.2613C16.6079 23.2119 16.6488 23.1629 16.69 23.114C16.7316 23.0643 16.7736 23.0147 16.8157 22.9653C16.8583 22.9153 16.9012 22.8654 16.9441 22.8158C16.9879 22.7653 17.0317 22.7151 17.0757 22.665C17.1203 22.6143 17.1649 22.5638 17.21 22.5134C17.2555 22.4622 17.3012 22.4115 17.3471 22.3608C17.3937 22.3095 17.4405 22.2583 17.4873 22.2074C17.5348 22.1556 17.5824 22.1043 17.6305 22.0532C17.6789 22.0014 17.7276 21.9496 17.7764 21.8982C17.826 21.8462 17.8756 21.7945 17.9254 21.7427C17.9759 21.6905 18.0266 21.6385 18.0773 21.5867C18.1289 21.5342 18.1804 21.4822 18.2324 21.4302C18.2849 21.3776 18.3375 21.3254 18.3904 21.2734C18.4437 21.2207 18.4974 21.1683 18.5512 21.1161C18.6058 21.0634 18.6604 21.0108 18.7152 20.9586C18.7706 20.9057 18.8263 20.8533 18.8822 20.801C18.9388 20.7482 18.9953 20.6955 19.0523 20.6433C19.1097 20.5904 19.1674 20.5378 19.2254 20.4854C19.2839 20.4327 19.3426 20.3801 19.4016 20.3278C19.4612 20.275 19.521 20.2223 19.581 20.1701C19.6414 20.1175 19.7023 20.065 19.7632 20.0128C19.8249 19.9602 19.8867 19.9077 19.9487 19.8557C20.0113 19.8031 20.0743 19.7509 20.1374 19.6989C20.2011 19.6464 20.265 19.5944 20.3291 19.5426C20.3939 19.4904 20.4589 19.4384 20.5241 19.3869C20.5898 19.3346 20.6559 19.2829 20.7222 19.2315C20.7889 19.1795 20.8561 19.1282 20.9234 19.0768C20.9913 19.0252 21.0595 18.9739 21.1278 18.923C21.1969 18.8716 21.266 18.8205 21.3355 18.7698C21.4055 18.7187 21.4759 18.668 21.5464 18.6175C21.6174 18.5668 21.6889 18.5163 21.7604 18.4662C21.8326 18.4158 21.9052 18.3657 21.9777 18.3159C22.0512 18.2658 22.1246 18.216 22.1985 18.1668C22.2728 18.117 22.3474 18.0676 22.4223 18.0186C22.4977 17.9694 22.5736 17.9205 22.6494 17.8719C22.7261 17.823 22.8028 17.7744 22.8799 17.7263C22.9575 17.6778 23.0355 17.6299 23.1137 17.5822C23.1924 17.5341 23.2715 17.4867 23.3508 17.4395C23.4307 17.392 23.5109 17.345 23.5913 17.2984C23.6723 17.2514 23.7535 17.205 23.835 17.1589C23.9171 17.1125 23.9995 17.0666 24.0822 17.0211C24.1654 16.9751 24.2488 16.9299 24.3327 16.885C24.417 16.8397 24.5017 16.7949 24.5864 16.7507C24.672 16.706 24.7578 16.6618 24.8438 16.6183C24.9305 16.5743 25.0174 16.5308 25.1045 16.4879C25.1922 16.4445 25.2804 16.4018 25.3686 16.3596C25.4576 16.3169 25.5467 16.2749 25.6362 16.2333C25.7263 16.1915 25.8166 16.1501 25.9072 16.1093C25.9984 16.0682 26.0899 16.0277 26.1817 15.9876C26.274 15.9473 26.3668 15.9074 26.4597 15.8682C26.5533 15.8285 26.6471 15.7895 26.7412 15.7512C26.8358 15.7124 26.931 15.6743 27.0261 15.6366C27.1221 15.5987 27.2183 15.5614 27.3145 15.5248C27.4117 15.4877 27.509 15.4513 27.6065 15.4154C27.7049 15.3794 27.8033 15.3439 27.9021 15.3088C28.0015 15.2737 28.1012 15.239 28.2013 15.205C28.3018 15.1707 28.4028 15.1372 28.5037 15.1042C28.6058 15.0709 28.7078 15.0381 28.8101 15.0061C28.9132 14.9738 29.0164 14.9422 29.1199 14.9112C29.2242 14.88 29.3288 14.8492 29.4335 14.8193C29.539 14.789 29.6445 14.7595 29.7504 14.7307C29.8573 14.7014 29.9641 14.6728 30.0711 14.6451C30.179 14.6169 30.2871 14.5896 30.3955 14.563C30.5047 14.5359 30.6141 14.5097 30.7235 14.4841C30.834 14.4583 30.9445 14.4332 31.0552 14.4087C31.1668 14.384 31.2786 14.3602 31.3906 14.337C31.5035 14.3134 31.6164 14.2906 31.7297 14.2688C31.8437 14.2464 31.9581 14.225 32.0725 14.2042C32.1877 14.1832 32.3032 14.163 32.4189 14.1433C32.5355 14.1236 32.6523 14.1047 32.7693 14.0863C32.8871 14.0679 33.005 14.0504 33.1231 14.0332C33.2422 14.0163 33.3616 13.9999 33.4808 13.9843C33.6013 13.9685 33.7217 13.9535 33.8424 13.9392C33.9642 13.9249 34.0859 13.9113 34.2077 13.8983C34.3308 13.8853 34.4538 13.8731 34.5769 13.8616C34.7011 13.8499 34.8254 13.8391 34.9498 13.8291C35.0752 13.819 35.2009 13.8096 35.3266 13.801C35.4533 13.7923 35.5803 13.7845 35.7073 13.7774C35.8353 13.77 35.9634 13.7637 36.0916 13.7581C36.221 13.7524 36.3505 13.7475 36.4799 13.7433C36.5204 13.7423 36.5607 13.7423 36.6012 13.742C36.6716 13.7414 36.7414 13.7429 36.812 13.7453C36.8445 13.7464 36.8768 13.7475 36.9093 13.7488C37.0385 13.7533 37.1674 13.7589 37.2965 13.7652C37.4243 13.7715 37.552 13.7784 37.6798 13.7862C37.8063 13.794 37.9326 13.8025 38.0592 13.8118C38.1844 13.8209 38.3096 13.8309 38.4347 13.8415C38.5586 13.8523 38.6825 13.8636 38.8065 13.8757C38.9291 13.8879 39.0517 13.9006 39.1744 13.9143C39.2957 13.9277 39.4172 13.942 39.5384 13.957C39.6586 13.9717 39.7789 13.9873 39.8987 14.0036C40.0176 14.0198 40.1366 14.0367 40.2553 14.0545C40.373 14.0718 40.4906 14.0902 40.608 14.1091C40.7246 14.1279 40.841 14.1474 40.9571 14.1676C41.0724 14.1877 41.1874 14.2085 41.3025 14.23C41.4164 14.2514 41.5302 14.2735 41.6439 14.2963C41.7568 14.3188 41.8693 14.342 41.9817 14.3658C42.0933 14.3897 42.2047 14.4141 42.316 14.4393C42.4263 14.4642 42.5364 14.4898 42.6464 14.5162C42.7554 14.5422 42.8644 14.5691 42.9732 14.5964C43.0811 14.6237 43.1888 14.6514 43.2962 14.68C43.403 14.7084 43.5094 14.7374 43.6158 14.7669C43.7213 14.7963 43.8266 14.8265 43.9317 14.857C44.0359 14.8876 44.1399 14.9185 44.2439 14.9504C44.3468 14.9818 44.4498 15.0139 44.5525 15.0466C44.6543 15.0791 44.7561 15.1122 44.8575 15.146C44.9583 15.1794 45.0586 15.2134 45.1589 15.2481C45.2584 15.2825 45.3578 15.3176 45.4568 15.3532C45.5552 15.3885 45.6533 15.4245 45.7511 15.4611C45.8483 15.4973 45.9452 15.5341 46.0418 15.5716C46.1378 15.6086 46.2336 15.6463 46.3291 15.6847C46.424 15.7226 46.5185 15.7612 46.613 15.8004C46.7066 15.8392 46.7999 15.8786 46.8931 15.9185C46.9856 15.9581 47.0777 15.9982 47.1698 16.0389C47.2612 16.0794 47.3522 16.1204 47.443 16.1618C47.5331 16.2029 47.6233 16.2448 47.7128 16.2868C47.8018 16.3288 47.8906 16.3713 47.9793 16.4142C48.067 16.4567 48.1548 16.4998 48.2421 16.5435C48.3287 16.5869 48.4154 16.6306 48.5016 16.6748C48.5872 16.7188 48.6726 16.7632 48.7575 16.8081C48.842 16.8527 48.9263 16.8978 49.0102 16.9433C49.0936 16.9886 49.1768 17.0343 49.2595 17.0804C49.3417 17.1262 49.4238 17.1723 49.5055 17.2191C49.5865 17.2655 49.6673 17.3123 49.7479 17.3595C49.8279 17.4063 49.9076 17.4535 49.9871 17.5014C50.066 17.5487 50.1446 17.5965 50.2231 17.6449C50.3006 17.6927 50.3782 17.7408 50.4555 17.7896C50.5322 17.8379 50.6085 17.8867 50.6848 17.9358C50.7602 17.9846 50.8356 18.0338 50.9105 18.0834C50.9851 18.1326 51.0594 18.1822 51.1333 18.232C51.2067 18.2816 51.2797 18.3317 51.3525 18.382C51.4249 18.4318 51.4971 18.4821 51.5688 18.5328C51.6401 18.583 51.7109 18.6337 51.7815 18.6846C51.8517 18.7353 51.9217 18.7863 51.9913 18.8374C52.0604 18.8883 52.1291 18.9394 52.1978 18.991C52.2656 19.0421 52.3334 19.0937 52.4008 19.1455C52.4677 19.1968 52.5345 19.2484 52.601 19.3004C52.6668 19.352 52.7325 19.404 52.7977 19.4562C52.8625 19.508 52.9271 19.56 52.9914 19.6124C53.0551 19.6644 53.1186 19.7166 53.1819 19.7691C53.2447 19.8211 53.3071 19.8735 53.3693 19.9261C53.431 19.9784 53.4923 20.0308 53.5537 20.0834C53.6143 20.1357 53.6746 20.1883 53.7348 20.2412C53.7944 20.2934 53.8537 20.346 53.9129 20.3989C53.9714 20.4513 54.0297 20.504 54.0877 20.5569C54.1454 20.6091 54.2026 20.6617 54.2596 20.7146C54.3161 20.767 54.3724 20.8197 54.4286 20.8725C54.484 20.9248 54.5393 20.9774 54.5943 21.0303C54.6487 21.0825 54.7029 21.1349 54.757 21.1878C54.8103 21.24 54.8636 21.2922 54.9167 21.3449C54.9691 21.3971 55.0214 21.4493 55.0734 21.5017C55.1249 21.5537 55.1761 21.606 55.2272 21.6582C55.2775 21.71 55.3277 21.762 55.3778 21.8142C55.4274 21.8657 55.4766 21.9175 55.5255 21.9695C55.5741 22.0209 55.6224 22.0724 55.6703 22.1242C55.7179 22.1754 55.7652 22.2267 55.8122 22.2783C55.8588 22.3292 55.9051 22.3803 55.9511 22.4315C55.9966 22.4822 56.0421 22.5329 56.0871 22.5838C56.1318 22.634 56.176 22.6845 56.2202 22.7352C56.2639 22.7851 56.3073 22.8353 56.3504 22.8856C56.3931 22.9352 56.4355 22.9848 56.4778 23.0349C56.5194 23.0841 56.561 23.1335 56.6022 23.1829C56.6429 23.2316 56.6834 23.2806 56.7239 23.3298C56.7636 23.3781 56.8032 23.4266 56.8427 23.4754C56.8814 23.5232 56.92 23.5711 56.9586 23.6194C56.9965 23.6669 57.0342 23.7143 57.0717 23.762C57.1087 23.809 57.1453 23.856 57.182 23.9033C57.2179 23.9496 57.2539 23.996 57.2896 24.0428C57.3247 24.0885 57.3596 24.1345 57.3943 24.1806C57.4285 24.2259 57.4625 24.2712 57.4963 24.3167C57.5295 24.3613 57.5626 24.4059 57.5956 24.4508C57.6279 24.4948 57.6601 24.539 57.692 24.5832C57.7234 24.6265 57.7548 24.6701 57.7858 24.7136C57.8164 24.7563 57.8467 24.799 57.877 24.8419C57.9065 24.8837 57.936 24.9257 57.9654 24.968C57.994 25.0091 58.0226 25.0505 58.051 25.0919C58.079 25.1324 58.1065 25.1729 58.134 25.2135C58.1611 25.2533 58.1877 25.293 58.2144 25.3328C58.2406 25.3716 58.2664 25.4106 58.2922 25.4496C58.3173 25.4878 58.3424 25.5259 58.3673 25.564C58.3916 25.6013 58.4157 25.6386 58.4397 25.6758C58.4631 25.7122 58.4865 25.7486 58.5097 25.785C58.5322 25.8203 58.5545 25.8559 58.5769 25.8914C58.5985 25.9259 58.6202 25.9603 58.6416 25.995C58.6624 26.0286 58.683 26.0621 58.7038 26.0957C58.7238 26.1282 58.7435 26.1609 58.7634 26.1934C58.7825 26.2251 58.8013 26.2567 58.8204 26.2883C58.8386 26.3187 58.8568 26.3492 58.8748 26.38C58.8923 26.4095 58.9097 26.4389 58.9268 26.4684C58.9435 26.4968 58.9599 26.5252 58.9764 26.5535C58.9922 26.5808 59.0078 26.6081 59.0234 26.6354C59.0384 26.6617 59.0531 26.6879 59.0678 26.7141C59.0819 26.739 59.096 26.7641 59.1099 26.7891C59.1233 26.8129 59.1365 26.8367 59.1495 26.8606C59.1621 26.8833 59.1744 26.9058 59.1868 26.9286C59.1985 26.9498 59.21 26.9713 59.2214 26.9927C59.2323 27.0129 59.2431 27.033 59.2539 27.0532C59.2639 27.072 59.2739 27.0909 59.2838 27.1097C59.2929 27.1273 59.3023 27.1448 59.3114 27.1624C59.3198 27.1786 59.3283 27.1949 59.3365 27.2111C59.3443 27.2261 59.3519 27.2408 59.3595 27.2558C59.3662 27.2692 59.3731 27.2828 59.3798 27.2963C59.3859 27.3084 59.392 27.3205 59.398 27.3325C59.4034 27.3433 59.4086 27.3539 59.4138 27.3645C59.4184 27.3738 59.4229 27.3829 59.4275 27.3923C59.4312 27.3998 59.4349 27.4076 59.4388 27.4154C59.4416 27.4215 59.4446 27.4278 59.4476 27.4341C59.4498 27.4388 59.4522 27.4434 59.4544 27.4482C59.4559 27.4514 59.4572 27.4544 59.4587 27.4577C58.1957 26.0212 56.1771 27.1147 56.1771 27.1147C55.5273 27.0579 55.3035 26.5306 55.3035 26.5306C55.5134 28.0561 56.9181 29.3056 56.9181 29.3056C55.9264 31.8731 57.9381 32.5617 57.9381 32.5617C56.4496 32.7522 55.6987 33.8262 55.6987 33.8262C61.5042 33.3309 61.3766 46.4548 60.9359 48.6148ZM72.2178 34.5947C72.3317 34.1323 72.4984 33.6739 72.4944 33.1976C72.4884 32.4798 72.1662 31.804 72.1677 31.083C72.1688 30.6678 72.1697 30.2525 72.1707 29.8373C72.172 29.1817 72.1707 28.5094 71.9402 27.8958C71.9194 27.8408 71.8735 27.7749 71.8182 27.7953C71.7892 27.8061 71.7742 27.8371 71.7584 27.8635C71.599 28.13 71.4432 27.7983 71.3998 27.6622C71.3244 27.4261 71.2865 27.1799 71.2588 26.9342C71.2031 26.4422 71.1918 25.9352 71.0153 25.4665C70.9897 25.3989 70.9598 25.3309 70.9082 25.2804C70.5834 24.9621 70.6283 25.7111 70.6246 25.8492C70.6185 26.0786 70.6068 26.3078 70.5889 26.5364C70.4933 27.7578 70.2214 28.9685 69.7436 30.0982C69.429 30.8425 69.0269 31.554 68.529 32.1912C68.3899 32.3693 68.2432 32.5422 68.0859 32.7045C68.066 32.7253 67.9128 32.8432 67.9139 32.872C67.8374 30.9397 65.4857 25.7449 65.4857 25.7449C65.2223 25.413 65.8064 25.3521 66.0235 25.2767C66.1461 25.234 66.2716 25.1955 66.3829 25.1285C66.4941 25.0618 66.592 24.9619 66.6256 24.8365C66.6566 24.7201 66.6297 24.5973 66.6154 24.4777C66.6122 24.4514 66.6102 24.4228 66.6243 24.4005C66.6371 24.3806 66.66 24.37 66.6824 24.3617C66.7998 24.3193 66.9298 24.3171 67.0446 24.2679C67.1044 24.2426 67.1664 24.1817 67.1406 24.1223C67.1257 24.0879 67.0873 24.0712 67.0522 24.0586C66.8379 23.9811 66.6126 23.9349 66.3851 23.9219C66.2666 23.9152 66.1452 23.9171 66.0326 23.8799C65.7873 23.7991 65.638 23.5575 65.5093 23.3334C65.4402 23.213 65.3704 23.091 65.334 22.9569C65.2855 22.7781 65.2244 22.3938 65.4456 22.2997C65.5059 22.2739 65.5743 22.2796 65.6398 22.2824C65.8898 22.2932 66.1392 22.2553 66.3864 22.2174C66.5407 22.1938 66.6947 22.1702 66.849 22.1465C66.9151 22.1366 66.9827 22.126 67.0418 22.0945C67.101 22.0633 67.151 22.0068 67.1564 21.9401C67.1666 21.8105 66.958 21.7843 66.9632 21.6237C66.9697 21.4198 67.1558 21.4168 67.2858 21.5111C67.8677 21.9331 68.4982 22.2971 69.0848 22.7194C69.1088 22.7367 69.1329 22.7541 69.1567 22.7714C69.0655 22.5331 68.9658 22.2958 68.8261 22.0822C68.5667 21.6855 68.1832 21.3893 67.8073 21.1007C67.5571 20.9087 67.3068 20.7168 67.0565 20.5248C66.9435 20.4381 66.8301 20.351 66.7079 20.2778C66.5872 20.2052 66.4588 20.1467 66.3296 20.0906C66.0042 19.9495 65.6883 19.8596 65.3453 19.7899C65.0643 19.7327 64.7952 19.4785 64.6526 19.2406C64.5608 19.0874 64.4975 18.9104 64.3616 18.7945C64.2477 18.6974 64.0971 18.6567 63.9508 18.6253C63.6092 18.552 63.2465 18.5165 62.9154 18.6277C62.7314 18.6894 62.5603 18.7936 62.3631 18.7832C62.1636 18.7726 61.9443 18.6872 61.7768 18.5822C61.5714 18.453 61.405 18.253 61.3456 18.018C61.2806 17.7612 61.2852 17.236 61.4585 17.0124C61.5443 16.9015 61.6815 16.8139 61.5398 16.6577C61.5027 16.6168 61.4509 16.5925 61.3998 16.5719C61.3116 16.5366 61.2206 16.5091 61.1288 16.4846C61.0774 16.4707 61.0213 16.4547 60.9918 16.4105C60.9613 16.3641 60.9721 16.2983 61.0074 16.2554C61.0969 16.146 61.2804 16.1455 61.3825 16.0348C61.4423 15.97 61.478 15.8779 61.4574 15.7924C61.4382 15.7133 61.3749 15.6517 61.3056 15.6091C61.1706 15.5259 61.0022 15.499 60.8482 15.5358C60.4909 15.6214 60.3531 15.9696 60.3836 16.3013C59.9646 16.1297 59.5395 15.8368 59.1963 15.5425C58.8148 15.2156 58.3517 14.6828 58.3405 14.1546C58.3394 14.1021 58.3429 14.0488 58.332 13.9975C58.321 13.9461 58.2924 13.8952 58.2449 13.8731C58.1459 13.827 58.0532 13.9678 58.0133 14.0389C57.8016 14.4137 57.494 14.6774 57.0988 14.8579C56.4936 15.1341 55.7 15.2942 55.0365 15.2992C54.4179 15.3038 53.7965 15.2981 53.1764 15.2971C53.5521 15.0891 54.0152 14.8466 54.3189 14.5424C54.6071 14.2536 54.7585 13.7472 54.785 13.3523C54.7995 13.138 54.7861 12.9228 54.7874 12.7081C54.7878 12.6292 54.7902 12.5499 54.8056 12.4724C54.8164 12.4182 54.8335 12.3653 54.8513 12.3127C54.8836 12.2182 54.9191 12.1231 54.9774 12.0419C55.0792 11.9002 55.225 11.888 55.3702 11.815C55.3992 11.8005 55.4315 11.7758 55.4261 11.7439C55.4237 11.7303 55.4144 11.7188 55.4051 11.7088C55.3295 11.628 55.2196 11.5908 55.1243 11.5344C55.0177 11.4716 54.9408 11.373 54.947 11.245C54.9527 11.128 54.9737 11.0179 54.8953 10.9158C54.8391 10.8428 54.7479 10.8153 54.6684 10.7759C54.5713 10.728 54.5256 10.7003 54.5384 10.5822C54.5482 10.4912 54.5579 10.4002 54.5679 10.3092C54.5707 10.2817 54.5735 10.2526 54.562 10.2275C54.5317 10.1616 54.4374 10.1705 54.3657 10.1824C54.0691 10.2323 53.7682 10.1491 53.4789 10.0667C53.2865 10.0119 53.0943 9.95579 52.9015 9.90205C52.7609 9.86284 52.6105 9.82449 52.5204 9.69753C52.4718 9.62927 52.453 9.54196 52.3975 9.47956C52.2131 9.27243 51.9739 9.51617 51.7633 9.51119C51.7317 9.51054 51.6992 9.50555 51.671 9.49104C51.5995 9.45421 51.5718 9.36863 51.5259 9.30298C51.439 9.17839 51.2836 9.12228 51.1346 9.09367C50.9857 9.06486 50.8304 9.05554 50.6921 8.99249C50.6187 8.95912 50.5439 8.89478 50.5522 8.81417C50.5587 8.75372 50.61 8.70888 50.6601 8.67442C50.8759 8.52579 51.1322 8.44844 51.3876 8.39037C51.4973 8.36546 51.6091 8.34357 51.7213 8.34899C51.8335 8.35419 51.9479 8.38929 52.0303 8.466C52.0701 8.50304 52.1016 8.54854 52.1419 8.58516C52.3776 8.799 52.7171 8.68894 52.9825 8.62741C53.1812 8.58147 53.3922 8.58971 53.5868 8.65102C53.7588 8.70519 53.9153 8.79901 54.07 8.89196C54.2929 9.02608 54.5159 9.16019 54.739 9.29431C54.8465 9.35888 54.9609 9.42561 55.0864 9.42561C55.2116 9.42561 55.3689 9.32984 55.3624 9.20461C55.8371 9.53178 56.3957 9.72092 56.9051 9.98721C57.0036 10.0388 57.097 10.0997 57.1893 10.1616C57.526 10.3878 57.8504 10.6318 58.1689 10.8827C58.3283 11.0084 58.4863 11.1358 58.6436 11.2636C58.7623 11.36 58.8871 11.5063 59.0566 11.4846C59.0659 11.4833 59.0756 11.4813 59.0828 11.4751C59.0945 11.4647 59.0947 11.4465 59.0934 11.4306C59.0791 11.2447 58.9942 11.1251 58.9101 10.9709C58.3476 9.9389 57.6181 9.07071 56.6782 8.36004C56.3253 8.09311 55.9535 7.85109 55.5684 7.63291C54.9449 7.27996 54.2788 6.98139 53.5914 6.77751C52.9502 6.58706 52.2675 6.42715 51.7553 5.978C51.4037 5.66969 51.0917 5.33624 50.6993 5.07212C50.1429 4.69707 49.5146 4.43166 48.8544 4.30772C48.1348 4.17274 47.5126 4.22626 47.0755 4.30512C47.4905 4.44878 47.9528 4.58549 48.3277 4.81429C48.6507 5.01124 49.0156 5.13019 49.2314 5.46689C49.2747 5.53449 49.3113 5.60946 49.3146 5.68963C49.323 5.88918 49.1347 6.03391 48.9668 6.14181C48.7517 6.28047 48.5363 6.41893 48.3209 6.55738C48.127 6.68217 47.9823 6.81283 47.7398 6.79137C47.4506 6.76581 47.1689 6.62605 46.9845 6.39986C46.9432 6.34894 46.9046 6.2887 46.9091 6.22327C46.9178 6.09306 47.2417 6.06641 47.3462 6.02373C47.3964 6.00336 47.4491 5.9791 47.4788 5.93337C47.5479 5.82721 47.4491 5.68702 47.3373 5.62722C47.2255 5.56742 47.0896 5.53796 47.0121 5.43764C46.9525 5.3605 46.9321 5.24697 46.8454 5.20277C46.78 5.16941 46.6977 5.19064 46.6398 5.23528C46.5818 5.28012 46.543 5.34447 46.5055 5.40731C46.3408 5.68399 46.1764 5.96046 46.0117 6.23692C45.9643 6.31644 45.9157 6.39748 45.846 6.45836C45.7762 6.51924 45.6804 6.55781 45.5903 6.53658C45.4757 6.50971 45.4035 6.39921 45.3463 6.29651C45.2051 6.04301 45.079 5.76416 45.0998 5.47469C45.1162 5.24199 45.2256 4.99933 45.132 4.78569C44.9728 4.77919 44.8506 4.92241 44.7702 5.05999C44.6547 5.25824 44.5689 5.47599 44.4229 5.65323C44.2771 5.83046 44.0474 5.96457 43.8234 5.91409C43.7995 5.90867 43.7748 5.90044 43.7595 5.88137C43.7456 5.86426 43.7419 5.84129 43.7408 5.81919C43.7337 5.66861 43.834 5.51933 43.792 5.37459C43.7577 5.25672 43.6407 5.18522 43.5302 5.13148C43.4464 5.09075 43.3584 5.05305 43.265 5.04699C43.0596 5.03399 42.8709 5.13647 42.662 5.09249C42.4629 5.05045 42.2915 4.88731 42.1509 4.74777C41.1592 3.76454 40.6356 2.41492 39.8441 1.26442C39.7648 1.14894 39.6798 1.03281 39.5626 0.956322C39.313 0.793175 39.0775 0.908875 39.0576 1.20506C39.048 1.34741 39.0931 1.48737 39.1425 1.62128C39.536 2.68944 40.2291 3.6406 40.5131 4.743C40.5394 4.84484 40.5621 4.94841 40.5669 5.05349C40.5764 5.26778 40.4962 5.46342 40.3654 5.63351C40.2317 5.62917 40.134 5.50957 40.0137 5.45107C39.9812 5.43504 39.9444 5.42334 39.9091 5.43071C39.8473 5.44328 39.8096 5.51022 39.807 5.57327C39.8046 5.63611 39.8285 5.69678 39.8482 5.75658C39.8774 5.84476 39.898 5.93597 39.9102 6.02827C39.9336 6.20898 39.7589 6.34352 39.614 6.42629C39.4188 6.53809 39.1806 6.59183 38.9588 6.54697C38.7226 6.49888 38.2815 6.34483 38.3168 6.03023C38.333 5.88549 38.4815 5.78041 38.5874 5.69872C38.7638 5.56331 38.959 5.45476 39.1538 5.34859C39.2175 5.31393 39.2844 5.28077 39.3317 5.22574C39.3791 5.17071 39.4019 5.08685 39.3642 5.02489C39.3143 4.94299 39.1969 4.94278 39.1024 4.95837C38.8348 5.00258 38.5948 5.14427 38.33 5.17742C38.1508 5.19974 37.9528 5.20364 37.8083 5.09509C37.4464 4.82339 37.8423 4.288 37.7894 3.93896C37.784 3.90342 37.7734 3.86572 37.7452 3.84362C37.7134 3.81849 37.6681 3.82001 37.6289 3.82954C37.4163 3.88132 37.3008 4.1086 37.2354 4.31725C37.2103 4.39699 37.186 4.48192 37.1245 4.53848C37.0629 4.59502 36.978 4.60976 36.8972 4.60802C36.8558 4.60715 36.8131 4.60326 36.7724 4.59567C36.7345 4.58831 36.6864 4.58311 36.6482 4.5909C36.614 4.59784 36.5865 4.60781 36.5503 4.60802C36.4721 4.60867 36.3906 4.59307 36.3315 4.53848C36.2699 4.48192 36.2455 4.39699 36.2205 4.31725C36.1549 4.1086 36.0396 3.88132 35.8271 3.82954C35.7876 3.82001 35.7424 3.81849 35.7107 3.84362C35.6823 3.86572 35.6717 3.90342 35.6663 3.93896C35.6134 4.288 36.0093 4.82339 35.6477 5.09509C35.5032 5.20364 35.3051 5.19974 35.1257 5.17742C34.861 5.14427 34.6211 5.00258 34.3535 4.95837C34.2588 4.94278 34.1414 4.94299 34.0918 5.02489C34.0541 5.08685 34.0766 5.17071 34.1241 5.22574C34.1715 5.28077 34.2385 5.31393 34.3022 5.34859C34.4967 5.45476 34.6922 5.56331 34.8683 5.69872C34.9745 5.78041 35.1227 5.88549 35.1389 6.03023C35.1743 6.34483 34.7331 6.49888 34.4972 6.54697C34.2753 6.59183 34.037 6.53809 33.8418 6.42629C33.697 6.34352 33.5224 6.20898 33.5458 6.02827C33.5577 5.93597 33.5785 5.84476 33.6075 5.75658C33.6273 5.69678 33.6511 5.63611 33.6487 5.57327C33.6463 5.51022 33.6086 5.44328 33.5469 5.43071C33.5113 5.42334 33.4745 5.43504 33.442 5.45107C33.3218 5.50957 33.224 5.62917 33.0904 5.63351C32.9595 5.46342 32.8793 5.26778 32.8889 5.05349C32.8936 4.94841 32.9164 4.84484 32.9426 4.743C33.2266 3.6406 33.92 2.68944 34.3132 1.62128C34.3626 1.48737 34.4077 1.34741 34.3982 1.20506C34.3784 0.908875 34.1429 0.793175 33.8931 0.956322C33.7759 1.03281 33.6912 1.14894 33.6117 1.26442C32.8202 2.41492 32.2965 3.76454 31.305 4.74777C31.1644 4.88731 30.9928 5.05045 30.7937 5.09249C30.5848 5.13647 30.3961 5.03399 30.1907 5.04699C30.0975 5.05305 30.0096 5.09075 29.9255 5.13148C29.815 5.18522 29.6982 5.25672 29.664 5.37459C29.622 5.51933 29.7221 5.66861 29.7151 5.81919C29.714 5.84129 29.7101 5.86426 29.6963 5.88137C29.6809 5.90044 29.6562 5.90867 29.6324 5.91409C29.4085 5.96457 29.1787 5.83046 29.0328 5.65323C28.887 5.47599 28.8012 5.25824 28.6855 5.05999C28.6054 4.92241 28.4829 4.77919 28.3239 4.78569C28.2303 4.99933 28.3395 5.24199 28.3562 5.47469C28.3768 5.76416 28.2507 6.04301 28.1094 6.29651C28.0522 6.39921 27.9801 6.50971 27.8657 6.53658C27.7755 6.55781 27.6795 6.51924 27.6098 6.45836C27.54 6.39748 27.4915 6.31644 27.4442 6.23692C27.2796 5.96046 27.1149 5.68399 26.9502 5.40731C26.9128 5.34447 26.874 5.28012 26.8161 5.23528C26.7581 5.19064 26.6757 5.16941 26.6105 5.20277C26.5236 5.24697 26.5035 5.3605 26.4437 5.43764C26.3661 5.53796 26.2305 5.56742 26.1187 5.62722C26.0069 5.68702 25.9079 5.82721 25.9772 5.93337C26.0069 5.9791 26.0595 6.00336 26.1098 6.02373C26.2142 6.06641 26.5379 6.09306 26.5468 6.22327C26.5511 6.2887 26.5126 6.34894 26.4712 6.39986C26.2868 6.62605 26.0054 6.76581 25.7159 6.79137C25.4737 6.81283 25.3289 6.68217 25.1348 6.55738C24.9194 6.41893 24.7043 6.28047 24.4889 6.14181C24.321 6.03391 24.1329 5.88918 24.1412 5.68963C24.1446 5.60946 24.181 5.53449 24.2244 5.46689C24.4404 5.13019 24.8052 5.01124 25.1281 4.81429C25.5031 4.58549 25.9653 4.44878 26.3802 4.30512C25.9434 4.22626 25.3209 4.17274 24.6014 4.30772C23.9412 4.43166 23.3131 4.69707 22.7564 5.07212C22.3641 5.33624 22.0521 5.66969 21.7004 5.978C21.1882 6.42715 20.5057 6.58706 19.8646 6.77751C19.1771 6.98139 18.5111 7.27996 17.8875 7.63291C17.5023 7.85109 17.1307 8.09311 16.7775 8.36004C15.8378 9.07071 15.1081 9.9389 14.5459 10.9709C14.4616 11.1251 14.3766 11.2447 14.3623 11.4306C14.361 11.4465 14.3613 11.4647 14.3732 11.4751C14.3801 11.4813 14.3899 11.4833 14.3992 11.4846C14.5686 11.5063 14.6936 11.36 14.8121 11.2636C14.9697 11.1358 15.1276 11.0084 15.2869 10.8827C15.6056 10.6318 15.9299 10.3878 16.2666 10.1616C16.3589 10.0997 16.4523 10.0388 16.5509 9.98721C17.0601 9.72092 17.6188 9.53178 18.0936 9.20461C18.0868 9.32984 18.2441 9.42561 18.3696 9.42561C18.4948 9.42561 18.6094 9.35888 18.7169 9.29431C18.9399 9.16019 19.1628 9.02608 19.386 8.89196C19.5405 8.79901 19.6971 8.70519 19.8691 8.65102C20.0635 8.58971 20.2745 8.58147 20.4732 8.62741C20.7386 8.68894 21.0781 8.799 21.3139 8.58516C21.3542 8.54854 21.3856 8.50304 21.4255 8.466C21.508 8.38929 21.6222 8.35419 21.7346 8.34899C21.8469 8.34357 21.9587 8.36546 22.0683 8.39037C22.3235 8.44844 22.5801 8.52579 22.7957 8.67442C22.8457 8.70888 22.8973 8.75372 22.9036 8.81417C22.912 8.89478 22.8373 8.95912 22.7636 8.99249C22.6256 9.05554 22.4702 9.06486 22.3212 9.09367C22.1723 9.12228 22.0167 9.17839 21.9301 9.30298C21.8841 9.36863 21.8562 9.45421 21.7849 9.49104C21.7565 9.50555 21.7242 9.51054 21.6924 9.51119C21.4818 9.51617 21.2426 9.27243 21.0584 9.47956C21.0027 9.54196 20.9841 9.62927 20.9356 9.69753C20.8452 9.82449 20.6951 9.86284 20.5542 9.90205C20.3614 9.95579 20.1694 10.0119 19.9768 10.0667C19.6878 10.1491 19.3866 10.2323 19.09 10.1824C19.0185 10.1705 18.924 10.1616 18.8939 10.2275C18.8824 10.2526 18.885 10.2817 18.8881 10.3092L18.9175 10.5822C18.9303 10.7003 18.8846 10.728 18.7873 10.7759C18.708 10.8153 18.6166 10.8428 18.5605 10.9158C18.4823 11.0179 18.5031 11.128 18.5089 11.245C18.5152 11.373 18.4381 11.4716 18.3315 11.5344C18.2361 11.5908 18.1265 11.628 18.0509 11.7088C18.0413 11.7188 18.0322 11.7303 18.0299 11.7439C18.0242 11.7758 18.0567 11.8005 18.0855 11.815C18.2309 11.888 18.3767 11.9002 18.4786 12.0419C18.5369 12.1231 18.5724 12.2182 18.6045 12.3127C18.6224 12.3653 18.6393 12.4182 18.6502 12.4724C18.6656 12.5499 18.6682 12.6292 18.6686 12.7081C18.6697 12.9228 18.6562 13.138 18.6708 13.3523C18.6974 13.7472 18.8489 14.2536 19.137 14.5424C19.4406 14.8466 19.9036 15.0891 20.2793 15.2971C19.6592 15.2981 19.0378 15.3038 18.4194 15.2992C17.756 15.2942 16.9623 15.1341 16.357 14.8579C15.9618 14.6774 15.6541 14.4137 15.4426 14.0389C15.4026 13.9678 15.3098 13.827 15.211 13.8731C15.1634 13.8952 15.1348 13.9461 15.1239 13.9975C15.1129 14.0488 15.1163 14.1021 15.1153 14.1546C15.1042 14.6828 14.641 15.2156 14.2594 15.5425C13.9164 15.8368 13.4911 16.1297 13.0721 16.3013C13.1029 15.9696 12.9648 15.6214 12.6076 15.5358C12.4535 15.499 12.2852 15.5259 12.1504 15.6091C12.0808 15.6517 12.0176 15.7133 11.9985 15.7924C11.9777 15.8779 12.0135 15.97 12.0733 16.0348C12.1755 16.1455 12.3588 16.146 12.4483 16.2554C12.4836 16.2983 12.4947 16.3641 12.4639 16.4105C12.4347 16.4547 12.3783 16.4707 12.327 16.4846C12.2353 16.5091 12.1441 16.5366 12.0561 16.5719C12.0048 16.5925 11.9532 16.6168 11.9162 16.6577C11.7745 16.8139 11.9114 16.9015 11.9972 17.0124C12.1705 17.236 12.1751 17.7612 12.1103 18.018C12.0509 18.253 11.8843 18.453 11.6789 18.5822C11.5117 18.6872 11.2922 18.7726 11.0926 18.7832C10.8957 18.7936 10.7243 18.6894 10.5406 18.6277C10.2093 18.5165 9.84678 18.552 9.5051 18.6253C9.35863 18.6567 9.20827 18.6974 9.0943 18.7945C8.95824 18.9104 8.89518 19.0874 8.80332 19.2406C8.66075 19.4785 8.39143 19.7327 8.11042 19.7899C7.76743 19.8596 7.45153 19.9495 7.1261 20.0906C6.99697 20.1467 6.86848 20.2052 6.7478 20.2778C6.6256 20.351 6.51229 20.4381 6.39919 20.5248C6.14915 20.7168 5.8989 20.9087 5.64865 21.1007C5.27252 21.3893 4.88923 21.6855 4.62988 22.0822C4.49013 22.2958 4.39047 22.5331 4.29903 22.7714C4.32308 22.7541 4.34713 22.7367 4.37118 22.7194C4.95748 22.2971 5.5882 21.9331 6.16995 21.5111C6.29995 21.4168 6.48628 21.4198 6.49278 21.6237C6.49798 21.7843 6.28912 21.8105 6.29952 21.9401C6.30472 22.0068 6.35498 22.0633 6.41413 22.0945C6.47328 22.126 6.54088 22.1366 6.60697 22.1465C6.76102 22.1702 6.91528 22.1938 7.06933 22.2174C7.31677 22.2553 7.56593 22.2932 7.81597 22.2824C7.8814 22.2796 7.94987 22.2739 8.01032 22.2997C8.23132 22.3938 8.17044 22.7781 8.12169 22.9569C8.08529 23.091 8.01552 23.213 7.9464 23.3334C7.81792 23.5575 7.66863 23.7991 7.42337 23.8799C7.31048 23.9171 7.18937 23.9152 7.07063 23.9219C6.84335 23.9349 6.6178 23.9811 6.40373 24.0586C6.36842 24.0712 6.33007 24.0879 6.31533 24.1223C6.28933 24.1817 6.35152 24.2426 6.4111 24.2679C6.52615 24.3171 6.65593 24.3193 6.77337 24.3617C6.79568 24.37 6.81887 24.3806 6.83143 24.4005C6.84573 24.4228 6.84357 24.4514 6.84053 24.4777C6.82602 24.5973 6.79915 24.7201 6.83035 24.8365C6.86393 24.9619 6.96165 25.0618 7.07302 25.1285C7.18417 25.1955 7.30962 25.234 7.43225 25.2767C7.64935 25.3521 8.2337 25.413 7.97023 25.7449C7.97023 25.7449 5.61853 30.9397 5.54183 32.872C5.54292 32.8432 5.38995 32.7253 5.3698 32.7045C5.21271 32.5422 5.06604 32.3693 4.92694 32.1912C4.42882 31.554 4.0269 30.8425 3.7123 30.0982C3.23455 28.9685 2.96242 27.7578 2.86687 26.5364C2.84889 26.3078 2.83718 26.0786 2.83112 25.8492C2.82765 25.7111 2.8725 24.9621 2.54771 25.2804C2.49615 25.3309 2.46603 25.3989 2.44068 25.4665C2.26388 25.9352 2.25262 26.4422 2.19715 26.9342C2.16942 27.1799 2.1315 27.4261 2.0561 27.6622C2.01255 27.7983 1.85698 28.13 1.69752 27.8635C1.68148 27.8371 1.66653 27.8061 1.6375 27.7953C1.58247 27.7749 1.53631 27.8408 1.51573 27.8958C1.28498 28.5094 1.28368 29.1817 1.2852 29.8373C1.28606 30.2525 1.28715 30.6678 1.28801 31.083C1.28975 31.804 0.967567 32.4798 0.961501 33.1976C0.957384 33.6739 1.124 34.1323 1.23797 34.5947C1.3385 35.0031 1.36991 35.3821 1.26266 35.7868C1.15411 36.1965 1.28022 36.645 1.42214 37.03C1.58377 37.4683 1.79068 37.9032 1.81127 38.3701C1.81712 38.5044 1.80736 38.6392 1.81928 38.7731C1.84745 39.0873 1.99283 39.3772 2.08405 39.679C2.12933 39.8291 2.1614 39.9884 2.13172 40.1422C2.08947 40.3604 1.95384 40.5288 1.92827 40.7534C1.89967 41.0065 1.90833 41.2639 1.95427 41.5144C1.98287 41.67 2.02577 41.8249 2.02057 41.983C2.01233 42.2393 1.87952 42.472 1.78115 42.7089C1.37317 43.6908 1.31792 44.8961 1.62537 45.9142C1.69275 46.1374 1.77985 46.3538 1.86803 46.5694C1.96315 46.8017 2.06216 47.0368 2.22076 47.2309C2.3681 47.4112 2.56592 47.5444 2.71087 47.726C2.8374 47.8844 2.9232 48.0854 2.97932 48.2807C3.08765 48.657 3.10108 49.1064 3.39878 49.3965C3.61393 49.606 3.93092 49.6719 4.231 49.6836C4.45828 49.6925 4.68817 49.6754 4.90744 49.6147C5.37219 49.4862 5.81202 49.1621 6.28695 49.2453C6.51055 49.9516 6.74737 50.6543 7.00022 51.3504C7.13087 51.7105 7.2704 52.0743 7.43203 52.4227C7.48057 52.5271 7.5668 52.6513 7.5577 52.7717C7.54362 52.9598 7.36725 52.9444 7.22555 52.9516C7.09945 52.9581 6.98115 53.0458 6.93847 53.1646C6.90229 53.2644 6.91745 53.3745 6.91962 53.4807C6.922 53.5871 6.90553 53.7045 6.8258 53.7747C6.76903 53.8245 6.69082 53.8408 6.61585 53.8488C6.54088 53.857 6.46353 53.859 6.39355 53.8869C6.21112 53.9599 6.23993 54.1534 6.41955 54.2054C6.49733 54.228 6.57988 54.2219 6.66092 54.2232C6.85115 54.2264 7.03813 54.2711 7.22252 54.3174C7.34602 54.3486 7.47017 54.3811 7.58479 54.4364C7.94467 54.6095 8.29263 55.0985 8.10002 55.4998C8.01855 55.6694 7.85735 55.7964 7.67557 55.8454C7.56983 55.8735 7.45933 55.8768 7.34992 55.8798C6.8011 55.8952 6.25705 55.9013 5.71603 55.7975C5.3594 55.7288 4.99626 55.6495 4.6743 55.4749C4.36837 55.3089 4.06741 55.0946 3.93265 54.761C4.04076 55.3681 4.19438 55.9255 4.64743 56.3704C4.91827 56.6364 5.24067 56.8431 5.5648 57.0407C5.78493 57.1751 6.00723 57.3059 6.22932 57.4368C6.40417 57.5399 6.5788 57.6428 6.75365 57.7458C7.11613 57.9594 7.4953 58.1784 7.91498 58.2107C8.04498 58.2209 8.1765 58.2125 8.30585 58.2304C8.53075 58.2614 8.68242 58.4088 8.781 58.6051C8.88804 58.8185 8.88153 59.0817 9.02562 59.273C9.10427 59.3773 9.22452 59.454 9.35495 59.462C9.52027 59.4719 9.68624 59.3747 9.8457 59.4191C9.98784 59.4585 10.1133 59.6182 10.2747 59.5645C10.4125 59.5185 10.494 59.3727 10.6653 59.3989C10.6966 59.4037 10.726 59.4163 10.7551 59.4286C10.9303 59.5034 11.0909 59.6113 11.2647 59.4615C11.3622 59.3777 11.3944 59.3584 11.5173 59.4056C11.6163 59.4438 11.7032 59.5014 11.7814 59.5727C11.929 59.7068 12.0505 59.8853 12.1136 60.0749C12.174 60.2563 12.182 60.4534 12.1426 60.6402C12.0999 60.8434 11.9972 60.9526 11.8687 61.1069C11.8098 61.1778 11.7619 61.2703 11.7857 61.3593C11.8349 61.5431 12.057 61.5119 12.1786 61.6081C12.2043 61.6284 12.2247 61.6583 12.2256 61.6913C12.2271 61.74 12.189 61.779 12.1582 61.8165C12.0778 61.9138 12.0379 62.0347 12.0577 62.1608C12.0624 62.1905 12.0704 62.2199 12.085 62.2461C12.1341 62.3356 12.2427 62.3714 12.3426 62.392C12.4006 62.4039 12.4594 62.4132 12.5185 62.4138C12.9497 62.4182 13.1029 62.0342 13.1863 61.6804C13.274 61.8304 13.3858 61.9801 13.5492 62.0392C13.6634 62.0804 13.7871 62.0602 13.9086 62.0657C14.0042 62.07 14.0991 62.0862 14.1925 62.107C14.4934 62.174 14.8017 62.3007 14.9764 62.5545C15.1257 62.7713 15.1549 63.0476 15.1577 63.3108C15.1608 63.5739 15.1426 63.8423 15.2138 64.0958C15.2281 64.1467 15.2511 64.2024 15.3003 64.2224C15.3718 64.2512 15.4452 64.1877 15.4923 64.1266C15.5486 64.0534 15.5999 63.9764 15.6496 63.8987C15.687 63.8397 15.7286 63.7316 15.8138 63.7349C15.8478 63.7364 15.8792 63.752 15.9093 63.7676C16.3693 64.0066 16.7777 64.332 17.1829 64.6555C17.5972 64.9861 18.0117 65.317 18.4259 65.6476C18.5273 65.7284 18.6387 65.8318 18.6268 65.9607C18.6112 66.1292 18.448 66.1656 18.3217 66.2265C18.26 66.2564 18.1999 66.3034 18.1843 66.3702C18.169 66.4352 18.2004 66.5045 18.2498 66.5491C18.2994 66.5938 18.3642 66.6174 18.4287 66.6339C18.4651 66.6432 18.5041 66.6514 18.5317 66.677C18.5802 66.7225 18.573 66.8 18.5587 66.8648C18.5434 66.9348 18.5239 67.0054 18.5295 67.0769C18.5349 67.1484 18.5717 67.2228 18.638 67.2498C18.7069 67.278 18.7891 67.2494 18.8582 67.2774C18.9407 67.3107 18.9734 67.4121 18.9713 67.5012C18.9691 67.5902 18.9425 67.6784 18.9503 67.767C18.9578 67.8559 19.0163 67.9514 19.1054 67.9562C19.2144 67.962 19.3186 67.8673 19.4271 67.8491C19.5524 67.8283 19.6824 67.8431 19.8041 67.8754C19.9976 67.9265 20.1779 68.0181 20.369 68.0773C20.5945 68.1473 20.8554 68.1843 20.9988 68.3722C21.0335 68.4175 21.0589 68.4695 21.0918 68.516C21.1529 68.6021 21.2482 68.6716 21.3537 68.6714C21.4684 68.671 21.5678 68.5906 21.6807 68.57C21.807 68.547 21.9446 68.6086 22.0118 68.718C22.0434 68.7698 22.0601 68.83 22.0943 68.88C22.1816 69.0081 22.3573 69.0389 22.5123 69.0313C22.6056 69.0267 22.7021 69.0126 22.7911 69.0417C22.8802 69.0705 22.9586 69.1608 22.9356 69.2516C22.9218 69.3058 22.8765 69.3457 22.8314 69.3784C22.5552 69.5799 22.2072 69.6494 21.8707 69.7105C21.7827 69.7263 21.6809 69.7476 21.5932 69.7201C21.5169 69.6958 21.4541 69.6332 21.3906 69.5857C21.2162 69.4557 21.0153 69.3188 20.8008 69.3537C20.7187 69.3671 20.6431 69.4052 20.5651 69.4345C20.2854 69.5398 19.9645 69.5303 19.6913 69.4087C19.5808 69.3595 19.4787 69.2932 19.3758 69.2293C19.0835 69.0475 18.7808 68.8826 18.4695 68.7357C18.4255 68.7149 18.3793 68.6941 18.3308 68.6954C18.1746 68.7 18.1484 68.8584 18.1278 68.9773C18.1245 68.9962 18.1204 69.0168 18.1061 69.0298C18.0851 69.0488 18.0517 69.0434 18.0253 69.0328C17.8864 68.9771 17.8149 68.8278 17.7218 68.7108C17.4739 68.3997 17.0529 68.3033 16.6885 68.144C16.2638 67.9586 15.8955 67.6715 15.5371 67.3827C15.3536 67.2345 15.1714 67.0845 14.9818 66.9439C14.8089 66.8161 14.6282 66.6336 14.4068 66.61C14.3953 66.6087 14.3823 66.6083 14.3734 66.6157C14.3675 66.6204 14.3645 66.628 14.3621 66.6352C14.3294 66.732 14.3571 66.8397 14.4033 66.9307C14.4494 67.0219 14.5131 67.1034 14.5589 67.1948C14.6878 67.4526 14.868 67.6918 15.0442 67.9183C15.5254 68.5371 16.0978 69.0846 16.7166 69.5643C17.676 70.3077 18.7566 70.8872 19.8886 71.3206C20.5898 71.589 21.2788 71.8018 21.9179 72.21C22.2993 72.4533 22.6334 72.7527 23.0346 72.9675C23.5525 73.2446 24.0944 73.4855 24.6666 73.6166C25.239 73.7479 25.8452 73.7659 26.4092 73.6023C25.845 73.4147 25.2936 73.1885 24.76 72.9263C24.6001 72.8476 24.4352 72.7601 24.3338 72.6136C24.1908 72.4074 24.2634 72.1242 24.4144 71.9435C24.5158 71.8222 24.649 71.732 24.7842 71.6501C25.1786 71.4109 25.6453 71.2218 26.0933 71.3312C26.274 71.3752 26.4428 71.4675 26.5774 71.5957C26.6692 71.6835 26.747 71.8287 26.6705 71.9301C26.6155 72.0033 26.51 72.0102 26.4185 72.0083C26.3306 72.0065 26.2404 72.0031 26.1572 72.0317C26.0738 72.0603 25.998 72.1292 25.9895 72.2167C25.9817 72.298 26.034 72.3753 26.1016 72.421C26.1692 72.4667 26.2502 72.4867 26.3295 72.5057C26.528 72.5536 26.544 72.8832 26.7444 72.922C26.8716 72.9467 26.9773 72.8292 27.0536 72.7246C27.2919 72.3972 27.5303 72.0696 27.7686 71.7422C27.8284 71.6601 27.9161 71.5676 28.0134 71.5968C28.0795 71.6168 28.1161 71.6859 28.1445 71.7487C28.2279 71.9333 28.3035 72.1214 28.3714 72.312C28.4114 72.4247 28.4491 72.5417 28.4409 72.6609C28.4264 72.8671 28.2765 73.0517 28.2905 73.2578C28.2944 73.3154 28.3172 73.3789 28.3703 73.4017C28.4461 73.4342 28.5254 73.3663 28.5755 73.3011C28.7421 73.084 28.8498 72.8271 29.012 72.6069C29.1743 72.3866 29.4185 72.1963 29.6917 72.2087C29.706 72.2093 29.7216 72.2111 29.7327 72.2204C29.7448 72.2306 29.7485 72.2475 29.7513 72.2631C29.781 72.4347 29.6675 72.624 29.7166 72.7822C29.7413 72.8613 29.8178 72.9133 29.8958 72.9412C29.9738 72.9694 30.0575 72.9798 30.1344 73.0106C30.2431 73.0539 30.3435 73.1384 30.4602 73.1308C30.5729 73.1235 30.6609 73.0329 30.7657 72.9913C30.8617 72.9532 30.9742 72.9584 31.066 73.0054C31.2171 73.0825 31.2827 73.1616 31.3809 73.2996C31.4807 73.44 31.5917 73.5724 31.6976 73.7082C32.4289 74.6451 32.9263 75.7484 33.6678 76.6772C33.7917 76.8326 33.9267 76.9864 34.1028 77.0787C34.1746 77.1162 34.269 77.1402 34.331 77.0882C34.3661 77.0588 34.381 77.012 34.3906 76.9669C34.4556 76.6601 34.3477 76.3446 34.2222 76.0573C34.0537 75.6712 33.8504 75.3014 33.6637 74.9237C33.4719 74.5359 33.2357 74.113 33.1226 73.6939C33.0245 73.3304 33.0663 72.8249 33.2238 72.4841C33.2045 72.4492 33.2596 72.4537 33.2994 72.455C33.3391 72.4563 33.3718 72.4856 33.3982 72.5151C33.4509 72.5742 33.494 72.6416 33.5254 72.7144C33.5445 72.7588 33.5718 72.8141 33.6203 72.8119C33.6565 72.8102 33.6814 72.7748 33.6966 72.7419C33.7395 72.6492 33.7527 72.543 33.7341 72.4425C33.7124 72.3259 33.6498 72.2206 33.6223 72.1053C33.5948 71.9901 33.6147 71.8475 33.7172 71.7877C33.7999 71.7394 33.907 71.7619 33.9967 71.7281C34.1655 71.6646 34.2367 71.4172 34.4094 71.3663C34.6374 71.2989 34.4809 71.633 34.537 71.7221C34.5899 71.8061 34.6924 71.8443 34.7901 71.862C34.888 71.8798 34.9899 71.8833 35.0811 71.9225C35.1723 71.9619 35.2527 72.0512 35.2406 72.1498C35.2297 72.239 35.1506 72.3023 35.0748 72.3506C34.8471 72.4951 34.5834 72.603 34.4218 72.8188C34.3908 72.8604 34.3635 72.907 34.3583 72.9586C34.3531 73.0099 34.3748 73.0669 34.4209 73.0905C34.4506 73.1057 34.4855 73.1053 34.5186 73.1033C34.726 73.0899 34.9257 73.0182 35.1327 72.9984C35.3394 72.9787 35.5731 73.0251 35.6947 73.1937C35.7939 73.3315 35.7946 73.5161 35.7746 73.6846C35.7549 73.8534 35.719 74.0257 35.7588 74.1908C35.7738 74.2529 35.8078 74.3201 35.8702 74.3344C35.9239 74.3468 35.9779 74.3147 36.0193 74.2781C36.1525 74.16 36.2249 73.9901 36.3137 73.8359C36.4028 73.6818 36.5271 73.5288 36.7013 73.4922C36.7193 73.4885 36.7364 73.4885 36.7544 73.4922C36.9286 73.5288 37.053 73.6818 37.142 73.8359C37.2311 73.9901 37.3032 74.16 37.4367 74.2781C37.4781 74.3147 37.5318 74.3468 37.5858 74.3344C37.6479 74.3201 37.6822 74.2529 37.6971 74.1908C37.737 74.0257 37.7008 73.8534 37.6811 73.6846C37.6614 73.5161 37.6618 73.3315 37.7613 73.1937C37.8826 73.0251 38.1164 72.9787 38.3233 72.9984C38.53 73.0182 38.7298 73.0899 38.9371 73.1033C38.9703 73.1053 39.0054 73.1057 39.0348 73.0905C39.081 73.0669 39.1026 73.0099 39.0974 72.9586C39.0922 72.907 39.0649 72.8604 39.034 72.8188C38.8723 72.603 38.6089 72.4951 38.3811 72.3506C38.3053 72.3023 38.226 72.239 38.2152 72.1498C38.2033 72.0512 38.2836 71.9619 38.3749 71.9225C38.4659 71.8833 38.5679 71.8798 38.6656 71.862C38.7633 71.8443 38.8658 71.8061 38.9189 71.7221C38.975 71.633 38.8184 71.2989 39.0463 71.3663C39.219 71.4172 39.2903 71.6646 39.4591 71.7281C39.5488 71.7619 39.6558 71.7394 39.7388 71.7877C39.841 71.8475 39.8612 71.9901 39.8335 72.1053C39.8059 72.2206 39.7433 72.3259 39.7217 72.4425C39.703 72.543 39.7162 72.6492 39.7591 72.7419C39.7743 72.7748 39.7992 72.8102 39.8356 72.8119C39.8839 72.8141 39.9112 72.7588 39.9305 72.7144C39.9617 72.6416 40.0048 72.5742 40.0575 72.5151C40.0839 72.4856 40.1166 72.4563 40.1565 72.455C40.1962 72.4537 40.2512 72.4492 40.2321 72.4841C40.3894 72.8249 40.4312 73.3304 40.3331 73.6939C40.22 74.113 39.984 74.5359 39.7921 74.9237C39.6053 75.3014 39.4023 75.6712 39.2337 76.0573C39.1081 76.3446 39.0004 76.6601 39.0652 76.9669C39.0747 77.012 39.0896 77.0588 39.125 77.0882C39.1869 77.1402 39.2814 77.1162 39.3529 77.0787C39.529 76.9864 39.664 76.8326 39.7882 76.6772C40.5294 75.7484 41.0269 74.6451 41.7581 73.7082C41.8643 73.5724 41.975 73.44 42.0749 73.2996C42.1732 73.1616 42.2389 73.0825 42.3897 73.0054C42.4818 72.9584 42.594 72.9532 42.6902 72.9913C42.7951 73.0329 42.8828 73.1235 42.9955 73.1308C43.1125 73.1384 43.2126 73.0539 43.3216 73.0106C43.3985 72.9798 43.4821 72.9694 43.5599 72.9412C43.6379 72.9133 43.7144 72.8613 43.7391 72.7822C43.7883 72.624 43.6747 72.4347 43.7044 72.2631C43.7072 72.2475 43.7111 72.2306 43.7233 72.2204C43.7343 72.2111 43.7497 72.2093 43.7642 72.2087C44.0374 72.1963 44.2814 72.3866 44.4437 72.6069C44.606 72.8271 44.7139 73.084 44.8803 73.3011C44.9303 73.3663 45.0098 73.4342 45.0855 73.4017C45.1385 73.3789 45.1615 73.3154 45.1654 73.2578C45.1795 73.0517 45.0293 72.8671 45.015 72.6609C45.0066 72.5417 45.0443 72.4247 45.0844 72.312C45.1522 72.1214 45.2278 71.9333 45.3112 71.7487C45.3398 71.6859 45.3762 71.6168 45.4425 71.5968C45.5398 71.5676 45.6276 71.6601 45.6874 71.7422C45.9257 72.0696 46.164 72.3972 46.4024 72.7246C46.4784 72.8292 46.5844 72.9467 46.7115 72.922C46.912 72.8832 46.9278 72.5536 47.1262 72.5057C47.2055 72.4867 47.2868 72.4667 47.3542 72.421C47.4218 72.3753 47.474 72.298 47.4662 72.2167C47.4577 72.1292 47.3819 72.0603 47.2987 72.0317C47.2155 72.0031 47.1252 72.0065 47.0372 72.0083C46.9458 72.0102 46.8405 72.0033 46.7852 71.9301C46.7089 71.8287 46.7865 71.6835 46.8784 71.5957C47.0131 71.4675 47.1817 71.3752 47.3624 71.3312C47.8105 71.2218 48.2774 71.4109 48.6717 71.6501C48.8069 71.732 48.9402 71.8222 49.0416 71.9435C49.1924 72.1242 49.265 72.4074 49.1222 72.6136C49.0206 72.7601 48.8559 72.8476 48.6958 72.9263C48.1623 73.1885 47.6109 73.4147 47.0467 73.6023C47.6105 73.7659 48.2169 73.7479 48.7892 73.6166C49.3616 73.4855 49.9035 73.2446 50.4211 72.9675C50.8224 72.7527 51.1565 72.4533 51.538 72.21C52.1772 71.8018 52.866 71.589 53.5673 71.3206C54.6994 70.8872 55.7797 70.3077 56.7391 69.5643C57.3581 69.0846 57.9303 68.5371 58.4118 67.9183C58.5877 67.6918 58.768 67.4526 58.8969 67.1948C58.9426 67.1034 59.0063 67.0219 59.0524 66.9307C59.0986 66.8397 59.1263 66.732 59.0936 66.6352C59.0912 66.628 59.0882 66.6204 59.0823 66.6157C59.0735 66.6083 59.0607 66.6087 59.049 66.61C58.8278 66.6336 58.6468 66.8161 58.4742 66.9439C58.2846 67.0845 58.1024 67.2345 57.9186 67.3827C57.5603 67.6715 57.1921 67.9586 56.7675 68.144C56.403 68.3033 55.9818 68.3997 55.7342 68.7108C55.6408 68.8278 55.5693 68.9771 55.4306 69.0328C55.4042 69.0434 55.3706 69.0488 55.3496 69.0298C55.3355 69.0168 55.3314 68.9962 55.3282 68.9773C55.3074 68.8584 55.2811 68.7 55.1251 68.6954C55.0764 68.6941 55.0302 68.7149 54.9863 68.7357C54.6751 68.8826 54.3722 69.0475 54.0799 69.2293C53.9772 69.2932 53.8752 69.3595 53.7645 69.4087C53.4915 69.5303 53.1704 69.5398 52.8907 69.4345C52.8129 69.4052 52.7373 69.3671 52.6549 69.3537C52.4404 69.3188 52.2396 69.4557 52.0654 69.5857C52.0017 69.6332 51.9388 69.6958 51.8626 69.7201C51.7748 69.7476 51.673 69.7263 51.585 69.7105C51.2488 69.6494 50.9006 69.5799 50.6243 69.3784C50.5793 69.3457 50.534 69.3058 50.5203 69.2516C50.4971 69.1608 50.5758 69.0705 50.6646 69.0417C50.7537 69.0126 50.8501 69.0267 50.9437 69.0313C51.0984 69.0389 51.2743 69.0081 51.3614 68.88C51.3957 68.83 51.4123 68.7698 51.4442 68.718C51.5111 68.6086 51.6489 68.547 51.7753 68.57C51.8881 68.5906 51.9874 68.671 52.1022 68.6714C52.2077 68.6716 52.3028 68.6021 52.3639 68.516C52.3969 68.4695 52.4222 68.4175 52.4569 68.3722C52.6003 68.1843 52.8612 68.1473 53.087 68.0773C53.2781 68.0181 53.4583 67.9265 53.6516 67.8754C53.7736 67.8431 53.9036 67.8283 54.0286 67.8491C54.1371 67.8673 54.2416 67.962 54.3506 67.9562C54.4394 67.9514 54.4981 67.8559 54.5057 67.767C54.5133 67.6784 54.4866 67.5902 54.4845 67.5012C54.4823 67.4121 54.5152 67.3107 54.5978 67.2774C54.6667 67.2494 54.749 67.278 54.8179 67.2498C54.8842 67.2228 54.9208 67.1484 54.9265 67.0769C54.9319 67.0054 54.9124 66.9348 54.897 66.8648C54.8827 66.8 54.8758 66.7225 54.9241 66.677C54.9516 66.6514 54.9906 66.6432 55.027 66.6339C55.0918 66.6174 55.1566 66.5938 55.206 66.5491C55.2554 66.5045 55.287 66.4352 55.2716 66.3702C55.2558 66.3034 55.196 66.2564 55.1342 66.2265C55.0077 66.1656 54.8448 66.1292 54.8292 65.9607C54.8173 65.8318 54.9286 65.7284 55.0298 65.6476C55.4443 65.317 55.8586 64.9861 56.273 64.6555C56.678 64.332 57.0864 64.0066 57.5464 63.7676C57.5765 63.752 57.6081 63.7364 57.6422 63.7349C57.7271 63.7316 57.7687 63.8397 57.8062 63.8987C57.8558 63.9764 57.9071 64.0534 57.9637 64.1266C58.0107 64.1877 58.0842 64.2512 58.1554 64.2224C58.2046 64.2024 58.2278 64.1467 58.2421 64.0958C58.3132 63.8423 58.2952 63.5739 58.298 63.3108C58.301 63.0476 58.3303 62.7713 58.4794 62.5545C58.6542 62.3007 58.9625 62.174 59.2633 62.107C59.3569 62.0862 59.4515 62.07 59.5473 62.0657C59.6686 62.0602 59.7924 62.0804 59.9068 62.0392C60.0699 61.9801 60.1817 61.8304 60.2697 61.6804C60.3531 62.0342 60.5063 62.4182 60.9374 62.4138C60.9966 62.4132 61.0553 62.4039 61.1132 62.392C61.213 62.3714 61.3216 62.3356 61.3708 62.2461C61.3853 62.2199 61.3935 62.1905 61.3981 62.1608C61.418 62.0347 61.3779 61.9138 61.2978 61.8165C61.2668 61.779 61.2286 61.74 61.2302 61.6913C61.2312 61.6583 61.2514 61.6284 61.2774 61.6081C61.3987 61.5119 61.6208 61.5431 61.67 61.3593C61.6938 61.2703 61.6462 61.1778 61.587 61.1069C61.4585 60.9526 61.356 60.8434 61.3131 60.6402C61.2737 60.4534 61.2819 60.2563 61.3422 60.0749C61.4054 59.8853 61.527 59.7068 61.6743 59.5727C61.7525 59.5014 61.8394 59.4438 61.9384 59.4056C62.0615 59.3584 62.0936 59.3777 62.1911 59.4615C62.3648 59.6113 62.5254 59.5034 62.7009 59.4286C62.7299 59.4163 62.7592 59.4037 62.7904 59.3989C62.9618 59.3727 63.0432 59.5185 63.1812 59.5645C63.3427 59.6182 63.4681 59.4585 63.61 59.4191C63.7695 59.3747 63.9357 59.4719 64.1008 59.462C64.2312 59.454 64.3517 59.3773 64.4301 59.273C64.5742 59.0817 64.5679 58.8185 64.6749 58.6051C64.7733 58.4088 64.925 58.2614 65.1499 58.2304C65.2792 58.2125 65.4107 58.2209 65.541 58.2107C65.9604 58.1784 66.3396 57.9594 66.7023 57.7458C66.8769 57.6428 67.0518 57.5399 67.2264 57.4368C67.4487 57.3059 67.6708 57.1751 67.8909 57.0407C68.2151 56.8431 68.5375 56.6364 68.8083 56.3704C69.2613 55.9255 69.4152 55.3681 69.5233 54.761C69.3883 55.0946 69.0874 55.3089 68.7816 55.4749C68.4597 55.6495 68.0965 55.7288 67.7397 55.7975C67.1987 55.9013 66.6546 55.8952 66.1058 55.8798C65.9964 55.8768 65.8859 55.8735 65.7804 55.8454C65.5986 55.7964 65.4374 55.6694 65.3559 55.4998C65.1633 55.0985 65.5111 54.6095 65.8709 54.4364C65.9858 54.3811 66.1097 54.3486 66.2332 54.3174C66.4178 54.2711 66.6048 54.2264 66.795 54.2232C66.8758 54.2219 66.9586 54.228 67.0364 54.2054C67.216 54.1534 67.2446 53.9599 67.0622 53.8869C66.9922 53.859 66.9151 53.857 66.8401 53.8488C66.7649 53.8408 66.6867 53.8245 66.6299 53.7747C66.5502 53.7045 66.5337 53.5871 66.5361 53.4807C66.5385 53.3745 66.5535 53.2644 66.5175 53.1646C66.4746 53.0458 66.3565 52.9581 66.2304 52.9516C66.0887 52.9444 65.9123 52.9598 65.898 52.7717C65.8891 52.6513 65.9754 52.5271 66.0237 52.4227C66.1853 52.0743 66.3249 51.7105 66.4557 51.3504C66.7086 50.6543 66.9454 49.9516 67.1688 49.2453C67.6437 49.1621 68.0838 49.4862 68.5483 49.6147C68.7678 49.6754 68.9974 49.6925 69.2247 49.6836C69.5248 49.6719 69.842 49.606 70.0572 49.3965C70.3549 49.1064 70.3683 48.657 70.4764 48.2807C70.5325 48.0854 70.6183 47.8844 70.7449 47.726C70.8898 47.5444 71.0876 47.4112 71.235 47.2309C71.3938 47.0368 71.4926 46.8017 71.5877 46.5694C71.6761 46.3538 71.763 46.1374 71.8304 45.9142C72.138 44.8961 72.0828 43.6908 71.6746 42.7089C71.5762 42.472 71.4436 42.2393 71.4352 41.983C71.43 41.8249 71.4729 41.67 71.5015 41.5144C71.5474 41.2639 71.5561 41.0065 71.5275 40.7534C71.5021 40.5288 71.3663 40.3604 71.3242 40.1422C71.2945 39.9884 71.3266 39.8291 71.3719 39.679C71.4629 39.3772 71.6085 39.0873 71.6365 38.7731C71.6486 38.6392 71.6388 38.5044 71.6447 38.3701C71.665 37.9032 71.872 37.4683 72.0336 37.03C72.1755 36.645 72.3016 36.1965 72.1931 35.7868C72.0858 35.3821 72.1172 35.0031 72.2178 34.5947Z" fill="#FF5630"/>
</svg>
