<svg width="73" height="78" viewBox="0 0 73 78" fill="none" xmlns="http://www.w3.org/2000/svg">
    <path d="M60.6029 48.6148C60.1622 50.7747 56.4936 56.2048 56.4936 56.2048C56.277 55.9882 55.8436 55.1215 54.4845 54.6708C53.1251 54.2199 53.5545 52.289 53.5545 52.289C53.2157 52.7065 52.377 54.2548 53.8936 55.5548C55.4103 56.8548 55.3494 57.2294 55.3494 57.2294C54.4216 58.4709 51.7837 60.4914 51.7837 60.4914C51.6962 60.4985 51.6061 60.4976 51.5237 60.4675C51.4039 60.424 51.3153 60.3055 51.3081 60.1778C51.3006 60.0403 51.3619 59.9094 51.4217 59.7852C51.5099 59.6024 51.598 59.4197 51.6862 59.2369C51.7215 59.1636 51.7577 59.0874 51.7586 59.0061C51.7595 58.9249 51.7144 58.8369 51.636 58.8157C51.5205 58.7842 51.4143 58.9045 51.2945 58.9043C51.2611 58.9041 51.2245 58.8917 51.2089 58.862C51.2002 58.846 51.1992 58.8271 51.1953 58.8094C51.1801 58.7396 51.1175 58.6831 51.0464 58.6748C50.9756 58.6666 50.9363 58.6432 50.9043 58.7069C48.5649 63.3758 45.7974 63.7732 45.7974 63.7732C45.8954 63.2248 45.9963 62.6663 46.2264 62.1551C46.3287 61.9283 46.4425 61.7043 46.637 61.5522C46.8281 61.4029 47.073 61.329 47.2214 61.1266C47.2337 61.1099 47.2454 61.0911 47.245 61.0705C47.2433 61.0168 47.1685 61.0025 47.1161 61.0142C46.9083 61.0605 46.7454 61.2464 46.5332 61.264C46.5081 61.2662 46.4795 61.2644 46.4626 61.2456C46.4 61.1767 46.6364 61.0315 46.6019 60.918C46.5982 60.9063 46.5919 60.8946 46.5809 60.8887C46.5705 60.8829 46.5575 60.8837 46.5456 60.8853C46.3668 60.9065 46.215 61.0198 46.0681 61.1238C45.734 61.3602 45.3801 61.5667 45.0268 61.7729C45.0014 61.7877 44.9719 61.8031 44.9442 61.7937C45.0012 61.6276 45.1323 61.4796 45.2467 61.3496C45.3799 61.1988 45.5236 61.0577 45.6627 60.9126C45.7448 60.8272 45.8315 60.7113 45.787 60.6014C45.781 60.5863 45.7719 60.5715 45.758 60.5629C45.7441 60.5542 45.7275 60.5527 45.7112 60.5518C45.5563 60.5438 45.4027 60.5938 45.2668 60.669C45.1312 60.7442 45.0109 60.8443 44.8922 60.9442C44.7581 61.0575 44.6231 61.1732 44.5228 61.3173C44.4662 61.3988 44.4216 61.4878 44.3781 61.5769C44.2892 61.7582 44.2106 61.9448 44.1211 62.1257C44.0741 62.2208 44.003 62.4099 43.8819 62.4249C43.8864 62.3311 43.9335 62.2453 43.9603 62.156C43.9911 62.0527 44.0214 61.9489 44.05 61.8447C44.1066 61.6382 44.1575 61.43 44.1943 61.2189C43.8245 61.4731 43.5521 61.8652 43.4429 62.3005C43.3816 62.5454 43.3467 62.8381 43.1277 62.9635C42.9272 63.0781 42.6768 62.9893 42.4463 62.9984C42.1072 63.0118 41.7581 63.2636 41.4964 63.4792C41.6691 63.2974 41.647 62.9685 41.4513 62.8114C41.4158 62.7828 41.374 62.7575 41.3551 62.7157C41.3157 62.6277 41.3991 62.536 41.4765 62.4786C41.6619 62.341 41.8619 62.2234 42.0721 62.1281C42.1758 62.081 42.2996 62.0154 42.3017 61.9014C42.3046 61.7593 42.1147 61.6869 42.0779 61.5496C42.0404 61.41 42.173 61.2872 42.2944 61.2087C42.4155 61.1303 42.557 61.0289 42.5483 60.8848C42.542 60.7778 42.4463 60.6929 42.3427 60.6656C42.2391 60.6385 42.1293 60.6569 42.0248 60.6801C41.6498 60.7633 41.283 60.9071 40.9794 61.1427C40.6759 61.378 40.4388 61.7103 40.3615 62.0867C40.3463 62.1606 40.327 62.249 40.2562 62.2756C40.1923 62.2994 40.1193 62.2531 40.0896 62.1918C40.0599 62.1302 40.0586 62.0507 40.0616 61.9825C39.9535 62.0132 39.8374 62.0492 39.7702 62.1395C39.6896 62.2479 39.7056 62.3969 39.7102 62.5321C39.7145 62.6637 39.7043 62.7956 39.6794 62.925C39.6714 62.967 39.6261 63.0162 39.6005 62.9817C39.5596 62.9269 39.5124 62.8769 39.4597 62.8331C39.4294 62.808 39.3954 62.7839 39.3562 62.7804C39.2814 62.7737 39.219 62.8472 39.2097 62.9215C39.1527 63.3737 39.3076 63.7957 39.1512 64.262C39.1282 64.2484 39.105 64.2349 39.0819 64.2217C38.9105 64.1231 38.7341 64.0326 38.5541 63.9509C38.3738 63.869 38.1898 63.7957 38.0028 63.7312C37.8157 63.6666 37.6256 63.6107 37.4334 63.5639C37.2411 63.5173 37.0467 63.4794 36.8508 63.451C36.7529 63.4367 36.6548 63.4248 36.5562 63.4153C36.4998 63.4099 36.4444 63.3966 36.3876 63.3938C36.3332 63.391 36.2767 63.3982 36.2216 63.3979C36.1731 63.3977 36.1243 63.4051 36.0758 63.4094C36.0264 63.4138 35.9772 63.4185 35.9283 63.4239C35.8299 63.435 35.732 63.4482 35.6343 63.4638C35.439 63.4948 35.2451 63.5351 35.0536 63.5845C34.862 63.6337 34.6729 63.692 34.4868 63.7589C34.3007 63.8259 34.1178 63.9017 33.9388 63.9858C33.8493 64.028 33.7609 64.0722 33.6734 64.1184C33.6299 64.1415 33.5863 64.1652 33.5432 64.1894C33.5321 64.1957 33.4158 64.2572 33.4173 64.262C33.2607 63.7957 33.4158 63.3737 33.3588 62.9215C33.3495 62.8472 33.2871 62.7737 33.2123 62.7804C33.1731 62.7839 33.1391 62.808 33.1088 62.8331C33.0561 62.8769 33.0089 62.9269 32.9679 62.9817C32.9424 63.0162 32.8971 62.967 32.8889 62.925C32.8642 62.7956 32.854 62.6637 32.8583 62.5321C32.8629 62.3969 32.8789 62.2479 32.7981 62.1393C32.7311 62.0492 32.615 62.0132 32.5069 61.9825C32.5099 62.0507 32.5086 62.1302 32.4789 62.1918C32.449 62.2531 32.3762 62.2994 32.3123 62.2756C32.2415 62.249 32.2222 62.1606 32.207 62.0867C32.1297 61.7103 31.8926 61.378 31.5891 61.1427C31.2853 60.9071 30.9187 60.7633 30.5437 60.6801C30.4392 60.6569 30.3294 60.6383 30.2258 60.6656C30.1222 60.6929 30.0265 60.7778 30.0202 60.8848C30.0115 61.0289 30.153 61.1303 30.2741 61.2087C30.3955 61.2872 30.5278 61.41 30.4906 61.5496C30.4538 61.6869 30.2639 61.7593 30.2668 61.9014C30.2689 62.0154 30.3926 62.081 30.4964 62.1281C30.7066 62.2234 30.9066 62.341 31.0921 62.4786C31.1694 62.536 31.2528 62.6277 31.2134 62.7157C31.1945 62.7575 31.1527 62.7828 31.1172 62.8114C30.9215 62.9685 30.8994 63.2974 31.0721 63.4792C30.8104 63.2636 30.4613 63.0118 30.1222 62.9984C29.8917 62.9893 29.6412 63.0781 29.4408 62.9635C29.2218 62.8381 29.1869 62.5454 29.1256 62.3005C29.0164 61.8652 28.744 61.4731 28.3742 61.2189C28.411 61.43 28.4619 61.6382 28.5185 61.8447C28.5471 61.9489 28.5774 62.0527 28.6082 62.156C28.635 62.2453 28.6821 62.3311 28.6866 62.4249C28.5655 62.4099 28.4944 62.2208 28.4474 62.1257C28.3579 61.9448 28.2793 61.7582 28.1904 61.5769C28.1469 61.4878 28.1023 61.3988 28.0457 61.3173C27.9454 61.1732 27.8104 61.0575 27.6763 60.9442C27.5576 60.8443 27.4373 60.7442 27.3017 60.669C27.1658 60.5938 27.0122 60.5438 26.8571 60.5518C26.841 60.5527 26.8244 60.5542 26.8105 60.5629C26.7966 60.5715 26.7875 60.5863 26.7815 60.6014C26.737 60.7113 26.8237 60.8272 26.9056 60.9126C27.0449 61.0577 27.1886 61.1988 27.3216 61.3496C27.4362 61.4796 27.5673 61.6276 27.6243 61.7937C27.5966 61.8031 27.5671 61.7877 27.5417 61.7729C27.1884 61.5667 26.8345 61.3602 26.5004 61.1238C26.3535 61.0198 26.2017 60.9065 26.0229 60.8853C26.0108 60.8837 25.998 60.8829 25.9874 60.8887C25.9765 60.8946 25.97 60.9063 25.9666 60.918C25.9321 61.0315 26.1683 61.1767 26.1059 61.2456C26.089 61.2644 26.0604 61.2662 26.0353 61.264C25.8229 61.2464 25.6602 61.0605 25.4524 61.0142C25.4 61.0025 25.3252 61.0168 25.3235 61.0705C25.3231 61.0911 25.3348 61.1099 25.3471 61.1266C25.4955 61.329 25.7404 61.4029 25.9315 61.5522C26.126 61.7043 26.2398 61.9283 26.3421 62.1551C26.5722 62.6663 26.6731 63.2246 26.7711 63.7732C26.7711 63.7732 24.0036 63.3758 21.6642 58.7069C21.6322 58.6432 21.5929 58.6666 21.5219 58.6748C21.451 58.6831 21.3884 58.7396 21.3732 58.8094C21.3693 58.8271 21.3683 58.846 21.3596 58.862C21.344 58.8917 21.3074 58.9041 21.2738 58.9043C21.1542 58.9045 21.048 58.7842 20.9325 58.8157C20.8541 58.8369 20.809 58.9249 20.8099 59.0061C20.8108 59.0874 20.8467 59.1636 20.8823 59.2369C20.9705 59.4197 21.0586 59.6024 21.1468 59.7852C21.2066 59.9094 21.2679 60.0403 21.2604 60.1778C21.2532 60.3055 21.1646 60.424 21.0448 60.4675C20.9624 60.4976 20.8723 60.4985 20.7848 60.4914C20.7848 60.4914 18.1469 58.4709 17.2191 57.2294C17.2191 57.2294 17.1582 56.8548 18.6749 55.5548C20.1915 54.2548 19.3528 52.7065 19.0137 52.289C19.0137 52.289 19.4434 54.2199 18.084 54.6708C16.7249 55.1215 16.2915 55.9882 16.0749 56.2048C16.0749 56.2048 12.4063 50.7747 11.9656 48.6148C11.5249 46.4548 11.3973 33.3309 17.2026 33.8262C17.2026 33.8262 16.4519 32.7522 14.9634 32.5617C14.9634 32.5617 16.9751 31.8731 15.9832 29.3056C15.9832 29.3056 17.3881 28.0561 17.598 26.5306C17.598 26.5306 17.3742 27.0579 16.7244 27.1147C16.7244 27.1147 14.7058 26.0212 13.4402 27.4629C13.4424 27.4581 13.4437 27.4557 13.4448 27.4534C13.4465 27.4495 13.4484 27.4456 13.4502 27.4417C13.4528 27.4362 13.4554 27.4306 13.4582 27.4252C13.4614 27.4183 13.4649 27.4111 13.4682 27.4042C13.4723 27.3957 13.4764 27.3873 13.4805 27.3788C13.4855 27.3689 13.4903 27.3589 13.4952 27.3489C13.5009 27.3377 13.5065 27.3262 13.5124 27.3149C13.5186 27.3021 13.5251 27.2893 13.5316 27.2766C13.5388 27.2623 13.5459 27.2482 13.5533 27.2339C13.5611 27.2183 13.5691 27.2029 13.5771 27.1873C13.586 27.1704 13.5947 27.1535 13.6036 27.1366C13.6131 27.1184 13.6226 27.1002 13.6324 27.082C13.6426 27.0625 13.653 27.043 13.6634 27.0235C13.6744 27.0027 13.6857 26.9821 13.697 26.9613C13.7089 26.9392 13.7208 26.9173 13.7329 26.8952C13.7455 26.872 13.7583 26.8489 13.7713 26.8257C13.7847 26.8012 13.7984 26.7769 13.812 26.7524C13.8263 26.7269 13.8408 26.7013 13.8553 26.6757C13.8705 26.6491 13.8857 26.6222 13.9008 26.5956C13.9169 26.5678 13.9329 26.5399 13.9492 26.5122C13.9661 26.4831 13.9827 26.4543 13.9999 26.4255C14.0174 26.3954 14.0352 26.3655 14.0529 26.3354C14.0716 26.3044 14.09 26.2734 14.1086 26.2424C14.1279 26.2101 14.1474 26.1783 14.1669 26.1462C14.1871 26.1131 14.2074 26.0801 14.2276 26.047C14.2486 26.013 14.2698 25.9789 14.2911 25.9449C14.3129 25.91 14.3348 25.8749 14.3569 25.8401C14.3797 25.8041 14.4024 25.7683 14.4254 25.7324C14.449 25.6955 14.4726 25.6589 14.4965 25.6221C14.5209 25.5844 14.5454 25.5467 14.5701 25.5092C14.5955 25.4706 14.6208 25.4321 14.6464 25.3937C14.6726 25.3543 14.6988 25.3151 14.7253 25.2759C14.7523 25.2356 14.7796 25.1955 14.8069 25.1554C14.8349 25.1144 14.8628 25.0737 14.8912 25.0328C14.92 24.9912 14.9489 24.9496 14.9781 24.908C15.0078 24.8655 15.0377 24.823 15.0676 24.7808C15.0984 24.7377 15.1291 24.6945 15.1599 24.6516C15.1915 24.6079 15.2232 24.5641 15.255 24.5206C15.2873 24.4761 15.32 24.4317 15.3527 24.3873C15.3861 24.3422 15.4195 24.2974 15.453 24.2523C15.4875 24.2066 15.5217 24.1611 15.5564 24.1156C15.5915 24.0692 15.6268 24.0231 15.6623 23.9772C15.6985 23.9304 15.7347 23.8836 15.7711 23.837C15.8082 23.7895 15.8452 23.7423 15.8827 23.6953C15.9206 23.6474 15.9587 23.5995 15.9969 23.5521C16.0359 23.5035 16.0749 23.4554 16.1141 23.4073C16.154 23.3584 16.194 23.3098 16.2341 23.2613C16.2749 23.2119 16.3158 23.1629 16.357 23.114C16.3986 23.0643 16.4406 23.0147 16.4826 22.9653C16.5253 22.9153 16.5682 22.8654 16.6111 22.8158C16.6549 22.7653 16.6987 22.7151 16.7426 22.665C16.7873 22.6143 16.8319 22.5638 16.877 22.5134C16.9225 22.4622 16.9682 22.4115 17.0141 22.3608C17.0607 22.3095 17.1075 22.2583 17.1543 22.2074C17.2018 22.1556 17.2494 22.1043 17.2975 22.0532C17.3458 22.0014 17.3946 21.9496 17.4433 21.8982C17.493 21.8462 17.5426 21.7945 17.5924 21.7427C17.6429 21.6905 17.6936 21.6385 17.7443 21.5867C17.7959 21.5342 17.8474 21.4822 17.8994 21.4302C17.9519 21.3776 18.0045 21.3254 18.0574 21.2734C18.1107 21.2207 18.1644 21.1683 18.2181 21.1161C18.2727 21.0634 18.3273 21.0108 18.3822 20.9586C18.4376 20.9057 18.4933 20.8533 18.5492 20.801C18.6058 20.7482 18.6623 20.6955 18.7193 20.6433C18.7767 20.5904 18.8343 20.5378 18.8924 20.4854C18.9509 20.4327 19.0096 20.3801 19.0686 20.3278C19.1281 20.275 19.1879 20.2223 19.248 20.1701C19.3084 20.1175 19.3693 20.065 19.4302 20.0128C19.4919 19.9602 19.5537 19.9077 19.6156 19.8557C19.6783 19.8031 19.7413 19.7509 19.8044 19.6989C19.8681 19.6464 19.932 19.5944 19.9961 19.5426C20.0609 19.4904 20.1259 19.4384 20.1911 19.3869C20.2568 19.3346 20.3228 19.2829 20.3891 19.2315C20.4559 19.1795 20.523 19.1282 20.5904 19.0768C20.6582 19.0252 20.7265 18.9739 20.7947 18.923C20.8639 18.8716 20.933 18.8205 21.0025 18.7698C21.0725 18.7187 21.1429 18.668 21.2133 18.6175C21.2844 18.5668 21.3559 18.5163 21.4274 18.4662C21.4996 18.4158 21.5721 18.3657 21.6447 18.3159C21.7182 18.2658 21.7916 18.216 21.8655 18.1668C21.9398 18.117 22.0144 18.0676 22.0893 18.0186C22.1647 17.9694 22.2406 17.9205 22.3164 17.8719C22.3931 17.823 22.4698 17.7744 22.5469 17.7263C22.6245 17.6778 22.7025 17.6299 22.7807 17.5822C22.8594 17.5341 22.9384 17.4867 23.0177 17.4395C23.0977 17.392 23.1779 17.345 23.2582 17.2984C23.3393 17.2514 23.4205 17.205 23.502 17.1589C23.5841 17.1125 23.6664 17.0666 23.7492 17.0211C23.8324 16.9751 23.9158 16.9299 23.9997 16.885C24.084 16.8397 24.1687 16.7949 24.2534 16.7507C24.339 16.706 24.4248 16.6618 24.5108 16.6183C24.5975 16.5743 24.6843 16.5308 24.7714 16.4879C24.8592 16.4445 24.9474 16.4018 25.0356 16.3596C25.1246 16.3169 25.2137 16.2749 25.3031 16.2333C25.3933 16.1915 25.4836 16.1501 25.5742 16.1093C25.6654 16.0682 25.7568 16.0277 25.8487 15.9876C25.941 15.9473 26.0337 15.9074 26.1267 15.8682C26.2203 15.8285 26.3141 15.7895 26.4081 15.7512C26.5028 15.7124 26.5979 15.6743 26.6931 15.6366C26.789 15.5987 26.8852 15.5614 26.9814 15.5248C27.0787 15.4877 27.176 15.4513 27.2735 15.4154C27.3719 15.3794 27.4702 15.3439 27.569 15.3088C27.6685 15.2737 27.7682 15.239 27.8683 15.205C27.9688 15.1707 28.0698 15.1372 28.1707 15.1042C28.2728 15.0709 28.3748 15.0381 28.4771 15.0061C28.5802 14.9738 28.6834 14.9422 28.7869 14.9112C28.8911 14.88 28.9958 14.8492 29.1004 14.8193C29.206 14.789 29.3115 14.7595 29.4174 14.7307C29.5242 14.7014 29.6311 14.6728 29.7381 14.6451C29.846 14.6169 29.9541 14.5896 30.0625 14.563C30.1716 14.5359 30.2811 14.5097 30.3905 14.4841C30.501 14.4583 30.6115 14.4332 30.7222 14.4087C30.8338 14.384 30.9456 14.3602 31.0576 14.337C31.1705 14.3134 31.2834 14.2906 31.3967 14.2688C31.5106 14.2464 31.625 14.225 31.7394 14.2042C31.8547 14.1832 31.9702 14.163 32.0859 14.1433C32.2025 14.1236 32.3193 14.1047 32.4362 14.0863C32.5541 14.0679 32.672 14.0504 32.7901 14.0332C32.9092 14.0163 33.0286 13.9999 33.1478 13.9843C33.2682 13.9685 33.3887 13.9535 33.5094 13.9392C33.6312 13.9249 33.7529 13.9113 33.8747 13.8983C33.9978 13.8853 34.1208 13.8731 34.2439 13.8616C34.368 13.8499 34.4924 13.8391 34.6168 13.8291C34.7422 13.819 34.8679 13.8096 34.9936 13.801C35.1203 13.7923 35.2473 13.7845 35.3742 13.7774C35.5023 13.77 35.6303 13.7637 35.7586 13.7581C35.888 13.7524 36.0175 13.7475 36.1469 13.7433C36.1874 13.7423 36.2277 13.7423 36.2682 13.742C36.3386 13.7414 36.4084 13.7429 36.479 13.7453C36.5115 13.7464 36.5438 13.7475 36.5763 13.7488C36.7055 13.7533 36.8344 13.7589 36.9635 13.7652C37.0913 13.7715 37.219 13.7784 37.3468 13.7862C37.4733 13.794 37.5996 13.8025 37.7262 13.8118C37.8514 13.8209 37.9766 13.8309 38.1017 13.8415C38.2256 13.8523 38.3495 13.8636 38.4734 13.8757C38.5961 13.8879 38.7187 13.9006 38.8414 13.9143C38.9627 13.9277 39.0842 13.942 39.2053 13.957C39.3256 13.9717 39.4459 13.9873 39.5657 14.0036C39.6846 14.0198 39.8036 14.0367 39.9223 14.0545C40.04 14.0718 40.1576 14.0902 40.275 14.1091C40.3916 14.1279 40.5079 14.1474 40.6241 14.1676C40.7393 14.1877 40.8544 14.2085 40.9695 14.23C41.0834 14.2514 41.1972 14.2735 41.3109 14.2963C41.4238 14.3188 41.5363 14.342 41.6487 14.3658C41.7603 14.3897 41.8717 14.4141 41.983 14.4393C42.0933 14.4642 42.2034 14.4898 42.3134 14.5162C42.4224 14.5422 42.5314 14.5691 42.6402 14.5964C42.7481 14.6237 42.8558 14.6514 42.9632 14.68C43.07 14.7084 43.1764 14.7374 43.2828 14.7669C43.3883 14.7963 43.4936 14.8265 43.5987 14.857C43.7029 14.8876 43.8069 14.9185 43.9109 14.9504C44.0138 14.9818 44.1168 15.0139 44.2195 15.0466C44.3213 15.0791 44.4231 15.1122 44.5245 15.146C44.6253 15.1794 44.7256 15.2134 44.8259 15.2481C44.9254 15.2825 45.0248 15.3176 45.1238 15.3532C45.2222 15.3885 45.3203 15.4245 45.4181 15.4611C45.5153 15.4973 45.6122 15.5341 45.7088 15.5716C45.8048 15.6086 45.9006 15.6463 45.9961 15.6847C46.091 15.7226 46.1855 15.7612 46.28 15.8004C46.3736 15.8392 46.4669 15.8786 46.5601 15.9185C46.6526 15.9581 46.7447 15.9982 46.8368 16.0389C46.9282 16.0794 47.0192 16.1204 47.11 16.1618C47.2001 16.2029 47.2903 16.2448 47.3798 16.2868C47.4688 16.3288 47.5576 16.3713 47.6463 16.4142C47.734 16.4567 47.8218 16.4998 47.9091 16.5435C47.9957 16.5869 48.0824 16.6306 48.1686 16.6748C48.2542 16.7188 48.3396 16.7632 48.4245 16.8081C48.509 16.8527 48.5933 16.8978 48.6772 16.9433C48.7606 16.9886 48.8438 17.0343 48.9265 17.0804C49.0087 17.1262 49.0908 17.1723 49.1725 17.2191C49.2535 17.2655 49.3343 17.3123 49.4149 17.3595C49.4949 17.4063 49.5746 17.4535 49.6541 17.5014C49.733 17.5487 49.8116 17.5965 49.8901 17.6449C49.9676 17.6927 50.0452 17.7408 50.1225 17.7896C50.1992 17.8379 50.2755 17.8867 50.3518 17.9358C50.4272 17.9846 50.5026 18.0338 50.5775 18.0834C50.6521 18.1326 50.7264 18.1822 50.8003 18.232C50.8737 18.2816 50.9467 18.3317 51.0195 18.382C51.0919 18.4318 51.1641 18.4821 51.2358 18.5328C51.3071 18.583 51.3779 18.6337 51.4485 18.6846C51.5187 18.7353 51.5887 18.7863 51.6583 18.8374C51.7274 18.8883 51.7961 18.9394 51.8648 18.991C51.9326 19.0421 52.0004 19.0937 52.0678 19.1455C52.1347 19.1968 52.2015 19.2484 52.268 19.3004C52.3338 19.352 52.3995 19.404 52.4647 19.4562C52.5295 19.508 52.5941 19.56 52.6584 19.6124C52.7221 19.6644 52.7856 19.7166 52.8489 19.7691C52.9117 19.8211 52.9741 19.8735 53.0363 19.9261C53.098 19.9784 53.1593 20.0308 53.2207 20.0834C53.2813 20.1357 53.3416 20.1883 53.4018 20.2412C53.4614 20.2934 53.5207 20.346 53.5799 20.3989C53.6384 20.4513 53.6967 20.504 53.7547 20.5569C53.8124 20.6091 53.8696 20.6617 53.9266 20.7146C53.9831 20.767 54.0394 20.8197 54.0956 20.8725C54.151 20.9248 54.2063 20.9774 54.2613 21.0303C54.3157 21.0825 54.3699 21.1349 54.424 21.1878C54.4773 21.24 54.5306 21.2922 54.5837 21.3449C54.6361 21.3971 54.6884 21.4493 54.7404 21.5017C54.7919 21.5537 54.8431 21.606 54.8942 21.6582C54.9445 21.71 54.9947 21.762 55.0448 21.8142C55.0944 21.8657 55.1436 21.9175 55.1925 21.9695C55.2411 22.0209 55.2894 22.0724 55.3373 22.1242C55.3849 22.1754 55.4322 22.2267 55.4792 22.2783C55.5258 22.3292 55.5721 22.3803 55.6181 22.4315C55.6636 22.4822 55.7091 22.5329 55.7541 22.5838C55.7988 22.634 55.843 22.6845 55.8872 22.7352C55.9309 22.7851 55.9743 22.8353 56.0174 22.8856C56.0601 22.9352 56.1025 22.9848 56.1448 23.0349C56.1864 23.0841 56.228 23.1335 56.2692 23.1829C56.3099 23.2316 56.3504 23.2806 56.3909 23.3298C56.4306 23.3781 56.4702 23.4266 56.5097 23.4754C56.5484 23.5232 56.587 23.5711 56.6256 23.6194C56.6635 23.6669 56.7012 23.7143 56.7387 23.762C56.7757 23.809 56.8123 23.856 56.849 23.9033C56.8849 23.9496 56.9209 23.996 56.9566 24.0428C56.9917 24.0885 57.0266 24.1345 57.0613 24.1806C57.0955 24.2259 57.1295 24.2712 57.1633 24.3167C57.1965 24.3613 57.2296 24.4059 57.2626 24.4508C57.2949 24.4948 57.3271 24.539 57.359 24.5832C57.3904 24.6265 57.4218 24.6701 57.4528 24.7136C57.4834 24.7563 57.5137 24.799 57.544 24.8419C57.5735 24.8837 57.603 24.9257 57.6324 24.968C57.661 25.0091 57.6896 25.0505 57.718 25.0919C57.746 25.1324 57.7735 25.1729 57.801 25.2135C57.8281 25.2533 57.8547 25.293 57.8814 25.3328C57.9076 25.3716 57.9334 25.4106 57.9592 25.4496C57.9843 25.4878 58.0094 25.5259 58.0343 25.564C58.0586 25.6013 58.0827 25.6386 58.1067 25.6758C58.1301 25.7122 58.1535 25.7486 58.1767 25.785C58.1992 25.8203 58.2215 25.8559 58.2439 25.8914C58.2655 25.9259 58.2872 25.9603 58.3086 25.995C58.3294 26.0286 58.35 26.0621 58.3708 26.0957C58.3908 26.1282 58.4105 26.1609 58.4304 26.1934C58.4495 26.2251 58.4683 26.2567 58.4874 26.2883C58.5056 26.3187 58.5238 26.3492 58.5418 26.38C58.5593 26.4095 58.5767 26.4389 58.5938 26.4684C58.6105 26.4968 58.6269 26.5252 58.6434 26.5535C58.6592 26.5808 58.6748 26.6081 58.6904 26.6354C58.7054 26.6617 58.7201 26.6879 58.7348 26.7141C58.7489 26.739 58.763 26.7641 58.7769 26.7891C58.7903 26.8129 58.8035 26.8367 58.8165 26.8606C58.8291 26.8833 58.8414 26.9058 58.8538 26.9286C58.8655 26.9498 58.877 26.9713 58.8884 26.9927C58.8993 27.0129 58.9101 27.033 58.9209 27.0532C58.9309 27.072 58.9409 27.0909 58.9508 27.1097C58.9599 27.1273 58.9693 27.1448 58.9784 27.1624C58.9868 27.1786 58.9953 27.1949 59.0035 27.2111C59.0113 27.2261 59.0189 27.2408 59.0265 27.2558C59.0332 27.2692 59.0401 27.2828 59.0468 27.2963C59.0529 27.3084 59.059 27.3205 59.065 27.3325C59.0704 27.3433 59.0756 27.3539 59.0808 27.3645C59.0854 27.3738 59.0899 27.3829 59.0945 27.3923C59.0982 27.3998 59.1019 27.4076 59.1058 27.4154C59.1086 27.4215 59.1116 27.4278 59.1146 27.4341C59.1168 27.4388 59.1192 27.4434 59.1214 27.4482C59.1229 27.4514 59.1242 27.4544 59.1257 27.4577C57.8627 26.0212 55.8441 27.1147 55.8441 27.1147C55.1943 27.0579 54.9705 26.5306 54.9705 26.5306C55.1804 28.0561 56.5851 29.3056 56.5851 29.3056C55.5934 31.8731 57.6051 32.5617 57.6051 32.5617C56.1166 32.7522 55.3657 33.8262 55.3657 33.8262C61.1712 33.3309 61.0436 46.4548 60.6029 48.6148ZM71.8848 34.5947C71.9987 34.1323 72.1653 33.6739 72.1614 33.1976C72.1554 32.4798 71.8332 31.804 71.8347 31.083C71.8358 30.6678 71.8367 30.2525 71.8377 29.8373C71.839 29.1817 71.8377 28.5094 71.6072 27.8958C71.5864 27.8408 71.5405 27.7749 71.4852 27.7953C71.4562 27.8061 71.4412 27.8371 71.4254 27.8635C71.266 28.13 71.1102 27.7983 71.0668 27.6622C70.9914 27.4261 70.9535 27.1799 70.9258 26.9342C70.8701 26.4422 70.8588 25.9352 70.6823 25.4665C70.6567 25.3989 70.6268 25.3309 70.5752 25.2804C70.2504 24.9621 70.2953 25.7111 70.2916 25.8492C70.2855 26.0786 70.2738 26.3078 70.2559 26.5364C70.1603 27.7578 69.8884 28.9685 69.4106 30.0982C69.096 30.8425 68.6939 31.554 68.196 32.1912C68.0569 32.3693 67.9102 32.5422 67.7529 32.7045C67.733 32.7253 67.5798 32.8432 67.5809 32.872C67.5044 30.9397 65.1527 25.7449 65.1527 25.7449C64.8892 25.413 65.4734 25.3521 65.6905 25.2767C65.8131 25.234 65.9386 25.1955 66.0499 25.1285C66.1611 25.0618 66.259 24.9619 66.2926 24.8365C66.3236 24.7201 66.2967 24.5973 66.2824 24.4777C66.2792 24.4514 66.2772 24.4228 66.2913 24.4005C66.3041 24.3806 66.327 24.37 66.3494 24.3617C66.4668 24.3193 66.5968 24.3171 66.7116 24.2679C66.7714 24.2426 66.8334 24.1817 66.8076 24.1223C66.7927 24.0879 66.7543 24.0712 66.7192 24.0586C66.5049 23.9811 66.2796 23.9349 66.0521 23.9219C65.9336 23.9152 65.8122 23.9171 65.6996 23.8799C65.4543 23.7991 65.305 23.5575 65.1763 23.3334C65.1072 23.213 65.0374 23.091 65.001 22.9569C64.9525 22.7781 64.8914 22.3938 65.1126 22.2997C65.1729 22.2739 65.2413 22.2796 65.3068 22.2824C65.5568 22.2932 65.8062 22.2553 66.0534 22.2174C66.2077 22.1938 66.3617 22.1702 66.516 22.1465C66.5821 22.1366 66.6497 22.126 66.7088 22.0945C66.768 22.0633 66.818 22.0068 66.8234 21.9401C66.8336 21.8105 66.625 21.7843 66.6302 21.6237C66.6367 21.4198 66.8228 21.4168 66.9528 21.5111C67.5347 21.9331 68.1652 22.2971 68.7518 22.7194C68.7758 22.7367 68.7999 22.7541 68.8237 22.7714C68.7325 22.5331 68.6328 22.2958 68.4931 22.0822C68.2337 21.6855 67.8502 21.3893 67.4743 21.1007C67.224 20.9087 66.9738 20.7168 66.7235 20.5248C66.6104 20.4381 66.4971 20.351 66.3749 20.2778C66.2542 20.2052 66.1258 20.1467 65.9966 20.0906C65.6712 19.9495 65.3553 19.8596 65.0123 19.7899C64.7313 19.7327 64.4622 19.4785 64.3196 19.2406C64.2278 19.0874 64.1645 18.9104 64.0286 18.7945C63.9147 18.6974 63.7641 18.6567 63.6178 18.6253C63.2762 18.552 62.9135 18.5165 62.5824 18.6277C62.3984 18.6894 62.2273 18.7936 62.0301 18.7832C61.8306 18.7726 61.6113 18.6872 61.4438 18.5822C61.2384 18.453 61.072 18.253 61.0126 18.018C60.9476 17.7612 60.9522 17.236 61.1255 17.0124C61.2113 16.9015 61.3485 16.8139 61.2068 16.6577C61.1697 16.6168 61.1179 16.5925 61.0668 16.5719C60.9786 16.5366 60.8876 16.5091 60.7958 16.4846C60.7444 16.4707 60.6883 16.4547 60.6588 16.4105C60.6283 16.3641 60.6391 16.2983 60.6744 16.2554C60.7639 16.146 60.9474 16.1455 61.0495 16.0348C61.1093 15.97 61.145 15.8779 61.1244 15.7924C61.1052 15.7133 61.0419 15.6517 60.9726 15.6091C60.8376 15.5259 60.6692 15.499 60.5152 15.5358C60.1579 15.6214 60.0201 15.9696 60.0506 16.3013C59.6316 16.1297 59.2065 15.8368 58.8633 15.5425C58.4818 15.2156 58.0187 14.6828 58.0075 14.1546C58.0064 14.1021 58.0099 14.0488 57.999 13.9975C57.988 13.9461 57.9594 13.8952 57.9119 13.8731C57.8129 13.827 57.7202 13.9678 57.6803 14.0389C57.4686 14.4137 57.161 14.6774 56.7658 14.8579C56.1606 15.1341 55.367 15.2942 54.7035 15.2992C54.0849 15.3038 53.4635 15.2981 52.8434 15.2971C53.2191 15.0891 53.6822 14.8466 53.9859 14.5424C54.2741 14.2536 54.4255 13.7472 54.452 13.3523C54.4665 13.138 54.4531 12.9228 54.4544 12.7081C54.4548 12.6292 54.4572 12.5499 54.4726 12.4724C54.4834 12.4182 54.5005 12.3653 54.5183 12.3127C54.5506 12.2182 54.5861 12.1231 54.6444 12.0419C54.7462 11.9002 54.892 11.888 55.0372 11.815C55.0662 11.8005 55.0985 11.7758 55.0931 11.7439C55.0907 11.7303 55.0814 11.7188 55.0721 11.7088C54.9965 11.628 54.8866 11.5908 54.7913 11.5344C54.6847 11.4716 54.6078 11.373 54.614 11.245C54.6197 11.128 54.6407 11.0179 54.5623 10.9158C54.5061 10.8428 54.4149 10.8153 54.3354 10.7759C54.2383 10.728 54.1926 10.7003 54.2054 10.5822C54.2152 10.4912 54.2249 10.4002 54.2349 10.3092C54.2377 10.2817 54.2405 10.2526 54.229 10.2275C54.1987 10.1616 54.1044 10.1705 54.0327 10.1824C53.7361 10.2323 53.4352 10.1491 53.1459 10.0667C52.9535 10.0119 52.7613 9.95579 52.5685 9.90205C52.4279 9.86284 52.2775 9.82449 52.1874 9.69753C52.1388 9.62927 52.12 9.54196 52.0645 9.47956C51.8801 9.27243 51.6409 9.51617 51.4303 9.51119C51.3987 9.51054 51.3662 9.50555 51.338 9.49104C51.2665 9.45421 51.2388 9.36863 51.1929 9.30298C51.106 9.17839 50.9506 9.12228 50.8016 9.09367C50.6527 9.06486 50.4974 9.05554 50.3591 8.99249C50.2857 8.95912 50.2109 8.89478 50.2192 8.81417C50.2257 8.75372 50.277 8.70888 50.3271 8.67442C50.5429 8.52579 50.7992 8.44844 51.0546 8.39037C51.1643 8.36546 51.2761 8.34357 51.3883 8.34899C51.5005 8.35419 51.6149 8.38929 51.6973 8.466C51.7371 8.50304 51.7686 8.54854 51.8088 8.58516C52.0446 8.799 52.3841 8.68894 52.6495 8.62741C52.8482 8.58147 53.0592 8.58971 53.2538 8.65102C53.4258 8.70519 53.5823 8.79901 53.737 8.89196C53.9599 9.02608 54.1829 9.16019 54.406 9.29431C54.5135 9.35888 54.6279 9.42561 54.7534 9.42561C54.8786 9.42561 55.0359 9.32984 55.0294 9.20461C55.5041 9.53178 56.0627 9.72092 56.5721 9.98721C56.6706 10.0388 56.764 10.0997 56.8563 10.1616C57.193 10.3878 57.5174 10.6318 57.8359 10.8827C57.9953 11.0084 58.1533 11.1358 58.3106 11.2636C58.4293 11.36 58.5541 11.5063 58.7236 11.4846C58.7329 11.4833 58.7426 11.4813 58.7498 11.4751C58.7615 11.4647 58.7617 11.4465 58.7604 11.4306C58.7461 11.2447 58.6612 11.1251 58.5771 10.9709C58.0146 9.9389 57.2851 9.07071 56.3452 8.36004C55.9923 8.09311 55.6205 7.85109 55.2354 7.63291C54.6119 7.27996 53.9458 6.98139 53.2584 6.77751C52.6172 6.58706 51.9345 6.42715 51.4223 5.978C51.0707 5.66969 50.7587 5.33624 50.3663 5.07212C49.8099 4.69707 49.1816 4.43166 48.5214 4.30772C47.8018 4.17274 47.1796 4.22626 46.7425 4.30512C47.1575 4.44878 47.6198 4.58549 47.9947 4.81429C48.3177 5.01124 48.6826 5.13019 48.8984 5.46689C48.9417 5.53449 48.9783 5.60946 48.9816 5.68963C48.99 5.88918 48.8017 6.03391 48.6338 6.14181C48.4187 6.28047 48.2033 6.41893 47.9879 6.55738C47.794 6.68217 47.6493 6.81283 47.4068 6.79137C47.1176 6.76581 46.8359 6.62605 46.6515 6.39986C46.6101 6.34894 46.5716 6.2887 46.5761 6.22327C46.5848 6.09306 46.9087 6.06641 47.0132 6.02373C47.0634 6.00336 47.1161 5.9791 47.1458 5.93337C47.2149 5.82721 47.1161 5.68702 47.0043 5.62722C46.8925 5.56742 46.7566 5.53796 46.6791 5.43764C46.6195 5.3605 46.5991 5.24697 46.5124 5.20277C46.447 5.16941 46.3647 5.19064 46.3068 5.23528C46.2487 5.28012 46.21 5.34447 46.1725 5.40731C46.0078 5.68399 45.8434 5.96046 45.6787 6.23692C45.6313 6.31644 45.5827 6.39748 45.513 6.45836C45.4432 6.51924 45.3474 6.55781 45.2573 6.53658C45.1427 6.50971 45.0705 6.39921 45.0133 6.29651C44.8721 6.04301 44.746 5.76416 44.7668 5.47469C44.7832 5.24199 44.8926 4.99933 44.799 4.78569C44.6398 4.77919 44.5176 4.92241 44.4372 5.05999C44.3217 5.25824 44.2359 5.47599 44.0899 5.65323C43.9441 5.83046 43.7144 5.96457 43.4904 5.91409C43.4665 5.90867 43.4418 5.90044 43.4265 5.88137C43.4126 5.86426 43.4089 5.84129 43.4078 5.81919C43.4007 5.66861 43.501 5.51933 43.459 5.37459C43.4247 5.25672 43.3077 5.18522 43.1972 5.13148C43.1134 5.09075 43.0254 5.05305 42.932 5.04699C42.7266 5.03399 42.5379 5.13647 42.329 5.09249C42.1299 5.05045 41.9585 4.88731 41.8179 4.74777C40.8262 3.76454 40.3026 2.41492 39.5111 1.26442C39.4318 1.14894 39.3468 1.03281 39.2296 0.956322C38.98 0.793175 38.7445 0.908875 38.7246 1.20506C38.715 1.34741 38.7601 1.48737 38.8095 1.62128C39.203 2.68944 39.8961 3.6406 40.1801 4.743C40.2064 4.84484 40.2291 4.94841 40.2339 5.05349C40.2434 5.26778 40.1632 5.46342 40.0324 5.63351C39.8987 5.62917 39.801 5.50957 39.6807 5.45107C39.6482 5.43504 39.6114 5.42334 39.5761 5.43071C39.5143 5.44328 39.4766 5.51022 39.474 5.57327C39.4716 5.63611 39.4955 5.69678 39.5152 5.75658C39.5444 5.84476 39.565 5.93597 39.5771 6.02827C39.6005 6.20898 39.4259 6.34352 39.281 6.42629C39.0858 6.53809 38.8476 6.59183 38.6258 6.54697C38.3896 6.49888 37.9485 6.34483 37.9838 6.03023C38 5.88549 38.1484 5.78041 38.2544 5.69872C38.4308 5.56331 38.626 5.45476 38.8208 5.34859C38.8845 5.31393 38.9514 5.28077 38.9986 5.22574C39.0461 5.17071 39.0689 5.08685 39.0312 5.02489C38.9813 4.94299 38.8639 4.94278 38.7694 4.95837C38.5018 5.00258 38.2618 5.14427 37.997 5.17742C37.8178 5.19974 37.6198 5.20364 37.4753 5.09509C37.1134 4.82339 37.5093 4.288 37.4564 3.93896C37.451 3.90342 37.4404 3.86572 37.4122 3.84362C37.3804 3.81849 37.3351 3.82001 37.2959 3.82954C37.0833 3.88132 36.9678 4.1086 36.9024 4.31725C36.8773 4.39699 36.853 4.48192 36.7915 4.53848C36.7299 4.59502 36.645 4.60976 36.5642 4.60802C36.5228 4.60715 36.4801 4.60326 36.4394 4.59567C36.4015 4.58831 36.3534 4.58311 36.3152 4.5909C36.281 4.59784 36.2535 4.60781 36.2173 4.60802C36.1391 4.60867 36.0576 4.59307 35.9985 4.53848C35.9369 4.48192 35.9124 4.39699 35.8875 4.31725C35.8219 4.1086 35.7066 3.88132 35.4941 3.82954C35.4546 3.82001 35.4093 3.81849 35.3777 3.84362C35.3493 3.86572 35.3387 3.90342 35.3333 3.93896C35.2804 4.288 35.6763 4.82339 35.3147 5.09509C35.1702 5.20364 34.9721 5.19974 34.7927 5.17742C34.5279 5.14427 34.2881 5.00258 34.0205 4.95837C33.9258 4.94278 33.8084 4.94299 33.7588 5.02489C33.7211 5.08685 33.7436 5.17071 33.7911 5.22574C33.8385 5.28077 33.9055 5.31393 33.9692 5.34859C34.1637 5.45476 34.3592 5.56331 34.5353 5.69872C34.6415 5.78041 34.7897 5.88549 34.8059 6.03023C34.8412 6.34483 34.4001 6.49888 34.1642 6.54697C33.9423 6.59183 33.704 6.53809 33.5087 6.42629C33.364 6.34352 33.1894 6.20898 33.2128 6.02827C33.2247 5.93597 33.2455 5.84476 33.2745 5.75658C33.2943 5.69678 33.3181 5.63611 33.3157 5.57327C33.3133 5.51022 33.2756 5.44328 33.2139 5.43071C33.1783 5.42334 33.1415 5.43504 33.109 5.45107C32.9887 5.50957 32.891 5.62917 32.7573 5.63351C32.6265 5.46342 32.5463 5.26778 32.5558 5.05349C32.5606 4.94841 32.5834 4.84484 32.6096 4.743C32.8936 3.6406 33.587 2.68944 33.9802 1.62128C34.0296 1.48737 34.0747 1.34741 34.0651 1.20506C34.0454 0.908875 33.8099 0.793175 33.5601 0.956322C33.4429 1.03281 33.3582 1.14894 33.2786 1.26442C32.4872 2.41492 31.9635 3.76454 30.972 4.74777C30.8314 4.88731 30.6598 5.05045 30.4607 5.09249C30.2518 5.13647 30.0631 5.03399 29.8577 5.04699C29.7645 5.05305 29.6766 5.09075 29.5925 5.13148C29.482 5.18522 29.3652 5.25672 29.331 5.37459C29.2889 5.51933 29.389 5.66861 29.3821 5.81919C29.381 5.84129 29.3771 5.86426 29.3633 5.88137C29.3479 5.90044 29.3232 5.90867 29.2993 5.91409C29.0755 5.96457 28.8456 5.83046 28.6998 5.65323C28.554 5.47599 28.4682 5.25824 28.3525 5.05999C28.2723 4.92241 28.1499 4.77919 27.9909 4.78569C27.8973 4.99933 28.0065 5.24199 28.0232 5.47469C28.0438 5.76416 27.9177 6.04301 27.7764 6.29651C27.7192 6.39921 27.647 6.50971 27.5326 6.53658C27.4425 6.55781 27.3465 6.51924 27.2768 6.45836C27.207 6.39748 27.1585 6.31644 27.1112 6.23692C26.9466 5.96046 26.7819 5.68399 26.6172 5.40731C26.5797 5.34447 26.541 5.28012 26.4831 5.23528C26.425 5.19064 26.3427 5.16941 26.2775 5.20277C26.1906 5.24697 26.1705 5.3605 26.1107 5.43764C26.0331 5.53796 25.8975 5.56742 25.7857 5.62722C25.6739 5.68702 25.5748 5.82721 25.6442 5.93337C25.6739 5.9791 25.7265 6.00336 25.7768 6.02373C25.8812 6.06641 26.2049 6.09306 26.2138 6.22327C26.2181 6.2887 26.1796 6.34894 26.1382 6.39986C25.9538 6.62605 25.6723 6.76581 25.3829 6.79137C25.1406 6.81283 24.9959 6.68217 24.8018 6.55738C24.5864 6.41893 24.3713 6.28047 24.1559 6.14181C23.988 6.03391 23.7999 5.88918 23.8081 5.68963C23.8116 5.60946 23.848 5.53449 23.8913 5.46689C24.1074 5.13019 24.4722 5.01124 24.7951 4.81429C25.1701 4.58549 25.6323 4.44878 26.0472 4.30512C25.6104 4.22626 24.9879 4.17274 24.2683 4.30772C23.6082 4.43166 22.98 4.69707 22.4234 5.07212C22.031 5.33624 21.719 5.66969 21.3674 5.978C20.8552 6.42715 20.1727 6.58706 19.5316 6.77751C18.8441 6.98139 18.1781 7.27996 17.5545 7.63291C17.1693 7.85109 16.7977 8.09311 16.4445 8.36004C15.5048 9.07071 14.7751 9.9389 14.2128 10.9709C14.1286 11.1251 14.0436 11.2447 14.0293 11.4306C14.028 11.4465 14.0282 11.4647 14.0402 11.4751C14.0471 11.4813 14.0568 11.4833 14.0662 11.4846C14.2356 11.5063 14.3606 11.36 14.4791 11.2636C14.6366 11.1358 14.7946 11.0084 14.9538 10.8827C15.2726 10.6318 15.5969 10.3878 15.9336 10.1616C16.0259 10.0997 16.1193 10.0388 16.2179 9.98721C16.727 9.72092 17.2858 9.53178 17.7605 9.20461C17.7538 9.32984 17.9111 9.42561 18.0366 9.42561C18.1618 9.42561 18.2764 9.35888 18.3839 9.29431C18.6068 9.16019 18.8298 9.02608 19.053 8.89196C19.2074 8.79901 19.3641 8.70519 19.5361 8.65102C19.7305 8.58971 19.9415 8.58147 20.1402 8.62741C20.4056 8.68894 20.7451 8.799 20.9809 8.58516C21.0212 8.54854 21.0526 8.50304 21.0924 8.466C21.175 8.38929 21.2892 8.35419 21.4016 8.34899C21.5139 8.34357 21.6257 8.36546 21.7353 8.39037C21.9905 8.44844 22.2471 8.52579 22.4626 8.67442C22.5127 8.70888 22.5643 8.75372 22.5705 8.81417C22.579 8.89478 22.5042 8.95912 22.4306 8.99249C22.2926 9.05554 22.1372 9.06486 21.9881 9.09367C21.8393 9.12228 21.6837 9.17839 21.5971 9.30298C21.5511 9.36863 21.5232 9.45421 21.4519 9.49104C21.4235 9.50555 21.3912 9.51054 21.3594 9.51119C21.1488 9.51617 20.9096 9.27243 20.7254 9.47956C20.6697 9.54196 20.6511 9.62927 20.6026 9.69753C20.5122 9.82449 20.3621 9.86284 20.2212 9.90205C20.0284 9.95579 19.8364 10.0119 19.6438 10.0667C19.3548 10.1491 19.0536 10.2323 18.757 10.1824C18.6855 10.1705 18.591 10.1616 18.5609 10.2275C18.5494 10.2526 18.552 10.2817 18.5551 10.3092L18.5845 10.5822C18.5973 10.7003 18.5516 10.728 18.4543 10.7759C18.375 10.8153 18.2836 10.8428 18.2275 10.9158C18.1492 11.0179 18.17 11.128 18.1759 11.245C18.1822 11.373 18.105 11.4716 17.9984 11.5344C17.9031 11.5908 17.7935 11.628 17.7179 11.7088C17.7083 11.7188 17.6992 11.7303 17.6968 11.7439C17.6912 11.7758 17.7237 11.8005 17.7525 11.815C17.8979 11.888 18.0437 11.9002 18.1456 12.0419C18.2038 12.1231 18.2394 12.2182 18.2714 12.3127C18.2894 12.3653 18.3063 12.4182 18.3172 12.4724C18.3325 12.5499 18.3351 12.6292 18.3356 12.7081C18.3367 12.9228 18.3232 13.138 18.3377 13.3523C18.3644 13.7472 18.5158 14.2536 18.804 14.5424C19.1076 14.8466 19.5706 15.0891 19.9463 15.2971C19.3262 15.2981 18.7048 15.3038 18.0864 15.2992C17.423 15.2942 16.6293 15.1341 16.024 14.8579C15.6288 14.6774 15.3211 14.4137 15.1096 14.0389C15.0695 13.9678 14.9768 13.827 14.878 13.8731C14.8303 13.8952 14.8017 13.9461 14.7909 13.9975C14.7799 14.0488 14.7833 14.1021 14.7822 14.1546C14.7712 14.6828 14.308 15.2156 13.9264 15.5425C13.5834 15.8368 13.1581 16.1297 12.7391 16.3013C12.7698 15.9696 12.6318 15.6214 12.2745 15.5358C12.1205 15.499 11.9521 15.5259 11.8174 15.6091C11.7478 15.6517 11.6846 15.7133 11.6655 15.7924C11.6447 15.8779 11.6804 15.97 11.7402 16.0348C11.8425 16.1455 12.0258 16.146 12.1153 16.2554C12.1506 16.2983 12.1617 16.3641 12.1309 16.4105C12.1016 16.4547 12.0453 16.4707 11.994 16.4846C11.9023 16.5091 11.8111 16.5366 11.7231 16.5719C11.6718 16.5925 11.6202 16.6168 11.5832 16.6577C11.4415 16.8139 11.5784 16.9015 11.6642 17.0124C11.8375 17.236 11.8421 17.7612 11.7773 18.018C11.7179 18.253 11.5513 18.453 11.3459 18.5822C11.1786 18.6872 10.9592 18.7726 10.7596 18.7832C10.5627 18.7936 10.3913 18.6894 10.2075 18.6277C9.87626 18.5165 9.51378 18.552 9.17209 18.6253C9.02563 18.6567 8.87526 18.6974 8.76129 18.7945C8.62523 18.9104 8.56218 19.0874 8.47031 19.2406C8.32774 19.4785 8.05843 19.7327 7.77741 19.7899C7.43443 19.8596 7.11853 19.9495 6.79309 20.0906C6.66396 20.1467 6.53548 20.2052 6.41479 20.2778C6.29259 20.351 6.17928 20.4381 6.06618 20.5248C5.81614 20.7168 5.56589 20.9087 5.31564 21.1007C4.93951 21.3893 4.55623 21.6855 4.29688 22.0822C4.15713 22.2958 4.05746 22.5331 3.96603 22.7714C3.99008 22.7541 4.01413 22.7367 4.03818 22.7194C4.62448 22.2971 5.25519 21.9331 5.83694 21.5111C5.96694 21.4168 6.15328 21.4198 6.15978 21.6237C6.16498 21.7843 5.95611 21.8105 5.96651 21.9401C5.97171 22.0068 6.02197 22.0633 6.08112 22.0945C6.14027 22.126 6.20788 22.1366 6.27396 22.1465C6.42801 22.1702 6.58227 22.1938 6.73632 22.2174C6.98376 22.2553 7.23292 22.2932 7.48296 22.2824C7.54839 22.2796 7.61686 22.2739 7.67731 22.2997C7.89831 22.3938 7.83743 22.7781 7.78868 22.9569C7.75228 23.091 7.68251 23.213 7.61339 23.3334C7.48491 23.5575 7.33563 23.7991 7.09036 23.8799C6.97748 23.9171 6.85636 23.9152 6.73763 23.9219C6.51034 23.9349 6.28479 23.9811 6.07073 24.0586C6.03541 24.0712 5.99706 24.0879 5.98233 24.1223C5.95633 24.1817 6.01851 24.2426 6.07809 24.2679C6.19314 24.3171 6.32293 24.3193 6.44036 24.3617C6.46268 24.37 6.48586 24.3806 6.49843 24.4005C6.51273 24.4228 6.51056 24.4514 6.50752 24.4777C6.49301 24.5973 6.46614 24.7201 6.49734 24.8365C6.53093 24.9619 6.62864 25.0618 6.74001 25.1285C6.85116 25.1955 6.97661 25.234 7.09924 25.2767C7.31634 25.3521 7.90069 25.413 7.63723 25.7449C7.63723 25.7449 5.28553 30.9397 5.20883 32.872C5.20991 32.8432 5.05694 32.7253 5.03679 32.7045C4.87971 32.5422 4.73303 32.3693 4.59393 32.1912C4.09581 31.554 3.69389 30.8425 3.37929 30.0982C2.90154 28.9685 2.62941 27.7578 2.53386 26.5364C2.51588 26.3078 2.50418 26.0786 2.49811 25.8492C2.49464 25.7111 2.53949 24.9621 2.21471 25.2804C2.16314 25.3309 2.13303 25.3989 2.10768 25.4665C1.93088 25.9352 1.91961 26.4422 1.86414 26.9342C1.83641 27.1799 1.79849 27.4261 1.72309 27.6622C1.67954 27.7983 1.52398 28.13 1.36451 27.8635C1.34848 27.8371 1.33353 27.8061 1.30449 27.7953C1.24946 27.7749 1.20331 27.8408 1.18272 27.8958C0.951973 28.5094 0.950674 29.1817 0.95219 29.8373C0.953057 30.2525 0.95414 30.6678 0.955007 31.083C0.95674 31.804 0.634559 32.4798 0.628493 33.1976C0.624376 33.6739 0.790993 34.1323 0.90496 34.5947C1.00549 35.0031 1.03691 35.3821 0.929656 35.7868C0.821106 36.1965 0.947211 36.645 1.08913 37.03C1.25076 37.4683 1.45768 37.9032 1.47826 38.3701C1.48411 38.5044 1.47436 38.6392 1.48627 38.7731C1.51444 39.0873 1.65983 39.3772 1.75104 39.679C1.79633 39.8291 1.82839 39.9884 1.79871 40.1422C1.75646 40.3604 1.62083 40.5288 1.59526 40.7534C1.56666 41.0065 1.57533 41.2639 1.62126 41.5144C1.64986 41.67 1.69276 41.8249 1.68756 41.983C1.67933 42.2393 1.54651 42.472 1.44814 42.7089C1.04016 43.6908 0.984909 44.8961 1.29236 45.9142C1.35974 46.1374 1.44684 46.3538 1.53502 46.5694C1.63014 46.8017 1.72916 47.0368 1.88776 47.2309C2.03509 47.4112 2.23291 47.5444 2.37786 47.726C2.50439 47.8844 2.59019 48.0854 2.64631 48.2807C2.75464 48.657 2.76807 49.1064 3.06578 49.3965C3.28093 49.606 3.59791 49.6719 3.89799 49.6836C4.12528 49.6925 4.35516 49.6754 4.57443 49.6147C5.03918 49.4862 5.47901 49.1621 5.95394 49.2453C6.17754 49.9516 6.41436 50.6543 6.66721 51.3504C6.79786 51.7105 6.93739 52.0743 7.09903 52.4227C7.14756 52.5271 7.23379 52.6513 7.22469 52.7717C7.21061 52.9598 7.03424 52.9444 6.89254 52.9516C6.76644 52.9581 6.64814 53.0458 6.60546 53.1646C6.56928 53.2644 6.58444 53.3745 6.58661 53.4807C6.58899 53.5871 6.57253 53.7045 6.49279 53.7747C6.43603 53.8245 6.35781 53.8408 6.28284 53.8488C6.20788 53.857 6.13053 53.859 6.06054 53.8869C5.87811 53.9599 5.90693 54.1534 6.08654 54.2054C6.16433 54.228 6.24688 54.2219 6.32791 54.2232C6.51814 54.2264 6.70512 54.2711 6.88951 54.3174C7.01301 54.3486 7.13716 54.3811 7.25178 54.4364C7.61166 54.6095 7.95963 55.0985 7.76701 55.4998C7.68554 55.6694 7.52434 55.7964 7.34256 55.8454C7.23683 55.8735 7.12632 55.8768 7.01691 55.8798C6.46809 55.8952 5.92404 55.9013 5.38303 55.7975C5.02639 55.7288 4.66326 55.6495 4.34129 55.4749C4.03536 55.3089 3.73441 55.0946 3.59964 54.761C3.70776 55.3681 3.86138 55.9255 4.31443 56.3704C4.58526 56.6364 4.90766 56.8431 5.23179 57.0407C5.45192 57.1751 5.67422 57.3059 5.89631 57.4368C6.07116 57.5399 6.24579 57.6428 6.42064 57.7458C6.78312 57.9594 7.16229 58.1784 7.58197 58.2107C7.71198 58.2209 7.84349 58.2125 7.97284 58.2304C8.19774 58.2614 8.34941 58.4088 8.44799 58.6051C8.55503 58.8185 8.54853 59.0817 8.69261 59.273C8.77126 59.3773 8.89151 59.454 9.02194 59.462C9.18726 59.4719 9.35323 59.3747 9.51269 59.4191C9.65483 59.4585 9.78028 59.6182 9.94169 59.5645C10.0795 59.5185 10.161 59.3727 10.3323 59.3989C10.3635 59.4037 10.393 59.4163 10.422 59.4286C10.5973 59.5034 10.7579 59.6113 10.9316 59.4615C11.0291 59.3777 11.0614 59.3584 11.1843 59.4056C11.2833 59.4438 11.3702 59.5014 11.4484 59.5727C11.5959 59.7068 11.7175 59.8853 11.7805 60.0749C11.841 60.2563 11.849 60.4534 11.8096 60.6402C11.7669 60.8434 11.6642 60.9526 11.5357 61.1069C11.4768 61.1778 11.4289 61.2703 11.4527 61.3593C11.5019 61.5431 11.724 61.5119 11.8455 61.6081C11.8713 61.6284 11.8917 61.6583 11.8926 61.6913C11.8941 61.74 11.8559 61.779 11.8252 61.8165C11.7448 61.9138 11.7049 62.0347 11.7246 62.1608C11.7294 62.1905 11.7374 62.2199 11.7519 62.2461C11.8011 62.3356 11.9097 62.3714 12.0096 62.392C12.0676 62.4039 12.1263 62.4132 12.1855 62.4138C12.6167 62.4182 12.7698 62.0342 12.8533 61.6804C12.941 61.8304 13.0528 61.9801 13.2162 62.0392C13.3304 62.0804 13.4541 62.0602 13.5756 62.0657C13.6712 62.07 13.7661 62.0862 13.8595 62.107C14.1604 62.174 14.4687 62.3007 14.6434 62.5545C14.7926 62.7713 14.8219 63.0476 14.8247 63.3108C14.8277 63.5739 14.8095 63.8423 14.8808 64.0958C14.8951 64.1467 14.9181 64.2024 14.9673 64.2224C15.0388 64.2512 15.1122 64.1877 15.1592 64.1266C15.2156 64.0534 15.2669 63.9764 15.3165 63.8987C15.354 63.8397 15.3956 63.7316 15.4808 63.7349C15.5148 63.7364 15.5462 63.752 15.5763 63.7676C16.0363 64.0066 16.4447 64.332 16.8499 64.6555C17.2642 64.9861 17.6786 65.317 18.0929 65.6476C18.1943 65.7284 18.3057 65.8318 18.2938 65.9607C18.2782 66.1292 18.115 66.1656 17.9887 66.2265C17.9269 66.2564 17.8669 66.3034 17.8513 66.3702C17.8359 66.4352 17.8674 66.5045 17.9168 66.5491C17.9664 66.5938 18.0312 66.6174 18.0957 66.6339C18.1321 66.6432 18.1711 66.6514 18.1986 66.677C18.2472 66.7225 18.24 66.8 18.2257 66.8648C18.2103 66.9348 18.1908 67.0054 18.1965 67.0769C18.2019 67.1484 18.2387 67.2228 18.305 67.2498C18.3739 67.278 18.456 67.2494 18.5252 67.2774C18.6077 67.3107 18.6404 67.4121 18.6383 67.5012C18.6361 67.5902 18.6094 67.6784 18.6172 67.767C18.6248 67.8559 18.6833 67.9514 18.7724 67.9562C18.8814 67.962 18.9856 67.8673 19.0941 67.8491C19.2194 67.8283 19.3494 67.8431 19.4711 67.8754C19.6646 67.9265 19.8449 68.0181 20.036 68.0773C20.2615 68.1473 20.5224 68.1843 20.6658 68.3722C20.7005 68.4175 20.7258 68.4695 20.7588 68.516C20.8199 68.6021 20.9152 68.6716 21.0207 68.6714C21.1353 68.671 21.2348 68.5906 21.3477 68.57C21.474 68.547 21.6116 68.6086 21.6787 68.718C21.7104 68.7698 21.7271 68.83 21.7613 68.88C21.8486 69.0081 22.0243 69.0389 22.1792 69.0313C22.2726 69.0267 22.369 69.0126 22.4581 69.0417C22.5471 69.0705 22.6256 69.1608 22.6026 69.2516C22.5887 69.3058 22.5435 69.3457 22.4984 69.3784C22.2221 69.5799 21.8742 69.6494 21.5377 69.7105C21.4497 69.7263 21.3479 69.7476 21.2601 69.7201C21.1839 69.6958 21.121 69.6332 21.0576 69.5857C20.8831 69.4557 20.6823 69.3188 20.4678 69.3537C20.3857 69.3671 20.3101 69.4052 20.2321 69.4345C19.9523 69.5398 19.6315 69.5303 19.3582 69.4087C19.2477 69.3595 19.1457 69.2932 19.0428 69.2293C18.7505 69.0475 18.4478 68.8826 18.1365 68.7357C18.0925 68.7149 18.0463 68.6941 17.9978 68.6954C17.8416 68.7 17.8154 68.8584 17.7948 68.9773C17.7915 68.9962 17.7874 69.0168 17.7731 69.0298C17.7521 69.0488 17.7187 69.0434 17.6923 69.0328C17.5534 68.9771 17.4819 68.8278 17.3887 68.7108C17.1409 68.3997 16.7199 68.3033 16.3555 68.144C15.9308 67.9586 15.5625 67.6715 15.2041 67.3827C15.0206 67.2345 14.8384 67.0845 14.6488 66.9439C14.4759 66.8161 14.2952 66.6336 14.0737 66.61C14.0623 66.6087 14.0493 66.6083 14.0404 66.6157C14.0345 66.6204 14.0315 66.628 14.0291 66.6352C13.9964 66.732 14.0241 66.8397 14.0703 66.9307C14.1164 67.0219 14.1801 67.1034 14.2258 67.1948C14.3548 67.4526 14.535 67.6918 14.7112 67.9183C15.1924 68.5371 15.7648 69.0846 16.3836 69.5643C17.343 70.3077 18.4235 70.8872 19.5556 71.3206C20.2568 71.589 20.9458 71.8018 21.5849 72.21C21.9663 72.4533 22.3004 72.7527 22.7016 72.9675C23.2195 73.2446 23.7613 73.4855 24.3336 73.6166C24.906 73.7479 25.5122 73.7659 26.0762 73.6023C25.512 73.4147 24.9606 73.1885 24.4269 72.9263C24.267 72.8476 24.1022 72.7601 24.0008 72.6136C23.8578 72.4074 23.9303 72.1242 24.0814 71.9435C24.1828 71.8222 24.316 71.732 24.4512 71.6501C24.8455 71.4109 25.3122 71.2218 25.7603 71.3312C25.941 71.3752 26.1098 71.4675 26.2443 71.5957C26.3362 71.6835 26.414 71.8287 26.3375 71.9301C26.2825 72.0033 26.177 72.0102 26.0855 72.0083C25.9976 72.0065 25.9074 72.0031 25.8242 72.0317C25.7408 72.0603 25.665 72.1292 25.6565 72.2167C25.6487 72.298 25.7009 72.3753 25.7685 72.421C25.8361 72.4667 25.9172 72.4867 25.9965 72.5057C26.1949 72.5536 26.211 72.8832 26.4114 72.922C26.5386 72.9467 26.6443 72.8292 26.7206 72.7246C26.9589 72.3972 27.1972 72.0696 27.4356 71.7422C27.4954 71.6601 27.5831 71.5676 27.6804 71.5968C27.7465 71.6168 27.7831 71.6859 27.8115 71.7487C27.8949 71.9333 27.9705 72.1214 28.0383 72.312C28.0784 72.4247 28.1161 72.5417 28.1079 72.6609C28.0934 72.8671 27.9434 73.0517 27.9575 73.2578C27.9614 73.3154 27.9842 73.3789 28.0373 73.4017C28.1131 73.4342 28.1924 73.3663 28.2424 73.3011C28.4091 73.084 28.5167 72.8271 28.679 72.6069C28.8413 72.3866 29.0855 72.1963 29.3587 72.2087C29.373 72.2093 29.3886 72.2111 29.3997 72.2204C29.4118 72.2306 29.4155 72.2475 29.4183 72.2631C29.448 72.4347 29.3344 72.624 29.3836 72.7822C29.4083 72.8613 29.4848 72.9133 29.5628 72.9412C29.6408 72.9694 29.7244 72.9798 29.8014 73.0106C29.9101 73.0539 30.0104 73.1384 30.1272 73.1308C30.2399 73.1235 30.3279 73.0329 30.4327 72.9913C30.5287 72.9532 30.6412 72.9584 30.733 73.0054C30.8841 73.0825 30.9497 73.1616 31.0478 73.2996C31.1477 73.44 31.2587 73.5724 31.3646 73.7082C32.0959 74.6451 32.5933 75.7484 33.3348 76.6772C33.4587 76.8326 33.5937 76.9864 33.7698 77.0787C33.8415 77.1162 33.936 77.1402 33.998 77.0882C34.0331 77.0588 34.048 77.012 34.0576 76.9669C34.1226 76.6601 34.0147 76.3446 33.8892 76.0573C33.7206 75.6712 33.5174 75.3014 33.3306 74.9237C33.1389 74.5359 32.9027 74.113 32.7896 73.6939C32.6915 73.3304 32.7333 72.8249 32.8908 72.4841C32.8715 72.4492 32.9266 72.4537 32.9664 72.455C33.0061 72.4563 33.0388 72.4856 33.0652 72.5151C33.1179 72.5742 33.161 72.6416 33.1924 72.7144C33.2115 72.7588 33.2388 72.8141 33.2873 72.8119C33.3235 72.8102 33.3484 72.7748 33.3636 72.7419C33.4065 72.6492 33.4197 72.543 33.4011 72.4425C33.3794 72.3259 33.3168 72.2206 33.2893 72.1053C33.2617 71.9901 33.2817 71.8475 33.3842 71.7877C33.4669 71.7394 33.574 71.7619 33.6637 71.7281C33.8324 71.6646 33.9037 71.4172 34.0764 71.3663C34.3043 71.2989 34.1479 71.633 34.204 71.7221C34.2569 71.8061 34.3594 71.8443 34.4571 71.862C34.555 71.8798 34.6569 71.8833 34.7481 71.9225C34.8393 71.9619 34.9197 72.0512 34.9075 72.1498C34.8967 72.239 34.8176 72.3023 34.7418 72.3506C34.5141 72.4951 34.2504 72.603 34.0888 72.8188C34.0578 72.8604 34.0305 72.907 34.0253 72.9586C34.0201 73.0099 34.0417 73.0669 34.0879 73.0905C34.1176 73.1057 34.1525 73.1053 34.1856 73.1033C34.393 73.0899 34.5927 73.0182 34.7996 72.9984C35.0063 72.9787 35.2401 73.0251 35.3617 73.1937C35.4609 73.3315 35.4616 73.5161 35.4416 73.6846C35.4219 73.8534 35.3859 74.0257 35.4258 74.1908C35.4408 74.2529 35.4748 74.3201 35.5372 74.3344C35.5909 74.3468 35.6449 74.3147 35.6862 74.2781C35.8195 74.16 35.8919 73.9901 35.9807 73.8359C36.0697 73.6818 36.1941 73.5288 36.3683 73.4922C36.3863 73.4885 36.4034 73.4885 36.4214 73.4922C36.5956 73.5288 36.72 73.6818 36.809 73.8359C36.8981 73.9901 36.9702 74.16 37.1037 74.2781C37.1451 74.3147 37.1988 74.3468 37.2528 74.3344C37.3149 74.3201 37.3492 74.2529 37.3641 74.1908C37.404 74.0257 37.3678 73.8534 37.3481 73.6846C37.3284 73.5161 37.3288 73.3315 37.4282 73.1937C37.5496 73.0251 37.7834 72.9787 37.9903 72.9984C38.197 73.0182 38.3968 73.0899 38.6041 73.1033C38.6372 73.1053 38.6724 73.1057 38.7018 73.0905C38.748 73.0669 38.7696 73.0099 38.7644 72.9586C38.7592 72.907 38.7319 72.8604 38.701 72.8188C38.5393 72.603 38.2759 72.4951 38.0481 72.3506C37.9723 72.3023 37.893 72.239 37.8822 72.1498C37.8703 72.0512 37.9506 71.9619 38.0419 71.9225C38.1329 71.8833 38.2349 71.8798 38.3326 71.862C38.4303 71.8443 38.5328 71.8061 38.5859 71.7221C38.642 71.633 38.4854 71.2989 38.7133 71.3663C38.886 71.4172 38.9573 71.6646 39.126 71.7281C39.2157 71.7619 39.3228 71.7394 39.4058 71.7877C39.508 71.8475 39.5282 71.9901 39.5005 72.1053C39.4729 72.2206 39.4103 72.3259 39.3886 72.4425C39.37 72.543 39.3832 72.6492 39.4261 72.7419C39.4413 72.7748 39.4662 72.8102 39.5026 72.8119C39.5509 72.8141 39.5782 72.7588 39.5975 72.7144C39.6287 72.6416 39.6718 72.5742 39.7245 72.5151C39.7509 72.4856 39.7836 72.4563 39.8235 72.455C39.8632 72.4537 39.9182 72.4492 39.8991 72.4841C40.0564 72.8249 40.0982 73.3304 40.0001 73.6939C39.887 74.113 39.651 74.5359 39.4591 74.9237C39.2723 75.3014 39.0693 75.6712 38.9007 76.0573C38.7751 76.3446 38.6674 76.6601 38.7322 76.9669C38.7417 77.012 38.7566 77.0588 38.792 77.0882C38.8539 77.1402 38.9484 77.1162 39.0199 77.0787C39.196 76.9864 39.331 76.8326 39.4552 76.6772C40.1964 75.7484 40.6939 74.6451 41.4251 73.7082C41.5313 73.5724 41.642 73.44 41.7419 73.2996C41.8402 73.1616 41.9059 73.0825 42.0567 73.0054C42.1488 72.9584 42.261 72.9532 42.3572 72.9913C42.4621 73.0329 42.5498 73.1235 42.6625 73.1308C42.7795 73.1384 42.8796 73.0539 42.9886 73.0106C43.0655 72.9798 43.1491 72.9694 43.2269 72.9412C43.3049 72.9133 43.3814 72.8613 43.4061 72.7822C43.4553 72.624 43.3417 72.4347 43.3714 72.2631C43.3742 72.2475 43.3781 72.2306 43.3903 72.2204C43.4013 72.2111 43.4167 72.2093 43.4312 72.2087C43.7044 72.1963 43.9484 72.3866 44.1107 72.6069C44.273 72.8271 44.3809 73.084 44.5473 73.3011C44.5973 73.3663 44.6768 73.4342 44.7524 73.4017C44.8055 73.3789 44.8285 73.3154 44.8324 73.2578C44.8465 73.0517 44.6963 72.8671 44.682 72.6609C44.6736 72.5417 44.7113 72.4247 44.7514 72.312C44.8192 72.1214 44.8948 71.9333 44.9782 71.7487C45.0068 71.6859 45.0432 71.6168 45.1095 71.5968C45.2068 71.5676 45.2946 71.6601 45.3544 71.7422C45.5927 72.0696 45.831 72.3972 46.0694 72.7246C46.1454 72.8292 46.2514 72.9467 46.3785 72.922C46.579 72.8832 46.5948 72.5536 46.7932 72.5057C46.8725 72.4867 46.9538 72.4667 47.0212 72.421C47.0888 72.3753 47.141 72.298 47.1332 72.2167C47.1247 72.1292 47.0489 72.0603 46.9657 72.0317C46.8825 72.0031 46.7921 72.0065 46.7042 72.0083C46.6128 72.0102 46.5075 72.0033 46.4522 71.9301C46.3759 71.8287 46.4535 71.6835 46.5454 71.5957C46.6801 71.4675 46.8487 71.3752 47.0294 71.3312C47.4775 71.2218 47.9444 71.4109 48.3387 71.6501C48.4739 71.732 48.6072 71.8222 48.7086 71.9435C48.8594 72.1242 48.9319 72.4074 48.7892 72.6136C48.6875 72.7601 48.5229 72.8476 48.3628 72.9263C47.8293 73.1885 47.2779 73.4147 46.7137 73.6023C47.2775 73.7659 47.8839 73.7479 48.4562 73.6166C49.0286 73.4855 49.5705 73.2446 50.0881 72.9675C50.4894 72.7527 50.8235 72.4533 51.205 72.21C51.8442 71.8018 52.533 71.589 53.2343 71.3206C54.3664 70.8872 55.4467 70.3077 56.4061 69.5643C57.0251 69.0846 57.5973 68.5371 58.0788 67.9183C58.2547 67.6918 58.435 67.4526 58.5639 67.1948C58.6096 67.1034 58.6733 67.0219 58.7194 66.9307C58.7656 66.8397 58.7933 66.732 58.7606 66.6352C58.7582 66.628 58.7552 66.6204 58.7493 66.6157C58.7405 66.6083 58.7277 66.6087 58.716 66.61C58.4948 66.6336 58.3138 66.8161 58.1412 66.9439C57.9516 67.0845 57.7694 67.2345 57.5856 67.3827C57.2273 67.6715 56.8591 67.9586 56.4345 68.144C56.07 68.3033 55.6488 68.3997 55.4012 68.7108C55.3078 68.8278 55.2363 68.9771 55.0976 69.0328C55.0712 69.0434 55.0376 69.0488 55.0166 69.0298C55.0025 69.0168 54.9984 68.9962 54.9952 68.9773C54.9744 68.8584 54.9481 68.7 54.7921 68.6954C54.7434 68.6941 54.6972 68.7149 54.6533 68.7357C54.3421 68.8826 54.0392 69.0475 53.7469 69.2293C53.6442 69.2932 53.5422 69.3595 53.4315 69.4087C53.1585 69.5303 52.8374 69.5398 52.5577 69.4345C52.4799 69.4052 52.4043 69.3671 52.3219 69.3537C52.1074 69.3188 51.9066 69.4557 51.7324 69.5857C51.6687 69.6332 51.6058 69.6958 51.5296 69.7201C51.4418 69.7476 51.34 69.7263 51.252 69.7105C50.9158 69.6494 50.5676 69.5799 50.2913 69.3784C50.2463 69.3457 50.201 69.3058 50.1873 69.2516C50.1641 69.1608 50.2428 69.0705 50.3316 69.0417C50.4207 69.0126 50.5171 69.0267 50.6107 69.0313C50.7654 69.0389 50.9413 69.0081 51.0284 68.88C51.0627 68.83 51.0793 68.7698 51.1112 68.718C51.1781 68.6086 51.3159 68.547 51.4423 68.57C51.5551 68.5906 51.6544 68.671 51.7692 68.6714C51.8747 68.6716 51.9698 68.6021 52.0309 68.516C52.0639 68.4695 52.0892 68.4175 52.1239 68.3722C52.2673 68.1843 52.5282 68.1473 52.754 68.0773C52.945 68.0181 53.1253 67.9265 53.3186 67.8754C53.4406 67.8431 53.5706 67.8283 53.6956 67.8491C53.8041 67.8673 53.9086 67.962 54.0176 67.9562C54.1064 67.9514 54.1651 67.8559 54.1727 67.767C54.1803 67.6784 54.1536 67.5902 54.1515 67.5012C54.1493 67.4121 54.1822 67.3107 54.2648 67.2774C54.3337 67.2494 54.416 67.278 54.4849 67.2498C54.5512 67.2228 54.5878 67.1484 54.5935 67.0769C54.5989 67.0054 54.5794 66.9348 54.564 66.8648C54.5497 66.8 54.5428 66.7225 54.5911 66.677C54.6186 66.6514 54.6576 66.6432 54.694 66.6339C54.7588 66.6174 54.8236 66.5938 54.873 66.5491C54.9224 66.5045 54.954 66.4352 54.9386 66.3702C54.9228 66.3034 54.863 66.2564 54.8012 66.2265C54.6747 66.1656 54.5118 66.1292 54.4962 65.9607C54.4843 65.8318 54.5956 65.7284 54.6968 65.6476C55.1113 65.317 55.5256 64.9861 55.94 64.6555C56.345 64.332 56.7534 64.0066 57.2134 63.7676C57.2435 63.752 57.2751 63.7364 57.3092 63.7349C57.3941 63.7316 57.4357 63.8397 57.4732 63.8987C57.5228 63.9764 57.5741 64.0534 57.6307 64.1266C57.6777 64.1877 57.7512 64.2512 57.8224 64.2224C57.8716 64.2024 57.8948 64.1467 57.9091 64.0958C57.9802 63.8423 57.9622 63.5739 57.965 63.3108C57.968 63.0476 57.9973 62.7713 58.1464 62.5545C58.3212 62.3007 58.6295 62.174 58.9303 62.107C59.0239 62.0862 59.1185 62.07 59.2143 62.0657C59.3356 62.0602 59.4594 62.0804 59.5738 62.0392C59.7369 61.9801 59.8487 61.8304 59.9367 61.6804C60.0201 62.0342 60.1733 62.4182 60.6044 62.4138C60.6636 62.4132 60.7223 62.4039 60.7802 62.392C60.88 62.3714 60.9886 62.3356 61.0378 62.2461C61.0523 62.2199 61.0605 62.1905 61.0651 62.1608C61.085 62.0347 61.0449 61.9138 60.9648 61.8165C60.9338 61.779 60.8956 61.74 60.8972 61.6913C60.8982 61.6583 60.9184 61.6284 60.9444 61.6081C61.0657 61.5119 61.2878 61.5431 61.337 61.3593C61.3608 61.2703 61.3132 61.1778 61.254 61.1069C61.1255 60.9526 61.023 60.8434 60.9801 60.6402C60.9407 60.4534 60.9489 60.2563 61.0092 60.0749C61.0724 59.8853 61.194 59.7068 61.3413 59.5727C61.4195 59.5014 61.5064 59.4438 61.6054 59.4056C61.7285 59.3584 61.7606 59.3777 61.8581 59.4615C62.0318 59.6113 62.1924 59.5034 62.3679 59.4286C62.3969 59.4163 62.4262 59.4037 62.4574 59.3989C62.6288 59.3727 62.7102 59.5185 62.8482 59.5645C63.0097 59.6182 63.1351 59.4585 63.277 59.4191C63.4365 59.3747 63.6027 59.4719 63.7678 59.462C63.8982 59.454 64.0187 59.3773 64.0971 59.273C64.2412 59.0817 64.2349 58.8185 64.3419 58.6051C64.4403 58.4088 64.592 58.2614 64.8169 58.2304C64.9462 58.2125 65.0777 58.2209 65.208 58.2107C65.6274 58.1784 66.0066 57.9594 66.3693 57.7458C66.5439 57.6428 66.7188 57.5399 66.8934 57.4368C67.1157 57.3059 67.3378 57.1751 67.5579 57.0407C67.8821 56.8431 68.2045 56.6364 68.4753 56.3704C68.9283 55.9255 69.0822 55.3681 69.1903 54.761C69.0553 55.0946 68.7544 55.3089 68.4486 55.4749C68.1267 55.6495 67.7635 55.7288 67.4067 55.7975C66.8657 55.9013 66.3216 55.8952 65.7728 55.8798C65.6634 55.8768 65.5529 55.8735 65.4474 55.8454C65.2656 55.7964 65.1044 55.6694 65.0229 55.4998C64.8303 55.0985 65.1781 54.6095 65.5379 54.4364C65.6528 54.3811 65.7767 54.3486 65.9002 54.3174C66.0848 54.2711 66.2718 54.2264 66.462 54.2232C66.5428 54.2219 66.6256 54.228 66.7034 54.2054C66.883 54.1534 66.9116 53.9599 66.7292 53.8869C66.6592 53.859 66.5821 53.857 66.5071 53.8488C66.4319 53.8408 66.3537 53.8245 66.2969 53.7747C66.2172 53.7045 66.2007 53.5871 66.2031 53.4807C66.2055 53.3745 66.2204 53.2644 66.1845 53.1646C66.1416 53.0458 66.0235 52.9581 65.8974 52.9516C65.7557 52.9444 65.5793 52.9598 65.565 52.7717C65.5561 52.6513 65.6424 52.5271 65.6907 52.4227C65.8523 52.0743 65.9919 51.7105 66.1227 51.3504C66.3756 50.6543 66.6124 49.9516 66.8358 49.2453C67.3107 49.1621 67.7508 49.4862 68.2153 49.6147C68.4348 49.6754 68.6644 49.6925 68.8917 49.6836C69.1918 49.6719 69.509 49.606 69.7242 49.3965C70.0219 49.1064 70.0353 48.657 70.1434 48.2807C70.1995 48.0854 70.2853 47.8844 70.4119 47.726C70.5568 47.5444 70.7546 47.4112 70.902 47.2309C71.0608 47.0368 71.1596 46.8017 71.2547 46.5694C71.3431 46.3538 71.43 46.1374 71.4974 45.9142C71.805 44.8961 71.7498 43.6908 71.3416 42.7089C71.2432 42.472 71.1106 42.2393 71.1022 41.983C71.097 41.8249 71.1399 41.67 71.1685 41.5144C71.2144 41.2639 71.2231 41.0065 71.1945 40.7534C71.1691 40.5288 71.0333 40.3604 70.9912 40.1422C70.9615 39.9884 70.9936 39.8291 71.0389 39.679C71.1299 39.3772 71.2755 39.0873 71.3034 38.7731C71.3156 38.6392 71.3058 38.5044 71.3117 38.3701C71.332 37.9032 71.539 37.4683 71.7006 37.03C71.8425 36.645 71.9686 36.1965 71.8601 35.7868C71.7528 35.3821 71.7842 35.0031 71.8848 34.5947Z" fill="#2B2B2B"/>
</svg>
