<svg width="72" height="78" viewBox="0 0 72 78" fill="none" xmlns="http://www.w3.org/2000/svg">
    <path d="M60.2694 48.6148C59.8287 50.7747 56.1601 56.2048 56.1601 56.2048C55.9435 55.9882 55.5101 55.1215 54.151 54.6708C52.7916 54.2199 53.221 52.289 53.221 52.289C52.8822 52.7065 52.0435 54.2548 53.5601 55.5548C55.0768 56.8548 55.0159 57.2294 55.0159 57.2294C54.0881 58.4709 51.4502 60.4914 51.4502 60.4914C51.3627 60.4985 51.2726 60.4976 51.1902 60.4675C51.0704 60.424 50.9818 60.3055 50.9746 60.1778C50.9671 60.0403 51.0284 59.9094 51.0882 59.7852C51.1764 59.6024 51.2645 59.4197 51.3527 59.2369C51.388 59.1636 51.4242 59.0874 51.4251 59.0061C51.426 58.9249 51.3809 58.8369 51.3025 58.8157C51.187 58.7842 51.0808 58.9045 50.961 58.9043C50.9276 58.9041 50.891 58.8917 50.8754 58.862C50.8667 58.846 50.8657 58.8271 50.8618 58.8094C50.8466 58.7396 50.784 58.6831 50.7129 58.6748C50.6421 58.6666 50.6028 58.6432 50.5708 58.7069C48.2314 63.3758 45.4639 63.7732 45.4639 63.7732C45.5619 63.2248 45.6628 62.6663 45.8929 62.1551C45.9952 61.9283 46.109 61.7043 46.3035 61.5522C46.4946 61.4029 46.7395 61.329 46.8879 61.1266C46.9002 61.1099 46.9119 61.0911 46.9115 61.0705C46.9098 61.0168 46.835 61.0025 46.7826 61.0142C46.5748 61.0605 46.4119 61.2464 46.1997 61.264C46.1746 61.2662 46.146 61.2644 46.1291 61.2456C46.0665 61.1767 46.3029 61.0315 46.2684 60.918C46.2647 60.9063 46.2585 60.8946 46.2474 60.8887C46.237 60.8829 46.224 60.8837 46.2121 60.8853C46.0333 60.9065 45.8815 61.0198 45.7346 61.1238C45.4005 61.3602 45.0466 61.5667 44.6933 61.7729C44.6679 61.7877 44.6384 61.8031 44.6107 61.7937C44.6677 61.6276 44.7988 61.4796 44.9132 61.3496C45.0464 61.1988 45.1901 61.0577 45.3292 60.9126C45.4113 60.8272 45.498 60.7113 45.4535 60.6014C45.4475 60.5863 45.4384 60.5715 45.4245 60.5629C45.4106 60.5542 45.394 60.5527 45.3777 60.5518C45.2228 60.5438 45.0692 60.5938 44.9333 60.669C44.7977 60.7442 44.6774 60.8443 44.5587 60.9442C44.4246 61.0575 44.2896 61.1732 44.1893 61.3173C44.1327 61.3988 44.0881 61.4878 44.0446 61.5769C43.9557 61.7582 43.8771 61.9448 43.7876 62.1257C43.7406 62.2208 43.6695 62.4099 43.5484 62.4249C43.5529 62.3311 43.6 62.2453 43.6268 62.156C43.6576 62.0527 43.6879 61.9489 43.7165 61.8447C43.7731 61.6382 43.824 61.43 43.8608 61.2189C43.491 61.4731 43.2186 61.8652 43.1094 62.3005C43.0481 62.5454 43.0132 62.8381 42.7942 62.9635C42.5938 63.0781 42.3433 62.9893 42.1128 62.9984C41.7737 63.0118 41.4246 63.2636 41.1629 63.4792C41.3356 63.2974 41.3135 62.9685 41.1178 62.8114C41.0823 62.7828 41.0405 62.7575 41.0216 62.7157C40.9822 62.6277 41.0656 62.536 41.143 62.4786C41.3284 62.341 41.5284 62.2234 41.7386 62.1281C41.8424 62.081 41.9661 62.0154 41.9682 61.9014C41.9711 61.7593 41.7813 61.6869 41.7444 61.5496C41.7069 61.41 41.8395 61.2872 41.9609 61.2087C42.082 61.1303 42.2235 61.0289 42.2148 60.8848C42.2085 60.7778 42.1128 60.6929 42.0092 60.6656C41.9056 60.6385 41.7958 60.6569 41.6913 60.6801C41.3163 60.7633 40.9495 60.9071 40.6459 61.1427C40.3424 61.378 40.1053 61.7103 40.028 62.0867C40.0128 62.1606 39.9935 62.249 39.9227 62.2756C39.8588 62.2994 39.7858 62.2531 39.7561 62.1918C39.7264 62.1302 39.7251 62.0507 39.7281 61.9825C39.62 62.0132 39.5039 62.0492 39.4367 62.1395C39.3561 62.2479 39.3721 62.3969 39.3767 62.5321C39.381 62.6637 39.3708 62.7956 39.3459 62.925C39.3379 62.967 39.2926 63.0162 39.2671 62.9817C39.2261 62.9269 39.1789 62.8769 39.1262 62.8331C39.0959 62.808 39.0619 62.7839 39.0227 62.7804C38.9479 62.7737 38.8855 62.8472 38.8762 62.9215C38.8192 63.3737 38.9741 63.7957 38.8177 64.262C38.7947 64.2484 38.7715 64.2349 38.7484 64.2217C38.577 64.1231 38.4006 64.0326 38.2206 63.9509C38.0403 63.869 37.8563 63.7957 37.6694 63.7312C37.4822 63.6666 37.2921 63.6107 37.1 63.5639C36.9076 63.5173 36.7132 63.4794 36.5173 63.451C36.4194 63.4367 36.3213 63.4248 36.2227 63.4153C36.1663 63.4099 36.1109 63.3966 36.0541 63.3938C35.9997 63.391 35.9432 63.3982 35.8881 63.3979C35.8396 63.3977 35.7909 63.4051 35.7423 63.4094C35.6929 63.4138 35.6437 63.4185 35.5948 63.4239C35.4964 63.435 35.3985 63.4482 35.3008 63.4638C35.1055 63.4948 34.9116 63.5351 34.7201 63.5845C34.5286 63.6337 34.3394 63.692 34.1533 63.7589C33.9672 63.8259 33.7843 63.9017 33.6053 63.9858C33.5159 64.028 33.4275 64.0722 33.3399 64.1184C33.2964 64.1415 33.2528 64.1652 33.2097 64.1894C33.1987 64.1957 33.0823 64.2572 33.0838 64.262C32.9272 63.7957 33.0823 63.3737 33.0253 62.9215C33.016 62.8472 32.9536 62.7737 32.8789 62.7804C32.8396 62.7839 32.8056 62.808 32.7753 62.8331C32.7226 62.8769 32.6754 62.9269 32.6345 62.9817C32.6089 63.0162 32.5636 62.967 32.5554 62.925C32.5307 62.7956 32.5205 62.6637 32.5248 62.5321C32.5294 62.3969 32.5454 62.2479 32.4646 62.1393C32.3976 62.0492 32.2815 62.0132 32.1734 61.9825C32.1764 62.0507 32.1751 62.1302 32.1454 62.1918C32.1155 62.2531 32.0427 62.2994 31.9788 62.2756C31.908 62.249 31.8887 62.1606 31.8735 62.0867C31.7962 61.7103 31.5591 61.378 31.2556 61.1427C30.9518 60.9071 30.5852 60.7633 30.2102 60.6801C30.1057 60.6569 29.9959 60.6383 29.8923 60.6656C29.7888 60.6929 29.693 60.7778 29.6867 60.8848C29.678 61.0289 29.8195 61.1303 29.9406 61.2087C30.062 61.2872 30.1944 61.41 30.1571 61.5496C30.1203 61.6869 29.9305 61.7593 29.9333 61.9014C29.9354 62.0154 30.0592 62.081 30.1629 62.1281C30.3731 62.2234 30.5731 62.341 30.7586 62.4786C30.8359 62.536 30.9193 62.6277 30.8799 62.7157C30.861 62.7575 30.8192 62.7828 30.7837 62.8114C30.588 62.9685 30.5659 63.2974 30.7386 63.4792C30.4769 63.2636 30.1278 63.0118 29.7888 62.9984C29.5582 62.9893 29.3078 63.0781 29.1073 62.9635C28.8883 62.8381 28.8534 62.5454 28.7921 62.3005C28.6829 61.8652 28.4105 61.4731 28.0407 61.2189C28.0775 61.43 28.1284 61.6382 28.185 61.8447C28.2136 61.9489 28.2439 62.0527 28.2747 62.156C28.3016 62.2453 28.3486 62.3311 28.3531 62.4249C28.232 62.4099 28.1609 62.2208 28.1139 62.1257C28.0244 61.9448 27.9458 61.7582 27.857 61.5769C27.8134 61.4878 27.7688 61.3988 27.7122 61.3173C27.6119 61.1732 27.4769 61.0575 27.3428 60.9442C27.2241 60.8443 27.1038 60.7442 26.9682 60.669C26.8323 60.5938 26.6787 60.5438 26.5236 60.5518C26.5076 60.5527 26.4909 60.5542 26.477 60.5629C26.4631 60.5715 26.454 60.5863 26.448 60.6014C26.4036 60.7113 26.4902 60.8272 26.5721 60.9126C26.7114 61.0577 26.8551 61.1988 26.9881 61.3496C27.1027 61.4796 27.2338 61.6276 27.2908 61.7937C27.2631 61.8031 27.2336 61.7877 27.2083 61.7729C26.8549 61.5667 26.5011 61.3602 26.167 61.1238C26.0201 61.0198 25.8682 60.9065 25.6894 60.8853C25.6773 60.8837 25.6645 60.8829 25.6539 60.8887C25.643 60.8946 25.6366 60.9063 25.6331 60.918C25.5986 61.0315 25.8348 61.1767 25.7724 61.2456C25.7555 61.2644 25.7269 61.2662 25.7018 61.264C25.4894 61.2464 25.3267 61.0605 25.1189 61.0142C25.0665 61.0025 24.9917 61.0168 24.99 61.0705C24.9896 61.0911 25.0013 61.1099 25.0136 61.1266C25.1621 61.329 25.4069 61.4029 25.598 61.5522C25.7925 61.7043 25.9063 61.9283 26.0086 62.1551C26.2387 62.6663 26.3396 63.2246 26.4376 63.7732C26.4376 63.7732 23.6701 63.3758 21.3307 58.7069C21.2987 58.6432 21.2595 58.6666 21.1884 58.6748C21.1175 58.6831 21.0549 58.7396 21.0397 58.8094C21.0359 58.8271 21.0348 58.846 21.0261 58.862C21.0105 58.8917 20.9739 58.9041 20.9403 58.9043C20.8207 58.9045 20.7145 58.7842 20.5991 58.8157C20.5206 58.8369 20.4755 58.9249 20.4764 59.0061C20.4773 59.0874 20.5132 59.1636 20.5488 59.2369C20.637 59.4197 20.7251 59.6024 20.8133 59.7852C20.8731 59.9094 20.9345 60.0403 20.9269 60.1778C20.9197 60.3055 20.8311 60.424 20.7113 60.4675C20.6289 60.4976 20.5388 60.4985 20.4513 60.4914C20.4513 60.4914 17.8134 58.4709 16.8856 57.2294C16.8856 57.2294 16.8247 56.8548 18.3414 55.5548C19.858 54.2548 19.0193 52.7065 18.6803 52.289C18.6803 52.289 19.1099 54.2199 17.7505 54.6708C16.3914 55.1215 15.958 55.9882 15.7414 56.2048C15.7414 56.2048 12.0728 50.7747 11.6321 48.6148C11.1914 46.4548 11.0638 33.3309 16.8691 33.8262C16.8691 33.8262 16.1184 32.7522 14.6299 32.5617C14.6299 32.5617 16.6416 31.8731 15.6497 29.3056C15.6497 29.3056 17.0546 28.0561 17.2645 26.5306C17.2645 26.5306 17.0407 27.0579 16.3909 27.1147C16.3909 27.1147 14.3723 26.0212 13.1067 27.4629C13.1089 27.4581 13.1102 27.4557 13.1113 27.4534C13.113 27.4495 13.1149 27.4456 13.1167 27.4417C13.1193 27.4362 13.1219 27.4306 13.1247 27.4252C13.1279 27.4183 13.1314 27.4111 13.1347 27.4042C13.1388 27.3957 13.1429 27.3873 13.147 27.3788C13.152 27.3689 13.1568 27.3589 13.1617 27.3489C13.1674 27.3377 13.173 27.3262 13.1789 27.3149C13.1851 27.3021 13.1916 27.2893 13.1981 27.2766C13.2053 27.2623 13.2125 27.2482 13.2198 27.2339C13.2276 27.2183 13.2356 27.2029 13.2436 27.1873C13.2525 27.1704 13.2612 27.1535 13.2701 27.1366C13.2796 27.1184 13.2891 27.1002 13.2989 27.082C13.3091 27.0625 13.3195 27.043 13.3299 27.0235C13.3409 27.0027 13.3522 26.9821 13.3635 26.9613C13.3754 26.9392 13.3873 26.9173 13.3994 26.8952C13.412 26.872 13.4248 26.8489 13.4378 26.8257C13.4512 26.8012 13.4649 26.7769 13.4785 26.7524C13.4928 26.7269 13.5073 26.7013 13.5218 26.6757C13.537 26.6491 13.5522 26.6222 13.5673 26.5956C13.5834 26.5678 13.5994 26.5399 13.6157 26.5122C13.6326 26.4831 13.6492 26.4543 13.6664 26.4255C13.6839 26.3954 13.7017 26.3655 13.7194 26.3354C13.7381 26.3044 13.7565 26.2734 13.7751 26.2424C13.7944 26.2101 13.8139 26.1783 13.8334 26.1462C13.8536 26.1131 13.8739 26.0801 13.8941 26.047C13.9151 26.013 13.9363 25.9789 13.9576 25.9449C13.9794 25.91 14.0013 25.8749 14.0234 25.8401C14.0462 25.8041 14.0689 25.7683 14.0919 25.7324C14.1155 25.6955 14.1391 25.6589 14.163 25.6221C14.1874 25.5844 14.2119 25.5467 14.2366 25.5092C14.262 25.4706 14.2873 25.4321 14.3129 25.3937C14.3391 25.3543 14.3653 25.3151 14.3918 25.2759C14.4188 25.2356 14.4461 25.1955 14.4734 25.1554C14.5014 25.1144 14.5293 25.0737 14.5577 25.0328C14.5865 24.9912 14.6154 24.9496 14.6446 24.908C14.6743 24.8655 14.7042 24.823 14.7341 24.7808C14.7649 24.7377 14.7956 24.6945 14.8264 24.6516C14.858 24.6079 14.8897 24.5641 14.9215 24.5206C14.9538 24.4761 14.9865 24.4317 15.0192 24.3873C15.0526 24.3422 15.086 24.2974 15.1195 24.2523C15.154 24.2066 15.1882 24.1611 15.2229 24.1156C15.258 24.0692 15.2933 24.0231 15.3288 23.9772C15.365 23.9304 15.4012 23.8836 15.4376 23.837C15.4747 23.7895 15.5117 23.7423 15.5492 23.6953C15.5871 23.6474 15.6252 23.5995 15.6634 23.5521C15.7024 23.5035 15.7414 23.4554 15.7806 23.4073C15.8205 23.3584 15.8605 23.3098 15.9006 23.2613C15.9414 23.2119 15.9823 23.1629 16.0235 23.114C16.0651 23.0643 16.1071 23.0147 16.1491 22.9653C16.1918 22.9153 16.2347 22.8654 16.2776 22.8158C16.3214 22.7653 16.3652 22.7151 16.4091 22.665C16.4538 22.6143 16.4984 22.5638 16.5435 22.5134C16.589 22.4622 16.6347 22.4115 16.6806 22.3608C16.7272 22.3095 16.774 22.2583 16.8208 22.2074C16.8683 22.1556 16.9159 22.1043 16.964 22.0532C17.0123 22.0014 17.0611 21.9496 17.1098 21.8982C17.1595 21.8462 17.2091 21.7945 17.2589 21.7427C17.3094 21.6905 17.3601 21.6385 17.4108 21.5867C17.4624 21.5342 17.5139 21.4822 17.5659 21.4302C17.6184 21.3776 17.671 21.3254 17.7239 21.2734C17.7772 21.2207 17.8309 21.1683 17.8846 21.1161C17.9392 21.0634 17.9938 21.0108 18.0487 20.9586C18.1041 20.9057 18.1598 20.8533 18.2157 20.801C18.2723 20.7482 18.3288 20.6955 18.3858 20.6433C18.4432 20.5904 18.5009 20.5378 18.5589 20.4854C18.6174 20.4327 18.6761 20.3801 18.7351 20.3278C18.7946 20.275 18.8544 20.2223 18.9145 20.1701C18.9749 20.1175 19.0358 20.065 19.0967 20.0128C19.1584 19.9602 19.2202 19.9077 19.2822 19.8557C19.3448 19.8031 19.4078 19.7509 19.4709 19.6989C19.5346 19.6464 19.5985 19.5944 19.6626 19.5426C19.7274 19.4904 19.7924 19.4384 19.8576 19.3869C19.9233 19.3346 19.9893 19.2829 20.0556 19.2315C20.1224 19.1795 20.1895 19.1282 20.2569 19.0768C20.3247 19.0252 20.393 18.9739 20.4613 18.923C20.5304 18.8716 20.5995 18.8205 20.669 18.7698C20.739 18.7187 20.8094 18.668 20.8798 18.6175C20.9509 18.5668 21.0224 18.5163 21.0939 18.4662C21.1661 18.4158 21.2386 18.3657 21.3112 18.3159C21.3847 18.2658 21.4581 18.216 21.532 18.1668C21.6063 18.117 21.6809 18.0676 21.7558 18.0186C21.8312 17.9694 21.9071 17.9205 21.9829 17.8719C22.0596 17.823 22.1363 17.7744 22.2134 17.7263C22.291 17.6778 22.369 17.6299 22.4472 17.5822C22.5259 17.5341 22.6049 17.4867 22.6842 17.4395C22.7642 17.392 22.8444 17.345 22.9247 17.2984C23.0058 17.2514 23.087 17.205 23.1685 17.1589C23.2506 17.1125 23.333 17.0666 23.4157 17.0211C23.4989 16.9751 23.5823 16.9299 23.6662 16.885C23.7505 16.8397 23.8352 16.7949 23.9199 16.7507C24.0055 16.706 24.0913 16.6618 24.1773 16.6183C24.264 16.5743 24.3508 16.5308 24.4379 16.4879C24.5257 16.4445 24.6139 16.4018 24.7021 16.3596C24.7911 16.3169 24.8802 16.2749 24.9697 16.2333C25.0598 16.1915 25.1501 16.1501 25.2407 16.1093C25.3319 16.0682 25.4233 16.0277 25.5152 15.9876C25.6075 15.9473 25.7003 15.9074 25.7932 15.8682C25.8868 15.8285 25.9806 15.7895 26.0746 15.7512C26.1693 15.7124 26.2645 15.6743 26.3596 15.6366C26.4555 15.5987 26.5518 15.5614 26.648 15.5248C26.7452 15.4877 26.8425 15.4513 26.94 15.4154C27.0384 15.3794 27.1367 15.3439 27.2355 15.3088C27.335 15.2737 27.4347 15.239 27.5348 15.205C27.6353 15.1707 27.7363 15.1372 27.8372 15.1042C27.9393 15.0709 28.0413 15.0381 28.1436 15.0061C28.2467 14.9738 28.3499 14.9422 28.4534 14.9112C28.5577 14.88 28.6623 14.8492 28.767 14.8193C28.8725 14.789 28.978 14.7595 29.0839 14.7307C29.1908 14.7014 29.2976 14.6728 29.4046 14.6451C29.5125 14.6169 29.6206 14.5896 29.729 14.563C29.8382 14.5359 29.9476 14.5097 30.057 14.4841C30.1675 14.4583 30.278 14.4332 30.3887 14.4087C30.5003 14.384 30.6121 14.3602 30.7241 14.337C30.837 14.3134 30.9499 14.2906 31.0632 14.2688C31.1772 14.2464 31.2916 14.225 31.406 14.2042C31.5212 14.1832 31.6367 14.163 31.7524 14.1433C31.869 14.1236 31.9858 14.1047 32.1028 14.0863C32.2206 14.0679 32.3385 14.0504 32.4566 14.0332C32.5757 14.0163 32.6951 13.9999 32.8143 13.9843C32.9348 13.9685 33.0552 13.9535 33.1759 13.9392C33.2977 13.9249 33.4194 13.9113 33.5412 13.8983C33.6643 13.8853 33.7873 13.8731 33.9104 13.8616C34.0346 13.8499 34.1589 13.8391 34.2833 13.8291C34.4087 13.819 34.5344 13.8096 34.6601 13.801C34.7868 13.7923 34.9138 13.7845 35.0408 13.7774C35.1688 13.77 35.2969 13.7637 35.4251 13.7581C35.5545 13.7524 35.684 13.7475 35.8134 13.7433C35.8539 13.7423 35.8942 13.7423 35.9347 13.742C36.0051 13.7414 36.0749 13.7429 36.1455 13.7453C36.178 13.7464 36.2103 13.7475 36.2428 13.7488C36.372 13.7533 36.5009 13.7589 36.63 13.7652C36.7578 13.7715 36.8855 13.7784 37.0133 13.7862C37.1398 13.794 37.2661 13.8025 37.3927 13.8118C37.5179 13.8209 37.6431 13.8309 37.7682 13.8415C37.8921 13.8523 38.016 13.8636 38.14 13.8757C38.2626 13.8879 38.3852 13.9006 38.5079 13.9143C38.6292 13.9277 38.7507 13.942 38.8719 13.957C38.9921 13.9717 39.1124 13.9873 39.2322 14.0036C39.3511 14.0198 39.4701 14.0367 39.5888 14.0545C39.7065 14.0718 39.8241 14.0902 39.9415 14.1091C40.0581 14.1279 40.1745 14.1474 40.2906 14.1676C40.4059 14.1877 40.5209 14.2085 40.636 14.23C40.7499 14.2514 40.8637 14.2735 40.9774 14.2963C41.0903 14.3188 41.2028 14.342 41.3152 14.3658C41.4268 14.3897 41.5382 14.4141 41.6495 14.4393C41.7598 14.4642 41.8699 14.4898 41.9799 14.5162C42.0889 14.5422 42.1979 14.5691 42.3067 14.5964C42.4146 14.6237 42.5223 14.6514 42.6297 14.68C42.7365 14.7084 42.8429 14.7374 42.9493 14.7669C43.0548 14.7963 43.1601 14.8265 43.2652 14.857C43.3694 14.8876 43.4734 14.9185 43.5774 14.9504C43.6803 14.9818 43.7833 15.0139 43.886 15.0466C43.9878 15.0791 44.0896 15.1122 44.191 15.146C44.2918 15.1794 44.3921 15.2134 44.4924 15.2481C44.5919 15.2825 44.6913 15.3176 44.7903 15.3532C44.8887 15.3885 44.9868 15.4245 45.0846 15.4611C45.1818 15.4973 45.2787 15.5341 45.3753 15.5716C45.4713 15.6086 45.5671 15.6463 45.6626 15.6847C45.7575 15.7226 45.852 15.7612 45.9465 15.8004C46.0401 15.8392 46.1334 15.8786 46.2266 15.9185C46.3191 15.9581 46.4112 15.9982 46.5033 16.0389C46.5947 16.0794 46.6857 16.1204 46.7765 16.1618C46.8666 16.2029 46.9568 16.2448 47.0463 16.2868C47.1353 16.3288 47.2241 16.3713 47.3128 16.4142C47.4005 16.4567 47.4883 16.4998 47.5756 16.5435C47.6622 16.5869 47.7489 16.6306 47.8351 16.6748C47.9207 16.7188 48.0061 16.7632 48.091 16.8081C48.1755 16.8527 48.2598 16.8978 48.3437 16.9433C48.4271 16.9886 48.5103 17.0343 48.593 17.0804C48.6752 17.1262 48.7573 17.1723 48.839 17.2191C48.92 17.2655 49.0008 17.3123 49.0814 17.3595C49.1614 17.4063 49.2411 17.4535 49.3206 17.5014C49.3995 17.5487 49.4781 17.5965 49.5566 17.6449C49.6341 17.6927 49.7117 17.7408 49.789 17.7896C49.8657 17.8379 49.942 17.8867 50.0183 17.9358C50.0937 17.9846 50.1691 18.0338 50.244 18.0834C50.3186 18.1326 50.3929 18.1822 50.4668 18.232C50.5402 18.2816 50.6132 18.3317 50.686 18.382C50.7584 18.4318 50.8306 18.4821 50.9023 18.5328C50.9736 18.583 51.0444 18.6337 51.115 18.6846C51.1852 18.7353 51.2552 18.7863 51.3248 18.8374C51.3939 18.8883 51.4626 18.9394 51.5313 18.991C51.5991 19.0421 51.6669 19.0937 51.7343 19.1455C51.8012 19.1968 51.868 19.2484 51.9345 19.3004C52.0003 19.352 52.066 19.404 52.1312 19.4562C52.196 19.508 52.2606 19.56 52.3249 19.6124C52.3886 19.6644 52.4521 19.7166 52.5154 19.7691C52.5782 19.8211 52.6406 19.8735 52.7028 19.9261C52.7645 19.9784 52.8258 20.0308 52.8872 20.0834C52.9478 20.1357 53.0081 20.1883 53.0683 20.2412C53.1279 20.2934 53.1872 20.346 53.2464 20.3989C53.3049 20.4513 53.3632 20.504 53.4212 20.5569C53.4789 20.6091 53.5361 20.6617 53.5931 20.7146C53.6496 20.767 53.7059 20.8197 53.7621 20.8725C53.8175 20.9248 53.8728 20.9774 53.9278 21.0303C53.9822 21.0825 54.0364 21.1349 54.0905 21.1878C54.1438 21.24 54.1971 21.2922 54.2502 21.3449C54.3026 21.3971 54.3549 21.4493 54.4069 21.5017C54.4584 21.5537 54.5096 21.606 54.5607 21.6582C54.611 21.71 54.6612 21.762 54.7113 21.8142C54.7609 21.8657 54.8101 21.9175 54.859 21.9695C54.9076 22.0209 54.9559 22.0724 55.0038 22.1242C55.0514 22.1754 55.0987 22.2267 55.1457 22.2783C55.1923 22.3292 55.2386 22.3803 55.2846 22.4315C55.3301 22.4822 55.3756 22.5329 55.4206 22.5838C55.4653 22.634 55.5095 22.6845 55.5537 22.7352C55.5974 22.7851 55.6408 22.8353 55.6839 22.8856C55.7266 22.9352 55.769 22.9848 55.8113 23.0349C55.8529 23.0841 55.8945 23.1335 55.9357 23.1829C55.9764 23.2316 56.0169 23.2806 56.0574 23.3298C56.0971 23.3781 56.1367 23.4266 56.1762 23.4754C56.2149 23.5232 56.2535 23.5711 56.2921 23.6194C56.33 23.6669 56.3677 23.7143 56.4052 23.762C56.4422 23.809 56.4788 23.856 56.5155 23.9033C56.5514 23.9496 56.5874 23.996 56.6231 24.0428C56.6582 24.0885 56.6931 24.1345 56.7278 24.1806C56.762 24.2259 56.796 24.2712 56.8298 24.3167C56.863 24.3613 56.8961 24.4059 56.9291 24.4508C56.9614 24.4948 56.9936 24.539 57.0255 24.5832C57.0569 24.6265 57.0883 24.6701 57.1193 24.7136C57.1499 24.7563 57.1802 24.799 57.2105 24.8419C57.24 24.8837 57.2695 24.9257 57.2989 24.968C57.3275 25.0091 57.3561 25.0505 57.3845 25.0919C57.4125 25.1324 57.44 25.1729 57.4675 25.2135C57.4946 25.2533 57.5212 25.293 57.5479 25.3328C57.5741 25.3716 57.5999 25.4106 57.6257 25.4496C57.6508 25.4878 57.6759 25.5259 57.7008 25.564C57.7251 25.6013 57.7492 25.6386 57.7732 25.6758C57.7966 25.7122 57.82 25.7486 57.8432 25.785C57.8657 25.8203 57.888 25.8559 57.9104 25.8914C57.932 25.9259 57.9537 25.9603 57.9751 25.995C57.9959 26.0286 58.0165 26.0621 58.0373 26.0957C58.0573 26.1282 58.077 26.1609 58.0969 26.1934C58.116 26.2251 58.1348 26.2567 58.1539 26.2883C58.1721 26.3187 58.1903 26.3492 58.2083 26.38C58.2258 26.4095 58.2432 26.4389 58.2603 26.4684C58.277 26.4968 58.2934 26.5252 58.3099 26.5535C58.3257 26.5808 58.3413 26.6081 58.3569 26.6354C58.3719 26.6617 58.3866 26.6879 58.4013 26.7141C58.4154 26.739 58.4295 26.7641 58.4434 26.7891C58.4568 26.8129 58.47 26.8367 58.483 26.8606C58.4956 26.8833 58.5079 26.9058 58.5203 26.9286C58.532 26.9498 58.5435 26.9713 58.5549 26.9927C58.5658 27.0129 58.5766 27.033 58.5874 27.0532C58.5974 27.072 58.6074 27.0909 58.6173 27.1097C58.6264 27.1273 58.6358 27.1448 58.6449 27.1624C58.6533 27.1786 58.6618 27.1949 58.67 27.2111C58.6778 27.2261 58.6854 27.2408 58.693 27.2558C58.6997 27.2692 58.7066 27.2828 58.7133 27.2963C58.7194 27.3084 58.7255 27.3205 58.7315 27.3325C58.7369 27.3433 58.7421 27.3539 58.7473 27.3645C58.7519 27.3738 58.7564 27.3829 58.761 27.3923C58.7647 27.3998 58.7684 27.4076 58.7723 27.4154C58.7751 27.4215 58.7781 27.4278 58.7811 27.4341C58.7833 27.4388 58.7857 27.4434 58.7879 27.4482C58.7894 27.4514 58.7907 27.4544 58.7922 27.4577C57.5292 26.0212 55.5106 27.1147 55.5106 27.1147C54.8608 27.0579 54.637 26.5306 54.637 26.5306C54.8469 28.0561 56.2516 29.3056 56.2516 29.3056C55.2599 31.8731 57.2716 32.5617 57.2716 32.5617C55.7831 32.7522 55.0322 33.8262 55.0322 33.8262C60.8377 33.3309 60.7101 46.4548 60.2694 48.6148ZM71.5513 34.5947C71.6652 34.1323 71.8318 33.6739 71.8279 33.1976C71.8219 32.4798 71.4997 31.804 71.5012 31.083C71.5023 30.6678 71.5032 30.2525 71.5042 29.8373C71.5055 29.1817 71.5042 28.5094 71.2737 27.8958C71.2529 27.8408 71.207 27.7749 71.1517 27.7953C71.1227 27.8061 71.1077 27.8371 71.0919 27.8635C70.9325 28.13 70.7767 27.7983 70.7333 27.6622C70.6579 27.4261 70.62 27.1799 70.5923 26.9342C70.5366 26.4422 70.5253 25.9352 70.3488 25.4665C70.3232 25.3989 70.2933 25.3309 70.2417 25.2804C69.9169 24.9621 69.9618 25.7111 69.9581 25.8492C69.952 26.0786 69.9403 26.3078 69.9224 26.5364C69.8268 27.7578 69.5549 28.9685 69.0771 30.0982C68.7625 30.8425 68.3604 31.554 67.8625 32.1912C67.7234 32.3693 67.5767 32.5422 67.4194 32.7045C67.3995 32.7253 67.2463 32.8432 67.2474 32.872C67.1709 30.9397 64.8192 25.7449 64.8192 25.7449C64.5557 25.413 65.1399 25.3521 65.357 25.2767C65.4796 25.234 65.6051 25.1955 65.7164 25.1285C65.8276 25.0618 65.9255 24.9619 65.9591 24.8365C65.9901 24.7201 65.9632 24.5973 65.9489 24.4777C65.9457 24.4514 65.9437 24.4228 65.9578 24.4005C65.9706 24.3806 65.9935 24.37 66.0159 24.3617C66.1333 24.3193 66.2633 24.3171 66.3781 24.2679C66.4379 24.2426 66.4999 24.1817 66.4741 24.1223C66.4592 24.0879 66.4208 24.0712 66.3857 24.0586C66.1714 23.9811 65.9461 23.9349 65.7186 23.9219C65.6001 23.9152 65.4787 23.9171 65.3661 23.8799C65.1208 23.7991 64.9715 23.5575 64.8428 23.3334C64.7737 23.213 64.7039 23.091 64.6675 22.9569C64.619 22.7781 64.5579 22.3938 64.7791 22.2997C64.8394 22.2739 64.9078 22.2796 64.9733 22.2824C65.2233 22.2932 65.4727 22.2553 65.7199 22.2174C65.8742 22.1938 66.0282 22.1702 66.1825 22.1465C66.2486 22.1366 66.3162 22.126 66.3753 22.0945C66.4345 22.0633 66.4845 22.0068 66.4899 21.9401C66.5001 21.8105 66.2915 21.7843 66.2967 21.6237C66.3032 21.4198 66.4893 21.4168 66.6193 21.5111C67.2012 21.9331 67.8317 22.2971 68.4183 22.7194C68.4423 22.7367 68.4664 22.7541 68.4902 22.7714C68.399 22.5331 68.2993 22.2958 68.1596 22.0822C67.9002 21.6855 67.5167 21.3893 67.1408 21.1007C66.8905 20.9087 66.6403 20.7168 66.39 20.5248C66.2769 20.4381 66.1636 20.351 66.0414 20.2778C65.9207 20.2052 65.7923 20.1467 65.6631 20.0906C65.3377 19.9495 65.0218 19.8596 64.6788 19.7899C64.3978 19.7327 64.1287 19.4785 63.9861 19.2406C63.8943 19.0874 63.831 18.9104 63.6951 18.7945C63.5812 18.6974 63.4306 18.6567 63.2843 18.6253C62.9427 18.552 62.58 18.5165 62.2489 18.6277C62.0649 18.6894 61.8938 18.7936 61.6966 18.7832C61.4971 18.7726 61.2778 18.6872 61.1103 18.5822C60.9049 18.453 60.7385 18.253 60.6791 18.018C60.6141 17.7612 60.6187 17.236 60.792 17.0124C60.8778 16.9015 61.015 16.8139 60.8733 16.6577C60.8362 16.6168 60.7844 16.5925 60.7333 16.5719C60.6451 16.5366 60.5541 16.5091 60.4623 16.4846C60.4109 16.4707 60.3548 16.4547 60.3253 16.4105C60.2948 16.3641 60.3056 16.2983 60.3409 16.2554C60.4304 16.146 60.6139 16.1455 60.716 16.0348C60.7758 15.97 60.8115 15.8779 60.7909 15.7924C60.7717 15.7133 60.7084 15.6517 60.6391 15.6091C60.5041 15.5259 60.3357 15.499 60.1817 15.5358C59.8244 15.6214 59.6866 15.9696 59.7171 16.3013C59.2981 16.1297 58.873 15.8368 58.5298 15.5425C58.1483 15.2156 57.6852 14.6828 57.674 14.1546C57.6729 14.1021 57.6764 14.0488 57.6655 13.9975C57.6545 13.9461 57.6259 13.8952 57.5784 13.8731C57.4794 13.827 57.3867 13.9678 57.3468 14.0389C57.1351 14.4137 56.8275 14.6774 56.4323 14.8579C55.8271 15.1341 55.0335 15.2942 54.37 15.2992C53.7514 15.3038 53.13 15.2981 52.5099 15.2971C52.8856 15.0891 53.3487 14.8466 53.6524 14.5424C53.9406 14.2536 54.092 13.7472 54.1185 13.3523C54.133 13.138 54.1196 12.9228 54.1209 12.7081C54.1213 12.6292 54.1237 12.5499 54.1391 12.4724C54.1499 12.4182 54.167 12.3653 54.1848 12.3127C54.2171 12.2182 54.2526 12.1231 54.3109 12.0419C54.4127 11.9002 54.5585 11.888 54.7037 11.815C54.7327 11.8005 54.765 11.7758 54.7596 11.7439C54.7572 11.7303 54.7479 11.7188 54.7386 11.7088C54.663 11.628 54.5531 11.5908 54.4578 11.5344C54.3512 11.4716 54.2743 11.373 54.2805 11.245C54.2862 11.128 54.3072 11.0179 54.2288 10.9158C54.1726 10.8428 54.0814 10.8153 54.0019 10.7759C53.9048 10.728 53.8591 10.7003 53.8719 10.5822C53.8817 10.4912 53.8914 10.4002 53.9014 10.3092C53.9042 10.2817 53.907 10.2526 53.8955 10.2275C53.8652 10.1616 53.7709 10.1705 53.6992 10.1824C53.4026 10.2323 53.1017 10.1491 52.8124 10.0667C52.62 10.0119 52.4278 9.95579 52.235 9.90205C52.0944 9.86284 51.944 9.82449 51.8539 9.69753C51.8053 9.62927 51.7865 9.54196 51.731 9.47956C51.5466 9.27243 51.3074 9.51617 51.0968 9.51119C51.0652 9.51054 51.0327 9.50555 51.0045 9.49104C50.933 9.45421 50.9053 9.36863 50.8594 9.30298C50.7725 9.17839 50.6171 9.12228 50.4681 9.09367C50.3192 9.06486 50.1639 9.05554 50.0256 8.99249C49.9522 8.95912 49.8774 8.89478 49.8857 8.81417C49.8922 8.75372 49.9435 8.70888 49.9936 8.67442C50.2094 8.52579 50.4657 8.44844 50.7211 8.39037C50.8308 8.36546 50.9426 8.34357 51.0548 8.34899C51.167 8.35419 51.2814 8.38929 51.3638 8.466C51.4036 8.50304 51.4351 8.54854 51.4754 8.58516C51.7111 8.799 52.0506 8.68894 52.316 8.62741C52.5147 8.58147 52.7257 8.58971 52.9203 8.65102C53.0923 8.70519 53.2488 8.79901 53.4035 8.89196C53.6264 9.02608 53.8494 9.16019 54.0725 9.29431C54.18 9.35888 54.2944 9.42561 54.4199 9.42561C54.5451 9.42561 54.7024 9.32984 54.6959 9.20461C55.1706 9.53178 55.7292 9.72092 56.2386 9.98721C56.3371 10.0388 56.4305 10.0997 56.5228 10.1616C56.8595 10.3878 57.1839 10.6318 57.5024 10.8827C57.6618 11.0084 57.8198 11.1358 57.9771 11.2636C58.0958 11.36 58.2206 11.5063 58.3901 11.4846C58.3994 11.4833 58.4091 11.4813 58.4163 11.4751C58.428 11.4647 58.4282 11.4465 58.4269 11.4306C58.4126 11.2447 58.3277 11.1251 58.2436 10.9709C57.6811 9.9389 56.9516 9.07071 56.0117 8.36004C55.6588 8.09311 55.287 7.85109 54.9019 7.63291C54.2784 7.27996 53.6123 6.98139 52.9249 6.77751C52.2837 6.58706 51.601 6.42715 51.0888 5.978C50.7372 5.66969 50.4252 5.33624 50.0328 5.07212C49.4764 4.69707 48.8481 4.43166 48.1879 4.30772C47.4683 4.17274 46.8461 4.22626 46.409 4.30512C46.824 4.44878 47.2863 4.58549 47.6612 4.81429C47.9842 5.01124 48.3491 5.13019 48.5649 5.46689C48.6082 5.53449 48.6448 5.60946 48.6481 5.68963C48.6565 5.88918 48.4682 6.03391 48.3003 6.14181C48.0852 6.28047 47.8698 6.41893 47.6544 6.55738C47.4605 6.68217 47.3158 6.81283 47.0733 6.79137C46.7841 6.76581 46.5024 6.62605 46.318 6.39986C46.2767 6.34894 46.2381 6.2887 46.2426 6.22327C46.2513 6.09306 46.5752 6.06641 46.6797 6.02373C46.7299 6.00336 46.7826 5.9791 46.8123 5.93337C46.8814 5.82721 46.7826 5.68702 46.6708 5.62722C46.559 5.56742 46.4231 5.53796 46.3456 5.43764C46.286 5.3605 46.2656 5.24697 46.1789 5.20277C46.1135 5.16941 46.0312 5.19064 45.9733 5.23528C45.9153 5.28012 45.8765 5.34447 45.839 5.40731C45.6743 5.68399 45.5099 5.96046 45.3452 6.23692C45.2978 6.31644 45.2492 6.39748 45.1795 6.45836C45.1097 6.51924 45.0139 6.55781 44.9238 6.53658C44.8092 6.50971 44.737 6.39921 44.6798 6.29651C44.5386 6.04301 44.4125 5.76416 44.4333 5.47469C44.4497 5.24199 44.5591 4.99933 44.4655 4.78569C44.3063 4.77919 44.1841 4.92241 44.1037 5.05999C43.9882 5.25824 43.9024 5.47599 43.7564 5.65323C43.6106 5.83046 43.3809 5.96457 43.1569 5.91409C43.133 5.90867 43.1083 5.90044 43.093 5.88137C43.0791 5.86426 43.0754 5.84129 43.0743 5.81919C43.0672 5.66861 43.1675 5.51933 43.1255 5.37459C43.0912 5.25672 42.9742 5.18522 42.8637 5.13148C42.7799 5.09075 42.6919 5.05305 42.5985 5.04699C42.3931 5.03399 42.2044 5.13647 41.9955 5.09249C41.7964 5.05045 41.625 4.88731 41.4844 4.74777C40.4927 3.76454 39.9691 2.41492 39.1776 1.26442C39.0983 1.14894 39.0133 1.03281 38.8961 0.956322C38.6465 0.793175 38.411 0.908875 38.3911 1.20506C38.3815 1.34741 38.4266 1.48737 38.476 1.62128C38.8695 2.68944 39.5626 3.6406 39.8466 4.743C39.8729 4.84484 39.8956 4.94841 39.9004 5.05349C39.9099 5.26778 39.8297 5.46342 39.6989 5.63351C39.5652 5.62917 39.4675 5.50957 39.3472 5.45107C39.3147 5.43504 39.2779 5.42334 39.2426 5.43071C39.1808 5.44328 39.1431 5.51022 39.1405 5.57327C39.1381 5.63611 39.162 5.69678 39.1817 5.75658C39.2109 5.84476 39.2315 5.93597 39.2437 6.02827C39.2671 6.20898 39.0924 6.34352 38.9475 6.42629C38.7523 6.53809 38.5141 6.59183 38.2923 6.54697C38.0561 6.49888 37.615 6.34483 37.6503 6.03023C37.6665 5.88549 37.815 5.78041 37.9209 5.69872C38.0973 5.56331 38.2925 5.45476 38.4873 5.34859C38.551 5.31393 38.6179 5.28077 38.6652 5.22574C38.7126 5.17071 38.7354 5.08685 38.6977 5.02489C38.6478 4.94299 38.5304 4.94278 38.4359 4.95837C38.1683 5.00258 37.9283 5.14427 37.6635 5.17742C37.4843 5.19974 37.2863 5.20364 37.1418 5.09509C36.7799 4.82339 37.1758 4.288 37.1229 3.93896C37.1175 3.90342 37.1069 3.86572 37.0787 3.84362C37.0469 3.81849 37.0016 3.82001 36.9624 3.82954C36.7498 3.88132 36.6343 4.1086 36.5689 4.31725C36.5438 4.39699 36.5195 4.48192 36.458 4.53848C36.3964 4.59502 36.3115 4.60976 36.2307 4.60802C36.1893 4.60715 36.1466 4.60326 36.1059 4.59567C36.068 4.58831 36.0199 4.58311 35.9817 4.5909C35.9475 4.59784 35.92 4.60781 35.8838 4.60802C35.8056 4.60867 35.7241 4.59307 35.665 4.53848C35.6034 4.48192 35.579 4.39699 35.554 4.31725C35.4884 4.1086 35.3731 3.88132 35.1606 3.82954C35.1211 3.82001 35.0759 3.81849 35.0442 3.84362C35.0158 3.86572 35.0052 3.90342 34.9998 3.93896C34.9469 4.288 35.3428 4.82339 34.9812 5.09509C34.8367 5.20364 34.6386 5.19974 34.4592 5.17742C34.1945 5.14427 33.9546 5.00258 33.687 4.95837C33.5923 4.94278 33.4749 4.94299 33.4253 5.02489C33.3876 5.08685 33.4101 5.17071 33.4576 5.22574C33.505 5.28077 33.572 5.31393 33.6357 5.34859C33.8302 5.45476 34.0257 5.56331 34.2018 5.69872C34.308 5.78041 34.4562 5.88549 34.4724 6.03023C34.5078 6.34483 34.0666 6.49888 33.8307 6.54697C33.6088 6.59183 33.3705 6.53809 33.1753 6.42629C33.0305 6.34352 32.8559 6.20898 32.8793 6.02827C32.8912 5.93597 32.912 5.84476 32.941 5.75658C32.9608 5.69678 32.9846 5.63611 32.9822 5.57327C32.9798 5.51022 32.9421 5.44328 32.8804 5.43071C32.8448 5.42334 32.808 5.43504 32.7755 5.45107C32.6553 5.50957 32.5575 5.62917 32.4239 5.63351C32.293 5.46342 32.2128 5.26778 32.2224 5.05349C32.2271 4.94841 32.2499 4.84484 32.2761 4.743C32.5601 3.6406 33.2535 2.68944 33.6467 1.62128C33.6961 1.48737 33.7412 1.34741 33.7317 1.20506C33.7119 0.908875 33.4764 0.793175 33.2266 0.956322C33.1094 1.03281 33.0247 1.14894 32.9452 1.26442C32.1537 2.41492 31.63 3.76454 30.6385 4.74777C30.4979 4.88731 30.3263 5.05045 30.1272 5.09249C29.9183 5.13647 29.7296 5.03399 29.5242 5.04699C29.431 5.05305 29.3431 5.09075 29.259 5.13148C29.1485 5.18522 29.0317 5.25672 28.9975 5.37459C28.9555 5.51933 29.0556 5.66861 29.0486 5.81919C29.0475 5.84129 29.0436 5.86426 29.0298 5.88137C29.0144 5.90044 28.9897 5.90867 28.9659 5.91409C28.742 5.96457 28.5122 5.83046 28.3663 5.65323C28.2205 5.47599 28.1347 5.25824 28.019 5.05999C27.9388 4.92241 27.8164 4.77919 27.6574 4.78569C27.5638 4.99933 27.673 5.24199 27.6897 5.47469C27.7103 5.76416 27.5842 6.04301 27.4429 6.29651C27.3857 6.39921 27.3135 6.50971 27.1992 6.53658C27.109 6.55781 27.013 6.51924 26.9433 6.45836C26.8735 6.39748 26.825 6.31644 26.7777 6.23692C26.6131 5.96046 26.4484 5.68399 26.2837 5.40731C26.2463 5.34447 26.2075 5.28012 26.1496 5.23528C26.0916 5.19064 26.0092 5.16941 25.944 5.20277C25.8571 5.24697 25.837 5.3605 25.7772 5.43764C25.6996 5.53796 25.564 5.56742 25.4522 5.62722C25.3404 5.68702 25.2413 5.82721 25.3107 5.93337C25.3404 5.9791 25.393 6.00336 25.4433 6.02373C25.5477 6.06641 25.8714 6.09306 25.8803 6.22327C25.8846 6.2887 25.8461 6.34894 25.8047 6.39986C25.6203 6.62605 25.3389 6.76581 25.0494 6.79137C24.8071 6.81283 24.6624 6.68217 24.4683 6.55738C24.2529 6.41893 24.0378 6.28047 23.8224 6.14181C23.6545 6.03391 23.4664 5.88918 23.4746 5.68963C23.4781 5.60946 23.5145 5.53449 23.5578 5.46689C23.7739 5.13019 24.1387 5.01124 24.4616 4.81429C24.8366 4.58549 25.2988 4.44878 25.7137 4.30512C25.2769 4.22626 24.6544 4.17274 23.9349 4.30772C23.2747 4.43166 22.6465 4.69707 22.0899 5.07212C21.6975 5.33624 21.3855 5.66969 21.0339 5.978C20.5217 6.42715 19.8392 6.58706 19.1981 6.77751C18.5106 6.98139 17.8446 7.27996 17.221 7.63291C16.8358 7.85109 16.4642 8.09311 16.111 8.36004C15.1713 9.07071 14.4416 9.9389 13.8793 10.9709C13.7951 11.1251 13.7101 11.2447 13.6958 11.4306C13.6945 11.4465 13.6947 11.4647 13.7067 11.4751C13.7136 11.4813 13.7233 11.4833 13.7327 11.4846C13.9021 11.5063 14.0271 11.36 14.1456 11.2636C14.3031 11.1358 14.4611 11.0084 14.6203 10.8827C14.9391 10.6318 15.2634 10.3878 15.6001 10.1616C15.6924 10.0997 15.7858 10.0388 15.8844 9.98721C16.3935 9.72092 16.9523 9.53178 17.427 9.20461C17.4203 9.32984 17.5776 9.42561 17.7031 9.42561C17.8283 9.42561 17.9429 9.35888 18.0504 9.29431C18.2733 9.16019 18.4963 9.02608 18.7195 8.89196C18.8739 8.79901 19.0306 8.70519 19.2026 8.65102C19.397 8.58971 19.608 8.58147 19.8067 8.62741C20.0721 8.68894 20.4116 8.799 20.6474 8.58516C20.6877 8.54854 20.7191 8.50304 20.7589 8.466C20.8415 8.38929 20.9557 8.35419 21.0681 8.34899C21.1804 8.34357 21.2922 8.36546 21.4018 8.39037C21.657 8.44844 21.9136 8.52579 22.1292 8.67442C22.1792 8.70888 22.2308 8.75372 22.2371 8.81417C22.2455 8.89478 22.1708 8.95912 22.0971 8.99249C21.9591 9.05554 21.8037 9.06486 21.6546 9.09367C21.5058 9.12228 21.3502 9.17839 21.2636 9.30298C21.2176 9.36863 21.1897 9.45421 21.1184 9.49104C21.09 9.50555 21.0577 9.51054 21.0259 9.51119C20.8153 9.51617 20.5761 9.27243 20.3919 9.47956C20.3362 9.54196 20.3176 9.62927 20.2691 9.69753C20.1787 9.82449 20.0286 9.86284 19.8877 9.90205C19.6949 9.95579 19.5029 10.0119 19.3103 10.0667C19.0213 10.1491 18.7201 10.2323 18.4235 10.1824C18.352 10.1705 18.2575 10.1616 18.2274 10.2275C18.2159 10.2526 18.2185 10.2817 18.2216 10.3092L18.251 10.5822C18.2638 10.7003 18.2181 10.728 18.1208 10.7759C18.0415 10.8153 17.9501 10.8428 17.894 10.9158C17.8158 11.0179 17.8365 11.128 17.8424 11.245C17.8487 11.373 17.7715 11.4716 17.6649 11.5344C17.5696 11.5908 17.46 11.628 17.3844 11.7088C17.3748 11.7188 17.3657 11.7303 17.3633 11.7439C17.3577 11.7758 17.3902 11.8005 17.419 11.815C17.5644 11.888 17.7102 11.9002 17.8121 12.0419C17.8703 12.1231 17.9059 12.2182 17.9379 12.3127C17.9559 12.3653 17.9728 12.4182 17.9837 12.4724C17.9991 12.5499 18.0016 12.6292 18.0021 12.7081C18.0032 12.9228 17.9897 13.138 18.0042 13.3523C18.0309 13.7472 18.1823 14.2536 18.4705 14.5424C18.7741 14.8466 19.2371 15.0891 19.6128 15.2971C18.9927 15.2981 18.3713 15.3038 17.7529 15.2992C17.0895 15.2942 16.2958 15.1341 15.6905 14.8579C15.2953 14.6774 14.9876 14.4137 14.7761 14.0389C14.736 13.9678 14.6433 13.827 14.5445 13.8731C14.4968 13.8952 14.4682 13.9461 14.4574 13.9975C14.4464 14.0488 14.4498 14.1021 14.4487 14.1546C14.4377 14.6828 13.9745 15.2156 13.5929 15.5425C13.2499 15.8368 12.8246 16.1297 12.4056 16.3013C12.4363 15.9696 12.2983 15.6214 11.941 15.5358C11.787 15.499 11.6186 15.5259 11.4839 15.6091C11.4143 15.6517 11.3511 15.7133 11.332 15.7924C11.3112 15.8779 11.3469 15.97 11.4067 16.0348C11.509 16.1455 11.6923 16.146 11.7818 16.2554C11.8171 16.2983 11.8282 16.3641 11.7974 16.4105C11.7681 16.4547 11.7118 16.4707 11.6605 16.4846C11.5688 16.5091 11.4776 16.5366 11.3896 16.5719C11.3383 16.5925 11.2867 16.6168 11.2497 16.6577C11.108 16.8139 11.2449 16.9015 11.3307 17.0124C11.504 17.236 11.5086 17.7612 11.4438 18.018C11.3844 18.253 11.2178 18.453 11.0124 18.5822C10.8451 18.6872 10.6257 18.7726 10.4261 18.7832C10.2292 18.7936 10.0578 18.6894 9.87405 18.6277C9.54277 18.5165 9.18028 18.552 8.8386 18.6253C8.69213 18.6567 8.54176 18.6974 8.4278 18.7945C8.29173 18.9104 8.22868 19.0874 8.13681 19.2406C7.99425 19.4785 7.72493 19.7327 7.44391 19.7899C7.10093 19.8596 6.78503 19.9495 6.4596 20.0906C6.33046 20.1467 6.20198 20.2052 6.0813 20.2778C5.9591 20.351 5.84578 20.4381 5.73268 20.5248C5.48265 20.7168 5.2324 20.9087 4.98215 21.1007C4.60601 21.3893 4.22273 21.6855 3.96338 22.0822C3.82363 22.2958 3.72396 22.5331 3.63253 22.7714C3.65658 22.7541 3.68063 22.7367 3.70468 22.7194C4.29098 22.2971 4.92169 21.9331 5.50344 21.5111C5.63344 21.4168 5.81978 21.4198 5.82628 21.6237C5.83148 21.7843 5.62261 21.8105 5.63301 21.9401C5.63821 22.0068 5.68848 22.0633 5.74763 22.0945C5.80678 22.126 5.87438 22.1366 5.94046 22.1465C6.09451 22.1702 6.24878 22.1938 6.40283 22.2174C6.65026 22.2553 6.89943 22.2932 7.14946 22.2824C7.2149 22.2796 7.28336 22.2739 7.34381 22.2997C7.56481 22.3938 7.50393 22.7781 7.45518 22.9569C7.41878 23.091 7.34901 23.213 7.2799 23.3334C7.15141 23.5575 7.00213 23.7991 6.75686 23.8799C6.64398 23.9171 6.52286 23.9152 6.40413 23.9219C6.17685 23.9349 5.9513 23.9811 5.73723 24.0586C5.70191 24.0712 5.66356 24.0879 5.64883 24.1223C5.62283 24.1817 5.68501 24.2426 5.7446 24.2679C5.85965 24.3171 5.98943 24.3193 6.10686 24.3617C6.12918 24.37 6.15236 24.3806 6.16493 24.4005C6.17923 24.4228 6.17706 24.4514 6.17403 24.4777C6.15951 24.5973 6.13265 24.7201 6.16385 24.8365C6.19743 24.9619 6.29515 25.0618 6.40651 25.1285C6.51766 25.1955 6.64311 25.234 6.76575 25.2767C6.98285 25.3521 7.5672 25.413 7.30373 25.7449C7.30373 25.7449 4.95203 30.9397 4.87533 32.872C4.87641 32.8432 4.72344 32.7253 4.70329 32.7045C4.54621 32.5422 4.39953 32.3693 4.26043 32.1912C3.76231 31.554 3.36039 30.8425 3.04579 30.0982C2.56804 28.9685 2.29592 27.7578 2.20037 26.5364C2.18238 26.3078 2.17068 26.0786 2.16461 25.8492C2.16115 25.7111 2.20599 24.9621 1.88121 25.2804C1.82964 25.3309 1.79953 25.3989 1.77418 25.4665C1.59738 25.9352 1.58611 26.4422 1.53065 26.9342C1.50291 27.1799 1.465 27.4261 1.3896 27.6622C1.34605 27.7983 1.19048 28.13 1.03101 27.8635C1.01498 27.8371 1.00003 27.8061 0.970996 27.7953C0.915962 27.7749 0.86981 27.8408 0.849227 27.8958C0.618477 28.5094 0.617178 29.1817 0.618694 29.8373C0.619561 30.2525 0.620644 30.6678 0.621511 31.083C0.623244 31.804 0.301063 32.4798 0.294997 33.1976C0.29088 33.6739 0.457497 34.1323 0.571464 34.5947C0.671997 35.0031 0.70341 35.3821 0.59616 35.7868C0.48761 36.1965 0.613715 36.645 0.755632 37.03C0.917265 37.4683 1.12418 37.9032 1.14476 38.3701C1.15061 38.5044 1.14086 38.6392 1.15278 38.7731C1.18094 39.0873 1.32633 39.3772 1.41755 39.679C1.46283 39.8291 1.4949 39.9884 1.46521 40.1422C1.42296 40.3604 1.28733 40.5288 1.26176 40.7534C1.23316 41.0065 1.24183 41.2639 1.28776 41.5144C1.31636 41.67 1.35926 41.8249 1.35406 41.983C1.34583 42.2393 1.21301 42.472 1.11464 42.7089C0.706661 43.6908 0.651412 44.8961 0.958863 45.9142C1.02625 46.1374 1.11334 46.3538 1.20153 46.5694C1.29664 46.8017 1.39566 47.0368 1.55426 47.2309C1.70159 47.4112 1.89941 47.5444 2.04436 47.726C2.1709 47.8844 2.25669 48.0854 2.31281 48.2807C2.42114 48.657 2.43458 49.1064 2.73228 49.3965C2.94743 49.606 3.26441 49.6719 3.5645 49.6836C3.79178 49.6925 4.02167 49.6754 4.24093 49.6147C4.70568 49.4862 5.14551 49.1621 5.62045 49.2453C5.84405 49.9516 6.08086 50.6543 6.33371 51.3504C6.46436 51.7105 6.6039 52.0743 6.76553 52.4227C6.81406 52.5271 6.9003 52.6513 6.8912 52.7717C6.87711 52.9598 6.70075 52.9444 6.55905 52.9516C6.43295 52.9581 6.31465 53.0458 6.27196 53.1646C6.23578 53.2644 6.25095 53.3745 6.25311 53.4807C6.2555 53.5871 6.23903 53.7045 6.1593 53.7747C6.10253 53.8245 6.02431 53.8408 5.94935 53.8488C5.87438 53.857 5.79703 53.859 5.72705 53.8869C5.54461 53.9599 5.57343 54.1534 5.75305 54.2054C5.83083 54.228 5.91338 54.2219 5.99441 54.2232C6.18465 54.2264 6.37163 54.2711 6.55601 54.3174C6.67951 54.3486 6.80366 54.3811 6.91828 54.4364C7.27816 54.6095 7.62613 55.0985 7.43351 55.4998C7.35205 55.6694 7.19085 55.7964 7.00906 55.8454C6.90333 55.8735 6.79283 55.8768 6.68341 55.8798C6.13459 55.8952 5.59055 55.9013 5.04953 55.7975C4.6929 55.7288 4.32976 55.6495 4.00779 55.4749C3.70186 55.3089 3.40091 55.0946 3.26614 54.761C3.37426 55.3681 3.52788 55.9255 3.98093 56.3704C4.25176 56.6364 4.57416 56.8431 4.89829 57.0407C5.11843 57.1751 5.34073 57.3059 5.56281 57.4368C5.73766 57.5399 5.91229 57.6428 6.08714 57.7458C6.44963 57.9594 6.8288 58.1784 7.24848 58.2107C7.37848 58.2209 7.51 58.2125 7.63935 58.2304C7.86425 58.2614 8.01591 58.4088 8.1145 58.6051C8.22153 58.8185 8.21503 59.0817 8.35911 59.273C8.43776 59.3773 8.55801 59.454 8.68845 59.462C8.85377 59.4719 9.01973 59.3747 9.1792 59.4191C9.32133 59.4585 9.44678 59.6182 9.6082 59.5645C9.746 59.5185 9.82746 59.3727 9.99885 59.3989C10.03 59.4037 10.0595 59.4163 10.0885 59.4286C10.2638 59.5034 10.4244 59.6113 10.5981 59.4615C10.6956 59.3777 10.7279 59.3584 10.8508 59.4056C10.9498 59.4438 11.0367 59.5014 11.1149 59.5727C11.2624 59.7068 11.384 59.8853 11.447 60.0749C11.5075 60.2563 11.5155 60.4534 11.4761 60.6402C11.4334 60.8434 11.3307 60.9526 11.2022 61.1069C11.1433 61.1778 11.0954 61.2703 11.1192 61.3593C11.1684 61.5431 11.3905 61.5119 11.512 61.6081C11.5378 61.6284 11.5582 61.6583 11.5591 61.6913C11.5606 61.74 11.5224 61.779 11.4917 61.8165C11.4113 61.9138 11.3714 62.0347 11.3911 62.1608C11.3959 62.1905 11.4039 62.2199 11.4184 62.2461C11.4676 62.3356 11.5762 62.3714 11.6761 62.392C11.7341 62.4039 11.7928 62.4132 11.852 62.4138C12.2832 62.4182 12.4363 62.0342 12.5198 61.6804C12.6075 61.8304 12.7193 61.9801 12.8827 62.0392C12.9969 62.0804 13.1206 62.0602 13.2421 62.0657C13.3377 62.07 13.4326 62.0862 13.526 62.107C13.8269 62.174 14.1352 62.3007 14.3099 62.5545C14.4591 62.7713 14.4884 63.0476 14.4912 63.3108C14.4942 63.5739 14.476 63.8423 14.5473 64.0958C14.5616 64.1467 14.5846 64.2024 14.6338 64.2224C14.7053 64.2512 14.7787 64.1877 14.8257 64.1266C14.8821 64.0534 14.9334 63.9764 14.983 63.8987C15.0205 63.8397 15.0621 63.7316 15.1473 63.7349C15.1813 63.7364 15.2127 63.752 15.2428 63.7676C15.7028 64.0066 16.1112 64.332 16.5164 64.6555C16.9307 64.9861 17.3451 65.317 17.7594 65.6476C17.8608 65.7284 17.9722 65.8318 17.9603 65.9607C17.9447 66.1292 17.7815 66.1656 17.6552 66.2265C17.5934 66.2564 17.5334 66.3034 17.5178 66.3702C17.5024 66.4352 17.5339 66.5045 17.5833 66.5491C17.6329 66.5938 17.6977 66.6174 17.7622 66.6339C17.7986 66.6432 17.8376 66.6514 17.8651 66.677C17.9137 66.7225 17.9065 66.8 17.8922 66.8648C17.8768 66.9348 17.8573 67.0054 17.863 67.0769C17.8684 67.1484 17.9052 67.2228 17.9715 67.2498C18.0404 67.278 18.1225 67.2494 18.1917 67.2774C18.2742 67.3107 18.3069 67.4121 18.3048 67.5012C18.3026 67.5902 18.2759 67.6784 18.2837 67.767C18.2913 67.8559 18.3498 67.9514 18.4389 67.9562C18.5479 67.962 18.6521 67.8673 18.7606 67.8491C18.8859 67.8283 19.0159 67.8431 19.1376 67.8754C19.3311 67.9265 19.5114 68.0181 19.7025 68.0773C19.928 68.1473 20.1889 68.1843 20.3323 68.3722C20.367 68.4175 20.3923 68.4695 20.4253 68.516C20.4864 68.6021 20.5817 68.6716 20.6872 68.6714C20.8018 68.671 20.9013 68.5906 21.0142 68.57C21.1405 68.547 21.2781 68.6086 21.3453 68.718C21.3769 68.7698 21.3936 68.83 21.4278 68.88C21.5151 69.0081 21.6908 69.0389 21.8458 69.0313C21.9391 69.0267 22.0356 69.0126 22.1246 69.0417C22.2137 69.0705 22.2921 69.1608 22.2691 69.2516C22.2552 69.3058 22.21 69.3457 22.1649 69.3784C21.8886 69.5799 21.5407 69.6494 21.2042 69.7105C21.1162 69.7263 21.0144 69.7476 20.9266 69.7201C20.8504 69.6958 20.7875 69.6332 20.7241 69.5857C20.5497 69.4557 20.3488 69.3188 20.1343 69.3537C20.0522 69.3671 19.9766 69.4052 19.8986 69.4345C19.6188 69.5398 19.298 69.5303 19.0247 69.4087C18.9142 69.3595 18.8122 69.2932 18.7093 69.2293C18.417 69.0475 18.1143 68.8826 17.803 68.7357C17.759 68.7149 17.7128 68.6941 17.6643 68.6954C17.5081 68.7 17.4819 68.8584 17.4613 68.9773C17.458 68.9962 17.4539 69.0168 17.4396 69.0298C17.4186 69.0488 17.3852 69.0434 17.3588 69.0328C17.2199 68.9771 17.1484 68.8278 17.0552 68.7108C16.8074 68.3997 16.3864 68.3033 16.022 68.144C15.5973 67.9586 15.229 67.6715 14.8706 67.3827C14.6871 67.2345 14.5049 67.0845 14.3153 66.9439C14.1424 66.8161 13.9617 66.6336 13.7402 66.61C13.7288 66.6087 13.7158 66.6083 13.7069 66.6157C13.701 66.6204 13.698 66.628 13.6956 66.6352C13.6629 66.732 13.6906 66.8397 13.7368 66.9307C13.7829 67.0219 13.8466 67.1034 13.8923 67.1948C14.0213 67.4526 14.2015 67.6918 14.3777 67.9183C14.8589 68.5371 15.4313 69.0846 16.0501 69.5643C17.0095 70.3077 18.09 70.8872 19.2221 71.3206C19.9233 71.589 20.6123 71.8018 21.2514 72.21C21.6328 72.4533 21.9669 72.7527 22.3681 72.9675C22.886 73.2446 23.4278 73.4855 24.0001 73.6166C24.5725 73.7479 25.1787 73.7659 25.7427 73.6023C25.1785 73.4147 24.6271 73.1885 24.0934 72.9263C23.9335 72.8476 23.7687 72.7601 23.6673 72.6136C23.5243 72.4074 23.5968 72.1242 23.7479 71.9435C23.8493 71.8222 23.9825 71.732 24.1177 71.6501C24.512 71.4109 24.9788 71.2218 25.4268 71.3312C25.6075 71.3752 25.7763 71.4675 25.9108 71.5957C26.0027 71.6835 26.0805 71.8287 26.004 71.9301C25.949 72.0033 25.8435 72.0102 25.752 72.0083C25.6641 72.0065 25.5739 72.0031 25.4907 72.0317C25.4073 72.0603 25.3315 72.1292 25.323 72.2167C25.3152 72.298 25.3674 72.3753 25.435 72.421C25.5026 72.4667 25.5837 72.4867 25.663 72.5057C25.8615 72.5536 25.8775 72.8832 26.0779 72.922C26.2051 72.9467 26.3108 72.8292 26.3871 72.7246C26.6254 72.3972 26.8638 72.0696 27.1021 71.7422C27.1619 71.6601 27.2496 71.5676 27.3469 71.5968C27.413 71.6168 27.4496 71.6859 27.478 71.7487C27.5614 71.9333 27.637 72.1214 27.7048 72.312C27.7449 72.4247 27.7826 72.5417 27.7744 72.6609C27.7599 72.8671 27.6099 73.0517 27.624 73.2578C27.6279 73.3154 27.6507 73.3789 27.7038 73.4017C27.7796 73.4342 27.8589 73.3663 27.909 73.3011C28.0756 73.084 28.1833 72.8271 28.3455 72.6069C28.5078 72.3866 28.752 72.1963 29.0252 72.2087C29.0395 72.2093 29.0551 72.2111 29.0662 72.2204C29.0783 72.2306 29.082 72.2475 29.0848 72.2631C29.1145 72.4347 29.001 72.624 29.0501 72.7822C29.0748 72.8613 29.1513 72.9133 29.2293 72.9412C29.3073 72.9694 29.391 72.9798 29.4679 73.0106C29.5766 73.0539 29.677 73.1384 29.7937 73.1308C29.9064 73.1235 29.9944 73.0329 30.0992 72.9913C30.1952 72.9532 30.3077 72.9584 30.3995 73.0054C30.5506 73.0825 30.6162 73.1616 30.7144 73.2996C30.8142 73.44 30.9252 73.5724 31.0311 73.7082C31.7624 74.6451 32.2598 75.7484 33.0013 76.6772C33.1252 76.8326 33.2602 76.9864 33.4363 77.0787C33.5081 77.1162 33.6025 77.1402 33.6645 77.0882C33.6996 77.0588 33.7145 77.012 33.7241 76.9669C33.7891 76.6601 33.6812 76.3446 33.5557 76.0573C33.3872 75.6712 33.1839 75.3014 32.9972 74.9237C32.8054 74.5359 32.5692 74.113 32.4561 73.6939C32.358 73.3304 32.3998 72.8249 32.5573 72.4841C32.538 72.4492 32.5931 72.4537 32.6329 72.455C32.6726 72.4563 32.7053 72.4856 32.7317 72.5151C32.7844 72.5742 32.8275 72.6416 32.8589 72.7144C32.878 72.7588 32.9053 72.8141 32.9538 72.8119C32.99 72.8102 33.0149 72.7748 33.0301 72.7419C33.073 72.6492 33.0862 72.543 33.0676 72.4425C33.0459 72.3259 32.9833 72.2206 32.9558 72.1053C32.9283 71.9901 32.9482 71.8475 33.0507 71.7877C33.1334 71.7394 33.2405 71.7619 33.3302 71.7281C33.499 71.6646 33.5702 71.4172 33.7429 71.3663C33.9709 71.2989 33.8144 71.633 33.8705 71.7221C33.9234 71.8061 34.0259 71.8443 34.1236 71.862C34.2215 71.8798 34.3234 71.8833 34.4146 71.9225C34.5058 71.9619 34.5862 72.0512 34.5741 72.1498C34.5632 72.239 34.4841 72.3023 34.4083 72.3506C34.1806 72.4951 33.9169 72.603 33.7553 72.8188C33.7243 72.8604 33.697 72.907 33.6918 72.9586C33.6866 73.0099 33.7083 73.0669 33.7544 73.0905C33.7841 73.1057 33.819 73.1053 33.8521 73.1033C34.0595 73.0899 34.2592 73.0182 34.4662 72.9984C34.6729 72.9787 34.9066 73.0251 35.0282 73.1937C35.1274 73.3315 35.1281 73.5161 35.1081 73.6846C35.0884 73.8534 35.0525 74.0257 35.0923 74.1908C35.1073 74.2529 35.1413 74.3201 35.2037 74.3344C35.2574 74.3468 35.3114 74.3147 35.3528 74.2781C35.486 74.16 35.5584 73.9901 35.6472 73.8359C35.7363 73.6818 35.8606 73.5288 36.0348 73.4922C36.0528 73.4885 36.0699 73.4885 36.0879 73.4922C36.2621 73.5288 36.3865 73.6818 36.4755 73.8359C36.5646 73.9901 36.6367 74.16 36.7702 74.2781C36.8116 74.3147 36.8653 74.3468 36.9193 74.3344C36.9814 74.3201 37.0157 74.2529 37.0306 74.1908C37.0705 74.0257 37.0343 73.8534 37.0146 73.6846C36.9949 73.5161 36.9953 73.3315 37.0948 73.1937C37.2161 73.0251 37.4499 72.9787 37.6568 72.9984C37.8635 73.0182 38.0633 73.0899 38.2706 73.1033C38.3038 73.1053 38.3389 73.1057 38.3683 73.0905C38.4145 73.0669 38.4361 73.0099 38.4309 72.9586C38.4257 72.907 38.3984 72.8604 38.3675 72.8188C38.2058 72.603 37.9424 72.4951 37.7146 72.3506C37.6388 72.3023 37.5595 72.239 37.5487 72.1498C37.5368 72.0512 37.6171 71.9619 37.7084 71.9225C37.7994 71.8833 37.9014 71.8798 37.9991 71.862C38.0968 71.8443 38.1993 71.8061 38.2524 71.7221C38.3085 71.633 38.1519 71.2989 38.3798 71.3663C38.5525 71.4172 38.6238 71.6646 38.7926 71.7281C38.8823 71.7619 38.9893 71.7394 39.0723 71.7877C39.1745 71.8475 39.1947 71.9901 39.167 72.1053C39.1394 72.2206 39.0768 72.3259 39.0552 72.4425C39.0365 72.543 39.0497 72.6492 39.0926 72.7419C39.1078 72.7748 39.1327 72.8102 39.1691 72.8119C39.2174 72.8141 39.2447 72.7588 39.264 72.7144C39.2952 72.6416 39.3383 72.5742 39.391 72.5151C39.4174 72.4856 39.4501 72.4563 39.49 72.455C39.5297 72.4537 39.5847 72.4492 39.5656 72.4841C39.7229 72.8249 39.7647 73.3304 39.6666 73.6939C39.5535 74.113 39.3175 74.5359 39.1256 74.9237C38.9388 75.3014 38.7358 75.6712 38.5672 76.0573C38.4416 76.3446 38.3339 76.6601 38.3987 76.9669C38.4082 77.012 38.4231 77.0588 38.4585 77.0882C38.5204 77.1402 38.6149 77.1162 38.6864 77.0787C38.8625 76.9864 38.9975 76.8326 39.1217 76.6772C39.8629 75.7484 40.3604 74.6451 41.0916 73.7082C41.1978 73.5724 41.3085 73.44 41.4084 73.2996C41.5067 73.1616 41.5724 73.0825 41.7232 73.0054C41.8153 72.9584 41.9275 72.9532 42.0237 72.9913C42.1286 73.0329 42.2163 73.1235 42.329 73.1308C42.446 73.1384 42.5461 73.0539 42.6551 73.0106C42.732 72.9798 42.8156 72.9694 42.8934 72.9412C42.9714 72.9133 43.0479 72.8613 43.0726 72.7822C43.1218 72.624 43.0082 72.4347 43.0379 72.2631C43.0407 72.2475 43.0446 72.2306 43.0568 72.2204C43.0678 72.2111 43.0832 72.2093 43.0977 72.2087C43.3709 72.1963 43.6149 72.3866 43.7772 72.6069C43.9395 72.8271 44.0474 73.084 44.2138 73.3011C44.2638 73.3663 44.3433 73.4342 44.419 73.4017C44.472 73.3789 44.495 73.3154 44.4989 73.2578C44.513 73.0517 44.3628 72.8671 44.3485 72.6609C44.3401 72.5417 44.3778 72.4247 44.4179 72.312C44.4857 72.1214 44.5613 71.9333 44.6447 71.7487C44.6733 71.6859 44.7097 71.6168 44.776 71.5968C44.8733 71.5676 44.9611 71.6601 45.0209 71.7422C45.2592 72.0696 45.4975 72.3972 45.7359 72.7246C45.8119 72.8292 45.9179 72.9467 46.045 72.922C46.2455 72.8832 46.2613 72.5536 46.4597 72.5057C46.539 72.4867 46.6203 72.4667 46.6877 72.421C46.7553 72.3753 46.8075 72.298 46.7997 72.2167C46.7912 72.1292 46.7154 72.0603 46.6322 72.0317C46.549 72.0031 46.4587 72.0065 46.3707 72.0083C46.2793 72.0102 46.174 72.0033 46.1187 71.9301C46.0424 71.8287 46.12 71.6835 46.2119 71.5957C46.3466 71.4675 46.5152 71.3752 46.6959 71.3312C47.144 71.2218 47.6109 71.4109 48.0052 71.6501C48.1404 71.732 48.2737 71.8222 48.3751 71.9435C48.5259 72.1242 48.5985 72.4074 48.4557 72.6136C48.3541 72.7601 48.1894 72.8476 48.0293 72.9263C47.4958 73.1885 46.9444 73.4147 46.3802 73.6023C46.944 73.7659 47.5504 73.7479 48.1227 73.6166C48.6951 73.4855 49.237 73.2446 49.7546 72.9675C50.1559 72.7527 50.49 72.4533 50.8715 72.21C51.5107 71.8018 52.1995 71.589 52.9008 71.3206C54.0329 70.8872 55.1132 70.3077 56.0726 69.5643C56.6916 69.0846 57.2638 68.5371 57.7453 67.9183C57.9212 67.6918 58.1015 67.4526 58.2304 67.1948C58.2761 67.1034 58.3398 67.0219 58.3859 66.9307C58.4321 66.8397 58.4598 66.732 58.4271 66.6352C58.4247 66.628 58.4217 66.6204 58.4158 66.6157C58.407 66.6083 58.3942 66.6087 58.3825 66.61C58.1613 66.6336 57.9803 66.8161 57.8077 66.9439C57.6181 67.0845 57.4359 67.2345 57.2521 67.3827C56.8938 67.6715 56.5256 67.9586 56.101 68.144C55.7365 68.3033 55.3153 68.3997 55.0677 68.7108C54.9743 68.8278 54.9028 68.9771 54.7641 69.0328C54.7377 69.0434 54.7041 69.0488 54.6831 69.0298C54.669 69.0168 54.6649 68.9962 54.6617 68.9773C54.6409 68.8584 54.6146 68.7 54.4586 68.6954C54.4099 68.6941 54.3637 68.7149 54.3198 68.7357C54.0086 68.8826 53.7057 69.0475 53.4134 69.2293C53.3107 69.2932 53.2087 69.3595 53.098 69.4087C52.825 69.5303 52.5039 69.5398 52.2242 69.4345C52.1464 69.4052 52.0708 69.3671 51.9884 69.3537C51.7739 69.3188 51.5731 69.4557 51.3989 69.5857C51.3352 69.6332 51.2723 69.6958 51.1961 69.7201C51.1083 69.7476 51.0065 69.7263 50.9185 69.7105C50.5823 69.6494 50.2341 69.5799 49.9578 69.3784C49.9128 69.3457 49.8675 69.3058 49.8538 69.2516C49.8306 69.1608 49.9093 69.0705 49.9981 69.0417C50.0872 69.0126 50.1836 69.0267 50.2772 69.0313C50.4319 69.0389 50.6078 69.0081 50.6949 68.88C50.7292 68.83 50.7458 68.7698 50.7777 68.718C50.8446 68.6086 50.9824 68.547 51.1088 68.57C51.2216 68.5906 51.3209 68.671 51.4357 68.6714C51.5412 68.6716 51.6363 68.6021 51.6974 68.516C51.7304 68.4695 51.7557 68.4175 51.7904 68.3722C51.9338 68.1843 52.1947 68.1473 52.4205 68.0773C52.6116 68.0181 52.7918 67.9265 52.9851 67.8754C53.1071 67.8431 53.2371 67.8283 53.3621 67.8491C53.4706 67.8673 53.5751 67.962 53.6841 67.9562C53.7729 67.9514 53.8316 67.8559 53.8392 67.767C53.8468 67.6784 53.8201 67.5902 53.818 67.5012C53.8158 67.4121 53.8487 67.3107 53.9313 67.2774C54.0002 67.2494 54.0825 67.278 54.1514 67.2498C54.2177 67.2228 54.2543 67.1484 54.26 67.0769C54.2654 67.0054 54.2459 66.9348 54.2305 66.8648C54.2162 66.8 54.2093 66.7225 54.2576 66.677C54.2851 66.6514 54.3241 66.6432 54.3605 66.6339C54.4253 66.6174 54.4901 66.5938 54.5395 66.5491C54.5889 66.5045 54.6205 66.4352 54.6051 66.3702C54.5893 66.3034 54.5295 66.2564 54.4677 66.2265C54.3412 66.1656 54.1783 66.1292 54.1627 65.9607C54.1508 65.8318 54.2621 65.7284 54.3633 65.6476C54.7778 65.317 55.1921 64.9861 55.6065 64.6555C56.0115 64.332 56.4199 64.0066 56.8799 63.7676C56.91 63.752 56.9416 63.7364 56.9757 63.7349C57.0606 63.7316 57.1022 63.8397 57.1397 63.8987C57.1893 63.9764 57.2406 64.0534 57.2972 64.1266C57.3442 64.1877 57.4177 64.2512 57.4889 64.2224C57.5381 64.2024 57.5613 64.1467 57.5756 64.0958C57.6467 63.8423 57.6287 63.5739 57.6315 63.3108C57.6345 63.0476 57.6638 62.7713 57.8129 62.5545C57.9877 62.3007 58.296 62.174 58.5968 62.107C58.6904 62.0862 58.785 62.07 58.8808 62.0657C59.0021 62.0602 59.1259 62.0804 59.2403 62.0392C59.4034 61.9801 59.5152 61.8304 59.6032 61.6804C59.6866 62.0342 59.8398 62.4182 60.2709 62.4138C60.3301 62.4132 60.3888 62.4039 60.4467 62.392C60.5465 62.3714 60.6551 62.3356 60.7043 62.2461C60.7188 62.2199 60.727 62.1905 60.7316 62.1608C60.7515 62.0347 60.7114 61.9138 60.6313 61.8165C60.6003 61.779 60.5621 61.74 60.5637 61.6913C60.5647 61.6583 60.5849 61.6284 60.6109 61.6081C60.7322 61.5119 60.9543 61.5431 61.0035 61.3593C61.0273 61.2703 60.9797 61.1778 60.9205 61.1069C60.792 60.9526 60.6895 60.8434 60.6466 60.6402C60.6072 60.4534 60.6154 60.2563 60.6757 60.0749C60.7389 59.8853 60.8605 59.7068 61.0078 59.5727C61.086 59.5014 61.1729 59.4438 61.2719 59.4056C61.395 59.3584 61.4271 59.3777 61.5246 59.4615C61.6983 59.6113 61.8589 59.5034 62.0344 59.4286C62.0634 59.4163 62.0927 59.4037 62.1239 59.3989C62.2953 59.3727 62.3767 59.5185 62.5147 59.5645C62.6762 59.6182 62.8016 59.4585 62.9435 59.4191C63.103 59.3747 63.2692 59.4719 63.4343 59.462C63.5647 59.454 63.6852 59.3773 63.7636 59.273C63.9077 59.0817 63.9014 58.8185 64.0084 58.6051C64.1068 58.4088 64.2585 58.2614 64.4834 58.2304C64.6127 58.2125 64.7442 58.2209 64.8745 58.2107C65.2939 58.1784 65.6731 57.9594 66.0358 57.7458C66.2104 57.6428 66.3853 57.5399 66.5599 57.4368C66.7822 57.3059 67.0043 57.1751 67.2244 57.0407C67.5486 56.8431 67.871 56.6364 68.1418 56.3704C68.5948 55.9255 68.7487 55.3681 68.8568 54.761C68.7218 55.0946 68.4209 55.3089 68.1151 55.4749C67.7932 55.6495 67.43 55.7288 67.0732 55.7975C66.5322 55.9013 65.9881 55.8952 65.4393 55.8798C65.3299 55.8768 65.2194 55.8735 65.1139 55.8454C64.9321 55.7964 64.7709 55.6694 64.6894 55.4998C64.4968 55.0985 64.8446 54.6095 65.2044 54.4364C65.3193 54.3811 65.4432 54.3486 65.5667 54.3174C65.7513 54.2711 65.9383 54.2264 66.1285 54.2232C66.2093 54.2219 66.2921 54.228 66.3699 54.2054C66.5495 54.1534 66.5781 53.9599 66.3957 53.8869C66.3257 53.859 66.2486 53.857 66.1736 53.8488C66.0984 53.8408 66.0202 53.8245 65.9634 53.7747C65.8837 53.7045 65.8672 53.5871 65.8696 53.4807C65.872 53.3745 65.8869 53.2644 65.851 53.1646C65.8081 53.0458 65.69 52.9581 65.5639 52.9516C65.4222 52.9444 65.2458 52.9598 65.2315 52.7717C65.2226 52.6513 65.3089 52.5271 65.3572 52.4227C65.5188 52.0743 65.6584 51.7105 65.7892 51.3504C66.0421 50.6543 66.2789 49.9516 66.5023 49.2453C66.9772 49.1621 67.4173 49.4862 67.8818 49.6147C68.1013 49.6754 68.3309 49.6925 68.5582 49.6836C68.8583 49.6719 69.1755 49.606 69.3907 49.3965C69.6884 49.1064 69.7018 48.657 69.8099 48.2807C69.866 48.0854 69.9518 47.8844 70.0784 47.726C70.2233 47.5444 70.4211 47.4112 70.5685 47.2309C70.7273 47.0368 70.8261 46.8017 70.9212 46.5694C71.0096 46.3538 71.0965 46.1374 71.1639 45.9142C71.4715 44.8961 71.4163 43.6908 71.0081 42.7089C70.9097 42.472 70.7771 42.2393 70.7687 41.983C70.7635 41.8249 70.8064 41.67 70.835 41.5144C70.8809 41.2639 70.8896 41.0065 70.861 40.7534C70.8356 40.5288 70.6998 40.3604 70.6577 40.1422C70.628 39.9884 70.6601 39.8291 70.7054 39.679C70.7964 39.3772 70.942 39.0873 70.9699 38.7731C70.9821 38.6392 70.9723 38.5044 70.9782 38.3701C70.9985 37.9032 71.2055 37.4683 71.3671 37.03C71.509 36.645 71.6351 36.1965 71.5266 35.7868C71.4193 35.3821 71.4507 35.0031 71.5513 34.5947Z" fill="url(#paint0_linear_166_713)"/>
    <defs>
        <linearGradient id="paint0_linear_166_713" x1="36.0615" y1="77.1182" x2="36.0615" y2="0.882057" gradientUnits="userSpaceOnUse">
            <stop stop-color="#FFCA42"/>
            <stop offset="1" stop-color="#CF9501" stop-opacity="0.9"/>
        </linearGradient>
    </defs>
</svg>
