<svg width="72" height="78" viewBox="0 0 72 78" fill="none" xmlns="http://www.w3.org/2000/svg">
    <path d="M60.2692 48.6148C59.8285 50.7747 56.1599 56.2048 56.1599 56.2048C55.9432 55.9882 55.5099 55.1215 54.1507 54.6708C52.7914 54.2199 53.2208 52.289 53.2208 52.289C52.8819 52.7065 52.0432 54.2548 53.5599 55.5548C55.0765 56.8548 55.0157 57.2294 55.0157 57.2294C54.0879 58.4709 51.45 60.4914 51.45 60.4914C51.3624 60.4985 51.2723 60.4976 51.19 60.4675C51.0702 60.424 50.9815 60.3055 50.9744 60.1778C50.9668 60.0403 51.0281 59.9094 51.0879 59.7852C51.1761 59.6024 51.2643 59.4197 51.3525 59.2369C51.3878 59.1636 51.424 59.0874 51.4248 59.0061C51.4257 58.9249 51.3806 58.8369 51.3022 58.8157C51.1867 58.7842 51.0806 58.9045 50.9607 58.9043C50.9274 58.9041 50.8908 58.8917 50.8752 58.862C50.8665 58.846 50.8654 58.8271 50.8615 58.8094C50.8463 58.7396 50.7837 58.6831 50.7127 58.6748C50.6418 58.6666 50.6026 58.6432 50.5705 58.7069C48.2312 63.3758 45.4637 63.7732 45.4637 63.7732C45.5616 63.2248 45.6626 62.6663 45.8927 62.1551C45.995 61.9283 46.1087 61.7043 46.3033 61.5522C46.4944 61.4029 46.7392 61.329 46.8876 61.1266C46.9 61.1099 46.9117 61.0911 46.9112 61.0705C46.9095 61.0168 46.8348 61.0025 46.7823 61.0142C46.5745 61.0605 46.4116 61.2464 46.1995 61.264C46.1744 61.2662 46.1458 61.2644 46.1289 61.2456C46.0662 61.1767 46.3026 61.0315 46.2682 60.918C46.2645 60.9063 46.2582 60.8946 46.2472 60.8887C46.2368 60.8829 46.2238 60.8837 46.2118 60.8853C46.0331 60.9065 45.8812 61.0198 45.7343 61.1238C45.4002 61.3602 45.0464 61.5667 44.693 61.7729C44.6677 61.7877 44.6382 61.8031 44.6105 61.7937C44.6674 61.6276 44.7985 61.4796 44.9129 61.3496C45.0462 61.1988 45.1898 61.0577 45.3289 60.9126C45.411 60.8272 45.4977 60.7113 45.4533 60.6014C45.4472 60.5863 45.4381 60.5715 45.4243 60.5629C45.4104 60.5542 45.3937 60.5527 45.3775 60.5518C45.2225 60.5438 45.0689 60.5938 44.9331 60.669C44.7974 60.7442 44.6772 60.8443 44.5585 60.9442C44.4243 61.0575 44.2894 61.1732 44.189 61.3173C44.1325 61.3988 44.0879 61.4878 44.0443 61.5769C43.9555 61.7582 43.8768 61.9448 43.7873 62.1257C43.7403 62.2208 43.6693 62.4099 43.5481 62.4249C43.5527 62.3311 43.5997 62.2453 43.6266 62.156C43.6573 62.0527 43.6877 61.9489 43.7163 61.8447C43.7728 61.6382 43.8237 61.43 43.8606 61.2189C43.4907 61.4731 43.2184 61.8652 43.1092 62.3005C43.0479 62.5454 43.013 62.8381 42.7939 62.9635C42.5935 63.0781 42.343 62.9893 42.1125 62.9984C41.7734 63.0118 41.4244 63.2636 41.1626 63.4792C41.3353 63.2974 41.3132 62.9685 41.1176 62.8114C41.082 62.7828 41.0402 62.7575 41.0214 62.7157C40.9819 62.6277 41.0654 62.536 41.1427 62.4786C41.3282 62.341 41.5282 62.2234 41.7383 62.1281C41.8421 62.081 41.9658 62.0154 41.968 61.9014C41.9708 61.7593 41.781 61.6869 41.7442 61.5496C41.7067 61.41 41.8393 61.2872 41.9606 61.2087C42.0817 61.1303 42.2232 61.0289 42.2146 60.8848C42.2083 60.7778 42.1125 60.6929 42.0089 60.6656C41.9054 60.6385 41.7955 60.6569 41.6911 60.6801C41.316 60.7633 40.9492 60.9071 40.6457 61.1427C40.3421 61.378 40.1051 61.7103 40.0277 62.0867C40.0126 62.1606 39.9933 62.249 39.9224 62.2756C39.8585 62.2994 39.7855 62.2531 39.7558 62.1918C39.7261 62.1302 39.7248 62.0507 39.7279 61.9825C39.6198 62.0132 39.5036 62.0492 39.4365 62.1395C39.3559 62.2479 39.3719 62.3969 39.3764 62.5321C39.3808 62.6637 39.3706 62.7956 39.3457 62.925C39.3377 62.967 39.2924 63.0162 39.2668 62.9817C39.2259 62.9269 39.1786 62.8769 39.126 62.8331C39.0956 62.808 39.0616 62.7839 39.0224 62.7804C38.9477 62.7737 38.8853 62.8472 38.8759 62.9215C38.819 63.3737 38.9739 63.7957 38.8174 64.262C38.7945 64.2484 38.7713 64.2349 38.7481 64.2217C38.5767 64.1231 38.4004 64.0326 38.2203 63.9509C38.04 63.869 37.8561 63.7957 37.6691 63.7312C37.4819 63.6666 37.2919 63.6107 37.0997 63.5639C36.9073 63.5173 36.713 63.4794 36.5171 63.451C36.4192 63.4367 36.321 63.4248 36.2224 63.4153C36.1661 63.4099 36.1106 63.3966 36.0539 63.3938C35.9995 63.391 35.9429 63.3982 35.8879 63.3979C35.8394 63.3977 35.7906 63.4051 35.7421 63.4094C35.6927 63.4138 35.6435 63.4185 35.5945 63.4239C35.4962 63.435 35.3982 63.4482 35.3005 63.4638C35.1053 63.4948 34.9114 63.5351 34.7198 63.5845C34.5283 63.6337 34.3392 63.692 34.153 63.7589C33.9669 63.8259 33.7841 63.9017 33.6051 63.9858C33.5156 64.028 33.4272 64.0722 33.3397 64.1184C33.2961 64.1415 33.2526 64.1652 33.2095 64.1894C33.1984 64.1957 33.0821 64.2572 33.0836 64.262C32.9269 63.7957 33.0821 63.3737 33.0251 62.9215C33.0158 62.8472 32.9534 62.7737 32.8786 62.7804C32.8394 62.7839 32.8054 62.808 32.775 62.8331C32.7224 62.8769 32.6752 62.9269 32.6342 62.9817C32.6086 63.0162 32.5634 62.967 32.5551 62.925C32.5304 62.7956 32.5202 62.6637 32.5246 62.5321C32.5291 62.3969 32.5452 62.2479 32.4643 62.1393C32.3974 62.0492 32.2813 62.0132 32.1731 61.9825C32.1762 62.0507 32.1749 62.1302 32.1452 62.1918C32.1153 62.2531 32.0425 62.2994 31.9786 62.2756C31.9077 62.249 31.8884 62.1606 31.8733 62.0867C31.7959 61.7103 31.5589 61.378 31.2553 61.1427C30.9516 60.9071 30.585 60.7633 30.2099 60.6801C30.1055 60.6569 29.9956 60.6383 29.8921 60.6656C29.7885 60.6929 29.6927 60.7778 29.6865 60.8848C29.6778 61.0289 29.8193 61.1303 29.9404 61.2087C30.0617 61.2872 30.1941 61.41 30.1568 61.5496C30.12 61.6869 29.9302 61.7593 29.933 61.9014C29.9352 62.0154 30.0589 62.081 30.1627 62.1281C30.3729 62.2234 30.5728 62.341 30.7583 62.4786C30.8357 62.536 30.9191 62.6277 30.8796 62.7157C30.8608 62.7575 30.819 62.7828 30.7834 62.8114C30.5878 62.9685 30.5657 63.2974 30.7384 63.4792C30.4766 63.2636 30.1276 63.0118 29.7885 62.9984C29.558 62.9893 29.3075 63.0781 29.1071 62.9635C28.888 62.8381 28.8532 62.5454 28.7918 62.3005C28.6826 61.8652 28.4103 61.4731 28.0404 61.2189C28.0773 61.43 28.1282 61.6382 28.1847 61.8447C28.2133 61.9489 28.2437 62.0527 28.2744 62.156C28.3013 62.2453 28.3483 62.3311 28.3529 62.4249C28.2318 62.4099 28.1607 62.2208 28.1137 62.1257C28.0242 61.9448 27.9455 61.7582 27.8567 61.5769C27.8132 61.4878 27.7685 61.3988 27.712 61.3173C27.6117 61.1732 27.4767 61.0575 27.3426 60.9442C27.2238 60.8443 27.1036 60.7442 26.9679 60.669C26.8321 60.5938 26.6785 60.5438 26.5233 60.5518C26.5073 60.5527 26.4906 60.5542 26.4768 60.5629C26.4629 60.5715 26.4538 60.5863 26.4477 60.6014C26.4033 60.7113 26.49 60.8272 26.5719 60.9126C26.7112 61.0577 26.8548 61.1988 26.9879 61.3496C27.1025 61.4796 27.2336 61.6276 27.2906 61.7937C27.2628 61.8031 27.2334 61.7877 27.208 61.7729C26.8546 61.5667 26.5008 61.3602 26.1667 61.1238C26.0198 61.0198 25.8679 60.9065 25.6892 60.8853C25.677 60.8837 25.6643 60.8829 25.6536 60.8887C25.6428 60.8946 25.6363 60.9063 25.6328 60.918C25.5984 61.0315 25.8346 61.1767 25.7722 61.2456C25.7553 61.2644 25.7267 61.2662 25.7015 61.264C25.4892 61.2464 25.3265 61.0605 25.1187 61.0142C25.0663 61.0025 24.9915 61.0168 24.9898 61.0705C24.9893 61.0911 25.001 61.1099 25.0134 61.1266C25.1618 61.329 25.4066 61.4029 25.5977 61.5522C25.7923 61.7043 25.9061 61.9283 26.0083 62.1551C26.2384 62.6663 26.3394 63.2246 26.4373 63.7732C26.4373 63.7732 23.6698 63.3758 21.3305 58.7069C21.2984 58.6432 21.2592 58.6666 21.1881 58.6748C21.1173 58.6831 21.0547 58.7396 21.0395 58.8094C21.0356 58.8271 21.0345 58.846 21.0259 58.862C21.0103 58.8917 20.9736 58.9041 20.9401 58.9043C20.8205 58.9045 20.7143 58.7842 20.5988 58.8157C20.5204 58.8369 20.4753 58.9249 20.4762 59.0061C20.477 59.0874 20.513 59.1636 20.5485 59.2369C20.6367 59.4197 20.7249 59.6024 20.8131 59.7852C20.8729 59.9094 20.9342 60.0403 20.9266 60.1778C20.9195 60.3055 20.8309 60.424 20.711 60.4675C20.6287 60.4976 20.5386 60.4985 20.451 60.4914C20.451 60.4914 17.8131 58.4709 16.8854 57.2294C16.8854 57.2294 16.8245 56.8548 18.3411 55.5548C19.8578 54.2548 19.0191 52.7065 18.68 52.289C18.68 52.289 19.1097 54.2199 17.7503 54.6708C16.3911 55.1215 15.9578 55.9882 15.7411 56.2048C15.7411 56.2048 12.0725 50.7747 11.6318 48.6148C11.1911 46.4548 11.0635 33.3309 16.8689 33.8262C16.8689 33.8262 16.1181 32.7522 14.6296 32.5617C14.6296 32.5617 16.6414 31.8731 15.6495 29.3056C15.6495 29.3056 17.0544 28.0561 17.2643 26.5306C17.2643 26.5306 17.0405 27.0579 16.3907 27.1147C16.3907 27.1147 14.372 26.0212 13.1065 27.4629C13.1086 27.4581 13.1099 27.4557 13.111 27.4534C13.1128 27.4495 13.1147 27.4456 13.1164 27.4417C13.119 27.4362 13.1216 27.4306 13.1245 27.4252C13.1277 27.4183 13.1312 27.4111 13.1344 27.4042C13.1385 27.3957 13.1427 27.3873 13.1468 27.3788C13.1518 27.3689 13.1565 27.3589 13.1615 27.3489C13.1671 27.3377 13.1728 27.3262 13.1786 27.3149C13.1849 27.3021 13.1914 27.2893 13.1979 27.2766C13.2051 27.2623 13.2122 27.2482 13.2196 27.2339C13.2274 27.2183 13.2354 27.2029 13.2434 27.1873C13.2523 27.1704 13.261 27.1535 13.2698 27.1366C13.2794 27.1184 13.2889 27.1002 13.2987 27.082C13.3088 27.0625 13.3192 27.043 13.3296 27.0235C13.3407 27.0027 13.352 26.9821 13.3632 26.9613C13.3751 26.9392 13.3871 26.9173 13.3992 26.8952C13.4118 26.872 13.4245 26.8489 13.4375 26.8257C13.451 26.8012 13.4646 26.7769 13.4783 26.7524C13.4926 26.7269 13.5071 26.7013 13.5216 26.6757C13.5368 26.6491 13.5519 26.6222 13.5671 26.5956C13.5831 26.5678 13.5992 26.5399 13.6154 26.5122C13.6323 26.4831 13.649 26.4543 13.6661 26.4255C13.6837 26.3954 13.7014 26.3655 13.7192 26.3354C13.7378 26.3044 13.7563 26.2734 13.7749 26.2424C13.7942 26.2101 13.8137 26.1783 13.8332 26.1462C13.8533 26.1131 13.8737 26.0801 13.8938 26.047C13.9149 26.013 13.9361 25.9789 13.9573 25.9449C13.9792 25.91 14.0011 25.8749 14.0232 25.8401C14.0459 25.8041 14.0687 25.7683 14.0917 25.7324C14.1153 25.6955 14.1389 25.6589 14.1627 25.6221C14.1872 25.5844 14.2117 25.5467 14.2364 25.5092C14.2617 25.4706 14.2871 25.4321 14.3127 25.3937C14.3389 25.3543 14.3651 25.3151 14.3915 25.2759C14.4186 25.2356 14.4459 25.1955 14.4732 25.1554C14.5012 25.1144 14.5291 25.0737 14.5575 25.0328C14.5863 24.9912 14.6151 24.9496 14.6444 24.908C14.6741 24.8655 14.704 24.823 14.7339 24.7808C14.7646 24.7377 14.7954 24.6945 14.8262 24.6516C14.8578 24.6079 14.8894 24.5641 14.9213 24.5206C14.9536 24.4761 14.9863 24.4317 15.019 24.3873C15.0524 24.3422 15.0857 24.2974 15.1193 24.2523C15.1538 24.2066 15.188 24.1611 15.2227 24.1156C15.2578 24.0692 15.2931 24.0231 15.3286 23.9772C15.3648 23.9304 15.401 23.8836 15.4374 23.837C15.4744 23.7895 15.5115 23.7423 15.549 23.6953C15.5869 23.6474 15.625 23.5995 15.6631 23.5521C15.7021 23.5035 15.7411 23.4554 15.7804 23.4073C15.8202 23.3584 15.8603 23.3098 15.9004 23.2613C15.9411 23.2119 15.9821 23.1629 16.0232 23.114C16.0648 23.0643 16.1069 23.0147 16.1489 22.9653C16.1916 22.9153 16.2345 22.8654 16.2774 22.8158C16.3212 22.7653 16.3649 22.7151 16.4089 22.665C16.4535 22.6143 16.4982 22.5638 16.5432 22.5134C16.5887 22.4622 16.6345 22.4115 16.6804 22.3608C16.727 22.3095 16.7738 22.2583 16.8206 22.2074C16.868 22.1556 16.9157 22.1043 16.9638 22.0532C17.0121 22.0014 17.0609 21.9496 17.1096 21.8982C17.1592 21.8462 17.2088 21.7945 17.2587 21.7427C17.3092 21.6905 17.3599 21.6385 17.4106 21.5867C17.4621 21.5342 17.5137 21.4822 17.5657 21.4302C17.6181 21.3776 17.6708 21.3254 17.7236 21.2734C17.7769 21.2207 17.8307 21.1683 17.8844 21.1161C17.939 21.0634 17.9936 21.0108 18.0484 20.9586C18.1039 20.9057 18.1596 20.8533 18.2155 20.801C18.272 20.7482 18.3286 20.6955 18.3856 20.6433C18.443 20.5904 18.5006 20.5378 18.5587 20.4854C18.6172 20.4327 18.6759 20.3801 18.7348 20.3278C18.7944 20.275 18.8542 20.2223 18.9142 20.1701C18.9747 20.1175 19.0356 20.065 19.0964 20.0128C19.1582 19.9602 19.2199 19.9077 19.2819 19.8557C19.3445 19.8031 19.4076 19.7509 19.4706 19.6989C19.5343 19.6464 19.5982 19.5944 19.6624 19.5426C19.7272 19.4904 19.7922 19.4384 19.8574 19.3869C19.923 19.3346 19.9891 19.2829 20.0554 19.2315C20.1221 19.1795 20.1893 19.1282 20.2567 19.0768C20.3245 19.0252 20.3928 18.9739 20.461 18.923C20.5301 18.8716 20.5992 18.8205 20.6688 18.7698C20.7388 18.7187 20.8092 18.668 20.8796 18.6175C20.9507 18.5668 21.0222 18.5163 21.0937 18.4662C21.1658 18.4158 21.2384 18.3657 21.311 18.3159C21.3844 18.2658 21.4579 18.216 21.5318 18.1668C21.6061 18.117 21.6806 18.0676 21.7556 18.0186C21.831 17.9694 21.9068 17.9205 21.9827 17.8719C22.0594 17.823 22.1361 17.7744 22.2132 17.7263C22.2908 17.6778 22.3688 17.6299 22.447 17.5822C22.5256 17.5341 22.6047 17.4867 22.684 17.4395C22.764 17.392 22.8441 17.345 22.9245 17.2984C23.0055 17.2514 23.0868 17.205 23.1683 17.1589C23.2504 17.1125 23.3327 17.0666 23.4155 17.0211C23.4987 16.9751 23.5821 16.9299 23.6659 16.885C23.7502 16.8397 23.8349 16.7949 23.9197 16.7507C24.0052 16.706 24.091 16.6618 24.1771 16.6183C24.2637 16.5743 24.3506 16.5308 24.4377 16.4879C24.5255 16.4445 24.6136 16.4018 24.7018 16.3596C24.7909 16.3169 24.8799 16.2749 24.9694 16.2333C25.0595 16.1915 25.1499 16.1501 25.2405 16.1093C25.3317 16.0682 25.4231 16.0277 25.515 15.9876C25.6073 15.9473 25.7 15.9074 25.793 15.8682C25.8866 15.8285 25.9804 15.7895 26.0744 15.7512C26.1691 15.7124 26.2642 15.6743 26.3593 15.6366C26.4553 15.5987 26.5515 15.5614 26.6477 15.5248C26.745 15.4877 26.8423 15.4513 26.9398 15.4154C27.0381 15.3794 27.1365 15.3439 27.2353 15.3088C27.3348 15.2737 27.4344 15.239 27.5345 15.205C27.6351 15.1707 27.736 15.1372 27.837 15.1042C27.939 15.0709 28.0411 15.0381 28.1434 15.0061C28.2465 14.9738 28.3496 14.9422 28.4532 14.9112C28.5574 14.88 28.6621 14.8492 28.7667 14.8193C28.8722 14.789 28.9777 14.7595 29.0837 14.7307C29.1905 14.7014 29.2973 14.6728 29.4044 14.6451C29.5123 14.6169 29.6204 14.5896 29.7287 14.563C29.8379 14.5359 29.9473 14.5097 30.0567 14.4841C30.1672 14.4583 30.2777 14.4332 30.3885 14.4087C30.5 14.384 30.6118 14.3602 30.7239 14.337C30.8367 14.3134 30.9496 14.2906 31.0629 14.2688C31.1769 14.2464 31.2913 14.225 31.4057 14.2042C31.521 14.1832 31.6365 14.163 31.7522 14.1433C31.8687 14.1236 31.9855 14.1047 32.1025 14.0863C32.2204 14.0679 32.3382 14.0504 32.4563 14.0332C32.5755 14.0163 32.6949 13.9999 32.814 13.9843C32.9345 13.9685 33.055 13.9535 33.1757 13.9392C33.2974 13.9249 33.4192 13.9113 33.541 13.8983C33.664 13.8853 33.7871 13.8731 33.9102 13.8616C34.0343 13.8499 34.1587 13.8391 34.283 13.8291C34.4085 13.819 34.5342 13.8096 34.6598 13.801C34.7866 13.7923 34.9135 13.7845 35.0405 13.7774C35.1686 13.77 35.2966 13.7637 35.4249 13.7581C35.5542 13.7524 35.6838 13.7475 35.8131 13.7433C35.8537 13.7423 35.894 13.7423 35.9345 13.742C36.0049 13.7414 36.0747 13.7429 36.1453 13.7453C36.1778 13.7464 36.2101 13.7475 36.2426 13.7488C36.3717 13.7533 36.5006 13.7589 36.6298 13.7652C36.7576 13.7715 36.8852 13.7784 37.013 13.7862C37.1396 13.794 37.2659 13.8025 37.3924 13.8118C37.5177 13.8209 37.6429 13.8309 37.7679 13.8415C37.8918 13.8523 38.0158 13.8636 38.1397 13.8757C38.2623 13.8879 38.385 13.9006 38.5076 13.9143C38.6289 13.9277 38.7505 13.942 38.8716 13.957C38.9919 13.9717 39.1121 13.9873 39.2319 14.0036C39.3509 14.0198 39.4698 14.0367 39.5886 14.0545C39.7062 14.0718 39.8239 14.0902 39.9413 14.1091C40.0579 14.1279 40.1742 14.1474 40.2903 14.1676C40.4056 14.1877 40.5207 14.2085 40.6357 14.23C40.7497 14.2514 40.8634 14.2735 40.9772 14.2963C41.0901 14.3188 41.2025 14.342 41.315 14.3658C41.4265 14.3897 41.5379 14.4141 41.6493 14.4393C41.7596 14.4642 41.8696 14.4898 41.9797 14.5162C42.0887 14.5422 42.1977 14.5691 42.3064 14.5964C42.4143 14.6237 42.522 14.6514 42.6295 14.68C42.7363 14.7084 42.8427 14.7374 42.9491 14.7669C43.0546 14.7963 43.1599 14.8265 43.265 14.857C43.3692 14.8876 43.4732 14.9185 43.5772 14.9504C43.6801 14.9818 43.783 15.0139 43.8857 15.0466C43.9875 15.0791 44.0894 15.1122 44.1908 15.146C44.2915 15.1794 44.3918 15.2134 44.4922 15.2481C44.5916 15.2825 44.6911 15.3176 44.7901 15.3532C44.8884 15.3885 44.9866 15.4245 45.0843 15.4611C45.1816 15.4973 45.2784 15.5341 45.3751 15.5716C45.4711 15.6086 45.5668 15.6463 45.6624 15.6847C45.7573 15.7226 45.8517 15.7612 45.9462 15.8004C46.0398 15.8392 46.1332 15.8786 46.2264 15.9185C46.3189 15.9581 46.411 15.9982 46.503 16.0389C46.5945 16.0794 46.6855 16.1204 46.7763 16.1618C46.8664 16.2029 46.9565 16.2448 47.046 16.2868C47.1351 16.3288 47.2239 16.3713 47.3125 16.4142C47.4003 16.4567 47.488 16.4998 47.5753 16.5435C47.662 16.5869 47.7487 16.6306 47.8349 16.6748C47.9205 16.7188 48.0058 16.7632 48.0908 16.8081C48.1753 16.8527 48.2596 16.8978 48.3434 16.9433C48.4268 16.9886 48.51 17.0343 48.5928 17.0804C48.6749 17.1262 48.757 17.1723 48.8387 17.2191C48.9197 17.2655 49.0006 17.3123 49.0812 17.3595C49.1611 17.4063 49.2408 17.4535 49.3204 17.5014C49.3992 17.5487 49.4779 17.5965 49.5563 17.6449C49.6339 17.6927 49.7114 17.7408 49.7888 17.7896C49.8655 17.8379 49.9418 17.8867 50.018 17.9358C50.0934 17.9846 50.1688 18.0338 50.2438 18.0834C50.3183 18.1326 50.3926 18.1822 50.4665 18.232C50.54 18.2816 50.613 18.3317 50.6858 18.382C50.7582 18.4318 50.8303 18.4821 50.902 18.5328C50.9733 18.583 51.0442 18.6337 51.1148 18.6846C51.185 18.7353 51.255 18.7863 51.3245 18.8374C51.3936 18.8883 51.4623 18.9394 51.531 18.991C51.5988 19.0421 51.6666 19.0937 51.734 19.1455C51.801 19.1968 51.8677 19.2484 51.9342 19.3004C52.0001 19.352 52.0657 19.404 52.131 19.4562C52.1957 19.508 52.2603 19.56 52.3247 19.6124C52.3884 19.6644 52.4518 19.7166 52.5151 19.7691C52.5779 19.8211 52.6403 19.8735 52.7025 19.9261C52.7643 19.9784 52.8256 20.0308 52.8869 20.0834C52.9476 20.1357 53.0078 20.1883 53.068 20.2412C53.1276 20.2934 53.187 20.346 53.2461 20.3989C53.3046 20.4513 53.3629 20.504 53.421 20.5569C53.4786 20.6091 53.5358 20.6617 53.5928 20.7146C53.6494 20.767 53.7057 20.8197 53.7618 20.8725C53.8173 20.9248 53.8725 20.9774 53.9276 21.0303C53.9819 21.0825 54.0361 21.1349 54.0903 21.1878C54.1436 21.24 54.1969 21.2922 54.25 21.3449C54.3024 21.3971 54.3546 21.4493 54.4066 21.5017C54.4582 21.5537 54.5093 21.606 54.5604 21.6582C54.6107 21.71 54.661 21.762 54.711 21.8142C54.7606 21.8657 54.8098 21.9175 54.8588 21.9695C54.9073 22.0209 54.9556 22.0724 55.0035 22.1242C55.0512 22.1754 55.0984 22.2267 55.1454 22.2783C55.192 22.3292 55.2384 22.3803 55.2843 22.4315C55.3298 22.4822 55.3753 22.5329 55.4204 22.5838C55.465 22.634 55.5092 22.6845 55.5534 22.7352C55.5972 22.7851 55.6405 22.8353 55.6836 22.8856C55.7263 22.9352 55.7688 22.9848 55.811 23.0349C55.8526 23.0841 55.8942 23.1335 55.9354 23.1829C55.9761 23.2316 56.0167 23.2806 56.0572 23.3298C56.0968 23.3781 56.1365 23.4266 56.1759 23.4754C56.2147 23.5232 56.2533 23.5711 56.2918 23.6194C56.3297 23.6669 56.3674 23.7143 56.4049 23.762C56.442 23.809 56.4786 23.856 56.5152 23.9033C56.5512 23.9496 56.5872 23.996 56.6229 24.0428C56.658 24.0885 56.6929 24.1345 56.7276 24.1806C56.7618 24.2259 56.7958 24.2712 56.8296 24.3167C56.8627 24.3613 56.8959 24.4059 56.9288 24.4508C56.9611 24.4948 56.9934 24.539 57.0252 24.5832C57.0567 24.6265 57.0881 24.6701 57.1191 24.7136C57.1496 24.7563 57.1799 24.799 57.2103 24.8419C57.2397 24.8837 57.2692 24.9257 57.2987 24.968C57.3273 25.0091 57.3559 25.0505 57.3843 25.0919C57.4122 25.1324 57.4397 25.1729 57.4673 25.2135C57.4943 25.2533 57.521 25.293 57.5476 25.3328C57.5738 25.3716 57.5996 25.4106 57.6254 25.4496C57.6505 25.4878 57.6757 25.5259 57.7006 25.564C57.7249 25.6013 57.7489 25.6386 57.773 25.6758C57.7964 25.7122 57.8198 25.7486 57.8429 25.785C57.8655 25.8203 57.8878 25.8559 57.9101 25.8914C57.9318 25.9259 57.9534 25.9603 57.9749 25.995C57.9957 26.0286 58.0163 26.0621 58.0371 26.0957C58.057 26.1282 58.0767 26.1609 58.0967 26.1934C58.1157 26.2251 58.1346 26.2567 58.1536 26.2883C58.1718 26.3187 58.19 26.3492 58.208 26.38C58.2256 26.4095 58.2429 26.4389 58.26 26.4684C58.2767 26.4968 58.2932 26.5252 58.3097 26.5535C58.3255 26.5808 58.3411 26.6081 58.3567 26.6354C58.3716 26.6617 58.3863 26.6879 58.4011 26.7141C58.4152 26.739 58.4292 26.7641 58.4431 26.7891C58.4566 26.8129 58.4698 26.8367 58.4828 26.8606C58.4953 26.8833 58.5077 26.9058 58.52 26.9286C58.5317 26.9498 58.5432 26.9713 58.5547 26.9927C58.5655 27.0129 58.5764 27.033 58.5872 27.0532C58.5972 27.072 58.6071 27.0909 58.6171 27.1097C58.6262 27.1273 58.6355 27.1448 58.6446 27.1624C58.6531 27.1786 58.6615 27.1949 58.6697 27.2111C58.6775 27.2261 58.6851 27.2408 58.6927 27.2558C58.6994 27.2692 58.7064 27.2828 58.7131 27.2963C58.7192 27.3084 58.7252 27.3205 58.7313 27.3325C58.7367 27.3433 58.7419 27.3539 58.7471 27.3645C58.7516 27.3738 58.7562 27.3829 58.7607 27.3923C58.7644 27.3998 58.7681 27.4076 58.772 27.4154C58.7748 27.4215 58.7779 27.4278 58.7809 27.4341C58.7831 27.4388 58.7854 27.4434 58.7876 27.4482C58.7891 27.4514 58.7904 27.4544 58.7919 27.4577C57.529 26.0212 55.5103 27.1147 55.5103 27.1147C54.8605 27.0579 54.6367 26.5306 54.6367 26.5306C54.8467 28.0561 56.2513 29.3056 56.2513 29.3056C55.2596 31.8731 57.2714 32.5617 57.2714 32.5617C55.7829 32.7522 55.0319 33.8262 55.0319 33.8262C60.8375 33.3309 60.7099 46.4548 60.2692 48.6148ZM71.551 34.5947C71.665 34.1323 71.8316 33.6739 71.8277 33.1976C71.8216 32.4798 71.4995 31.804 71.501 31.083C71.5021 30.6678 71.5029 30.2525 71.504 29.8373C71.5053 29.1817 71.504 28.5094 71.2735 27.8958C71.2527 27.8408 71.2067 27.7749 71.1515 27.7953C71.1225 27.8061 71.1075 27.8371 71.0917 27.8635C70.9322 28.13 70.7764 27.7983 70.7331 27.6622C70.6577 27.4261 70.6198 27.1799 70.592 26.9342C70.5364 26.4422 70.5251 25.9352 70.3485 25.4665C70.323 25.3989 70.293 25.3309 70.2415 25.2804C69.9167 24.9621 69.9615 25.7111 69.9579 25.8492C69.9518 26.0786 69.9401 26.3078 69.9221 26.5364C69.8266 27.7578 69.5546 28.9685 69.0769 30.0982C68.7623 30.8425 68.3602 31.554 67.8623 32.1912C67.7232 32.3693 67.5765 32.5422 67.4192 32.7045C67.3992 32.7253 67.2461 32.8432 67.2472 32.872C67.1707 30.9397 64.819 25.7449 64.819 25.7449C64.5555 25.413 65.1396 25.3521 65.3567 25.2767C65.4794 25.234 65.6048 25.1955 65.7162 25.1285C65.8273 25.0618 65.9253 24.9619 65.9588 24.8365C65.9898 24.7201 65.963 24.5973 65.9487 24.4777C65.9454 24.4514 65.9435 24.4228 65.9575 24.4005C65.9703 24.3806 65.9933 24.37 66.0156 24.3617C66.133 24.3193 66.263 24.3171 66.3779 24.2679C66.4377 24.2426 66.4996 24.1817 66.4739 24.1223C66.4589 24.0879 66.4206 24.0712 66.3855 24.0586C66.1712 23.9811 65.9459 23.9349 65.7184 23.9219C65.5998 23.9152 65.4785 23.9171 65.3658 23.8799C65.1206 23.7991 64.9713 23.5575 64.8426 23.3334C64.7735 23.213 64.7037 23.091 64.6673 22.9569C64.6188 22.7781 64.5577 22.3938 64.7789 22.2997C64.8391 22.2739 64.9076 22.2796 64.973 22.2824C65.2231 22.2932 65.4724 22.2553 65.7197 22.2174C65.8739 22.1938 66.028 22.1702 66.1822 22.1465C66.2483 22.1366 66.3159 22.126 66.3751 22.0945C66.4342 22.0633 66.4843 22.0068 66.4897 21.9401C66.4999 21.8105 66.2912 21.7843 66.2964 21.6237C66.3029 21.4198 66.489 21.4168 66.619 21.5111C67.201 21.9331 67.8315 22.2971 68.418 22.7194C68.4421 22.7367 68.4661 22.7541 68.49 22.7714C68.3987 22.5331 68.2991 22.2958 68.1593 22.0822C67.9 21.6855 67.5165 21.3893 67.1405 21.1007C66.8903 20.9087 66.6401 20.7168 66.3898 20.5248C66.2767 20.4381 66.1634 20.351 66.0412 20.2778C65.9205 20.2052 65.792 20.1467 65.6629 20.0906C65.3374 19.9495 65.0215 19.8596 64.6786 19.7899C64.3976 19.7327 64.1285 19.4785 63.9859 19.2406C63.894 19.0874 63.8307 18.9104 63.6949 18.7945C63.5809 18.6974 63.4303 18.6567 63.2841 18.6253C62.9424 18.552 62.5797 18.5165 62.2486 18.6277C62.0647 18.6894 61.8935 18.7936 61.6964 18.7832C61.4968 18.7726 61.2775 18.6872 61.1101 18.5822C60.9047 18.453 60.7383 18.253 60.6789 18.018C60.6139 17.7612 60.6185 17.236 60.7918 17.0124C60.8776 16.9015 61.0147 16.8139 60.873 16.6577C60.836 16.6168 60.7842 16.5925 60.7331 16.5719C60.6449 16.5366 60.5539 16.5091 60.462 16.4846C60.4107 16.4707 60.3545 16.4547 60.3251 16.4105C60.2945 16.3641 60.3054 16.2983 60.3407 16.2554C60.4302 16.146 60.6137 16.1455 60.7157 16.0348C60.7755 15.97 60.8113 15.8779 60.7907 15.7924C60.7714 15.7133 60.7081 15.6517 60.6388 15.6091C60.5038 15.5259 60.3355 15.499 60.1814 15.5358C59.8241 15.6214 59.6863 15.9696 59.7169 16.3013C59.2979 16.1297 58.8728 15.8368 58.5296 15.5425C58.148 15.2156 57.685 14.6828 57.6737 14.1546C57.6726 14.1021 57.6761 14.0488 57.6653 13.9975C57.6542 13.9461 57.6256 13.8952 57.5782 13.8731C57.4792 13.827 57.3864 13.9678 57.3466 14.0389C57.1349 14.4137 56.8272 14.6774 56.432 14.8579C55.8269 15.1341 55.0332 15.2942 54.3698 15.2992C53.7512 15.3038 53.1298 15.2981 52.5097 15.2971C52.8854 15.0891 53.3484 14.8466 53.6522 14.5424C53.9403 14.2536 54.0918 13.7472 54.1182 13.3523C54.1327 13.138 54.1193 12.9228 54.1206 12.7081C54.121 12.6292 54.1234 12.5499 54.1388 12.4724C54.1496 12.4182 54.1668 12.3653 54.1845 12.3127C54.2168 12.2182 54.2523 12.1231 54.3106 12.0419C54.4125 11.9002 54.5583 11.888 54.7034 11.815C54.7325 11.8005 54.7648 11.7758 54.7593 11.7439C54.757 11.7303 54.7476 11.7188 54.7383 11.7088C54.6627 11.628 54.5529 11.5908 54.4575 11.5344C54.3509 11.4716 54.274 11.373 54.2803 11.245C54.2859 11.128 54.3069 11.0179 54.2285 10.9158C54.1724 10.8428 54.0812 10.8153 54.0017 10.7759C53.9046 10.728 53.8589 10.7003 53.8717 10.5822C53.8814 10.4912 53.8912 10.4002 53.9011 10.3092C53.9039 10.2817 53.9068 10.2526 53.8953 10.2275C53.8649 10.1616 53.7707 10.1705 53.699 10.1824C53.4024 10.2323 53.1014 10.1491 52.8122 10.0667C52.6198 10.0119 52.4276 9.95579 52.2347 9.90205C52.0941 9.86284 51.9438 9.82449 51.8536 9.69753C51.8051 9.62927 51.7862 9.54196 51.7308 9.47956C51.5464 9.27243 51.3072 9.51617 51.0966 9.51119C51.065 9.51054 51.0325 9.50555 51.0043 9.49104C50.9328 9.45421 50.9051 9.36863 50.8591 9.30298C50.7722 9.17839 50.6169 9.12228 50.4678 9.09367C50.319 9.06486 50.1636 9.05554 50.0254 8.99249C49.9519 8.95912 49.8772 8.89478 49.8854 8.81417C49.8919 8.75372 49.9433 8.70888 49.9933 8.67442C50.2091 8.52579 50.4654 8.44844 50.7209 8.39037C50.8305 8.36546 50.9423 8.34357 51.0546 8.34899C51.1668 8.35419 51.2812 8.38929 51.3635 8.466C51.4034 8.50304 51.4348 8.54854 51.4751 8.58516C51.7108 8.799 52.0504 8.68894 52.3158 8.62741C52.5145 8.58147 52.7255 8.58971 52.9201 8.65102C53.0921 8.70519 53.2485 8.79901 53.4032 8.89196C53.6262 9.02608 53.8491 9.16019 54.0723 9.29431C54.1798 9.35888 54.2942 9.42561 54.4196 9.42561C54.5448 9.42561 54.7021 9.32984 54.6956 9.20461C55.1704 9.53178 55.7289 9.72092 56.2383 9.98721C56.3369 10.0388 56.4303 10.0997 56.5226 10.1616C56.8593 10.3878 57.1836 10.6318 57.5021 10.8827C57.6616 11.0084 57.8195 11.1358 57.9768 11.2636C58.0956 11.36 58.2204 11.5063 58.3898 11.4846C58.3991 11.4833 58.4089 11.4813 58.416 11.4751C58.4277 11.4647 58.4279 11.4465 58.4266 11.4306C58.4123 11.2447 58.3274 11.1251 58.2434 10.9709C57.6809 9.9389 56.9514 9.07071 56.0115 8.36004C55.6585 8.09311 55.2867 7.85109 54.9017 7.63291C54.2781 7.27996 53.6121 6.98139 52.9246 6.77751C52.2835 6.58706 51.6008 6.42715 51.0886 5.978C50.7369 5.66969 50.4249 5.33624 50.0325 5.07212C49.4761 4.69707 48.8478 4.43166 48.1876 4.30772C47.4681 4.17274 46.8458 4.22626 46.4088 4.30512C46.8237 4.44878 47.2861 4.58549 47.6609 4.81429C47.984 5.01124 48.3488 5.13019 48.5646 5.46689C48.608 5.53449 48.6446 5.60946 48.6478 5.68963C48.6563 5.88918 48.468 6.03391 48.3001 6.14181C48.0849 6.28047 47.8696 6.41893 47.6542 6.55738C47.4603 6.68217 47.3155 6.81283 47.0731 6.79137C46.7838 6.76581 46.5022 6.62605 46.3178 6.39986C46.2764 6.34894 46.2378 6.2887 46.2424 6.22327C46.2511 6.09306 46.575 6.06641 46.6794 6.02373C46.7297 6.00336 46.7823 5.9791 46.812 5.93337C46.8811 5.82721 46.7823 5.68702 46.6705 5.62722C46.5587 5.56742 46.4229 5.53796 46.3453 5.43764C46.2857 5.3605 46.2654 5.24697 46.1787 5.20277C46.1133 5.16941 46.0309 5.19064 45.9731 5.23528C45.915 5.28012 45.8762 5.34447 45.8387 5.40731C45.6741 5.68399 45.5096 5.96046 45.345 6.23692C45.2975 6.31644 45.249 6.39748 45.1792 6.45836C45.1094 6.51924 45.0137 6.55781 44.9235 6.53658C44.8089 6.50971 44.7368 6.39921 44.6796 6.29651C44.5383 6.04301 44.4122 5.76416 44.433 5.47469C44.4495 5.24199 44.5589 4.99933 44.4653 4.78569C44.306 4.77919 44.1838 4.92241 44.1035 5.05999C43.988 5.25824 43.9022 5.47599 43.7561 5.65323C43.6103 5.83046 43.3807 5.96457 43.1566 5.91409C43.1328 5.90867 43.1081 5.90044 43.0927 5.88137C43.0788 5.86426 43.0752 5.84129 43.0741 5.81919C43.0669 5.66861 43.1672 5.51933 43.1252 5.37459C43.091 5.25672 42.974 5.18522 42.8635 5.13148C42.7796 5.09075 42.6917 5.05305 42.5983 5.04699C42.3929 5.03399 42.2042 5.13647 41.9953 5.09249C41.7962 5.05045 41.6248 4.88731 41.4842 4.74777C40.4925 3.76454 39.9688 2.41492 39.1773 1.26442C39.098 1.14894 39.0131 1.03281 38.8959 0.956322C38.6463 0.793175 38.4108 0.908875 38.3908 1.20506C38.3813 1.34741 38.4264 1.48737 38.4758 1.62128C38.8692 2.68944 39.5623 3.6406 39.8464 4.743C39.8726 4.84484 39.8954 4.94841 39.9001 5.05349C39.9097 5.26778 39.8295 5.46342 39.6986 5.63351C39.5649 5.62917 39.4672 5.50957 39.347 5.45107C39.3145 5.43504 39.2776 5.42334 39.2423 5.43071C39.1806 5.44328 39.1429 5.51022 39.1403 5.57327C39.1379 5.63611 39.1617 5.69678 39.1814 5.75658C39.2107 5.84476 39.2313 5.93597 39.2434 6.02827C39.2668 6.20898 39.0922 6.34352 38.9472 6.42629C38.752 6.53809 38.5139 6.59183 38.292 6.54697C38.0559 6.49888 37.6147 6.34483 37.65 6.03023C37.6663 5.88549 37.8147 5.78041 37.9207 5.69872C38.097 5.56331 38.2922 5.45476 38.487 5.34859C38.5507 5.31393 38.6177 5.28077 38.6649 5.22574C38.7124 5.17071 38.7351 5.08685 38.6974 5.02489C38.6476 4.94299 38.5301 4.94278 38.4357 4.95837C38.1681 5.00258 37.928 5.14427 37.6633 5.17742C37.4841 5.19974 37.286 5.20364 37.1415 5.09509C36.7797 4.82339 37.1755 4.288 37.1227 3.93896C37.1173 3.90342 37.1066 3.86572 37.0785 3.84362C37.0466 3.81849 37.0013 3.82001 36.9621 3.82954C36.7496 3.88132 36.6341 4.1086 36.5687 4.31725C36.5435 4.39699 36.5193 4.48192 36.4577 4.53848C36.3962 4.59502 36.3113 4.60976 36.2304 4.60802C36.1891 4.60715 36.1464 4.60326 36.1056 4.59567C36.0677 4.58831 36.0196 4.58311 35.9815 4.5909C35.9473 4.59784 35.9197 4.60781 35.8836 4.60802C35.8053 4.60867 35.7239 4.59307 35.6647 4.53848C35.6032 4.48192 35.5787 4.39699 35.5538 4.31725C35.4881 4.1086 35.3729 3.88132 35.1603 3.82954C35.1209 3.82001 35.0756 3.81849 35.044 3.84362C35.0156 3.86572 35.005 3.90342 34.9996 3.93896C34.9467 4.288 35.3425 4.82339 34.9809 5.09509C34.8364 5.20364 34.6384 5.19974 34.459 5.17742C34.1942 5.14427 33.9544 5.00258 33.6868 4.95837C33.5921 4.94278 33.4747 4.94299 33.425 5.02489C33.3873 5.08685 33.4099 5.17071 33.4573 5.22574C33.5048 5.28077 33.5717 5.31393 33.6354 5.34859C33.83 5.45476 34.0254 5.56331 34.2016 5.69872C34.3077 5.78041 34.4559 5.88549 34.4722 6.03023C34.5075 6.34483 34.0664 6.49888 33.8304 6.54697C33.6086 6.59183 33.3702 6.53809 33.175 6.42629C33.0303 6.34352 32.8556 6.20898 32.879 6.02827C32.891 5.93597 32.9118 5.84476 32.9408 5.75658C32.9605 5.69678 32.9843 5.63611 32.982 5.57327C32.9796 5.51022 32.9419 5.44328 32.8801 5.43071C32.8446 5.42334 32.8078 5.43504 32.7753 5.45107C32.655 5.50957 32.5573 5.62917 32.4236 5.63351C32.2927 5.46342 32.2126 5.26778 32.2221 5.05349C32.2269 4.94841 32.2496 4.84484 32.2758 4.743C32.5599 3.6406 33.2532 2.68944 33.6465 1.62128C33.6959 1.48737 33.7409 1.34741 33.7314 1.20506C33.7117 0.908875 33.4762 0.793175 33.2264 0.956322C33.1091 1.03281 33.0244 1.14894 32.9449 1.26442C32.1534 2.41492 31.6297 3.76454 30.6383 4.74777C30.4977 4.88731 30.3261 5.05045 30.1269 5.09249C29.9181 5.13647 29.7294 5.03399 29.524 5.04699C29.4308 5.05305 29.3428 5.09075 29.2588 5.13148C29.1483 5.18522 29.0315 5.25672 28.9972 5.37459C28.9552 5.51933 29.0553 5.66861 29.0484 5.81919C29.0473 5.84129 29.0434 5.86426 29.0295 5.88137C29.0141 5.90044 28.9894 5.90867 28.9656 5.91409C28.7418 5.96457 28.5119 5.83046 28.3661 5.65323C28.2203 5.47599 28.1345 5.25824 28.0188 5.05999C27.9386 4.92241 27.8162 4.77919 27.6572 4.78569C27.5636 4.99933 27.6728 5.24199 27.6894 5.47469C27.71 5.76416 27.5839 6.04301 27.4427 6.29651C27.3855 6.39921 27.3133 6.50971 27.1989 6.53658C27.1088 6.55781 27.0128 6.51924 26.943 6.45836C26.8733 6.39748 26.8247 6.31644 26.7775 6.23692C26.6128 5.96046 26.4482 5.68399 26.2835 5.40731C26.246 5.34447 26.2072 5.28012 26.1494 5.23528C26.0913 5.19064 26.009 5.16941 25.9438 5.20277C25.8569 5.24697 25.8367 5.3605 25.7769 5.43764C25.6994 5.53796 25.5637 5.56742 25.4519 5.62722C25.3401 5.68702 25.2411 5.82721 25.3104 5.93337C25.3401 5.9791 25.3928 6.00336 25.443 6.02373C25.5475 6.06641 25.8712 6.09306 25.8801 6.22327C25.8844 6.2887 25.8458 6.34894 25.8044 6.39986C25.6201 6.62605 25.3386 6.76581 25.0491 6.79137C24.8069 6.81283 24.6622 6.68217 24.468 6.55738C24.2527 6.41893 24.0375 6.28047 23.8222 6.14181C23.6542 6.03391 23.4662 5.88918 23.4744 5.68963C23.4779 5.60946 23.5143 5.53449 23.5576 5.46689C23.7736 5.13019 24.1385 5.01124 24.4613 4.81429C24.8364 4.58549 25.2985 4.44878 25.7134 4.30512C25.2766 4.22626 24.6542 4.17274 23.9346 4.30772C23.2744 4.43166 22.6463 4.69707 22.0897 5.07212C21.6973 5.33624 21.3853 5.66969 21.0337 5.978C20.5215 6.42715 19.839 6.58706 19.1978 6.77751C18.5104 6.98139 17.8443 7.27996 17.2208 7.63291C16.8355 7.85109 16.4639 8.09311 16.1108 8.36004C15.1711 9.07071 14.4414 9.9389 13.8791 10.9709C13.7948 11.1251 13.7099 11.2447 13.6956 11.4306C13.6943 11.4465 13.6945 11.4647 13.7064 11.4751C13.7134 11.4813 13.7231 11.4833 13.7324 11.4846C13.9019 11.5063 14.0269 11.36 14.1454 11.2636C14.3029 11.1358 14.4609 11.0084 14.6201 10.8827C14.9388 10.6318 15.2632 10.3878 15.5999 10.1616C15.6922 10.0997 15.7856 10.0388 15.8841 9.98721C16.3933 9.72092 16.9521 9.53178 17.4268 9.20461C17.4201 9.32984 17.5774 9.42561 17.7028 9.42561C17.8281 9.42561 17.9427 9.35888 18.0502 9.29431C18.2731 9.16019 18.4961 9.02608 18.7192 8.89196C18.8737 8.79901 19.0304 8.70519 19.2024 8.65102C19.3967 8.58971 19.6078 8.58147 19.8065 8.62741C20.0719 8.68894 20.4114 8.799 20.6471 8.58516C20.6874 8.54854 20.7188 8.50304 20.7587 8.466C20.8413 8.38929 20.9554 8.35419 21.0679 8.34899C21.1801 8.34357 21.2919 8.36546 21.4016 8.39037C21.6568 8.44844 21.9133 8.52579 22.1289 8.67442C22.179 8.70888 22.2305 8.75372 22.2368 8.81417C22.2453 8.89478 22.1705 8.95912 22.0968 8.99249C21.9588 9.05554 21.8035 9.06486 21.6544 9.09367C21.5056 9.12228 21.35 9.17839 21.2633 9.30298C21.2174 9.36863 21.1894 9.45421 21.1182 9.49104C21.0898 9.50555 21.0575 9.51054 21.0256 9.51119C20.815 9.51617 20.5758 9.27243 20.3917 9.47956C20.336 9.54196 20.3174 9.62927 20.2688 9.69753C20.1785 9.82449 20.0283 9.86284 19.8875 9.90205C19.6947 9.95579 19.5027 10.0119 19.3101 10.0667C19.021 10.1491 18.7199 10.2323 18.4233 10.1824C18.3518 10.1705 18.2573 10.1616 18.2272 10.2275C18.2157 10.2526 18.2183 10.2817 18.2213 10.3092L18.2508 10.5822C18.2636 10.7003 18.2179 10.728 18.1206 10.7759C18.0413 10.8153 17.9498 10.8428 17.8937 10.9158C17.8155 11.0179 17.8363 11.128 17.8422 11.245C17.8484 11.373 17.7713 11.4716 17.6647 11.5344C17.5694 11.5908 17.4597 11.628 17.3841 11.7088C17.3746 11.7188 17.3655 11.7303 17.3631 11.7439C17.3575 11.7758 17.39 11.8005 17.4188 11.815C17.5642 11.888 17.71 11.9002 17.8118 12.0419C17.8701 12.1231 17.9056 12.2182 17.9377 12.3127C17.9557 12.3653 17.9726 12.4182 17.9834 12.4724C17.9988 12.5499 18.0014 12.6292 18.0018 12.7081C18.0029 12.9228 17.9895 13.138 18.004 13.3523C18.0307 13.7472 18.1821 14.2536 18.4703 14.5424C18.7738 14.8466 19.2368 15.0891 19.6125 15.2971C18.9924 15.2981 18.371 15.3038 17.7527 15.2992C17.0892 15.2942 16.2956 15.1341 15.6902 14.8579C15.295 14.6774 14.9874 14.4137 14.7759 14.0389C14.7358 13.9678 14.6431 13.827 14.5443 13.8731C14.4966 13.8952 14.468 13.9461 14.4572 13.9975C14.4461 14.0488 14.4496 14.1021 14.4485 14.1546C14.4375 14.6828 13.9742 15.2156 13.5927 15.5425C13.2497 15.8368 12.8244 16.1297 12.4053 16.3013C12.4361 15.9696 12.2981 15.6214 11.9408 15.5358C11.7868 15.499 11.6184 15.5259 11.4836 15.6091C11.4141 15.6517 11.3508 15.7133 11.3318 15.7924C11.311 15.8779 11.3467 15.97 11.4065 16.0348C11.5088 16.1455 11.6921 16.146 11.7816 16.2554C11.8169 16.2983 11.8279 16.3641 11.7972 16.4105C11.7679 16.4547 11.7116 16.4707 11.6602 16.4846C11.5686 16.5091 11.4774 16.5366 11.3894 16.5719C11.338 16.5925 11.2865 16.6168 11.2494 16.6577C11.1077 16.8139 11.2447 16.9015 11.3305 17.0124C11.5038 17.236 11.5083 17.7612 11.4436 18.018C11.3842 18.253 11.2176 18.453 11.0122 18.5822C10.8449 18.6872 10.6254 18.7726 10.4259 18.7832C10.2289 18.7936 10.0575 18.6894 9.87381 18.6277C9.54252 18.5165 9.18004 18.552 8.83835 18.6253C8.69189 18.6567 8.54152 18.6974 8.42755 18.7945C8.29149 18.9104 8.22844 19.0874 8.13657 19.2406C7.994 19.4785 7.72469 19.7327 7.44367 19.7899C7.10069 19.8596 6.78479 19.9495 6.45935 20.0906C6.33022 20.1467 6.20174 20.2052 6.08105 20.2778C5.95885 20.351 5.84554 20.4381 5.73244 20.5248C5.4824 20.7168 5.23215 20.9087 4.9819 21.1007C4.60577 21.3893 4.22249 21.6855 3.96314 22.0822C3.82339 22.2958 3.72372 22.5331 3.63228 22.7714C3.65633 22.7541 3.68039 22.7367 3.70444 22.7194C4.29074 22.2971 4.92145 21.9331 5.5032 21.5111C5.6332 21.4168 5.81954 21.4198 5.82604 21.6237C5.83124 21.7843 5.62237 21.8105 5.63277 21.9401C5.63797 22.0068 5.68823 22.0633 5.74738 22.0945C5.80653 22.126 5.87414 22.1366 5.94022 22.1465C6.09427 22.1702 6.24853 22.1938 6.40258 22.2174C6.65002 22.2553 6.89918 22.2932 7.14922 22.2824C7.21465 22.2796 7.28312 22.2739 7.34357 22.2997C7.56457 22.3938 7.50369 22.7781 7.45494 22.9569C7.41854 23.091 7.34877 23.213 7.27965 23.3334C7.15117 23.5575 7.00188 23.7991 6.75662 23.8799C6.64373 23.9171 6.52262 23.9152 6.40389 23.9219C6.1766 23.9349 5.95105 23.9811 5.73699 24.0586C5.70167 24.0712 5.66332 24.0879 5.64859 24.1223C5.62259 24.1817 5.68477 24.2426 5.74435 24.2679C5.8594 24.3171 5.98918 24.3193 6.10662 24.3617C6.12893 24.37 6.15212 24.3806 6.16469 24.4005C6.17899 24.4228 6.17682 24.4514 6.17378 24.4777C6.15927 24.5973 6.1324 24.7201 6.1636 24.8365C6.19719 24.9619 6.2949 25.0618 6.40627 25.1285C6.51742 25.1955 6.64287 25.234 6.7655 25.2767C6.9826 25.3521 7.56695 25.413 7.30349 25.7449C7.30349 25.7449 4.95179 30.9397 4.87509 32.872C4.87617 32.8432 4.7232 32.7253 4.70305 32.7045C4.54597 32.5422 4.39929 32.3693 4.26019 32.1912C3.76207 31.554 3.36015 30.8425 3.04555 30.0982C2.5678 28.9685 2.29567 27.7578 2.20012 26.5364C2.18214 26.3078 2.17044 26.0786 2.16437 25.8492C2.1609 25.7111 2.20575 24.9621 1.88097 25.2804C1.8294 25.3309 1.79929 25.3989 1.77394 25.4665C1.59714 25.9352 1.58587 26.4422 1.5304 26.9342C1.50267 27.1799 1.46475 27.4261 1.38935 27.6622C1.3458 27.7983 1.19024 28.13 1.03077 27.8635C1.01474 27.8371 0.999785 27.8061 0.970752 27.7953C0.915718 27.7749 0.869566 27.8408 0.848982 27.8958C0.618232 28.5094 0.616933 29.1817 0.61845 29.8373C0.619317 30.2525 0.6204 30.6678 0.621267 31.083C0.623 31.804 0.300819 32.4798 0.294753 33.1976C0.290636 33.6739 0.457253 34.1323 0.57122 34.5947C0.671753 35.0031 0.703166 35.3821 0.595916 35.7868C0.487366 36.1965 0.613471 36.645 0.755388 37.03C0.917021 37.4683 1.12394 37.9032 1.14452 38.3701C1.15037 38.5044 1.14062 38.6392 1.15253 38.7731C1.1807 39.0873 1.32609 39.3772 1.4173 39.679C1.46259 39.8291 1.49465 39.9884 1.46497 40.1422C1.42272 40.3604 1.28709 40.5288 1.26152 40.7534C1.23292 41.0065 1.24159 41.2639 1.28752 41.5144C1.31612 41.67 1.35902 41.8249 1.35382 41.983C1.34559 42.2393 1.21277 42.472 1.1144 42.7089C0.706417 43.6908 0.651168 44.8961 0.958618 45.9142C1.026 46.1374 1.1131 46.3538 1.20128 46.5694C1.2964 46.8017 1.39542 47.0368 1.55402 47.2309C1.70135 47.4112 1.89917 47.5444 2.04412 47.726C2.17065 47.8844 2.25645 48.0854 2.31257 48.2807C2.4209 48.657 2.43433 49.1064 2.73203 49.3965C2.94718 49.606 3.26417 49.6719 3.56425 49.6836C3.79154 49.6925 4.02142 49.6754 4.24069 49.6147C4.70544 49.4862 5.14527 49.1621 5.6202 49.2453C5.8438 49.9516 6.08062 50.6543 6.33347 51.3504C6.46412 51.7105 6.60365 52.0743 6.76529 52.4227C6.81382 52.5271 6.90005 52.6513 6.89095 52.7717C6.87687 52.9598 6.7005 52.9444 6.5588 52.9516C6.4327 52.9581 6.3144 53.0458 6.27172 53.1646C6.23554 53.2644 6.2507 53.3745 6.25287 53.4807C6.25525 53.5871 6.23879 53.7045 6.15905 53.7747C6.10229 53.8245 6.02407 53.8408 5.9491 53.8488C5.87414 53.857 5.79679 53.859 5.7268 53.8869C5.54437 53.9599 5.57319 54.1534 5.7528 54.2054C5.83059 54.228 5.91314 54.2219 5.99417 54.2232C6.1844 54.2264 6.37138 54.2711 6.55577 54.3174C6.67927 54.3486 6.80342 54.3811 6.91804 54.4364C7.27792 54.6095 7.62589 55.0985 7.43327 55.4998C7.3518 55.6694 7.1906 55.7964 7.00882 55.8454C6.90309 55.8735 6.79258 55.8768 6.68317 55.8798C6.13435 55.8952 5.5903 55.9013 5.04929 55.7975C4.69265 55.7288 4.32952 55.6495 4.00755 55.4749C3.70162 55.3089 3.40067 55.0946 3.2659 54.761C3.37402 55.3681 3.52764 55.9255 3.98069 56.3704C4.25152 56.6364 4.57392 56.8431 4.89805 57.0407C5.11818 57.1751 5.34048 57.3059 5.56257 57.4368C5.73742 57.5399 5.91205 57.6428 6.0869 57.7458C6.44938 57.9594 6.82855 58.1784 7.24823 58.2107C7.37823 58.2209 7.50975 58.2125 7.6391 58.2304C7.864 58.2614 8.01567 58.4088 8.11425 58.6051C8.22129 58.8185 8.21479 59.0817 8.35887 59.273C8.43752 59.3773 8.55777 59.454 8.6882 59.462C8.85352 59.4719 9.01949 59.3747 9.17895 59.4191C9.32109 59.4585 9.44654 59.6182 9.60795 59.5645C9.74575 59.5185 9.82722 59.3727 9.9986 59.3989C10.0298 59.4037 10.0593 59.4163 10.0883 59.4286C10.2636 59.5034 10.4241 59.6113 10.5979 59.4615C10.6954 59.3777 10.7277 59.3584 10.8505 59.4056C10.9496 59.4438 11.0364 59.5014 11.1147 59.5727C11.2622 59.7068 11.3838 59.8853 11.4468 60.0749C11.5073 60.2563 11.5153 60.4534 11.4758 60.6402C11.4332 60.8434 11.3305 60.9526 11.202 61.1069C11.143 61.1778 11.0952 61.2703 11.119 61.3593C11.1682 61.5431 11.3903 61.5119 11.5118 61.6081C11.5376 61.6284 11.558 61.6583 11.5588 61.6913C11.5603 61.74 11.5222 61.779 11.4914 61.8165C11.4111 61.9138 11.3712 62.0347 11.3909 62.1608C11.3957 62.1905 11.4037 62.2199 11.4182 62.2461C11.4674 62.3356 11.5759 62.3714 11.6758 62.392C11.7339 62.4039 11.7926 62.4132 11.8518 62.4138C12.2829 62.4182 12.4361 62.0342 12.5195 61.6804C12.6073 61.8304 12.7191 61.9801 12.8824 62.0392C12.9966 62.0804 13.1203 62.0602 13.2419 62.0657C13.3374 62.07 13.4323 62.0862 13.5257 62.107C13.8267 62.174 14.135 62.3007 14.3096 62.5545C14.4589 62.7713 14.4882 63.0476 14.491 63.3108C14.494 63.5739 14.4758 63.8423 14.5471 64.0958C14.5614 64.1467 14.5844 64.2024 14.6335 64.2224C14.705 64.2512 14.7785 64.1877 14.8255 64.1266C14.8818 64.0534 14.9332 63.9764 14.9828 63.8987C15.0203 63.8397 15.0619 63.7316 15.147 63.7349C15.1811 63.7364 15.2125 63.752 15.2426 63.7676C15.7026 64.0066 16.111 64.332 16.5162 64.6555C16.9304 64.9861 17.3449 65.317 17.7592 65.6476C17.8606 65.7284 17.9719 65.8318 17.96 65.9607C17.9444 66.1292 17.7813 66.1656 17.655 66.2265C17.5932 66.2564 17.5332 66.3034 17.5176 66.3702C17.5022 66.4352 17.5336 66.5045 17.583 66.5491C17.6326 66.5938 17.6974 66.6174 17.762 66.6339C17.7984 66.6432 17.8374 66.6514 17.8649 66.677C17.9134 66.7225 17.9063 66.8 17.892 66.8648C17.8766 66.9348 17.8571 67.0054 17.8627 67.0769C17.8682 67.1484 17.905 67.2228 17.9713 67.2498C18.0402 67.278 18.1223 67.2494 18.1914 67.2774C18.274 67.3107 18.3067 67.4121 18.3045 67.5012C18.3024 67.5902 18.2757 67.6784 18.2835 67.767C18.2911 67.8559 18.3496 67.9514 18.4386 67.9562C18.5476 67.962 18.6518 67.8673 18.7604 67.8491C18.8856 67.8283 19.0156 67.8431 19.1374 67.8754C19.3309 67.9265 19.5111 68.0181 19.7022 68.0773C19.9278 68.1473 20.1887 68.1843 20.3321 68.3722C20.3668 68.4175 20.3921 68.4695 20.425 68.516C20.4861 68.6021 20.5815 68.6716 20.687 68.6714C20.8016 68.671 20.9011 68.5906 21.0139 68.57C21.1403 68.547 21.2778 68.6086 21.345 68.718C21.3766 68.7698 21.3933 68.83 21.4276 68.88C21.5149 69.0081 21.6906 69.0389 21.8455 69.0313C21.9389 69.0267 22.0353 69.0126 22.1244 69.0417C22.2134 69.0705 22.2918 69.1608 22.2689 69.2516C22.255 69.3058 22.2097 69.3457 22.1647 69.3784C21.8884 69.5799 21.5404 69.6494 21.204 69.7105C21.116 69.7263 21.0142 69.7476 20.9264 69.7201C20.8501 69.6958 20.7873 69.6332 20.7238 69.5857C20.5494 69.4557 20.3486 69.3188 20.1341 69.3537C20.0519 69.3671 19.9763 69.4052 19.8983 69.4345C19.6186 69.5398 19.2977 69.5303 19.0245 69.4087C18.914 69.3595 18.812 69.2932 18.709 69.2293C18.4168 69.0475 18.1141 68.8826 17.8027 68.7357C17.7587 68.7149 17.7126 68.6941 17.6641 68.6954C17.5078 68.7 17.4816 68.8584 17.461 68.9773C17.4578 68.9962 17.4537 69.0168 17.4394 69.0298C17.4184 69.0488 17.385 69.0434 17.3586 69.0328C17.2197 68.9771 17.1482 68.8278 17.055 68.7108C16.8071 68.3997 16.3862 68.3033 16.0217 68.144C15.5971 67.9586 15.2287 67.6715 14.8704 67.3827C14.6868 67.2345 14.5046 67.0845 14.315 66.9439C14.1421 66.8161 13.9614 66.6336 13.74 66.61C13.7285 66.6087 13.7155 66.6083 13.7066 66.6157C13.7008 66.6204 13.6978 66.628 13.6954 66.6352C13.6627 66.732 13.6904 66.8397 13.7365 66.9307C13.7827 67.0219 13.8464 67.1034 13.8921 67.1948C14.021 67.4526 14.2013 67.6918 14.3774 67.9183C14.8587 68.5371 15.4311 69.0846 16.0499 69.5643C17.0093 70.3077 18.0898 70.8872 19.2219 71.3206C19.923 71.589 20.612 71.8018 21.2512 72.21C21.6325 72.4533 21.9666 72.7527 22.3679 72.9675C22.8857 73.2446 23.4276 73.4855 23.9998 73.6166C24.5723 73.7479 25.1785 73.7659 25.7425 73.6023C25.1783 73.4147 24.6269 73.1885 24.0932 72.9263C23.9333 72.8476 23.7684 72.7601 23.667 72.6136C23.524 72.4074 23.5966 72.1242 23.7476 71.9435C23.849 71.8222 23.9823 71.732 24.1175 71.6501C24.5118 71.4109 24.9785 71.2218 25.4266 71.3312C25.6073 71.3752 25.7761 71.4675 25.9106 71.5957C26.0025 71.6835 26.0803 71.8287 26.0038 71.9301C25.9487 72.0033 25.8432 72.0102 25.7518 72.0083C25.6638 72.0065 25.5737 72.0031 25.4905 72.0317C25.4071 72.0603 25.3312 72.1292 25.3228 72.2167C25.315 72.298 25.3672 72.3753 25.4348 72.421C25.5024 72.4667 25.5834 72.4867 25.6627 72.5057C25.8612 72.5536 25.8772 72.8832 26.0777 72.922C26.2048 72.9467 26.3106 72.8292 26.3868 72.7246C26.6252 72.3972 26.8635 72.0696 27.1018 71.7422C27.1616 71.6601 27.2494 71.5676 27.3467 71.5968C27.4128 71.6168 27.4494 71.6859 27.4778 71.7487C27.5612 71.9333 27.6368 72.1214 27.7046 72.312C27.7447 72.4247 27.7824 72.5417 27.7742 72.6609C27.7596 72.8671 27.6097 73.0517 27.6238 73.2578C27.6277 73.3154 27.6504 73.3789 27.7035 73.4017C27.7794 73.4342 27.8587 73.3663 27.9087 73.3011C28.0753 73.084 28.183 72.8271 28.3453 72.6069C28.5076 72.3866 28.7518 72.1963 29.025 72.2087C29.0393 72.2093 29.0549 72.2111 29.0659 72.2204C29.0781 72.2306 29.0817 72.2475 29.0846 72.2631C29.1142 72.4347 29.0007 72.624 29.0499 72.7822C29.0746 72.8613 29.1511 72.9133 29.2291 72.9412C29.3071 72.9694 29.3907 72.9798 29.4676 73.0106C29.5764 73.0539 29.6767 73.1384 29.7935 73.1308C29.9062 73.1235 29.9941 73.0329 30.099 72.9913C30.195 72.9532 30.3074 72.9584 30.3993 73.0054C30.5503 73.0825 30.616 73.1616 30.7141 73.2996C30.814 73.44 30.9249 73.5724 31.0309 73.7082C31.7621 74.6451 32.2596 75.7484 33.001 76.6772C33.125 76.8326 33.2599 76.9864 33.4361 77.0787C33.5078 77.1162 33.6023 77.1402 33.6642 77.0882C33.6993 77.0588 33.7143 77.012 33.7238 76.9669C33.7888 76.6601 33.6809 76.3446 33.5555 76.0573C33.3869 75.6712 33.1837 75.3014 32.9969 74.9237C32.8052 74.5359 32.569 74.113 32.4559 73.6939C32.3577 73.3304 32.3996 72.8249 32.5571 72.4841C32.5378 72.4492 32.5928 72.4537 32.6327 72.455C32.6723 72.4563 32.7051 72.4856 32.7315 72.5151C32.7841 72.5742 32.8273 72.6416 32.8587 72.7144C32.8777 72.7588 32.905 72.8141 32.9536 72.8119C32.9898 72.8102 33.0147 72.7748 33.0298 72.7419C33.0727 72.6492 33.086 72.543 33.0673 72.4425C33.0457 72.3259 32.983 72.2206 32.9555 72.1053C32.928 71.9901 32.9479 71.8475 33.0504 71.7877C33.1332 71.7394 33.2402 71.7619 33.3299 71.7281C33.4987 71.6646 33.57 71.4172 33.7427 71.3663C33.9706 71.2989 33.8142 71.633 33.8703 71.7221C33.9232 71.8061 34.0256 71.8443 34.1234 71.862C34.2213 71.8798 34.3231 71.8833 34.4143 71.9225C34.5056 71.9619 34.5859 72.0512 34.5738 72.1498C34.563 72.239 34.4839 72.3023 34.4081 72.3506C34.1803 72.4951 33.9167 72.603 33.755 72.8188C33.724 72.8604 33.6967 72.907 33.6915 72.9586C33.6863 73.0099 33.708 73.0669 33.7542 73.0905C33.7838 73.1057 33.8187 73.1053 33.8519 73.1033C34.0592 73.0899 34.259 73.0182 34.4659 72.9984C34.6726 72.9787 34.9064 73.0251 35.0279 73.1937C35.1272 73.3315 35.1278 73.5161 35.1079 73.6846C35.0882 73.8534 35.0522 74.0257 35.0921 74.1908C35.107 74.2529 35.141 74.3201 35.2034 74.3344C35.2572 74.3468 35.3111 74.3147 35.3525 74.2781C35.4858 74.16 35.5581 73.9901 35.647 73.8359C35.736 73.6818 35.8604 73.5288 36.0346 73.4922C36.0526 73.4885 36.0697 73.4885 36.0877 73.4922C36.2619 73.5288 36.3862 73.6818 36.4753 73.8359C36.5643 73.9901 36.6365 74.16 36.7699 74.2781C36.8113 74.3147 36.8651 74.3468 36.919 74.3344C36.9812 74.3201 37.0154 74.2529 37.0304 74.1908C37.0702 74.0257 37.0341 73.8534 37.0143 73.6846C36.9946 73.5161 36.9951 73.3315 37.0945 73.1937C37.2158 73.0251 37.4496 72.9787 37.6565 72.9984C37.8632 73.0182 38.063 73.0899 38.2704 73.1033C38.3035 73.1053 38.3386 73.1057 38.3681 73.0905C38.4142 73.0669 38.4359 73.0099 38.4307 72.9586C38.4255 72.907 38.3982 72.8604 38.3672 72.8188C38.2056 72.603 37.9421 72.4951 37.7144 72.3506C37.6386 72.3023 37.5593 72.239 37.5484 72.1498C37.5365 72.0512 37.6169 71.9619 37.7081 71.9225C37.7991 71.8833 37.9012 71.8798 37.9989 71.862C38.0966 71.8443 38.1991 71.8061 38.2522 71.7221C38.3083 71.633 38.1516 71.2989 38.3796 71.3663C38.5522 71.4172 38.6235 71.6646 38.7923 71.7281C38.882 71.7619 38.989 71.7394 39.072 71.7877C39.1743 71.8475 39.1944 71.9901 39.1667 72.1053C39.1392 72.2206 39.0766 72.3259 39.0549 72.4425C39.0363 72.543 39.0495 72.6492 39.0924 72.7419C39.1076 72.7748 39.1325 72.8102 39.1689 72.8119C39.2172 72.8141 39.2445 72.7588 39.2638 72.7144C39.295 72.6416 39.3381 72.5742 39.3907 72.5151C39.4172 72.4856 39.4499 72.4563 39.4898 72.455C39.5294 72.4537 39.5844 72.4492 39.5654 72.4841C39.7227 72.8249 39.7645 73.3304 39.6663 73.6939C39.5532 74.113 39.3173 74.5359 39.1253 74.9237C38.9386 75.3014 38.7355 75.6712 38.567 76.0573C38.4413 76.3446 38.3336 76.6601 38.3984 76.9669C38.4079 77.012 38.4229 77.0588 38.4582 77.0882C38.5202 77.1402 38.6146 77.1162 38.6861 77.0787C38.8623 76.9864 38.9973 76.8326 39.1214 76.6772C39.8626 75.7484 40.3601 74.6451 41.0914 73.7082C41.1975 73.5724 41.3082 73.44 41.4081 73.2996C41.5065 73.1616 41.5721 73.0825 41.7229 73.0054C41.815 72.9584 41.9273 72.9532 42.0235 72.9913C42.1283 73.0329 42.2161 73.1235 42.3287 73.1308C42.4457 73.1384 42.5458 73.0539 42.6548 73.0106C42.7317 72.9798 42.8154 72.9694 42.8932 72.9412C42.9712 72.9133 43.0476 72.8613 43.0723 72.7822C43.1215 72.624 43.008 72.4347 43.0377 72.2631C43.0405 72.2475 43.0444 72.2306 43.0565 72.2204C43.0676 72.2111 43.083 72.2093 43.0975 72.2087C43.3707 72.1963 43.6147 72.3866 43.7769 72.6069C43.9392 72.8271 44.0471 73.084 44.2135 73.3011C44.2636 73.3663 44.3431 73.4342 44.4187 73.4017C44.4718 73.3789 44.4948 73.3154 44.4987 73.2578C44.5127 73.0517 44.3626 72.8671 44.3483 72.6609C44.3398 72.5417 44.3775 72.4247 44.4176 72.312C44.4854 72.1214 44.5611 71.9333 44.6445 71.7487C44.6731 71.6859 44.7095 71.6168 44.7758 71.5968C44.8731 71.5676 44.9608 71.6601 45.0206 71.7422C45.2589 72.0696 45.4973 72.3972 45.7356 72.7246C45.8117 72.8292 45.9176 72.9467 46.0448 72.922C46.2452 72.8832 46.261 72.5536 46.4595 72.5057C46.5388 72.4867 46.62 72.4667 46.6874 72.421C46.755 72.3753 46.8072 72.298 46.7994 72.2167C46.791 72.1292 46.7152 72.0603 46.632 72.0317C46.5488 72.0031 46.4584 72.0065 46.3704 72.0083C46.279 72.0102 46.1737 72.0033 46.1185 71.9301C46.0422 71.8287 46.1198 71.6835 46.2116 71.5957C46.3464 71.4675 46.515 71.3752 46.6957 71.3312C47.1437 71.2218 47.6106 71.4109 48.005 71.6501C48.1402 71.732 48.2734 71.8222 48.3748 71.9435C48.5256 72.1242 48.5982 72.4074 48.4554 72.6136C48.3538 72.7601 48.1891 72.8476 48.029 72.9263C47.4956 73.1885 46.9442 73.4147 46.38 73.6023C46.9437 73.7659 47.5502 73.7479 48.1224 73.6166C48.6948 73.4855 49.2367 73.2446 49.7543 72.9675C50.1556 72.7527 50.4897 72.4533 50.8713 72.21C51.5104 71.8018 52.1992 71.589 52.9006 71.3206C54.0326 70.8872 55.1129 70.3077 56.0723 69.5643C56.6914 69.0846 57.2636 68.5371 57.745 67.9183C57.9209 67.6918 58.1012 67.4526 58.2301 67.1948C58.2758 67.1034 58.3395 67.0219 58.3857 66.9307C58.4318 66.8397 58.4596 66.732 58.4269 66.6352C58.4245 66.628 58.4214 66.6204 58.4156 66.6157C58.4067 66.6083 58.3939 66.6087 58.3822 66.61C58.161 66.6336 57.9801 66.8161 57.8074 66.9439C57.6178 67.0845 57.4356 67.2345 57.2519 67.3827C56.8935 67.6715 56.5254 67.9586 56.1007 68.144C55.7363 68.3033 55.3151 68.3997 55.0674 68.7108C54.9741 68.8278 54.9026 68.9771 54.7639 69.0328C54.7375 69.0434 54.7039 69.0488 54.6829 69.0298C54.6688 69.0168 54.6647 68.9962 54.6614 68.9773C54.6406 68.8584 54.6144 68.7 54.4584 68.6954C54.4096 68.6941 54.3635 68.7149 54.3195 68.7357C54.0084 68.8826 53.7055 69.0475 53.4132 69.2293C53.3105 69.2932 53.2084 69.3595 53.0977 69.4087C52.8247 69.5303 52.5036 69.5398 52.2239 69.4345C52.1461 69.4052 52.0705 69.3671 51.9882 69.3537C51.7737 69.3188 51.5728 69.4557 51.3986 69.5857C51.3349 69.6332 51.2721 69.6958 51.1958 69.7201C51.1081 69.7476 51.0062 69.7263 50.9183 69.7105C50.582 69.6494 50.2338 69.5799 49.9576 69.3784C49.9125 69.3457 49.8672 69.3058 49.8536 69.2516C49.8304 69.1608 49.909 69.0705 49.9979 69.0417C50.0869 69.0126 50.1833 69.0267 50.2769 69.0313C50.4316 69.0389 50.6076 69.0081 50.6947 68.88C50.7289 68.83 50.7456 68.7698 50.7774 68.718C50.8444 68.6086 50.9822 68.547 51.1085 68.57C51.2214 68.5906 51.3206 68.671 51.4355 68.6714C51.541 68.6716 51.6361 68.6021 51.6972 68.516C51.7301 68.4695 51.7555 68.4175 51.7901 68.3722C51.9336 68.1843 52.1944 68.1473 52.4202 68.0773C52.6113 68.0181 52.7916 67.9265 52.9848 67.8754C53.1068 67.8431 53.2368 67.8283 53.3618 67.8491C53.4704 67.8673 53.5748 67.962 53.6838 67.9562C53.7726 67.9514 53.8314 67.8559 53.8389 67.767C53.8465 67.6784 53.8199 67.5902 53.8177 67.5012C53.8155 67.4121 53.8485 67.3107 53.931 67.2774C53.9999 67.2494 54.0823 67.278 54.1512 67.2498C54.2175 67.2228 54.2541 67.1484 54.2597 67.0769C54.2651 67.0054 54.2456 66.9348 54.2302 66.8648C54.2159 66.8 54.209 66.7225 54.2573 66.677C54.2848 66.6514 54.3238 66.6432 54.3602 66.6339C54.425 66.6174 54.4898 66.5938 54.5392 66.5491C54.5886 66.5045 54.6202 66.4352 54.6049 66.3702C54.589 66.3034 54.5292 66.2564 54.4675 66.2265C54.341 66.1656 54.178 66.1292 54.1624 65.9607C54.1505 65.8318 54.2619 65.7284 54.3631 65.6476C54.7775 65.317 55.1918 64.9861 55.6063 64.6555C56.0112 64.332 56.4197 64.0066 56.8797 63.7676C56.9098 63.752 56.9414 63.7364 56.9754 63.7349C57.0603 63.7316 57.1019 63.8397 57.1394 63.8987C57.189 63.9764 57.2404 64.0534 57.2969 64.1266C57.344 64.1877 57.4174 64.2512 57.4887 64.2224C57.5379 64.2024 57.5611 64.1467 57.5754 64.0958C57.6464 63.8423 57.6284 63.5739 57.6313 63.3108C57.6343 63.0476 57.6635 62.7713 57.8126 62.5545C57.9875 62.3007 58.2958 62.174 58.5965 62.107C58.6901 62.0862 58.7848 62.07 58.8806 62.0657C59.0019 62.0602 59.1256 62.0804 59.24 62.0392C59.4032 61.9801 59.515 61.8304 59.6029 61.6804C59.6863 62.0342 59.8395 62.4182 60.2707 62.4138C60.3298 62.4132 60.3886 62.4039 60.4464 62.392C60.5463 62.3714 60.6549 62.3356 60.704 62.2461C60.7185 62.2199 60.7268 62.1905 60.7313 62.1608C60.7513 62.0347 60.7112 61.9138 60.631 61.8165C60.6 61.779 60.5619 61.74 60.5634 61.6913C60.5645 61.6583 60.5846 61.6284 60.6106 61.6081C60.732 61.5119 60.9541 61.5431 61.0032 61.3593C61.0271 61.2703 60.9794 61.1778 60.9203 61.1069C60.7918 60.9526 60.6893 60.8434 60.6464 60.6402C60.607 60.4534 60.6152 60.2563 60.6754 60.0749C60.7387 59.8853 60.8602 59.7068 61.0076 59.5727C61.0858 59.5014 61.1727 59.4438 61.2717 59.4056C61.3948 59.3584 61.4268 59.3777 61.5243 59.4615C61.6981 59.6113 61.8586 59.5034 62.0341 59.4286C62.0632 59.4163 62.0924 59.4037 62.1236 59.3989C62.295 59.3727 62.3765 59.5185 62.5145 59.5645C62.6759 59.6182 62.8014 59.4585 62.9433 59.4191C63.1027 59.3747 63.2689 59.4719 63.434 59.462C63.5645 59.454 63.6849 59.3773 63.7634 59.273C63.9074 59.0817 63.9012 58.8185 64.0082 58.6051C64.1066 58.4088 64.2582 58.2614 64.4831 58.2304C64.6125 58.2125 64.744 58.2209 64.8742 58.2107C65.2937 58.1784 65.6729 57.9594 66.0356 57.7458C66.2102 57.6428 66.385 57.5399 66.5597 57.4368C66.782 57.3059 67.0041 57.1751 67.2242 57.0407C67.5483 56.8431 67.8707 56.6364 68.1415 56.3704C68.5946 55.9255 68.7484 55.3681 68.8565 54.761C68.7216 55.0946 68.4206 55.3089 68.1149 55.4749C67.7929 55.6495 67.4298 55.7288 67.0729 55.7975C66.5319 55.9013 65.9879 55.8952 65.4391 55.8798C65.3297 55.8768 65.2191 55.8735 65.1136 55.8454C64.9318 55.7964 64.7707 55.6694 64.6892 55.4998C64.4966 55.0985 64.8443 54.6095 65.2042 54.4364C65.319 54.3811 65.443 54.3486 65.5665 54.3174C65.7511 54.2711 65.938 54.2264 66.1283 54.2232C66.2091 54.2219 66.2919 54.228 66.3696 54.2054C66.5493 54.1534 66.5779 53.9599 66.3954 53.8869C66.3255 53.859 66.2483 53.857 66.1733 53.8488C66.0982 53.8408 66.0199 53.8245 65.9632 53.7747C65.8834 53.7045 65.867 53.5871 65.8694 53.4807C65.8717 53.3745 65.8867 53.2644 65.8507 53.1646C65.8078 53.0458 65.6898 52.9581 65.5636 52.9516C65.4219 52.9444 65.2456 52.9598 65.2313 52.7717C65.2224 52.6513 65.3086 52.5271 65.3569 52.4227C65.5186 52.0743 65.6581 51.7105 65.789 51.3504C66.0418 50.6543 66.2786 49.9516 66.502 49.2453C66.977 49.1621 67.417 49.4862 67.8815 49.6147C68.101 49.6754 68.3307 49.6925 68.558 49.6836C68.8581 49.6719 69.1753 49.606 69.3904 49.3965C69.6881 49.1064 69.7016 48.657 69.8097 48.2807C69.8658 48.0854 69.9516 47.8844 70.0781 47.726C70.2231 47.5444 70.4209 47.4112 70.5682 47.2309C70.727 47.0368 70.8258 46.8017 70.921 46.5694C71.0094 46.3538 71.0962 46.1374 71.1636 45.9142C71.4713 44.8961 71.416 43.6908 71.0078 42.7089C70.9095 42.472 70.7769 42.2393 70.7684 41.983C70.7632 41.8249 70.8061 41.67 70.8347 41.5144C70.8806 41.2639 70.8893 41.0065 70.8607 40.7534C70.8354 40.5288 70.6995 40.3604 70.6575 40.1422C70.6278 39.9884 70.6599 39.8291 70.7052 39.679C70.7962 39.3772 70.9417 39.0873 70.9697 38.7731C70.9818 38.6392 70.9721 38.5044 70.9779 38.3701C70.9983 37.9032 71.2052 37.4683 71.3668 37.03C71.5088 36.645 71.6349 36.1965 71.5263 35.7868C71.4191 35.3821 71.4505 35.0031 71.551 34.5947Z" fill="#677FF4"/>
</svg>
