<svg width="34" height="35" viewBox="0 0 34 35" fill="none" xmlns="http://www.w3.org/2000/svg">
    <path d="M9.95222 19.1316L13.9685 14.1733C11.9983 13.6756 9.94275 13.6175 7.94764 14.0033C5.73764 14.5487 5.39055 18.7208 5.35514 20.697C5.35267 20.8067 5.37952 20.9151 5.43293 21.0109C5.48634 21.1068 5.56437 21.1866 5.65896 21.2422C5.75354 21.2978 5.86125 21.3271 5.97097 21.3272C6.08068 21.3272 6.18842 21.298 6.28305 21.2425L9.95222 19.1316Z" fill="#FF6242"/>
    <path d="M7.96171 15.8877C9.50594 15.5701 11.0954 15.5389 12.6509 15.7956L13.9684 14.1806C11.9982 13.6829 9.94265 13.6248 7.94755 14.0106C5.73755 14.549 5.39046 18.721 5.35505 20.6973C5.35327 20.818 5.38782 20.9365 5.45421 21.0373C5.66671 18.9548 6.2263 16.3198 7.96171 15.8877Z" fill="#FF866E"/>
    <path d="M9.95222 19.1316L13.9685 14.1733C11.9983 13.6756 9.94275 13.6175 7.94764 14.0033C5.73764 14.5487 5.39055 18.7208 5.35514 20.697C5.35267 20.8067 5.37952 20.9151 5.43293 21.0109C5.48634 21.1068 5.56437 21.1866 5.65896 21.2422C5.75354 21.2978 5.86125 21.3271 5.97097 21.3272C6.08068 21.3272 6.18842 21.298 6.28305 21.2425L9.95222 19.1316Z" stroke="#45413C" stroke-width="0.708333" stroke-linecap="round" stroke-linejoin="round"/>
    <path d="M14.7759 23.9625L19.7342 19.9463C20.2316 21.9141 20.2896 23.9673 19.9042 25.96C19.3871 28.17 15.2434 28.5171 13.2388 28.5525C13.1291 28.555 13.0207 28.5282 12.9249 28.4747C12.8291 28.4213 12.7492 28.3433 12.6936 28.2487C12.638 28.1541 12.6087 28.0464 12.6086 27.9367C12.6086 27.827 12.6378 27.7193 12.6934 27.6246L14.7759 23.9625Z" fill="#FF6242"/>
    <path d="M17.9987 25.953C18.32 24.4068 18.3512 22.8143 18.0908 21.2567L19.7058 19.9463C20.2032 21.9141 20.2612 23.9673 19.8758 25.96C19.3587 28.17 15.2149 28.5171 13.2104 28.5525C13.0898 28.5535 12.9715 28.519 12.8704 28.4534C14.9529 28.2692 17.5879 27.6813 17.9987 25.953Z" fill="#FF866E"/>
    <path d="M14.7759 23.9625L19.7342 19.9463C20.2316 21.9141 20.2896 23.9673 19.9042 25.96C19.3871 28.17 15.2434 28.5171 13.2388 28.5525C13.1291 28.555 13.0207 28.5282 12.9249 28.4747C12.8291 28.4213 12.7492 28.3433 12.6936 28.2487C12.638 28.1541 12.6087 28.0464 12.6086 27.9367C12.6086 27.827 12.6378 27.7193 12.6934 27.6246L14.7759 23.9625Z" stroke="#45413C" stroke-width="0.708333" stroke-linecap="round" stroke-linejoin="round"/>
    <path d="M27.9651 15.5757C31.8042 11.5382 30.593 6.55861 29.9909 4.80902C29.9218 4.60104 29.8055 4.41191 29.6509 4.25652C29.4956 4.10533 29.3096 3.98937 29.1055 3.91652C27.3559 3.31444 22.3692 2.10319 18.3317 5.97069C13.3451 10.6882 9.91675 19.0749 9.91675 19.0749L14.8751 24.0332C14.8751 24.0332 23.2192 20.5624 27.9651 15.5757Z" fill="#E8F4FA"/>
    <path d="M19.8688 8.71194C23.7859 4.97902 28.5884 6.02027 30.4938 6.62944C30.3849 6.01156 30.2286 5.40296 30.0263 4.80902C29.9538 4.59832 29.8327 4.40769 29.6727 4.25262C29.5127 4.09754 29.3184 3.98239 29.1055 3.91652C27.3559 3.31444 22.3692 2.10319 18.3317 5.97069C13.3451 10.6882 9.91675 19.0749 9.91675 19.0749L11.8222 20.9803C12.8351 18.7207 15.8455 12.5369 19.8688 8.71194Z" fill="white"/>
    <path d="M27.9651 15.5757C31.8042 11.5382 30.593 6.55861 29.9909 4.80902C29.9218 4.60104 29.8055 4.41191 29.6509 4.25652C29.4956 4.10533 29.3096 3.98937 29.1055 3.91652C27.3559 3.31444 22.3692 2.10319 18.3317 5.97069C13.3451 10.6882 9.91675 19.0749 9.91675 19.0749L14.8751 24.0332C14.8751 24.0332 23.2192 20.5624 27.9651 15.5757Z" stroke="#45413C" stroke-width="0.708333" stroke-linecap="round" stroke-linejoin="round"/>
    <path opacity="0.15" d="M12.9058 31.6196C12.9058 31.9014 13.652 32.1717 14.9804 32.3709C16.3088 32.5702 18.1105 32.6821 19.9891 32.6821C21.8677 32.6821 23.6694 32.5702 24.9978 32.3709C26.3262 32.1717 27.0724 31.9014 27.0724 31.6196C27.0724 31.3378 26.3262 31.0676 24.9978 30.8683C23.6694 30.6691 21.8677 30.5571 19.9891 30.5571C18.1105 30.5571 16.3088 30.6691 14.9804 30.8683C13.652 31.0676 12.9058 31.3378 12.9058 31.6196Z" fill="#45413C"/>
    <path d="M16.0792 18.4728C16.1307 18.3816 16.1511 18.276 16.1372 18.1721C16.1233 18.0683 16.0759 17.9718 16.0022 17.8973C15.9285 17.8228 15.8325 17.7744 15.7288 17.7594C15.6251 17.7443 15.5194 17.7635 15.4276 17.8141C14.0476 18.5204 12.7801 19.4275 11.6663 20.5057C10.4866 21.694 9.55478 23.105 8.92507 24.6566C8.90609 24.7004 8.90059 24.749 8.90929 24.796C8.91799 24.843 8.94048 24.8864 8.97391 24.9205C9.00733 24.9547 9.05018 24.9782 9.09698 24.9879C9.14379 24.9977 9.19244 24.9933 9.23674 24.9753C10.7859 24.354 12.1967 23.432 13.3876 22.2624C14.4699 21.1415 15.3773 19.864 16.0792 18.4728Z" fill="#FF6242" stroke="#45413C" stroke-width="0.708333" stroke-linecap="round" stroke-linejoin="round"/>
    <path d="M20.0034 10.0225C20.0034 11.0539 20.4131 12.043 21.1424 12.7723C21.8717 13.5016 22.8608 13.9113 23.8922 13.9113C24.9235 13.9113 25.9126 13.5016 26.6419 12.7723C27.3712 12.043 27.7809 11.0539 27.7809 10.0225C27.7809 8.99118 27.3712 8.00206 26.6419 7.27278C25.9126 6.5435 24.9235 6.13379 23.8922 6.13379C22.8608 6.13379 21.8717 6.5435 21.1424 7.27278C20.4131 8.00206 20.0034 8.99118 20.0034 10.0225Z" fill="#C0DCEB" stroke="#45413C" stroke-width="0.708333" stroke-linecap="round" stroke-linejoin="round"/>
    <path d="M21.2217 10.0012C21.2217 10.3547 21.2913 10.7047 21.4266 11.0313C21.5618 11.3579 21.7601 11.6546 22.0101 11.9045C22.26 12.1545 22.5567 12.3527 22.8833 12.488C23.2099 12.6233 23.5599 12.6929 23.9133 12.6929C24.2668 12.6929 24.6168 12.6233 24.9434 12.488C25.27 12.3527 25.5667 12.1545 25.8166 11.9045C26.0666 11.6546 26.2649 11.3579 26.4001 11.0313C26.5354 10.7047 26.605 10.3547 26.605 10.0012C26.605 9.64776 26.5354 9.29775 26.4001 8.97118C26.2649 8.64461 26.0666 8.34789 25.8166 8.09794C25.5667 7.848 25.27 7.64973 24.9434 7.51446C24.6168 7.37919 24.2668 7.30957 23.9133 7.30957C23.5599 7.30957 23.2099 7.37919 22.8833 7.51446C22.5567 7.64973 22.26 7.848 22.0101 8.09794C21.7601 8.34789 21.5618 8.64461 21.4266 8.97118C21.2913 9.29775 21.2217 9.64776 21.2217 10.0012Z" fill="#00B8F0"/>
    <path d="M22.008 8.09562C21.7574 8.34564 21.5586 8.64263 21.423 8.96959C21.2874 9.29655 21.2175 9.64705 21.2175 10.001C21.2175 10.355 21.2874 10.7055 21.423 11.0325C21.5586 11.3594 21.7574 11.6564 22.008 11.9065C22.1882 12.0791 22.3907 12.2268 22.6101 12.3456L25.1247 7.60687C24.6206 7.34678 24.0468 7.25394 23.4865 7.34182C22.9261 7.42969 22.4083 7.69371 22.008 8.09562Z" fill="#4ACFFF"/>
    <path d="M21.2217 10.0012C21.2217 10.3547 21.2913 10.7047 21.4266 11.0313C21.5618 11.3579 21.7601 11.6546 22.0101 11.9045C22.26 12.1545 22.5567 12.3527 22.8833 12.488C23.2099 12.6233 23.5599 12.6929 23.9133 12.6929C24.2668 12.6929 24.6168 12.6233 24.9434 12.488C25.27 12.3527 25.5667 12.1545 25.8166 11.9045C26.0666 11.6546 26.2649 11.3579 26.4001 11.0313C26.5354 10.7047 26.605 10.3547 26.605 10.0012C26.605 9.64776 26.5354 9.29775 26.4001 8.97118C26.2649 8.64461 26.0666 8.34789 25.8166 8.09794C25.5667 7.848 25.27 7.64973 24.9434 7.51446C24.6168 7.37919 24.2668 7.30957 23.9133 7.30957C23.5599 7.30957 23.2099 7.37919 22.8833 7.51446C22.5567 7.64973 22.26 7.848 22.0101 8.09794C21.7601 8.34789 21.5618 8.64461 21.4266 8.97118C21.2913 9.29775 21.2217 9.64776 21.2217 10.0012Z" stroke="#45413C" stroke-width="0.708333" stroke-linecap="round" stroke-linejoin="round"/>
    <path d="M8.03237 29.6789C7.53654 30.1748 4.37737 31.2443 2.77654 31.7614C2.47904 31.8606 2.0682 31.4285 2.14612 31.131C2.6632 29.5373 3.73279 26.3781 4.27112 25.8752C4.94404 25.1668 6.7007 25.1668 7.74904 26.201C8.79737 27.2352 8.70529 29.006 8.03237 29.6789Z" fill="#FF8A14" stroke="#45413C" stroke-width="0.708333" stroke-linecap="round" stroke-linejoin="round"/>
    <path d="M7.17544 28.4888C6.82127 28.8359 5.35502 29.1972 5.05044 28.8855C4.74586 28.5738 5.10002 27.0863 5.45419 26.7605C5.68884 26.6003 5.97591 26.536 6.25647 26.5808C6.53703 26.6256 6.78981 26.7761 6.96294 27.0013C7.17938 27.1768 7.32153 27.4276 7.36094 27.7034C7.40034 27.9792 7.33409 28.2598 7.17544 28.4888Z" fill="#FFE500" stroke="#45413C" stroke-width="0.708333" stroke-linecap="round" stroke-linejoin="round"/>
    <path d="M30.6851 17.0847L31.2517 18.1543C31.2742 18.1966 31.3065 18.2329 31.346 18.26C31.3854 18.2871 31.4309 18.3043 31.4784 18.3101L32.6755 18.4518C32.7305 18.4585 32.7826 18.4805 32.8258 18.5152C32.869 18.5499 32.9017 18.596 32.9201 18.6483C32.9385 18.7006 32.9419 18.757 32.93 18.8112C32.9181 18.8653 32.8912 18.915 32.8526 18.9547L32.0096 19.8189C31.975 19.8521 31.9496 19.8937 31.936 19.9396C31.9223 19.9856 31.9209 20.0343 31.9317 20.081L32.1655 21.2639C32.1758 21.3177 32.1711 21.3734 32.1518 21.4247C32.1326 21.476 32.0995 21.521 32.0563 21.5547C32.013 21.5885 31.9613 21.6096 31.9068 21.6157C31.8524 21.6219 31.7972 21.6129 31.7476 21.5897L30.6638 21.0514C30.6209 21.0302 30.5736 21.0191 30.5257 21.0191C30.4778 21.0191 30.4305 21.0302 30.3876 21.0514L29.3321 21.6464C29.2833 21.6709 29.2287 21.6817 29.1742 21.6778C29.1197 21.6739 29.0672 21.6554 29.0223 21.6243C28.9774 21.5931 28.9416 21.5505 28.9189 21.5008C28.8961 21.4511 28.8872 21.3962 28.893 21.3418L29.0417 20.1376C29.0483 20.0909 29.0433 20.0432 29.0273 19.9987C29.0112 19.9543 28.9846 19.9145 28.9496 19.8826L28.0926 19.0751C28.0523 19.0376 28.0233 18.9896 28.0087 18.9365C27.9941 18.8833 27.9945 18.8272 28.0099 18.7744C28.0254 18.7215 28.0552 18.6739 28.096 18.637C28.1369 18.6001 28.1872 18.5752 28.2413 18.5652L29.4313 18.3597C29.4785 18.3527 29.5232 18.3341 29.5615 18.3057C29.5998 18.2773 29.6305 18.2399 29.6509 18.1968L30.1609 17.0989C30.1831 17.0487 30.2192 17.0059 30.2647 16.9754C30.3103 16.9449 30.3636 16.9279 30.4185 16.9264C30.4734 16.9249 30.5275 16.939 30.5747 16.967C30.6219 16.995 30.6601 17.0359 30.6851 17.0847Z" fill="#FFE500"/>
    <path d="M28.7088 19.6489L29.4596 19.5143C29.507 19.5079 29.552 19.4896 29.5904 19.4611C29.6288 19.4326 29.6593 19.3949 29.6792 19.3514L30.1892 18.2535C30.214 18.2043 30.252 18.163 30.2989 18.1341C30.3458 18.1052 30.3998 18.09 30.4548 18.09C30.5099 18.09 30.5639 18.1052 30.6108 18.1341C30.6577 18.163 30.6957 18.2043 30.7205 18.2535L31.2801 19.3231C31.3025 19.3654 31.3348 19.4016 31.3743 19.4287C31.4138 19.4559 31.4592 19.4731 31.5067 19.4789L32.2646 19.571L32.8526 18.9689C32.8912 18.9292 32.9181 18.8795 32.93 18.8253C32.9419 18.7712 32.9385 18.7148 32.9201 18.6625C32.9017 18.6102 32.869 18.5641 32.8258 18.5294C32.7826 18.4946 32.7305 18.4727 32.6755 18.466L31.4784 18.3243C31.4309 18.3185 31.3854 18.3013 31.346 18.2742C31.3065 18.247 31.2742 18.2108 31.2517 18.1685L30.6851 17.0989C30.6614 17.0494 30.6243 17.0076 30.5779 16.9784C30.5315 16.9491 30.4778 16.9336 30.423 16.9336C30.3681 16.9336 30.3144 16.9491 30.268 16.9784C30.2217 17.0076 30.1845 17.0494 30.1609 17.0989L29.6509 18.1968C29.6305 18.2399 29.5998 18.2773 29.5615 18.3057C29.5232 18.3341 29.4785 18.3527 29.4313 18.3597L28.2413 18.5651C28.1872 18.5752 28.1369 18.6001 28.096 18.637C28.0552 18.6739 28.0254 18.7215 28.0099 18.7744C27.9945 18.8272 27.9941 18.8833 28.0087 18.9364C28.0233 18.9896 28.0523 19.0376 28.0926 19.0751L28.7088 19.6489Z" fill="#FFF48C"/>
    <path d="M30.6851 17.0847L31.2517 18.1543C31.2742 18.1966 31.3065 18.2329 31.346 18.26C31.3854 18.2871 31.4309 18.3043 31.4784 18.3101L32.6755 18.4518C32.7305 18.4585 32.7826 18.4805 32.8258 18.5152C32.869 18.5499 32.9017 18.596 32.9201 18.6483C32.9385 18.7006 32.9419 18.757 32.93 18.8112C32.9181 18.8653 32.8912 18.915 32.8526 18.9547L32.0096 19.8189C31.975 19.8521 31.9496 19.8937 31.936 19.9396C31.9223 19.9856 31.9209 20.0343 31.9317 20.081L32.1655 21.2639C32.1758 21.3177 32.1711 21.3734 32.1518 21.4247C32.1326 21.476 32.0995 21.521 32.0563 21.5547C32.013 21.5885 31.9613 21.6096 31.9068 21.6157C31.8524 21.6219 31.7972 21.6129 31.7476 21.5897L30.6638 21.0514C30.6209 21.0302 30.5736 21.0191 30.5257 21.0191C30.4778 21.0191 30.4305 21.0302 30.3876 21.0514L29.3321 21.6464C29.2833 21.6709 29.2287 21.6817 29.1742 21.6778C29.1197 21.6739 29.0672 21.6554 29.0223 21.6243C28.9774 21.5931 28.9416 21.5505 28.9189 21.5008C28.8961 21.4511 28.8872 21.3962 28.893 21.3418L29.0417 20.1376C29.0483 20.0909 29.0433 20.0432 29.0273 19.9987C29.0112 19.9543 28.9846 19.9145 28.9496 19.8826L28.0926 19.0751C28.0523 19.0376 28.0233 18.9896 28.0087 18.9365C27.9941 18.8833 27.9945 18.8272 28.0099 18.7744C28.0254 18.7215 28.0552 18.6739 28.096 18.637C28.1369 18.6001 28.1872 18.5752 28.2413 18.5652L29.4313 18.3597C29.4785 18.3527 29.5232 18.3341 29.5615 18.3057C29.5998 18.2773 29.6305 18.2399 29.6509 18.1968L30.1609 17.0989C30.1831 17.0487 30.2192 17.0059 30.2647 16.9754C30.3103 16.9449 30.3636 16.9279 30.4185 16.9264C30.4734 16.9249 30.5275 16.939 30.5747 16.967C30.6219 16.995 30.6601 17.0359 30.6851 17.0847Z" stroke="#45413C" stroke-width="0.708333" stroke-linecap="round" stroke-linejoin="round"/>
    <path d="M22.4824 29.0556L22.6666 30.0119C22.6754 30.0493 22.6928 30.0841 22.7174 30.1136C22.742 30.1431 22.7731 30.1665 22.8083 30.1819L23.7079 30.5644C23.7464 30.5849 23.7786 30.6156 23.801 30.653C23.8235 30.6904 23.8354 30.7332 23.8354 30.7769C23.8354 30.8205 23.8235 30.8634 23.801 30.9008C23.7786 30.9382 23.7464 30.9689 23.7079 30.9894L22.8579 31.4711C22.8238 31.489 22.7949 31.5153 22.7738 31.5475C22.7527 31.5798 22.7402 31.6168 22.7374 31.6552L22.6666 32.6256C22.6627 32.6706 22.6463 32.7135 22.6192 32.7496C22.5921 32.7856 22.5555 32.8134 22.5134 32.8296C22.4713 32.8459 22.4255 32.8499 22.3812 32.8414C22.3369 32.8329 22.2959 32.8122 22.2629 32.7815L21.5545 32.1227C21.5276 32.0948 21.4936 32.0748 21.4562 32.0648C21.4187 32.0548 21.3792 32.0552 21.342 32.0661L20.3929 32.2786C20.3496 32.2875 20.3046 32.2844 20.263 32.2695C20.2214 32.2546 20.1846 32.2285 20.1568 32.1941C20.129 32.1597 20.1112 32.1184 20.1054 32.0745C20.0995 32.0307 20.1059 31.9861 20.1237 31.9456L20.5416 31.0602C20.5609 31.0268 20.571 30.989 20.571 30.9504C20.571 30.9119 20.5609 30.874 20.5416 30.8406L20.0458 30.0048C20.0232 29.9663 20.0118 29.9223 20.0128 29.8777C20.0137 29.8331 20.0271 29.7896 20.0513 29.7522C20.0756 29.7147 20.1097 29.6847 20.15 29.6655C20.1903 29.6463 20.2352 29.6387 20.2795 29.6436L21.2429 29.7569C21.2818 29.7601 21.321 29.7548 21.3577 29.7414C21.3944 29.7279 21.4277 29.7066 21.4554 29.679L22.0929 28.9706C22.1214 28.9435 22.1561 28.9238 22.194 28.9132C22.2319 28.9026 22.2718 28.9014 22.3102 28.9098C22.3486 28.9182 22.3844 28.9359 22.4145 28.9613C22.4445 28.9867 22.4678 29.0191 22.4824 29.0556Z" fill="#FFE500"/>
    <path d="M20.3716 30.5853L20.9808 30.6561C21.0198 30.6609 21.0595 30.6564 21.0964 30.6428C21.1334 30.6293 21.1666 30.6071 21.1933 30.5782L21.8308 29.8699C21.86 29.8359 21.8981 29.8108 21.9409 29.7973C21.9836 29.7838 22.0292 29.7825 22.0726 29.7936C22.1161 29.8046 22.1555 29.8275 22.1866 29.8598C22.2177 29.892 22.2392 29.9323 22.2487 29.9761L22.4399 30.9324C22.4457 30.9699 22.4612 31.0053 22.4848 31.0351C22.5084 31.0649 22.5393 31.0881 22.5745 31.1024L23.1412 31.3432L23.7362 31.0103C23.7747 30.9897 23.8069 30.9591 23.8294 30.9217C23.8518 30.8843 23.8637 30.8414 23.8637 30.7978C23.8637 30.7541 23.8518 30.7113 23.8294 30.6739C23.8069 30.6364 23.7747 30.6058 23.7362 30.5853L22.8366 30.2028C22.8014 30.1873 22.7703 30.164 22.7458 30.1345C22.7212 30.105 22.7038 30.0702 22.6949 30.0328L22.5037 29.0765C22.4943 29.0337 22.4734 28.9942 22.4432 28.9624C22.4131 28.9305 22.3748 28.9075 22.3325 28.8959C22.2902 28.8842 22.2455 28.8843 22.2033 28.8962C22.1611 28.908 22.1229 28.9312 22.0929 28.9632L21.4554 29.6715C21.4277 29.6992 21.3944 29.7205 21.3577 29.7339C21.321 29.7474 21.2818 29.7527 21.2429 29.7494L20.2795 29.6361C20.2352 29.6313 20.1903 29.6389 20.15 29.6581C20.1097 29.6772 20.0756 29.7072 20.0513 29.7447C20.0271 29.7822 20.0137 29.8256 20.0128 29.8702C20.0118 29.9149 20.0232 29.9589 20.0458 29.9974L20.3716 30.5853Z" fill="#FFF48C"/>
    <path d="M22.4824 29.0556L22.6666 30.0119C22.6754 30.0493 22.6928 30.0841 22.7174 30.1136C22.742 30.1431 22.7731 30.1665 22.8083 30.1819L23.7079 30.5644C23.7464 30.5849 23.7786 30.6156 23.801 30.653C23.8235 30.6904 23.8354 30.7332 23.8354 30.7769C23.8354 30.8205 23.8235 30.8634 23.801 30.9008C23.7786 30.9382 23.7464 30.9689 23.7079 30.9894L22.8579 31.4711C22.8238 31.489 22.7949 31.5153 22.7738 31.5475C22.7527 31.5798 22.7402 31.6168 22.7374 31.6552L22.6666 32.6256C22.6627 32.6706 22.6463 32.7135 22.6192 32.7496C22.5921 32.7856 22.5555 32.8134 22.5134 32.8296C22.4713 32.8459 22.4255 32.8499 22.3812 32.8414C22.3369 32.8329 22.2959 32.8122 22.2629 32.7815L21.5545 32.1227C21.5276 32.0948 21.4936 32.0748 21.4562 32.0648C21.4187 32.0548 21.3792 32.0552 21.342 32.0661L20.3929 32.2786C20.3496 32.2875 20.3046 32.2844 20.263 32.2695C20.2214 32.2546 20.1846 32.2285 20.1568 32.1941C20.129 32.1597 20.1112 32.1184 20.1054 32.0745C20.0995 32.0307 20.1059 31.9861 20.1237 31.9456L20.5416 31.0602C20.5609 31.0268 20.571 30.989 20.571 30.9504C20.571 30.9119 20.5609 30.874 20.5416 30.8406L20.0458 30.0048C20.0232 29.9663 20.0118 29.9223 20.0128 29.8777C20.0137 29.8331 20.0271 29.7896 20.0513 29.7522C20.0756 29.7147 20.1097 29.6847 20.15 29.6655C20.1903 29.6463 20.2352 29.6387 20.2795 29.6436L21.2429 29.7569C21.2818 29.7601 21.321 29.7548 21.3577 29.7414C21.3944 29.7279 21.4277 29.7066 21.4554 29.679L22.0929 28.9706C22.1214 28.9435 22.1561 28.9238 22.194 28.9132C22.2319 28.9026 22.2718 28.9014 22.3102 28.9098C22.3486 28.9182 22.3844 28.9359 22.4145 28.9613C22.4445 28.9867 22.4678 29.0191 22.4824 29.0556Z" stroke="#45413C" stroke-width="0.708333" stroke-linecap="round" stroke-linejoin="round"/>
    <path d="M8.4007 5.26263C8.34285 5.68833 8.15979 6.08722 7.87479 6.40868C7.58978 6.73013 7.21568 6.95964 6.79998 7.06806C6.38428 7.17648 5.94574 7.15893 5.54003 7.01763C5.13433 6.87632 4.77977 6.61765 4.52137 6.27444C4.26297 5.93124 4.11238 5.51899 4.08874 5.09003C4.06509 4.66108 4.16945 4.23477 4.38855 3.86524C4.60766 3.49571 4.93164 3.19963 5.31936 3.01459C5.70707 2.82955 6.14102 2.7639 6.56612 2.82597C7.13127 2.90849 7.641 3.21073 7.98453 3.66701C8.32806 4.12328 8.47762 4.6967 8.4007 5.26263Z" fill="#9CEB60"/>
    <path d="M6.56641 4.36978C6.95218 4.43025 7.31444 4.59381 7.61492 4.84318C7.9154 5.09254 8.14294 5.41844 8.27349 5.78645C8.33909 5.61816 8.38197 5.44189 8.40099 5.26228C8.47167 4.69742 8.31728 4.12742 7.97119 3.67544C7.6251 3.22346 7.11509 2.92578 6.55134 2.8467C5.98759 2.76763 5.41536 2.91351 4.95828 3.25284C4.50119 3.59216 4.19595 4.09769 4.10849 4.6602C4.06863 5.02525 4.11722 5.39454 4.25016 5.73686C4.428 5.28297 4.75274 4.90172 5.17256 4.65393C5.59238 4.40615 6.0831 4.30611 6.56641 4.36978Z" fill="#C8FFA1"/>
    <path d="M8.4007 5.26263C8.34285 5.68833 8.15979 6.08722 7.87479 6.40868C7.58978 6.73013 7.21568 6.95964 6.79998 7.06806C6.38428 7.17648 5.94574 7.15893 5.54003 7.01763C5.13433 6.87632 4.77977 6.61765 4.52137 6.27444C4.26297 5.93124 4.11238 5.51899 4.08874 5.09003C4.06509 4.66108 4.16945 4.23477 4.38855 3.86524C4.60766 3.49571 4.93164 3.19963 5.31936 3.01459C5.70707 2.82955 6.14102 2.7639 6.56612 2.82597C7.13127 2.90849 7.641 3.21073 7.98453 3.66701C8.32806 4.12328 8.47762 4.6967 8.4007 5.26263Z" stroke="#45413C" stroke-width="0.708333" stroke-linecap="round" stroke-linejoin="round"/>
    <path d="M4.15079 5.47505C3.61246 5.84339 2.52871 6.67922 2.83329 7.28839C3.13787 7.89755 10.2637 3.64047 10.0158 3.03839C9.76787 2.4363 8.24496 3.12339 7.70662 3.37839" stroke="#45413C" stroke-width="0.708333" stroke-linecap="round" stroke-linejoin="round"/>
</svg>
