<svg width="24" height="24" viewBox="0 0 24 24" fill="none" xmlns="http://www.w3.org/2000/svg">
    <path d="M20.0311 20.7901C20.4911 21.2501 21.2011 20.5401 20.7411 20.0901L16.9911 16.3301C18.3065 14.8746 19.0336 12.9819 19.0311 11.0201C19.0311 6.63006 15.4611 3.06006 11.0711 3.06006C6.68108 3.06006 3.11108 6.63006 3.11108 11.0201C3.11108 15.4101 6.68108 18.9801 11.0711 18.9801C13.0511 18.9801 14.8811 18.2501 16.2811 17.0401L20.0311 20.7901ZM4.11008 11.0201C4.11008 7.18006 7.24008 4.06006 11.0701 4.06006C14.9101 4.06006 18.0301 7.18006 18.0301 11.0201C18.0301 14.8601 14.9101 17.9801 11.0701 17.9801C7.24008 17.9801 4.11008 14.8601 4.11008 11.0201Z" fill="#707070"/>
</svg>
