<svg width="24" height="24" viewBox="0 0 24 24" fill="none" xmlns="http://www.w3.org/2000/svg">
    <path d="M17.5312 11.7499C17.5641 11.7868 17.5893 11.8298 17.6055 11.8765C17.6216 11.9232 17.6285 11.9726 17.6255 12.0219C17.6226 12.0712 17.61 12.1195 17.5885 12.1639C17.5669 12.2084 17.5368 12.2481 17.4998 12.281C17.4629 12.3138 17.4199 12.339 17.3732 12.3552C17.3265 12.3713 17.2771 12.3782 17.2278 12.3752C17.1785 12.3723 17.1302 12.3597 17.0858 12.3382C17.0413 12.3166 17.0016 12.2865 16.9688 12.2496C16.65 11.8933 15.9637 11.6252 15.375 11.6252C14.7863 11.6252 14.0981 11.8933 13.7813 12.2496C13.7459 12.2892 13.7026 12.3209 13.6541 12.3426C13.6056 12.3642 13.5531 12.3753 13.5 12.3752C13.4274 12.3756 13.3563 12.3549 13.2952 12.3156C13.2341 12.2764 13.1858 12.2202 13.156 12.154C13.1262 12.0878 13.1163 12.0144 13.1274 11.9426C13.1386 11.8709 13.1703 11.8039 13.2188 11.7499C13.68 11.2342 14.5659 10.8752 15.375 10.8752C16.1841 10.8752 17.0681 11.2342 17.5312 11.7499ZM10.2188 12.2496C10.2516 12.2865 10.2913 12.3166 10.3358 12.3382C10.3802 12.3597 10.4285 12.3723 10.4778 12.3752C10.5271 12.3782 10.5765 12.3713 10.6232 12.3552C10.6699 12.339 10.7129 12.3138 10.7498 12.281C10.7868 12.2481 10.8169 12.2084 10.8385 12.1639C10.86 12.1195 10.8726 12.0712 10.8755 12.0219C10.8785 11.9726 10.8716 11.9232 10.8555 11.8765C10.8393 11.8298 10.8141 11.7868 10.7813 11.7499C10.32 11.2342 9.43406 10.8752 8.625 10.8752C7.81594 10.8752 6.93188 11.2342 6.46875 11.7499C6.42029 11.8039 6.38856 11.8709 6.37742 11.9426C6.36627 12.0144 6.37619 12.0878 6.40597 12.154C6.43575 12.2202 6.48411 12.2764 6.54518 12.3156C6.60625 12.3549 6.6774 12.3756 6.75 12.3752C6.8031 12.3753 6.85563 12.3642 6.90412 12.3426C6.95261 12.3209 6.99594 12.2892 7.03125 12.2496C7.35 11.8933 8.03625 11.6252 8.625 11.6252C9.21375 11.6252 9.90188 11.8933 10.2188 12.2496ZM14.9344 15.5064C14.5746 15.9351 14.1252 16.2798 13.618 16.5163C13.1107 16.7528 12.5578 16.8754 11.9981 16.8754C11.4384 16.8754 10.8855 16.7528 10.3783 16.5163C9.87102 16.2798 9.42169 15.9351 9.06188 15.5064C8.99723 15.4307 8.90515 15.3838 8.80591 15.376C8.70666 15.3681 8.60837 15.4001 8.53266 15.4647C8.45695 15.5294 8.41002 15.6214 8.40219 15.7207C8.39437 15.8199 8.42629 15.9182 8.49094 15.9939C8.92144 16.5048 9.45838 16.9155 10.0642 17.1973C10.67 17.479 11.33 17.625 11.9981 17.625C12.6662 17.625 13.3263 17.479 13.9321 17.1973C14.5379 16.9155 15.0748 16.5048 15.5053 15.9939C15.5373 15.9564 15.5616 15.913 15.5769 15.8661C15.5921 15.8192 15.5979 15.7698 15.5941 15.7207C15.5902 15.6715 15.5767 15.6236 15.5543 15.5797C15.5319 15.5358 15.5011 15.4967 15.4636 15.4647C15.4261 15.4327 15.3827 15.4084 15.3358 15.3932C15.2889 15.3779 15.2395 15.3721 15.1903 15.376C15.1412 15.3798 15.0933 15.3934 15.0494 15.4157C15.0055 15.4381 14.9664 15.4689 14.9344 15.5064ZM20.625 4.50018V9.72955C20.625 13.0108 19.7437 16.1046 18.1425 18.4408C16.5122 20.8174 14.3306 22.1252 12 22.1252C9.66938 22.1252 7.48781 20.8174 5.8575 18.4417C4.25625 16.1092 3.375 13.0155 3.375 9.73049V4.50018C3.37481 4.31723 3.41925 4.13699 3.50445 3.97509C3.58965 3.81319 3.71305 3.67452 3.86396 3.57108C4.01486 3.46765 4.18871 3.40258 4.37045 3.38151C4.55218 3.36044 4.73631 3.38401 4.90688 3.45018C6.24938 3.9733 8.95594 4.84705 12 4.84705C15.0441 4.84705 17.7506 3.9733 19.0931 3.45205C19.2635 3.38594 19.4475 3.36236 19.6291 3.38333C19.8107 3.4043 19.9844 3.46921 20.1353 3.57243C20.2861 3.67565 20.4096 3.81407 20.4949 3.97572C20.5802 4.13738 20.6249 4.31739 20.625 4.50018ZM19.875 4.50018C19.8751 4.43922 19.8604 4.37915 19.8321 4.32517C19.8037 4.27119 19.7627 4.22493 19.7125 4.19039C19.6622 4.15586 19.6043 4.13409 19.5438 4.12697C19.4832 4.11986 19.4219 4.12761 19.365 4.14955C17.9738 4.68768 15.1659 5.59705 12 5.59705C8.83406 5.59705 6.02625 4.68768 4.635 4.15049C4.59186 4.13409 4.54615 4.12552 4.5 4.12518C4.42522 4.12498 4.3522 4.1479 4.29094 4.1908C4.24014 4.22492 4.19845 4.27095 4.16953 4.32487C4.14061 4.3788 4.12532 4.43899 4.125 4.50018V9.72861C4.125 16.1514 7.6575 21.3752 12 21.3752C16.3425 21.3752 19.875 16.1514 19.875 9.73049V4.50018Z" fill="#707070"/>
</svg>
