<svg width="24" height="24" viewBox="0 0 24 24" fill="none" xmlns="http://www.w3.org/2000/svg">
    <path d="M11.625 12C11.625 12.0995 11.5855 12.1948 11.5152 12.2652C11.4448 12.3355 11.3495 12.375 11.25 12.375H4.5C4.40054 12.375 4.30516 12.3355 4.23484 12.2652C4.16451 12.1948 4.125 12.0995 4.125 12C4.125 11.9005 4.16451 11.8052 4.23484 11.7348C4.30516 11.6645 4.40054 11.625 4.5 11.625H11.25C11.3495 11.625 11.4448 11.6645 11.5152 11.7348C11.5855 11.8052 11.625 11.9005 11.625 12ZM4.5 6.375H17.25C17.3495 6.375 17.4448 6.33549 17.5152 6.26517C17.5855 6.19484 17.625 6.09946 17.625 6C17.625 5.90054 17.5855 5.80516 17.5152 5.73484C17.4448 5.66451 17.3495 5.625 17.25 5.625H4.5C4.40054 5.625 4.30516 5.66451 4.23484 5.73484C4.16451 5.80516 4.125 5.90054 4.125 6C4.125 6.09946 4.16451 6.19484 4.23484 6.26517C4.30516 6.33549 4.40054 6.375 4.5 6.375ZM9.75 17.625H4.5C4.40054 17.625 4.30516 17.6645 4.23484 17.7348C4.16451 17.8052 4.125 17.9005 4.125 18C4.125 18.0995 4.16451 18.1948 4.23484 18.2652C4.30516 18.3355 4.40054 18.375 4.5 18.375H9.75C9.84946 18.375 9.94484 18.3355 10.0152 18.2652C10.0855 18.1948 10.125 18.0995 10.125 18C10.125 17.9005 10.0855 17.8052 10.0152 17.7348C9.94484 17.6645 9.84946 17.625 9.75 17.625ZM21.2653 15.4847C21.2305 15.4498 21.1891 15.4222 21.1436 15.4033C21.0981 15.3844 21.0493 15.3747 21 15.3747C20.9507 15.3747 20.9019 15.3844 20.8564 15.4033C20.8109 15.4222 20.7695 15.4498 20.7347 15.4847L17.625 18.5944V10.5C17.625 10.4005 17.5855 10.3052 17.5152 10.2348C17.4448 10.1645 17.3495 10.125 17.25 10.125C17.1505 10.125 17.0552 10.1645 16.9848 10.2348C16.9145 10.3052 16.875 10.4005 16.875 10.5V18.5944L13.7653 15.4847C13.6949 15.4143 13.5995 15.3748 13.5 15.3748C13.4005 15.3748 13.3051 15.4143 13.2347 15.4847C13.1643 15.5551 13.1248 15.6505 13.1248 15.75C13.1248 15.8495 13.1643 15.9449 13.2347 16.0153L16.9847 19.7653C17.0195 19.8002 17.0609 19.8278 17.1064 19.8467C17.1519 19.8656 17.2007 19.8753 17.25 19.8753C17.2993 19.8753 17.3481 19.8656 17.3936 19.8467C17.4391 19.8278 17.4805 19.8002 17.5153 19.7653L21.2653 16.0153C21.3002 15.9805 21.3278 15.9391 21.3467 15.8936C21.3656 15.8481 21.3753 15.7993 21.3753 15.75C21.3753 15.7007 21.3656 15.6519 21.3467 15.6064C21.3278 15.5609 21.3002 15.5195 21.2653 15.4847Z" fill="#707070"/>
</svg>
