<svg width="46" height="46" viewBox="0 0 46 46" fill="none" xmlns="http://www.w3.org/2000/svg">
    <rect width="46" height="46" rx="23" fill="#FF5630" fill-opacity="0.11"/>
    <path fill-rule="evenodd" clip-rule="evenodd" d="M22.25 13C22.25 12.8011 22.329 12.6103 22.4697 12.4697C22.6103 12.329 22.8011 12.25 23 12.25C28.937 12.25 33.75 17.063 33.75 23C33.75 28.937 28.937 33.75 23 33.75C17.063 33.75 12.25 28.937 12.25 23C12.25 22.8011 12.329 22.6103 12.4697 22.4697C12.6103 22.329 12.8011 22.25 13 22.25C13.1989 22.25 13.3897 22.329 13.5303 22.4697C13.671 22.6103 13.75 22.8011 13.75 23C13.75 24.8295 14.2925 26.6179 15.3089 28.139C16.3253 29.6602 17.77 30.8458 19.4602 31.5459C21.1504 32.246 23.0103 32.4292 24.8046 32.0723C26.5989 31.7154 28.2471 30.8344 29.5407 29.5407C30.8344 28.2471 31.7154 26.5989 32.0723 24.8046C32.4292 23.0103 32.246 21.1504 31.5459 19.4602C30.8458 17.77 29.6602 16.3253 28.139 15.3089C26.6179 14.2925 24.8295 13.75 23 13.75C22.8011 13.75 22.6103 13.671 22.4697 13.5303C22.329 13.3897 22.25 13.1989 22.25 13Z" fill="#FF5630"/>
    <path opacity="0.5" fill-rule="evenodd" clip-rule="evenodd" d="M20.1 13.3978C20.1355 13.4897 20.1525 13.5878 20.1501 13.6863C20.1477 13.7848 20.1259 13.8818 20.086 13.9719C20.0461 14.062 19.9888 14.1433 19.9174 14.2113C19.846 14.2792 19.7619 14.3324 19.67 14.3678C19.5289 14.4224 19.3892 14.4804 19.251 14.5418C19.1607 14.5838 19.0629 14.6074 18.9634 14.6111C18.8638 14.6149 18.7645 14.5988 18.6713 14.5638C18.5781 14.5288 18.4927 14.4756 18.4203 14.4072C18.3478 14.3389 18.2897 14.2568 18.2493 14.1657C18.209 14.0747 18.1871 13.9765 18.1851 13.8769C18.1831 13.7773 18.2009 13.6783 18.2375 13.5857C18.2742 13.4931 18.3289 13.4087 18.3985 13.3375C18.4681 13.2663 18.5512 13.2096 18.643 13.1708C18.8036 13.0991 18.966 13.0314 19.13 12.9678C19.2219 12.9323 19.3199 12.9153 19.4184 12.9177C19.5169 12.9201 19.614 12.9419 19.7041 12.9818C19.7942 13.0218 19.8755 13.0791 19.9434 13.1504C20.0114 13.2218 20.0646 13.3059 20.1 13.3978ZM16.648 15.2408C16.785 15.3849 16.8593 15.5774 16.8544 15.7762C16.8495 15.975 16.7659 16.1637 16.622 16.3008C16.512 16.4058 16.406 16.5128 16.302 16.6218C16.2341 16.6932 16.1528 16.7505 16.0628 16.7905C15.9727 16.8304 15.8757 16.8523 15.7772 16.8547C15.6788 16.8572 15.5808 16.8402 15.4888 16.8048C15.3969 16.7694 15.3129 16.7162 15.2415 16.6483C15.1701 16.5804 15.1128 16.4991 15.0729 16.4091C15.0329 16.3191 15.0111 16.222 15.0086 16.1236C15.0061 16.0251 15.0231 15.9271 15.0585 15.8352C15.0939 15.7432 15.1471 15.6592 15.215 15.5878C15.336 15.4608 15.461 15.3358 15.588 15.2148C15.732 15.0778 15.9246 15.0035 16.1234 15.0084C16.3221 15.0133 16.5108 15.0969 16.648 15.2408ZM14.161 18.2598C14.3426 18.3408 14.4847 18.4905 14.556 18.6761C14.6272 18.8618 14.6218 19.0681 14.541 19.2498C14.481 19.3878 14.422 19.5278 14.368 19.6698C14.2964 19.8555 14.154 20.0051 13.972 20.0857C13.7901 20.1664 13.5836 20.1714 13.398 20.0998C13.2123 20.0282 13.0627 19.8858 12.9821 19.7039C12.9015 19.522 12.8964 19.3155 12.968 19.1298C13.032 18.9648 13.099 18.8018 13.171 18.6418C13.211 18.5518 13.2683 18.4705 13.3397 18.4027C13.4111 18.3348 13.4951 18.2816 13.5871 18.2463C13.679 18.2109 13.777 18.194 13.8755 18.1965C13.974 18.199 14.071 18.2198 14.161 18.2598Z" fill="#FF5630"/>
    <path opacity="0.5" d="M23 19.25C23.1989 19.25 23.3897 19.329 23.5303 19.4697C23.671 19.6103 23.75 19.8011 23.75 20V23.25H27C27.1989 23.25 27.3897 23.329 27.5303 23.4697C27.671 23.6103 27.75 23.8011 27.75 24C27.75 24.1989 27.671 24.3897 27.5303 24.5303C27.3897 24.671 27.1989 24.75 27 24.75H23C22.8011 24.75 22.6103 24.671 22.4697 24.5303C22.329 24.3897 22.25 24.1989 22.25 24V20C22.25 19.8011 22.329 19.6103 22.4697 19.4697C22.6103 19.329 22.8011 19.25 23 19.25Z" fill="#FF5630"/>
</svg>
