<svg width="46" height="46" viewBox="0 0 46 46" fill="none" xmlns="http://www.w3.org/2000/svg">
    <rect width="46" height="46" rx="23" fill="#FF5630" fill-opacity="0.11"/>
    <path d="M27 27C27 25.895 23.866 25 20 25M27 27C27 28.105 23.866 29 20 29C16.134 29 13 28.105 13 27M27 27V31.937C27 33.076 23.866 34 20 34C16.134 34 13 33.077 13 31.937V27M27 27C30.824 27 34 26.013 34 25V15M20 25C16.134 25 13 25.895 13 27M20 25C15.582 25 12 24.013 12 23V18M20 16C15.582 16 12 16.895 12 18M12 18C12 19.105 15.582 20 20 20C20 21.013 23.253 22 27.077 22C30.9 22 34 21.013 34 20M34 15C34 13.895 30.9 13 27.077 13C23.253 13 20.154 13.895 20.154 15M34 15C34 16.105 30.9 17 27.077 17C23.254 17 20.154 16.105 20.154 15M20.154 15V25.166" stroke="#FF5630" stroke-width="2"/>
</svg>
